<svg width="54" height="58" viewBox="0 0 54 58" fill="none" xmlns="http://www.w3.org/2000/svg">
<g filter="url(#filter0_d)">
<path d="M30.6067 2H6.65441C5.7407 2 5 2.80176 5 3.79079V12.0131C5 13.0021 5.7407 13.8039 6.65441 13.8039H30.6067C31.5204 13.8039 32.2611 13.0021 32.2611 12.0131V3.79079C32.2611 2.80176 31.5204 2 30.6067 2Z" fill="#05BFCE"/>
<path d="M46.9641 19.7051H6.65441C5.7407 19.7051 5 20.5069 5 21.4959V29.7182C5 30.7073 5.7407 31.509 6.65441 31.509H46.9641C47.8778 31.509 48.6185 30.7073 48.6185 29.7182V21.4959C48.6185 20.5069 47.8778 19.7051 46.9641 19.7051Z" fill="#FFCD10"/>
<path d="M33.3284 37.4109H28.4643C27.5506 37.4109 26.8099 38.2127 26.8099 39.2017V47.424C26.8099 48.4131 27.5506 49.2148 28.4643 49.2148H33.3284C34.2421 49.2148 34.9828 48.4131 34.9828 47.424V39.2017C34.9828 38.2127 34.2421 37.4109 33.3284 37.4109Z" fill="#95BF15"/>
<path d="M19.679 37.5809H6.74883C5.83513 37.5809 5.09442 38.3827 5.09442 39.3717V47.3752C5.09442 48.3643 5.83513 49.166 6.74883 49.166H19.679C20.5927 49.166 21.3334 48.3643 21.3334 47.3752V39.3717C21.3334 38.3827 20.5927 37.5809 19.679 37.5809Z" fill="#EE1700"/>
<path d="M46.9641 37.4109H42.2455C41.3318 37.4109 40.5911 38.2127 40.5911 39.2017V47.424C40.5911 48.4131 41.3318 49.2148 42.2455 49.2148H46.9641C47.8778 49.2148 48.6185 48.4131 48.6185 47.424V39.2017C48.6185 38.2127 47.8778 37.4109 46.9641 37.4109Z" fill="#205B67"/>
<path d="M46.964 2.00067H39.3679C38.4542 2.00067 37.7135 2.80244 37.7135 3.79146V12.0138C37.7135 13.0028 38.4542 13.8046 39.3679 13.8046H46.964C47.8777 13.8046 48.6184 13.0028 48.6184 12.0138V3.79146C48.6184 2.80244 47.8777 2.00067 46.964 2.00067Z" fill="#0060FF"/>
</g>
<defs>
<filter id="filter0_d" x="0" y="0" width="53.6185" height="57.2148" filterUnits="userSpaceOnUse" color-interpolation-filters="sRGB">
<feFlood flood-opacity="0" result="BackgroundImageFix"/>
<feColorMatrix in="SourceAlpha" type="matrix" values="0 0 0 0 0 0 0 0 0 0 0 0 0 0 0 0 0 0 127 0"/>
<feOffset dy="3"/>
<feGaussianBlur stdDeviation="2.5"/>
<feColorMatrix type="matrix" values="0 0 0 0 0 0 0 0 0 0 0 0 0 0 0 0 0 0 0.3 0"/>
<feBlend mode="normal" in2="BackgroundImageFix" result="effect1_dropShadow"/>
<feBlend mode="normal" in="SourceGraphic" in2="effect1_dropShadow" result="shape"/>
</filter>
</defs>
</svg>
