<svg width="180" height="55" viewBox="0 0 180 55" fill="none" xmlns="http://www.w3.org/2000/svg">
<path d="M8.0407 29.0117V5.79533H0V0.952026H21.9182V5.79533H13.8601V29.0117H8.0407Z" fill="white"/>
<path d="M23.8877 2.93481C23.8877 1.24467 25.2386 0 26.897 0C28.5554 0 29.9063 1.24467 29.9063 2.93481C29.9063 4.58563 28.5554 5.86961 26.897 5.86961C25.2343 5.87398 23.8877 4.59 23.8877 2.93481ZM24.0782 8.16679H29.7071V29.0118H24.0782V8.16679Z" fill="white"/>
<path d="M33.4492 8.16677H38.8876V11.9183H39.0045C40.1823 9.25422 42.2823 7.85669 45.4605 7.85669C50.0502 7.85669 52.6308 10.774 52.6308 15.6523V29.0117H47.0019V16.8402C47.0019 14.1194 45.7506 12.5646 43.1829 12.5646C40.6369 12.5646 39.0781 14.4294 39.0781 17.1546V29.0161H33.4492V8.16677Z" fill="white"/>
<path d="M69.0543 8.16676H75.4367L67.5519 17.1109L75.822 29.0117H69.3445L63.4254 20.5349L61.9619 22.1289V29.0117H56.333V0.952026H61.9619V16.5257H62.0399L69.0543 8.16676Z" fill="white"/>
<path d="M95.3277 22.6311C94.7128 26.6927 90.9717 29.3786 85.9014 29.3786C79.5796 29.3786 75.7217 25.317 75.7217 18.6831C75.7217 12.0318 79.597 7.79553 85.6892 7.79553C91.6862 7.79553 95.5008 11.8222 95.5008 18.1591V19.8885H81.2553V20.2379C81.2553 23.1727 83.1648 25.1773 85.9966 25.1773C88.0187 25.1773 89.6381 24.2034 90.162 22.6311H95.3277ZM81.316 16.4122H90.0884C89.9715 13.7481 88.2395 11.9968 85.7498 11.9968C83.2991 11.9968 81.5065 13.8049 81.316 16.4122Z" fill="white"/>
<path d="M98.3936 8.16675H103.832V11.9182H103.949C104.663 9.33281 106.434 7.91345 108.863 7.91345C109.517 7.91345 110.058 7.99206 110.465 8.12745V13.1236C110.002 12.9271 109.231 12.7917 108.422 12.7917C105.646 12.7917 104.027 14.5037 104.027 17.4385V29.0074H98.3979V8.16675H98.3936Z" fill="white"/>
<path d="M132.362 29.0117V16.2375H117.094V29.0117H113.626V0.952026H117.094V13.0843H132.362V0.952026H135.83V29.0074H132.362V29.0117Z" fill="white"/>
<path d="M157.172 29.0117H153.99V25.6489H153.912C152.678 28.0028 150.634 29.2082 147.551 29.2082C143.174 29.2082 140.61 26.352 140.61 21.762V8.79123H143.966V21.1593C143.966 24.4435 145.49 26.2166 148.595 26.2166C151.851 26.2166 153.821 23.9631 153.821 20.5217V8.78687H157.177V29.0117H157.172Z" fill="white"/>
<path d="M164.962 25.5878H164.884V29.0117H161.685V0.952026H165.04V12.0755H165.118C166.37 9.85689 168.703 8.59475 171.54 8.59475C176.588 8.59475 180 12.7174 180 18.9015C180 25.103 176.588 29.2083 171.479 29.2083C168.548 29.2039 166.253 27.9199 164.962 25.5878ZM165.019 18.8971C165.019 23.2513 167.37 26.2079 170.821 26.2079C174.289 26.2079 176.567 23.3517 176.567 18.8971C176.567 14.4644 174.293 11.5863 170.821 11.5863C167.37 11.5863 165.019 14.5648 165.019 18.8971Z" fill="white"/>
<path d="M0 54.0413V39.6938H8.63836V41.3031H1.77376V46.2361H8.0732V47.8279H1.77376V54.0457H0V54.0413Z" fill="#BBC5CB"/>
<path d="M9.49512 48.8715C9.49512 45.5696 11.408 43.5219 14.2469 43.5219C17.0771 43.5219 18.9899 45.5696 18.9899 48.8715C18.9899 52.1645 17.0771 54.2211 14.2469 54.2211C11.408 54.2211 9.49512 52.1645 9.49512 48.8715ZM17.2466 48.8715C17.2466 46.4334 16.0641 45.0434 14.2512 45.0434C12.4383 45.0434 11.2428 46.4378 11.2428 48.8715C11.2428 51.3095 12.434 52.6995 14.2512 52.6995C16.0641 52.6995 17.2466 51.3095 17.2466 48.8715Z" fill="#BBC5CB"/>
<path d="M29.1363 54.0413H27.5104V52.3619H27.4713C26.8583 53.5546 25.7932 54.2211 24.2194 54.2211C21.9805 54.2211 20.6719 52.7609 20.6719 50.4106V43.7017H22.3891V50.108C22.3891 51.7874 23.1673 52.6951 24.7541 52.6951C26.4192 52.6951 27.4278 51.5419 27.4278 49.7792V43.7017H29.145V54.0413H29.1363Z" fill="#BBC5CB"/>
<path d="M31.3534 43.7016H32.9707V45.3504H33.0098C33.5837 44.2366 34.6749 43.5219 36.2617 43.5219C38.5093 43.5219 39.8092 44.982 39.8092 47.3323V54.0457H38.0919V47.6393C38.0919 45.9686 37.3138 45.0522 35.7356 45.0522C34.1184 45.0522 33.062 46.2054 33.062 47.955V54.0413H31.3447V43.7016H31.3534Z" fill="#BBC5CB"/>
<path d="M41.4922 48.8715C41.4922 45.631 43.2573 43.5219 45.8396 43.5219C47.3091 43.5219 48.4916 44.2498 49.1046 45.3811H49.1437V39.6938H50.8609V54.0457H49.2219V52.2961H49.1915C48.5307 53.4888 47.3569 54.2255 45.8788 54.2255C43.2659 54.2211 41.4922 52.1119 41.4922 48.8715ZM43.2486 48.8715C43.2486 51.2174 44.3919 52.6995 46.2048 52.6995C47.9699 52.6995 49.1524 51.1867 49.1524 48.8715C49.1524 46.565 47.9699 45.0435 46.2048 45.0435C44.3919 45.0435 43.2486 46.5343 43.2486 48.8715Z" fill="#BBC5CB"/>
<path d="M52.7607 51.1209C52.7607 49.3494 54.1128 48.2356 56.4778 48.0997L59.4167 47.9287V47.0649C59.4167 45.802 58.5863 45.0478 57.169 45.0478C55.8474 45.0478 55.0214 45.6749 54.804 46.6878H53.1477C53.265 44.8987 54.7823 43.5262 57.2082 43.5262C59.6123 43.5262 61.1339 44.8373 61.1339 46.8982V54.0501H59.508V52.2698H59.4688C58.8558 53.4537 57.5559 54.2298 56.1735 54.2298C54.1345 54.2211 52.7607 52.9801 52.7607 51.1209ZM59.4167 50.1168V49.2705L56.6734 49.4415C55.2909 49.5292 54.5041 50.1475 54.5041 51.1209C54.5041 52.1075 55.3214 52.7521 56.556 52.7521C58.1733 52.7521 59.4167 51.6077 59.4167 50.1168Z" fill="#BBC5CB"/>
<path d="M65.5811 41.2023V43.6973H67.5722V45.118H65.5811V51.2657C65.5811 52.2084 65.9767 52.6381 66.8549 52.6381C67.0505 52.6381 67.4461 52.6075 67.5635 52.5899V54.0413C67.3548 54.0896 66.8853 54.1202 66.481 54.1202C64.5986 54.1202 63.8682 53.3441 63.8682 51.3534V45.1224H62.3379V43.7017H63.8682V41.2067H65.5811V41.2023Z" fill="#BBC5CB"/>
<path d="M69.2676 40.7769C69.2676 40.1718 69.7501 39.6938 70.3414 39.6938C70.9413 39.6938 71.4152 40.1718 71.4152 40.7769C71.4152 41.3733 70.9413 41.86 70.3414 41.86C69.7501 41.86 69.2676 41.3733 69.2676 40.7769ZM69.4849 43.7017H71.2022V54.0457H69.4849V43.7017Z" fill="#BBC5CB"/>
<path d="M73.0156 48.8715C73.0156 45.5696 74.9285 43.5219 77.7674 43.5219C80.5976 43.5219 82.5104 45.5696 82.5104 48.8715C82.5104 52.1645 80.5976 54.2211 77.7674 54.2211C74.9285 54.2211 73.0156 52.1645 73.0156 48.8715ZM80.7671 48.8715C80.7671 46.4334 79.5846 45.0434 77.7717 45.0434C75.9588 45.0434 74.7633 46.4378 74.7633 48.8715C74.7633 51.3095 75.9545 52.6995 77.7717 52.6995C79.5803 52.6995 80.7671 51.3095 80.7671 48.8715Z" fill="#BBC5CB"/>
<path d="M84.2362 43.7016H85.8535V45.3504H85.8926C86.4665 44.2366 87.5577 43.5219 89.1445 43.5219C91.3921 43.5219 92.692 44.982 92.692 47.3323V54.0457H90.9748V47.6393C90.9748 45.9686 90.1966 45.0522 88.6185 45.0522C87.0012 45.0522 85.9448 46.2054 85.9448 47.955V54.0413H84.2275V43.7016H84.2362Z" fill="#BBC5CB"/>
</svg>
