<svg width="180" height="55" viewBox="0 0 180 55" fill="none" xmlns="http://www.w3.org/2000/svg">
<path d="M8.0407 29.0117V5.79533H0V0.952026H21.9182V5.79533H13.8601V29.0117H8.0407Z" fill="black"/>
<path d="M23.8882 2.93481C23.8882 1.24467 25.2391 0 26.8975 0C28.5558 0 29.9068 1.24467 29.9068 2.93481C29.9068 4.58563 28.5558 5.86961 26.8975 5.86961C25.2348 5.87398 23.8882 4.59 23.8882 2.93481ZM24.0787 8.16679H29.7076V29.0118H24.0787V8.16679Z" fill="black"/>
<path d="M33.4487 8.16677H38.8871V11.9183H39.004C40.1818 9.25422 42.2818 7.85669 45.46 7.85669C50.0497 7.85669 52.6304 10.774 52.6304 15.6523V29.0117H47.0014V16.8402C47.0014 14.1194 45.7501 12.5646 43.1824 12.5646C40.6364 12.5646 39.0777 14.4294 39.0777 17.1546V29.0161H33.4487V8.16677Z" fill="black"/>
<path d="M69.0539 8.16676H75.4362L67.5514 17.1109L75.8216 29.0117H69.344L63.4249 20.5349L61.9614 22.1289V29.0117H56.3325V0.952026H61.9614V16.5257H62.0394L69.0539 8.16676Z" fill="black"/>
<path d="M95.3281 22.6311C94.7133 26.6927 90.9722 29.3786 85.9019 29.3786C79.5801 29.3786 75.7222 25.317 75.7222 18.6831C75.7222 12.0318 79.5975 7.79553 85.6897 7.79553C91.6867 7.79553 95.5013 11.8222 95.5013 18.1591V19.8885H81.2558V20.2379C81.2558 23.1727 83.1653 25.1773 85.9971 25.1773C88.0192 25.1773 89.6386 24.2034 90.1625 22.6311H95.3281ZM81.3164 16.4122H90.0889C89.972 13.7481 88.24 11.9968 85.7503 11.9968C83.2996 11.9968 81.507 13.8049 81.3164 16.4122Z" fill="black"/>
<path d="M98.3936 8.16675H103.832V11.9182H103.949C104.663 9.33281 106.434 7.91345 108.863 7.91345C109.517 7.91345 110.058 7.99206 110.465 8.12745V13.1236C110.002 12.9271 109.231 12.7917 108.422 12.7917C105.646 12.7917 104.027 14.5037 104.027 17.4385V29.0074H98.3979V8.16675H98.3936Z" fill="black"/>
<path d="M132.362 29.0117V16.2375H117.094V29.0117H113.626V0.952026H117.094V13.0843H132.362V0.952026H135.83V29.0074H132.362V29.0117Z" fill="black"/>
<path d="M157.172 29.0117H153.99V25.6489H153.912C152.678 28.0028 150.634 29.2082 147.551 29.2082C143.174 29.2082 140.61 26.352 140.61 21.762V8.79123H143.966V21.1593C143.966 24.4435 145.49 26.2166 148.595 26.2166C151.851 26.2166 153.821 23.9631 153.821 20.5217V8.78687H157.177V29.0117H157.172Z" fill="black"/>
<path d="M164.962 25.5878H164.884V29.0117H161.684V0.952026H165.04V12.0755H165.118C166.369 9.85689 168.703 8.59475 171.539 8.59475C176.588 8.59475 180 12.7174 180 18.9015C180 25.103 176.588 29.2083 171.478 29.2083C168.547 29.2039 166.252 27.9199 164.962 25.5878ZM165.018 18.8971C165.018 23.2513 167.369 26.2079 170.82 26.2079C174.289 26.2079 176.566 23.3517 176.566 18.8971C176.566 14.4644 174.293 11.5863 170.82 11.5863C167.369 11.5863 165.018 14.5648 165.018 18.8971Z" fill="black"/>
<path d="M0 54.0413V39.6938H8.63836V41.3031H1.77376V46.2361H8.0732V47.8279H1.77376V54.0457H0V54.0413Z" fill="black"/>
<path d="M9.49463 48.8715C9.49463 45.5696 11.4075 43.5219 14.2464 43.5219C17.0766 43.5219 18.9894 45.5696 18.9894 48.8715C18.9894 52.1645 17.0766 54.2211 14.2464 54.2211C11.4075 54.2211 9.49463 52.1645 9.49463 48.8715ZM17.2461 48.8715C17.2461 46.4334 16.0636 45.0434 14.2507 45.0434C12.4378 45.0434 11.2423 46.4378 11.2423 48.8715C11.2423 51.3095 12.4335 52.6995 14.2507 52.6995C16.0636 52.6995 17.2461 51.3095 17.2461 48.8715Z" fill="black"/>
<path d="M29.1368 54.0413H27.5109V52.3619H27.4718C26.8588 53.5546 25.7936 54.2211 24.2199 54.2211C21.9809 54.2211 20.6724 52.7609 20.6724 50.4106V43.7017H22.3896V50.108C22.3896 51.7874 23.1678 52.6951 24.7546 52.6951C26.4197 52.6951 27.4283 51.5419 27.4283 49.7792V43.7017H29.1455V54.0413H29.1368Z" fill="black"/>
<path d="M31.3539 43.7016H32.9712V45.3504H33.0103C33.5841 44.2366 34.6753 43.5219 36.2622 43.5219C38.5098 43.5219 39.8097 44.982 39.8097 47.3323V54.0457H38.0924V47.6393C38.0924 45.9686 37.3142 45.0522 35.7361 45.0522C34.1189 45.0522 33.0624 46.2054 33.0624 47.955V54.0413H31.3452V43.7016H31.3539Z" fill="black"/>
<path d="M41.4917 48.8715C41.4917 45.631 43.2568 43.5219 45.8391 43.5219C47.3086 43.5219 48.4911 44.2498 49.1041 45.3811H49.1432V39.6938H50.8604V54.0457H49.2215V52.2961H49.191C48.5302 53.4888 47.3564 54.2255 45.8783 54.2255C43.2655 54.2211 41.4917 52.1119 41.4917 48.8715ZM43.2481 48.8715C43.2481 51.2174 44.3914 52.6995 46.2043 52.6995C47.9694 52.6995 49.1519 51.1867 49.1519 48.8715C49.1519 46.565 47.9694 45.0435 46.2043 45.0435C44.3914 45.0435 43.2481 46.5343 43.2481 48.8715Z" fill="black"/>
<path d="M52.7607 51.1209C52.7607 49.3494 54.1128 48.2356 56.4778 48.0997L59.4167 47.9287V47.0649C59.4167 45.802 58.5863 45.0478 57.169 45.0478C55.8474 45.0478 55.0214 45.6749 54.804 46.6878H53.1477C53.265 44.8987 54.7823 43.5262 57.2082 43.5262C59.6123 43.5262 61.1339 44.8373 61.1339 46.8982V54.0501H59.508V52.2698H59.4688C58.8558 53.4537 57.5559 54.2298 56.1735 54.2298C54.1345 54.2211 52.7607 52.9801 52.7607 51.1209ZM59.4167 50.1168V49.2705L56.6734 49.4415C55.2909 49.5292 54.5041 50.1475 54.5041 51.1209C54.5041 52.1075 55.3214 52.7521 56.556 52.7521C58.1733 52.7521 59.4167 51.6077 59.4167 50.1168Z" fill="black"/>
<path d="M65.5811 41.2023V43.6973H67.5722V45.118H65.5811V51.2657C65.5811 52.2084 65.9767 52.6381 66.8549 52.6381C67.0505 52.6381 67.4461 52.6075 67.5635 52.5899V54.0413C67.3548 54.0896 66.8853 54.1202 66.481 54.1202C64.5986 54.1202 63.8682 53.3441 63.8682 51.3534V45.1224H62.3379V43.7017H63.8682V41.2067H65.5811V41.2023Z" fill="black"/>
<path d="M69.2681 40.7769C69.2681 40.1718 69.7506 39.6938 70.3419 39.6938C70.9418 39.6938 71.4157 40.1718 71.4157 40.7769C71.4157 41.3733 70.9418 41.86 70.3419 41.86C69.7506 41.86 69.2681 41.3733 69.2681 40.7769ZM69.4854 43.7017H71.2027V54.0457H69.4854V43.7017Z" fill="black"/>
<path d="M73.0151 48.8715C73.0151 45.5696 74.928 43.5219 77.7669 43.5219C80.5971 43.5219 82.51 45.5696 82.51 48.8715C82.51 52.1645 80.5971 54.2211 77.7669 54.2211C74.928 54.2211 73.0151 52.1645 73.0151 48.8715ZM80.7666 48.8715C80.7666 46.4334 79.5841 45.0434 77.7712 45.0434C75.9584 45.0434 74.7628 46.4378 74.7628 48.8715C74.7628 51.3095 75.954 52.6995 77.7712 52.6995C79.5798 52.6995 80.7666 51.3095 80.7666 48.8715Z" fill="black"/>
<path d="M84.2362 43.7016H85.8535V45.3504H85.8926C86.4665 44.2366 87.5577 43.5219 89.1445 43.5219C91.3921 43.5219 92.692 44.982 92.692 47.3323V54.0457H90.9748V47.6393C90.9748 45.9686 90.1966 45.0522 88.6185 45.0522C87.0012 45.0522 85.9448 46.2054 85.9448 47.955V54.0413H84.2275V43.7016H84.2362Z" fill="black"/>
</svg>
