<svg width="105" height="28" viewBox="0 0 105 28" fill="none" xmlns="http://www.w3.org/2000/svg">
<path d="M5.68 11.16C9.296 11.16 10.704 9.528 10.704 7.688C10.704 6.312 10 4.968 7.376 4.584L4.016 4.088C3.44 4.008 3.248 3.848 3.248 3.512C3.248 3.048 3.584 2.84 5.12 2.84C7.136 2.84 7.472 3.096 7.472 3.864V4.104H10.48V4.008C10.48 1.608 8.848 0.12 5.44 0.12C1.568 0.12 0.24 1.912 0.24 3.624C0.24 5.352 1.248 6.424 3.248 6.696L6.608 7.144C7.488 7.256 7.696 7.416 7.696 7.8C7.696 8.28 7.504 8.424 5.68 8.424C3.664 8.424 3.408 8.232 3.408 7.512V7.176H0.4V7.272C0.4 9.992 2.4 11.16 5.68 11.16ZM13.8335 11L14.6655 9.016H19.7535L20.5695 11H24.0255L19.3855 0.28H15.0815L10.4575 11H13.8335ZM16.4255 4.808L17.1135 3H17.3215L18.0255 4.808L18.6495 6.312H15.8015L16.4255 4.808ZM30.5875 11V2.984H34.3635V0.28H23.7875V2.984H27.5795V11H30.5875ZM40.178 11.16C43.922 11.16 45.65 9.352 45.65 6.504V0.28H42.642V6.264C42.642 7.784 42.21 8.248 40.178 8.248C38.146 8.248 37.714 7.784 37.714 6.264V0.28H34.706V6.504C34.706 9.352 36.434 11.16 40.178 11.16ZM49.2393 11V7.352H50.4713C51.6393 7.352 51.9593 7.576 52.3433 8.376L53.6233 11H57.0953L55.7673 8.312C55.3673 7.496 55.0153 6.968 53.9113 6.68V6.52C55.9593 6.264 56.8073 5.256 56.8073 3.56C56.8073 1.464 55.3193 0.28 52.4873 0.28H46.2313V11H49.2393ZM49.2393 2.984H52.4553C53.3353 2.984 53.6553 3.192 53.6553 4.04C53.6553 4.952 53.3353 5.112 52.4553 5.112H49.2393V2.984ZM62.855 11C66.391 11 68.631 9.032 68.631 5.64C68.631 2.248 66.391 0.28 62.855 0.28H57.431V11H62.855ZM62.855 2.984C64.759 2.984 65.415 3.224 65.415 5.64C65.415 8.056 64.759 8.296 62.855 8.296H60.439V2.984H62.855ZM71.8429 11L72.6749 9.016H77.7629L78.5789 11H82.0349L77.3949 0.28H73.0909L68.4669 11H71.8429ZM74.4349 4.808L75.1229 3H75.3309L76.0349 4.808L76.6589 6.312H73.8109L74.4349 4.808ZM89.1409 11V7.608L94.0529 0.28H90.3089L88.6929 2.824L87.7809 4.328H87.5729L86.6609 2.824L85.0449 0.28H81.3169L86.1329 7.592V11H89.1409ZM3.488 27V22.968H8.48V27H11.488V16.28H8.48V20.264H3.488V16.28H0.48V27H3.488ZM14.8648 27L15.6968 25.016H20.7848L21.6008 27H25.0568L20.4168 16.28H16.1128L11.4888 27H14.8648ZM17.4568 20.808L18.1448 19H18.3528L19.0568 20.808L19.6808 22.312H16.8328L17.4568 20.808ZM30.8188 27.16C34.4188 27.16 36.5788 25.448 36.5788 22.584V22.312H33.2188V22.584C33.2188 23.8 32.6428 24.28 30.8668 24.28C28.6908 24.28 28.0988 23.768 28.0988 21.64C28.0988 19.512 28.6908 19 30.8668 19C32.6428 19 33.2188 19.48 33.2188 20.696V20.968H36.5788V20.696C36.5788 17.832 34.4188 16.12 30.8188 16.12C27.0908 16.12 24.8988 18.296 24.8988 21.64C24.8988 24.984 27.0908 27.16 30.8188 27.16ZM40.0593 27V23.192H42.2513L44.7473 27H48.3473L44.7153 21.544L48.4273 16.28H44.8273L42.2193 20.264H40.0593V16.28H37.0513V27H40.0593ZM53.3568 27V22.808L53.2288 20.76H53.4368L54.7968 22.872L57.9648 27H61.1648V16.28H58.1568V20.424L58.3008 22.76H58.0928L56.5248 20.296L53.5488 16.28H50.3488V27H53.3568ZM64.818 27V16.28H61.81V27H64.818ZM70.6428 27.16C73.1548 27.16 74.0668 25.96 74.3548 24.712H74.5148V27H77.3148V21.144H70.9788V23.352H74.2748C74.1308 24.168 73.4908 24.28 71.2668 24.28C69.0908 24.28 68.4988 23.768 68.4988 21.64C68.4988 19.512 69.1228 19 71.4268 19C73.3308 19 73.9388 19.384 73.9388 20.376V20.488H77.2988V20.376C77.2988 17.72 75.1388 16.12 71.5068 16.12C67.6028 16.12 65.2988 18.296 65.2988 21.64C65.2988 24.984 67.2668 27.16 70.6428 27.16ZM80.8968 27V22.968H85.8888V27H88.8968V16.28H85.8888V20.264H80.8968V16.28H77.8888V27H80.8968ZM96.0975 27V18.984H99.8735V16.28H89.2975V18.984H93.0895V27H96.0975Z" fill="#E9E5E1"/>
<path d="M104.184 27V23.928H100.28V27H104.184Z" fill="#DBF72C"/>
</svg>
