<svg width="512" height="512" viewBox="0 0 512 512" fill="none" xmlns="http://www.w3.org/2000/svg">
<path d="M300.575 0H19.4197C8.69451 0 0 8.69449 0 19.4197V108.584C0 119.309 8.69451 128.004 19.4197 128.004H300.575C311.3 128.004 319.994 119.309 319.994 108.584V19.4197C319.994 8.69449 311.3 0 300.575 0Z" fill="#05BFCE"/>
<path d="M492.58 191.991H19.4197C8.6945 191.991 0 200.685 0 211.41V300.575C0 311.3 8.6945 319.994 19.4197 319.994H492.58C503.306 319.994 512 311.3 512 300.575V211.41C512 200.685 503.306 191.991 492.58 191.991Z" fill="#FFCD10"/>
<path d="M332.522 383.996H275.427C264.702 383.996 256.007 392.691 256.007 403.416V492.58C256.007 503.305 264.702 512 275.427 512H332.522C343.248 512 351.942 503.305 351.942 492.58V403.416C351.942 392.691 343.248 383.996 332.522 383.996Z" fill="#95BF15"/>
<path d="M172.314 385.84H20.5383C9.81314 385.84 1.11865 394.534 1.11865 405.26V492.051C1.11865 502.776 9.81314 511.471 20.5383 511.471H172.314C183.039 511.471 191.734 502.776 191.734 492.051V405.26C191.734 394.534 183.039 385.84 172.314 385.84Z" fill="#EE1700"/>
<path d="M492.58 383.996H437.192C426.467 383.996 417.773 392.691 417.773 403.416V492.58C417.773 503.305 426.467 512 437.192 512H492.58C503.305 512 512 503.305 512 492.58V403.416C512 392.691 503.305 383.996 492.58 383.996Z" fill="#205B67"/>
<path d="M492.58 0H403.416C392.691 0 383.996 8.69449 383.996 19.4197V108.584C383.996 119.309 392.691 128.004 403.416 128.004H492.58C503.305 128.004 512 119.309 512 108.584V19.4197C512 8.69449 503.305 0 492.58 0Z" fill="#0060FF"/>
</svg>
