<svg width="419" height="138" viewBox="0 0 419 138" fill="none" xmlns="http://www.w3.org/2000/svg">
<path d="M22.518 114.093C18.8389 114.093 15.5767 113.308 12.7316 111.738C9.8864 110.168 7.65443 107.961 6.03561 105.116C4.41683 102.271 3.60742 98.9838 3.60742 95.2557C3.60742 91.4784 4.39229 88.1183 5.96203 85.1751C7.58084 82.2319 9.78831 79.9506 12.5844 78.332C15.4296 76.6641 18.7653 75.83 22.5915 75.83C26.1725 75.83 29.3366 76.6148 32.0836 78.1848C34.8307 79.7545 36.9644 81.9129 38.4851 84.66C40.0551 87.3578 40.84 90.3749 40.84 93.7104C40.84 94.2501 40.8153 94.8142 40.7664 95.4029C40.7664 95.9916 40.7417 96.6046 40.6928 97.2423H12.9523C13.1485 100.088 14.1296 102.32 15.8956 103.939C17.7106 105.557 19.8936 106.367 22.4444 106.367C24.3575 106.367 25.9518 105.95 27.2272 105.116C28.5517 104.233 29.5328 103.104 30.1705 101.731H39.7361C39.0495 104.036 37.8964 106.146 36.2778 108.059C34.708 109.923 32.7458 111.395 30.3912 112.474C28.0856 113.553 25.4612 114.093 22.518 114.093ZM22.5915 83.4825C20.286 83.4825 18.2502 84.1448 16.4842 85.4694C14.7183 86.7448 13.59 88.707 13.0995 91.3559H31.2742C31.1271 88.9521 30.2441 87.0391 28.6253 85.6166C27.0065 84.1938 24.9952 83.4825 22.5915 83.4825ZM48.7615 113.21V76.713H57.076L57.8119 82.8938C58.9401 80.7354 60.559 79.0186 62.6685 77.7433C64.8268 76.4676 67.3532 75.83 70.2474 75.83C74.7603 75.83 78.2676 77.2528 80.7696 80.0978C83.2713 82.9431 84.5223 87.1127 84.5223 92.6069V113.21H75.1036V93.4896C75.1036 90.3503 74.466 87.9465 73.1907 86.2786C71.9153 84.611 69.9284 83.7769 67.2306 83.7769C64.5814 83.7769 62.3988 84.7089 60.6816 86.5729C59.0137 88.4373 58.1799 91.0369 58.1799 94.3727V113.21H48.7615ZM108.981 102.32C107.215 102.32 105.571 102.123 104.051 101.731L101.328 104.453C102.162 104.895 103.29 105.263 104.713 105.557C106.136 105.852 108.441 106.146 111.63 106.44C116.486 106.882 120.018 108.035 122.226 109.899C124.433 111.763 125.537 114.338 125.537 117.625C125.537 119.783 124.948 121.819 123.771 123.732C122.593 125.694 120.778 127.264 118.326 128.441C115.873 129.668 112.733 130.281 108.907 130.281C103.707 130.281 99.5134 129.3 96.3247 127.337C93.1361 125.424 91.5418 122.53 91.5418 118.655C91.5418 115.368 93.1361 112.523 96.3247 110.119C95.3434 109.678 94.485 109.212 93.7491 108.721C93.0625 108.231 92.4492 107.716 91.9097 107.176V105.484L98.3113 98.7141C95.4663 96.2124 94.0435 92.9991 94.0435 89.075C94.0435 86.6222 94.6322 84.3903 95.8096 82.3791C97.036 80.3675 98.7528 78.7735 100.96 77.5961C103.168 76.4187 105.841 75.83 108.981 75.83C111.041 75.83 112.954 76.1243 114.72 76.713H128.554V82.4523L122.299 82.8938C123.28 84.7582 123.771 86.8183 123.771 89.075C123.771 91.5277 123.182 93.7597 122.005 95.7709C120.827 97.7821 119.111 99.3764 116.854 100.553C114.647 101.731 112.022 102.32 108.981 102.32ZM108.981 95.1086C110.894 95.1086 112.464 94.5934 113.69 93.5632C114.965 92.5333 115.603 91.0615 115.603 89.1485C115.603 87.2352 114.965 85.7638 113.69 84.7335C112.464 83.7033 110.894 83.1882 108.981 83.1882C106.969 83.1882 105.351 83.7033 104.124 84.7335C102.898 85.7638 102.285 87.2352 102.285 89.1485C102.285 91.0615 102.898 92.5333 104.124 93.5632C105.351 94.5934 106.969 95.1086 108.981 95.1086ZM100.151 117.698C100.151 119.513 100.985 120.862 102.653 121.745C104.37 122.677 106.454 123.143 108.907 123.143C111.262 123.143 113.175 122.653 114.647 121.672C116.118 120.74 116.854 119.464 116.854 117.845C116.854 116.521 116.363 115.417 115.382 114.534C114.45 113.651 112.562 113.111 109.717 112.915C107.705 112.768 105.841 112.547 104.124 112.253C102.702 113.038 101.672 113.896 101.034 114.829C100.445 115.761 100.151 116.717 100.151 117.698ZM148.004 114.093C144.864 114.093 142.289 113.602 140.278 112.621C138.267 111.591 136.77 110.242 135.789 108.574C134.808 106.906 134.317 105.067 134.317 103.055C134.317 99.6707 135.642 96.9236 138.291 94.8142C140.94 92.7048 144.913 91.6502 150.211 91.6502H159.482V90.7672C159.482 88.2655 158.771 86.4258 157.349 85.2487C155.926 84.0713 154.16 83.4825 152.051 83.4825C150.138 83.4825 148.47 83.9487 147.047 84.8807C145.625 85.7638 144.742 87.0881 144.398 88.8542H135.201C135.446 86.205 136.329 83.8994 137.849 81.9375C139.419 79.9753 141.431 78.4792 143.883 77.4489C146.336 76.3697 149.083 75.83 152.124 75.83C157.324 75.83 161.42 77.1299 164.413 79.7298C167.405 82.3298 168.901 86.0089 168.901 90.7672V113.21H160.881L159.998 107.323C158.918 109.285 157.398 110.904 155.436 112.179C153.522 113.455 151.045 114.093 148.004 114.093ZM150.138 106.735C152.836 106.735 154.921 105.852 156.392 104.085C157.913 102.32 158.869 100.137 159.262 97.5366H151.242C148.74 97.5366 146.949 98.0028 145.87 98.9348C144.791 99.8179 144.251 100.921 144.251 102.246C144.251 103.668 144.791 104.772 145.87 105.557C146.949 106.342 148.372 106.735 150.138 106.735ZM193.341 102.32C191.575 102.32 189.932 102.123 188.411 101.731L185.689 104.453C186.523 104.895 187.651 105.263 189.073 105.557C190.496 105.852 192.802 106.146 195.99 106.44C200.847 106.882 204.378 108.035 206.586 109.899C208.793 111.763 209.897 114.338 209.897 117.625C209.897 119.783 209.309 121.819 208.131 123.732C206.954 125.694 205.139 127.264 202.686 128.441C200.233 129.668 197.094 130.281 193.268 130.281C188.068 130.281 183.874 129.3 180.685 127.337C177.497 125.424 175.902 122.53 175.902 118.655C175.902 115.368 177.497 112.523 180.685 110.119C179.704 109.678 178.846 109.212 178.11 108.721C177.423 108.231 176.81 107.716 176.27 107.176V105.484L182.672 98.7141C179.827 96.2124 178.404 92.9991 178.404 89.075C178.404 86.6222 178.993 84.3903 180.17 82.3791C181.397 80.3675 183.113 78.7735 185.321 77.5961C187.528 76.4187 190.202 75.83 193.341 75.83C195.401 75.83 197.315 76.1243 199.08 76.713H212.914V82.4523L206.659 82.8938C207.641 84.7582 208.131 86.8183 208.131 89.075C208.131 91.5277 207.542 93.7597 206.365 95.7709C205.188 97.7821 203.471 99.3764 201.215 100.553C199.007 101.731 196.383 102.32 193.341 102.32ZM193.341 95.1086C195.255 95.1086 196.824 94.5934 198.051 93.5632C199.326 92.5333 199.964 91.0615 199.964 89.1485C199.964 87.2352 199.326 85.7638 198.051 84.7335C196.824 83.7033 195.255 83.1882 193.341 83.1882C191.33 83.1882 189.711 83.7033 188.485 84.7335C187.258 85.7638 186.645 87.2352 186.645 89.1485C186.645 91.0615 187.258 92.5333 188.485 93.5632C189.711 94.5934 191.33 95.1086 193.341 95.1086ZM184.511 117.698C184.511 119.513 185.345 120.862 187.013 121.745C188.73 122.677 190.815 123.143 193.268 123.143C195.622 123.143 197.535 122.653 199.007 121.672C200.479 120.74 201.215 119.464 201.215 117.845C201.215 116.521 200.724 115.417 199.743 114.534C198.811 113.651 196.922 113.111 194.077 112.915C192.066 112.768 190.202 112.547 188.485 112.253C187.062 113.038 186.032 113.896 185.394 114.829C184.806 115.761 184.511 116.717 184.511 117.698ZM236.078 114.093C232.399 114.093 229.137 113.308 226.292 111.738C223.447 110.168 221.214 107.961 219.596 105.116C217.977 102.271 217.168 98.9838 217.168 95.2557C217.168 91.4784 217.952 88.1183 219.522 85.1751C221.141 82.2319 223.348 79.9506 226.144 78.332C228.99 76.6641 232.325 75.83 236.151 75.83C239.733 75.83 242.897 76.6148 245.644 78.1848C248.391 79.7545 250.524 81.9129 252.045 84.66C253.615 87.3578 254.4 90.3749 254.4 93.7104C254.4 94.2501 254.375 94.8142 254.326 95.4029C254.326 95.9916 254.302 96.6046 254.253 97.2423H226.512C226.708 100.088 227.69 102.32 229.455 103.939C231.271 105.557 233.454 106.367 236.004 106.367C237.918 106.367 239.512 105.95 240.787 105.116C242.112 104.233 243.093 103.104 243.73 101.731H253.296C252.609 104.036 251.456 106.146 249.838 108.059C248.268 109.923 246.306 111.395 243.951 112.474C241.646 113.553 239.021 114.093 236.078 114.093ZM236.151 83.4825C233.846 83.4825 231.81 84.1448 230.044 85.4694C228.278 86.7448 227.15 88.707 226.659 91.3559H244.834C244.687 88.9521 243.804 87.0391 242.185 85.6166C240.566 84.1938 238.555 83.4825 236.151 83.4825ZM277.406 114.093C274.168 114.093 271.323 113.578 268.87 112.547C266.417 111.468 264.455 109.997 262.984 108.132C261.512 106.268 260.629 104.11 260.335 101.657H269.827C270.121 103.08 270.906 104.306 272.181 105.336C273.506 106.318 275.198 106.808 277.258 106.808C279.319 106.808 280.815 106.391 281.747 105.557C282.728 104.723 283.218 103.767 283.218 102.688C283.218 101.118 282.532 100.063 281.158 99.5235C279.785 98.9348 277.872 98.3708 275.419 97.831C273.849 97.4877 272.255 97.0708 270.636 96.5803C269.017 96.0895 267.521 95.4765 266.148 94.7406C264.823 93.9558 263.744 92.9748 262.91 91.7974C262.076 90.571 261.659 89.075 261.659 87.3088C261.659 84.0713 262.935 81.3488 265.485 79.1411C268.085 76.9338 271.715 75.83 276.375 75.83C280.692 75.83 284.126 76.8356 286.677 78.8468C289.277 80.8583 290.822 83.6297 291.313 87.1616H282.409C281.87 84.4638 279.834 83.1146 276.302 83.1146C274.536 83.1146 273.162 83.4582 272.181 84.1448C271.249 84.8318 270.783 85.6902 270.783 86.7201C270.783 87.7993 271.495 88.6577 272.917 89.2957C274.34 89.9334 276.228 90.5221 278.583 91.0615C281.134 91.6502 283.464 92.3125 285.573 93.0484C287.732 93.735 289.449 94.7896 290.724 96.2124C292 97.5859 292.637 99.5725 292.637 102.172C292.686 104.429 292.097 106.465 290.871 108.28C289.645 110.095 287.879 111.517 285.573 112.547C283.268 113.578 280.545 114.093 277.406 114.093ZM300.98 129.398V76.713H309.369L310.399 81.9375C311.576 80.3186 313.122 78.8961 315.035 77.6697C316.997 76.4433 319.523 75.83 322.614 75.83C326.047 75.83 329.113 76.6641 331.812 78.332C334.509 79.9999 336.643 82.2808 338.213 85.1751C339.783 88.0694 340.568 91.3559 340.568 95.035C340.568 98.7141 339.783 102.001 338.213 104.895C336.643 107.74 334.509 109.997 331.812 111.664C329.113 113.283 326.047 114.093 322.614 114.093C319.867 114.093 317.463 113.578 315.403 112.547C313.342 111.517 311.675 110.07 310.399 108.206V129.398H300.98ZM320.627 105.852C323.619 105.852 326.097 104.846 328.059 102.835C330.021 100.824 331.002 98.2236 331.002 95.035C331.002 91.8463 330.021 89.2221 328.059 87.1616C326.097 85.1015 323.619 84.0713 320.627 84.0713C317.586 84.0713 315.084 85.1015 313.122 87.1616C311.208 89.1728 310.252 91.7728 310.252 94.9614C310.252 98.15 311.208 100.774 313.122 102.835C315.084 104.846 317.586 105.852 320.627 105.852ZM366.493 114.093C362.962 114.093 359.772 113.283 356.927 111.664C354.131 110.046 351.9 107.814 350.232 104.968C348.613 102.074 347.804 98.7387 347.804 94.9614C347.804 91.184 348.638 87.8729 350.306 85.0279C351.974 82.1336 354.205 79.877 357 78.2584C359.845 76.6395 363.035 75.83 366.567 75.83C370.049 75.83 373.19 76.6395 375.986 78.2584C378.831 79.877 381.063 82.1336 382.683 85.0279C384.348 87.8729 385.183 91.184 385.183 94.9614C385.183 98.7387 384.348 102.074 382.683 104.968C381.063 107.814 378.831 110.046 375.986 111.664C373.141 113.283 369.975 114.093 366.493 114.093ZM366.493 105.925C368.947 105.925 371.081 105.018 372.894 103.203C374.711 101.339 375.62 98.5915 375.62 94.9614C375.62 91.3312 374.711 88.6088 372.894 86.7937C371.081 84.9297 368.972 83.9977 366.567 83.9977C364.067 83.9977 361.909 84.9297 360.092 86.7937C358.328 88.6088 357.444 91.3312 357.444 94.9614C357.444 98.5915 358.328 101.339 360.092 103.203C361.909 105.018 364.042 105.925 366.493 105.925ZM408.428 113.21C404.605 113.21 401.538 112.278 399.231 110.414C396.925 108.55 395.774 105.238 395.774 100.48V84.5864H389.517V76.713H395.774L396.876 66.9268H405.193V76.713H415.051V84.5864H405.193V100.553C405.193 102.32 405.559 103.546 406.295 104.233C407.08 104.871 408.404 105.189 410.27 105.189H414.83V113.21H408.428Z" fill="white"/>
<mask id="mask0_953_862" style="mask-type:luminance" maskUnits="userSpaceOnUse" x="333" y="1" width="62" height="60">
<path d="M392.575 12.5648L378.765 2.91343C376.994 1.66233 374.705 1.66233 372.931 2.91343L363.924 9.16891L363.776 9.07955H363.702L354.766 2.82406C352.995 1.57297 350.706 1.57297 348.933 2.82406L335.124 12.4754C333.943 13.2797 333.278 14.7988 333.278 16.4074V34.727C333.278 37.8547 334.681 40.7144 336.897 42.2338L363.776 60.9106L390.73 42.2338C392.944 40.7144 394.346 37.7652 394.346 34.6377V16.4074C394.42 14.7988 393.758 13.369 392.575 12.5648Z" fill="white"/>
</mask>
<g mask="url(#mask0_953_862)">
<path d="M353.089 62.2674L330.566 47.7904L329.901 16.6918L351.685 0.0700684L374.208 14.5471L374.873 45.6457L353.089 62.2674Z" fill="#8957A3"/>
<path d="M381.423 60.8166L358.973 46.429L358.237 15.3302L380.092 -1.2915L402.616 13.1855L403.282 44.195L381.423 60.8166Z" fill="#7662AB"/>
<path d="M367.32 71.3658L344.872 56.9783L344.134 25.8795L365.993 9.25781L388.513 23.7348L389.178 54.7442L367.32 71.3658Z" fill="#B261A6"/>
<path opacity="0.36" d="M403.278 44.1869L367.318 71.3536L366.652 40.344L402.616 13.1775L403.278 44.1869Z" fill="#9B1C1F"/>
<path d="M330.324 47.7766L367.319 71.3688L366.653 40.3593L329.585 16.7673L330.324 47.7766Z" fill="#E077A8"/>
</g>
</svg>
