<svg width="1156" height="867" viewBox="0 0 1156 867" fill="none" xmlns="http://www.w3.org/2000/svg">
<rect x="405" width="745" height="867" rx="24" fill="#131723" fill-opacity="0.55"/>
<line x1="564.5" y1="232" x2="564.5" y2="626" stroke="white" stroke-width="3" stroke-dasharray="6 6"/>
<rect x="539" y="232" width="48" height="48" rx="24" fill="white"/>
<rect x="539" y="232" width="48" height="48" rx="24" stroke="#1D2939" stroke-width="2" stroke-linecap="round" stroke-linejoin="round" stroke-dasharray="7 7"/>
<circle cx="563" cy="256" r="18" fill="#CBE52A"/>
<rect x="539" y="426.5" width="48" height="48" rx="24" fill="white"/>
<rect x="539" y="426.5" width="48" height="48" rx="24" stroke="#1D2939" stroke-width="2" stroke-linecap="round" stroke-linejoin="round" stroke-dasharray="7 7"/>
<circle cx="563" cy="450.5" r="18" fill="#1D2939"/>
<rect x="539" y="621" width="48" height="48" rx="24" fill="white"/>
<rect x="539" y="621" width="48" height="48" rx="24" stroke="#1D2939" stroke-width="2" stroke-linecap="round" stroke-linejoin="round" stroke-dasharray="7 7"/>
<circle cx="563" cy="645" r="18" fill="#CBE52A"/>
<path d="M630.49 666.3C623.86 666.3 619.75 662.22 619.75 655.95C619.75 649.68 623.86 645.6 630.49 645.6C636.73 645.6 640.75 648.72 640.75 653.82V654.27H635.74V653.82C635.74 651.18 634.24 649.92 630.58 649.92C626.17 649.92 624.52 651.48 624.52 655.95C624.52 660.42 626.17 661.98 630.58 661.98C634.24 661.98 635.74 660.72 635.74 658.08V657.63H640.75V658.08C640.75 663.18 636.76 666.3 630.49 666.3ZM650.23 666.3C645.1 666.3 641.65 663.24 641.65 658.5C641.65 653.7 645.1 650.67 650.23 650.67C655.36 650.67 658.81 653.7 658.81 658.5C658.81 663.24 655.36 666.3 650.23 666.3ZM650.23 662.31C653.26 662.31 654.34 661.14 654.34 658.5C654.34 655.86 653.26 654.63 650.23 654.63C647.17 654.63 646.12 655.86 646.12 658.5C646.12 661.14 647.17 662.31 650.23 662.31ZM664.668 666H660.168V650.97H664.338V655.59H664.608C664.998 653.07 666.798 650.67 670.728 650.67C674.838 650.67 676.788 653.31 676.788 656.64V666H672.288V658.14C672.288 655.74 671.298 654.72 668.538 654.72C665.688 654.72 664.668 655.86 664.668 658.41V666ZM684.284 666H679.784V654.69H677.654V650.97H679.874C680.354 647.94 682.994 645.9 687.614 645.9H688.934V649.17H686.894C684.914 649.17 683.984 649.5 684.104 650.97H688.934V654.69H684.284V666ZM694.934 649.44H690.434V645.9H694.934V649.44ZM694.934 666H690.434V650.97H694.934V666ZM701.325 666H696.825V650.97H700.995V654.96H701.265C701.685 652.53 703.275 650.67 706.305 650.67C709.665 650.67 711.045 652.98 711.045 655.92V658.41H706.545V656.85C706.545 655.2 705.885 654.48 704.055 654.48C702.045 654.48 701.325 655.41 701.325 657.3V666ZM716.695 666H712.195V650.97H716.365V655.53H716.605C716.965 653.01 718.465 650.67 722.245 650.67C725.725 650.67 727.495 652.8 727.825 655.59H728.095C728.455 653.04 729.985 650.67 733.855 650.67C737.725 650.67 739.615 653.22 739.615 656.64V666H735.115V658.14C735.115 655.65 734.245 654.72 731.665 654.72C728.935 654.72 728.155 655.8 728.155 658.41V666H723.655V658.14C723.655 655.65 722.785 654.72 720.205 654.72C717.475 654.72 716.695 655.8 716.695 658.41V666ZM756.16 666H752.44C748.93 666 746.8 664.35 746.8 660.57V654.69H744.43V650.97H746.8V648.06H751.3V650.97H756.16V654.69H751.3V660.06C751.3 661.56 751.87 661.95 753.46 661.95H756.16V666ZM761.866 666H757.366V645.9H761.866V655.56H762.106C762.586 653.01 764.356 650.67 768.196 650.67C772.246 650.67 774.226 653.31 774.226 656.79V666H769.726V658.14C769.726 655.62 768.646 654.72 765.826 654.72C762.796 654.72 761.866 655.95 761.866 658.47V666ZM780.637 666.3C777.397 666.3 775.447 664.8 775.447 662.28C775.447 660.06 777.097 658.68 780.307 658.35L786.757 657.69V657.12C786.757 655.17 785.887 654.63 783.487 654.63C781.207 654.63 780.277 655.23 780.277 656.94V657.06H775.747V656.97C775.747 653.25 778.867 650.67 783.817 650.67C788.827 650.67 791.197 653.25 791.197 657.18V666H786.997V662.55H786.757C786.067 664.89 783.967 666.3 780.637 666.3ZM779.977 661.98C779.977 662.79 780.607 663.12 781.927 663.12C784.987 663.12 786.637 662.4 786.757 660.27L781.537 660.87C780.457 660.96 779.977 661.26 779.977 661.98ZM803.588 666H799.868C796.358 666 794.228 664.35 794.228 660.57V654.69H791.858V650.97H794.228V648.06H798.728V650.97H803.588V654.69H798.728V660.06C798.728 661.56 799.298 661.95 800.888 661.95H803.588V666ZM813.562 666.3C810.322 666.3 808.372 664.8 808.372 662.28C808.372 660.06 810.022 658.68 813.232 658.35L819.682 657.69V657.12C819.682 655.17 818.812 654.63 816.412 654.63C814.132 654.63 813.202 655.23 813.202 656.94V657.06H808.672V656.97C808.672 653.25 811.792 650.67 816.742 650.67C821.752 650.67 824.122 653.25 824.122 657.18V666H819.922V662.55H819.682C818.992 664.89 816.892 666.3 813.562 666.3ZM812.902 661.98C812.902 662.79 813.532 663.12 814.852 663.12C817.912 663.12 819.562 662.4 819.682 660.27L814.462 660.87C813.382 660.96 812.902 661.26 812.902 661.98ZM830.423 666H825.923V645.9H830.423V666ZM836.798 666H832.298V645.9H836.798V666ZM853.413 666H849.693C846.183 666 844.053 664.35 844.053 660.57V654.69H841.683V650.97H844.053V648.06H848.553V650.97H853.413V654.69H848.553V660.06C848.553 661.56 849.123 661.95 850.713 661.95H853.413V666ZM862.598 666.3C857.588 666.3 854.168 663.84 854.168 658.5C854.168 653.7 857.558 650.67 862.508 650.67C867.428 650.67 870.698 653.25 870.698 657.96C870.698 658.5 870.638 658.89 870.578 659.4H858.338C858.458 661.71 859.538 662.7 862.448 662.7C865.118 662.7 866.048 662.01 866.048 660.72V660.42H870.548V660.75C870.548 664.02 867.368 666.3 862.598 666.3ZM862.418 654.18C859.748 654.18 858.608 655.08 858.398 657.03H866.378C866.258 655.05 865.058 654.18 862.418 654.18ZM876.746 666.3C873.506 666.3 871.556 664.8 871.556 662.28C871.556 660.06 873.206 658.68 876.416 658.35L882.866 657.69V657.12C882.866 655.17 881.996 654.63 879.596 654.63C877.316 654.63 876.386 655.23 876.386 656.94V657.06H871.856V656.97C871.856 653.25 874.976 650.67 879.926 650.67C884.936 650.67 887.306 653.25 887.306 657.18V666H883.106V662.55H882.866C882.176 664.89 880.076 666.3 876.746 666.3ZM876.086 661.98C876.086 662.79 876.716 663.12 878.036 663.12C881.096 663.12 882.746 662.4 882.866 660.27L877.646 660.87C876.566 660.96 876.086 661.26 876.086 661.98ZM893.607 666H889.107V650.97H893.277V655.53H893.517C893.877 653.01 895.377 650.67 899.157 650.67C902.637 650.67 904.407 652.8 904.737 655.59H905.007C905.367 653.04 906.897 650.67 910.767 650.67C914.637 650.67 916.527 653.22 916.527 656.64V666H912.027V658.14C912.027 655.65 911.157 654.72 908.577 654.72C905.847 654.72 905.067 655.8 905.067 658.41V666H900.567V658.14C900.567 655.65 899.697 654.72 897.117 654.72C894.387 654.72 893.607 655.8 893.607 658.41V666ZM926.983 666H922.483V650.97H926.653V655.53H926.893C927.253 653.01 928.753 650.67 932.533 650.67C936.013 650.67 937.783 652.8 938.113 655.59H938.383C938.743 653.04 940.273 650.67 944.143 650.67C948.013 650.67 949.903 653.22 949.903 656.64V666H945.403V658.14C945.403 655.65 944.533 654.72 941.953 654.72C939.223 654.72 938.443 655.8 938.443 658.41V666H933.943V658.14C933.943 655.65 933.073 654.72 930.493 654.72C927.763 654.72 926.983 655.8 926.983 658.41V666ZM959.69 666.3C954.68 666.3 951.26 663.84 951.26 658.5C951.26 653.7 954.65 650.67 959.6 650.67C964.52 650.67 967.79 653.25 967.79 657.96C967.79 658.5 967.73 658.89 967.67 659.4H955.43C955.55 661.71 956.63 662.7 959.54 662.7C962.21 662.7 963.14 662.01 963.14 660.72V660.42H967.64V660.75C967.64 664.02 964.46 666.3 959.69 666.3ZM959.51 654.18C956.84 654.18 955.7 655.08 955.49 657.03H963.47C963.35 655.05 962.15 654.18 959.51 654.18ZM973.719 666H969.219V650.97H973.389V655.53H973.629C973.989 653.01 975.489 650.67 979.269 650.67C982.749 650.67 984.519 652.8 984.849 655.59H985.119C985.479 653.04 987.009 650.67 990.879 650.67C994.749 650.67 996.639 653.22 996.639 656.64V666H992.139V658.14C992.139 655.65 991.269 654.72 988.689 654.72C985.959 654.72 985.179 655.8 985.179 658.41V666H980.679V658.14C980.679 655.65 979.809 654.72 977.229 654.72C974.499 654.72 973.719 655.8 973.719 658.41V666ZM1002.62 666H998.446V645.9H1002.95V654.96H1003.19C1003.7 652.44 1005.53 650.67 1009.1 650.67C1013.6 650.67 1016.12 653.7 1016.12 658.5C1016.12 663.24 1013.57 666.3 1008.89 666.3C1005.41 666.3 1003.43 664.8 1002.89 661.83H1002.62V666ZM1002.95 658.59C1002.95 661.2 1004.48 662.19 1007.33 662.19C1010.24 662.19 1011.56 661.23 1011.56 658.5C1011.56 655.74 1010.24 654.78 1007.36 654.78C1004.45 654.78 1002.95 655.74 1002.95 658.35V658.59ZM1025.49 666.3C1020.48 666.3 1017.06 663.84 1017.06 658.5C1017.06 653.7 1020.45 650.67 1025.4 650.67C1030.32 650.67 1033.59 653.25 1033.59 657.96C1033.59 658.5 1033.53 658.89 1033.47 659.4H1021.23C1021.35 661.71 1022.43 662.7 1025.34 662.7C1028.01 662.7 1028.94 662.01 1028.94 660.72V660.42H1033.44V660.75C1033.44 664.02 1030.26 666.3 1025.49 666.3ZM1025.31 654.18C1022.64 654.18 1021.5 655.08 1021.29 657.03H1029.27C1029.15 655.05 1027.95 654.18 1025.31 654.18ZM1039.51 666H1035.01V650.97H1039.18V654.96H1039.45C1039.87 652.53 1041.46 650.67 1044.49 650.67C1047.85 650.67 1049.23 652.98 1049.23 655.92V658.41H1044.73V656.85C1044.73 655.2 1044.07 654.48 1042.24 654.48C1040.23 654.48 1039.51 655.41 1039.51 657.3V666ZM1057.97 666.3C1052.9 666.3 1050.11 664.32 1050.11 660.84V660.75H1054.61V661.02C1054.61 662.37 1055.45 662.73 1058 662.73C1060.4 662.73 1060.97 662.34 1060.97 661.44C1060.97 660.6 1060.52 660.36 1058.75 660.12L1054.52 659.61C1051.52 659.28 1049.84 657.93 1049.84 655.41C1049.84 652.77 1052.09 650.67 1057.25 650.67C1062.17 650.67 1064.96 652.53 1064.96 656.19V656.28H1060.46V656.1C1060.46 654.87 1059.86 654.24 1057.1 654.24C1054.85 654.24 1054.28 654.63 1054.28 655.59C1054.28 656.37 1054.7 656.7 1056.68 656.94L1059.89 657.33C1063.91 657.78 1065.41 659.13 1065.41 661.62C1065.41 664.44 1062.62 666.3 1057.97 666.3ZM1068.22 670.23H1066.63V667.44H1068.1C1068.7 667.44 1069 667.29 1069 666.51V666H1066.45V660.75H1072.24V666.48C1072.24 669 1070.77 670.23 1068.22 670.23ZM624.7 675.44H620.2V671.9H624.7V675.44ZM624.7 692H620.2V676.97H624.7V692ZM631.075 692H626.575V676.97H630.745V681.59H631.015C631.405 679.07 633.205 676.67 637.135 676.67C641.245 676.67 643.195 679.31 643.195 682.64V692H638.695V684.14C638.695 681.74 637.705 680.72 634.945 680.72C632.095 680.72 631.075 681.86 631.075 684.41V692ZM653.002 692.3C647.842 692.3 644.542 689.24 644.542 684.5C644.542 679.7 647.842 676.67 653.002 676.67C657.832 676.67 661.132 679.25 661.132 683.15V683.57H656.662V683.33C656.662 681.41 655.252 680.72 652.912 680.72C650.242 680.72 649.012 681.71 649.012 684.5C649.012 687.26 650.242 688.25 652.912 688.25C655.252 688.25 656.662 687.56 656.662 685.64V685.4H661.132V685.82C661.132 689.69 657.832 692.3 653.002 692.3ZM667.088 692H662.588V671.9H667.088V692ZM675.174 692.3C670.944 692.3 668.934 689.69 668.934 686.33V676.97H673.434V684.83C673.434 687.26 674.454 688.28 677.304 688.28C680.244 688.28 681.294 687.14 681.294 684.59V676.97H685.794V692H681.594V687.41H681.354C680.964 689.93 679.134 692.3 675.174 692.3ZM694.334 692.3C689.654 692.3 687.074 689.24 687.074 684.5C687.074 679.7 689.624 676.67 694.094 676.67C697.664 676.67 699.494 678.44 700.004 680.96H700.274V671.9H704.774V692H700.574V687.83H700.334C699.764 690.8 697.784 692.3 694.334 692.3ZM691.634 684.5C691.634 687.23 692.984 688.19 695.864 688.19C698.714 688.19 700.274 687.2 700.274 684.59V684.35C700.274 681.74 698.744 680.78 695.864 680.78C692.984 680.78 691.634 681.74 691.634 684.5ZM711.175 675.44H706.675V671.9H711.175V675.44ZM711.175 692H706.675V676.97H711.175V692ZM717.551 692H713.051V676.97H717.221V681.59H717.491C717.881 679.07 719.681 676.67 723.611 676.67C727.721 676.67 729.671 679.31 729.671 682.64V692H725.171V684.14C725.171 681.74 724.181 680.72 721.421 680.72C718.571 680.72 717.551 681.86 717.551 684.41V692ZM738.067 690.47C733.597 690.47 731.017 687.8 731.017 683.57C731.017 679.37 733.747 676.67 738.247 676.67C741.307 676.67 743.497 677.99 743.977 680.6H744.217V676.97H748.417V689.81C748.417 695.06 745.237 697.4 739.867 697.4C735.007 697.4 731.947 695.24 731.947 691.46H736.447C736.447 693.14 737.107 693.65 740.167 693.65C743.047 693.65 743.917 693.05 743.917 690.11V686.72H743.677C743.197 688.94 741.427 690.47 738.067 690.47ZM735.547 683.57C735.547 685.79 736.807 686.6 739.627 686.6C742.507 686.6 743.917 685.79 743.917 683.72V683.39C743.917 681.35 742.477 680.57 739.687 680.57C736.807 680.57 735.547 681.35 735.547 683.57ZM765.062 692H761.342C757.832 692 755.702 690.35 755.702 686.57V680.69H753.332V676.97H755.702V674.06H760.202V676.97H765.062V680.69H760.202V686.06C760.202 687.56 760.772 687.95 762.362 687.95H765.062V692ZM770.768 692H766.268V671.9H770.768V681.56H771.008C771.488 679.01 773.258 676.67 777.098 676.67C781.148 676.67 783.128 679.31 783.128 682.79V692H778.628V684.14C778.628 681.62 777.548 680.72 774.728 680.72C771.698 680.72 770.768 681.95 770.768 684.47V692ZM792.899 692.3C787.889 692.3 784.469 689.84 784.469 684.5C784.469 679.7 787.859 676.67 792.809 676.67C797.729 676.67 800.999 679.25 800.999 683.96C800.999 684.5 800.939 684.89 800.879 685.4H788.639C788.759 687.71 789.839 688.7 792.749 688.7C795.419 688.7 796.349 688.01 796.349 686.72V686.42H800.849V686.75C800.849 690.02 797.669 692.3 792.899 692.3ZM792.719 680.18C790.049 680.18 788.909 681.08 788.699 683.03H796.679C796.559 681.05 795.359 680.18 792.719 680.18ZM811.076 692H806.576V671.9H811.076V692ZM820.931 692.3C815.921 692.3 812.501 689.84 812.501 684.5C812.501 679.7 815.891 676.67 820.841 676.67C825.761 676.67 829.031 679.25 829.031 683.96C829.031 684.5 828.971 684.89 828.911 685.4H816.671C816.791 687.71 817.871 688.7 820.781 688.7C823.451 688.7 824.381 688.01 824.381 686.72V686.42H828.881V686.75C828.881 690.02 825.701 692.3 820.931 692.3ZM820.751 680.18C818.081 680.18 816.941 681.08 816.731 683.03H824.711C824.591 681.05 823.391 680.18 820.751 680.18ZM835.079 692.3C831.839 692.3 829.889 690.8 829.889 688.28C829.889 686.06 831.539 684.68 834.749 684.35L841.199 683.69V683.12C841.199 681.17 840.329 680.63 837.929 680.63C835.649 680.63 834.719 681.23 834.719 682.94V683.06H830.189V682.97C830.189 679.25 833.309 676.67 838.259 676.67C843.269 676.67 845.639 679.25 845.639 683.18V692H841.439V688.55H841.199C840.509 690.89 838.409 692.3 835.079 692.3ZM834.419 687.98C834.419 688.79 835.049 689.12 836.369 689.12C839.429 689.12 841.079 688.4 841.199 686.27L835.979 686.87C834.899 686.96 834.419 687.26 834.419 687.98ZM854.16 692.3C849.48 692.3 846.9 689.24 846.9 684.5C846.9 679.7 849.45 676.67 853.92 676.67C857.49 676.67 859.32 678.44 859.83 680.96H860.1V671.9H864.6V692H860.4V687.83H860.16C859.59 690.8 857.61 692.3 854.16 692.3ZM851.46 684.5C851.46 687.23 852.81 688.19 855.69 688.19C858.54 688.19 860.1 687.2 860.1 684.59V684.35C860.1 681.74 858.57 680.78 855.69 680.78C852.81 680.78 851.46 681.74 851.46 684.5ZM867.971 696.23H866.381V693.44H867.851C868.451 693.44 868.751 693.29 868.751 692.51V692H866.201V686.75H871.991V692.48C871.991 695 870.521 696.23 867.971 696.23ZM882.258 692H877.758V671.9H882.258V681.56H882.498C882.978 679.01 884.748 676.67 888.588 676.67C892.638 676.67 894.618 679.31 894.618 682.79V692H890.118V684.14C890.118 681.62 889.038 680.72 886.218 680.72C883.188 680.72 882.258 681.95 882.258 684.47V692ZM901.029 692.3C897.789 692.3 895.839 690.8 895.839 688.28C895.839 686.06 897.489 684.68 900.699 684.35L907.149 683.69V683.12C907.149 681.17 906.279 680.63 903.879 680.63C901.599 680.63 900.669 681.23 900.669 682.94V683.06H896.139V682.97C896.139 679.25 899.259 676.67 904.209 676.67C909.219 676.67 911.589 679.25 911.589 683.18V692H907.389V688.55H907.149C906.459 690.89 904.359 692.3 901.029 692.3ZM900.369 687.98C900.369 688.79 900.999 689.12 902.319 689.12C905.379 689.12 907.029 688.4 907.149 686.27L901.929 686.87C900.849 686.96 900.369 687.26 900.369 687.98ZM924.58 692H919.03L912.19 676.97H917.2L921.7 687.62H922L926.53 676.97H931.45L924.58 692ZM940.138 692.3C935.128 692.3 931.708 689.84 931.708 684.5C931.708 679.7 935.098 676.67 940.048 676.67C944.968 676.67 948.238 679.25 948.238 683.96C948.238 684.5 948.178 684.89 948.118 685.4H935.878C935.998 687.71 937.078 688.7 939.988 688.7C942.658 688.7 943.588 688.01 943.588 686.72V686.42H948.088V686.75C948.088 690.02 944.908 692.3 940.138 692.3ZM939.958 680.18C937.288 680.18 936.148 681.08 935.938 683.03H943.918C943.798 681.05 942.598 680.18 939.958 680.18ZM624.7 718H620.2V702.97H624.37V706.96H624.64C625.06 704.53 626.65 702.67 629.68 702.67C633.04 702.67 634.42 704.98 634.42 707.92V710.41H629.92V708.85C629.92 707.2 629.26 706.48 627.43 706.48C625.42 706.48 624.7 707.41 624.7 709.3V718ZM643.55 718.3C638.54 718.3 635.12 715.84 635.12 710.5C635.12 705.7 638.51 702.67 643.46 702.67C648.38 702.67 651.65 705.25 651.65 709.96C651.65 710.5 651.59 710.89 651.53 711.4H639.29C639.41 713.71 640.49 714.7 643.4 714.7C646.07 714.7 647 714.01 647 712.72V712.42H651.5V712.75C651.5 716.02 648.32 718.3 643.55 718.3ZM643.37 706.18C640.7 706.18 639.56 707.08 639.35 709.03H647.33C647.21 707.05 646.01 706.18 643.37 706.18ZM661.088 718.3C655.928 718.3 652.628 715.24 652.628 710.5C652.628 705.7 655.928 702.67 661.088 702.67C665.918 702.67 669.218 705.25 669.218 709.15V709.57H664.748V709.33C664.748 707.41 663.338 706.72 660.998 706.72C658.328 706.72 657.098 707.71 657.098 710.5C657.098 713.26 658.328 714.25 660.998 714.25C663.338 714.25 664.748 713.56 664.748 711.64V711.4H669.218V711.82C669.218 715.69 665.918 718.3 661.088 718.3ZM678.654 718.3C673.644 718.3 670.224 715.84 670.224 710.5C670.224 705.7 673.614 702.67 678.564 702.67C683.484 702.67 686.754 705.25 686.754 709.96C686.754 710.5 686.694 710.89 686.634 711.4H674.394C674.514 713.71 675.594 714.7 678.504 714.7C681.174 714.7 682.104 714.01 682.104 712.72V712.42H686.604V712.75C686.604 716.02 683.424 718.3 678.654 718.3ZM678.474 706.18C675.804 706.18 674.664 707.08 674.454 709.03H682.434C682.314 707.05 681.114 706.18 678.474 706.18ZM692.682 701.44H688.182V697.9H692.682V701.44ZM692.682 718H688.182V702.97H692.682V718ZM705.748 718H700.198L693.358 702.97H698.368L702.868 713.62H703.168L707.698 702.97H712.618L705.748 718ZM721.306 718.3C716.296 718.3 712.876 715.84 712.876 710.5C712.876 705.7 716.266 702.67 721.216 702.67C726.136 702.67 729.406 705.25 729.406 709.96C729.406 710.5 729.346 710.89 729.286 711.4H717.046C717.166 713.71 718.246 714.7 721.156 714.7C723.826 714.7 724.756 714.01 724.756 712.72V712.42H729.256V712.75C729.256 716.02 726.076 718.3 721.306 718.3ZM721.126 706.18C718.456 706.18 717.316 707.08 717.106 709.03H725.086C724.966 707.05 723.766 706.18 721.126 706.18ZM737.554 718.3C732.874 718.3 730.294 715.24 730.294 710.5C730.294 705.7 732.844 702.67 737.314 702.67C740.884 702.67 742.714 704.44 743.224 706.96H743.494V697.9H747.994V718H743.794V713.83H743.554C742.984 716.8 741.004 718.3 737.554 718.3ZM734.854 710.5C734.854 713.23 736.204 714.19 739.084 714.19C741.934 714.19 743.494 713.2 743.494 710.59V710.35C743.494 707.74 741.964 706.78 739.084 706.78C736.204 706.78 734.854 707.74 734.854 710.5ZM764.634 718H760.914C757.404 718 755.274 716.35 755.274 712.57V706.69H752.904V702.97H755.274V700.06H759.774V702.97H764.634V706.69H759.774V712.06C759.774 713.56 760.344 713.95 761.934 713.95H764.634V718ZM770.339 718H765.839V697.9H770.339V707.56H770.579C771.059 705.01 772.829 702.67 776.669 702.67C780.719 702.67 782.699 705.31 782.699 708.79V718H778.199V710.14C778.199 707.62 777.119 706.72 774.299 706.72C771.269 706.72 770.339 707.95 770.339 710.47V718ZM792.47 718.3C787.46 718.3 784.04 715.84 784.04 710.5C784.04 705.7 787.43 702.67 792.38 702.67C797.3 702.67 800.57 705.25 800.57 709.96C800.57 710.5 800.51 710.89 800.45 711.4H788.21C788.33 713.71 789.41 714.7 792.32 714.7C794.99 714.7 795.92 714.01 795.92 712.72V712.42H800.42V712.75C800.42 716.02 797.24 718.3 792.47 718.3ZM792.29 706.18C789.62 706.18 788.48 707.08 788.27 709.03H796.25C796.13 707.05 794.93 706.18 792.29 706.18ZM814.157 718.3C809.027 718.3 805.577 715.24 805.577 710.5C805.577 705.7 809.027 702.67 814.157 702.67C819.287 702.67 822.737 705.7 822.737 710.5C822.737 715.24 819.287 718.3 814.157 718.3ZM814.157 714.31C817.187 714.31 818.267 713.14 818.267 710.5C818.267 707.86 817.187 706.63 814.157 706.63C811.097 706.63 810.047 707.86 810.047 710.5C810.047 713.14 811.097 714.31 814.157 714.31ZM828.595 718H824.095V702.97H828.265V707.59H828.535C828.925 705.07 830.725 702.67 834.655 702.67C838.765 702.67 840.715 705.31 840.715 708.64V718H836.215V710.14C836.215 707.74 835.225 706.72 832.465 706.72C829.615 706.72 828.595 707.86 828.595 710.41V718ZM846.682 718H842.512V697.9H847.012V706.96H847.252C847.762 704.44 849.592 702.67 853.162 702.67C857.662 702.67 860.182 705.7 860.182 710.5C860.182 715.24 857.632 718.3 852.952 718.3C849.472 718.3 847.492 716.8 846.952 713.83H846.682V718ZM847.012 710.59C847.012 713.2 848.542 714.19 851.392 714.19C854.302 714.19 855.622 713.23 855.622 710.5C855.622 707.74 854.302 706.78 851.422 706.78C848.512 706.78 847.012 707.74 847.012 710.35V710.59ZM869.583 718.3C864.453 718.3 861.003 715.24 861.003 710.5C861.003 705.7 864.453 702.67 869.583 702.67C874.713 702.67 878.163 705.7 878.163 710.5C878.163 715.24 874.713 718.3 869.583 718.3ZM869.583 714.31C872.613 714.31 873.693 713.14 873.693 710.5C873.693 707.86 872.613 706.63 869.583 706.63C866.523 706.63 865.473 707.86 865.473 710.5C865.473 713.14 866.523 714.31 869.583 714.31ZM884.14 718.3C880.9 718.3 878.95 716.8 878.95 714.28C878.95 712.06 880.6 710.68 883.81 710.35L890.26 709.69V709.12C890.26 707.17 889.39 706.63 886.99 706.63C884.71 706.63 883.78 707.23 883.78 708.94V709.06H879.25V708.97C879.25 705.25 882.37 702.67 887.32 702.67C892.33 702.67 894.7 705.25 894.7 709.18V718H890.5V714.55H890.26C889.57 716.89 887.47 718.3 884.14 718.3ZM883.48 713.98C883.48 714.79 884.11 715.12 885.43 715.12C888.49 715.12 890.14 714.4 890.26 712.27L885.04 712.87C883.96 712.96 883.48 713.26 883.48 713.98ZM901.001 718H896.501V702.97H900.671V706.96H900.941C901.361 704.53 902.951 702.67 905.981 702.67C909.341 702.67 910.721 704.98 910.721 707.92V710.41H906.221V708.85C906.221 707.2 905.561 706.48 903.731 706.48C901.721 706.48 901.001 707.41 901.001 709.3V718ZM918.591 718.3C913.911 718.3 911.331 715.24 911.331 710.5C911.331 705.7 913.881 702.67 918.351 702.67C921.921 702.67 923.751 704.44 924.261 706.96H924.531V697.9H929.031V718H924.831V713.83H924.591C924.021 716.8 922.041 718.3 918.591 718.3ZM915.891 710.5C915.891 713.23 917.241 714.19 920.121 714.19C922.971 714.19 924.531 713.2 924.531 710.59V710.35C924.531 707.74 923.001 706.78 920.121 706.78C917.241 706.78 915.891 707.74 915.891 710.5ZM935.432 701.44H930.932V697.9H935.432V701.44ZM935.432 718H930.932V702.97H935.432V718ZM941.808 718H937.308V702.97H941.478V707.59H941.748C942.138 705.07 943.938 702.67 947.868 702.67C951.978 702.67 953.928 705.31 953.928 708.64V718H949.428V710.14C949.428 707.74 948.438 706.72 945.678 706.72C942.828 706.72 941.808 707.86 941.808 710.41V718ZM962.324 716.47C957.854 716.47 955.274 713.8 955.274 709.57C955.274 705.37 958.004 702.67 962.504 702.67C965.564 702.67 967.754 703.99 968.234 706.6H968.474V702.97H972.674V715.81C972.674 721.06 969.494 723.4 964.124 723.4C959.264 723.4 956.204 721.24 956.204 717.46H960.704C960.704 719.14 961.364 719.65 964.424 719.65C967.304 719.65 968.174 719.05 968.174 716.11V712.72H967.934C967.454 714.94 965.684 716.47 962.324 716.47ZM959.804 709.57C959.804 711.79 961.064 712.6 963.884 712.6C966.764 712.6 968.174 711.79 968.174 709.72V709.39C968.174 707.35 966.734 706.57 963.944 706.57C961.064 706.57 959.804 707.35 959.804 709.57ZM986.709 718.3C981.699 718.3 978.279 715.84 978.279 710.5C978.279 705.7 981.669 702.67 986.619 702.67C991.539 702.67 994.809 705.25 994.809 709.96C994.809 710.5 994.749 710.89 994.689 711.4H982.449C982.569 713.71 983.649 714.7 986.559 714.7C989.229 714.7 990.159 714.01 990.159 712.72V712.42H994.659V712.75C994.659 716.02 991.479 718.3 986.709 718.3ZM986.529 706.18C983.859 706.18 982.719 707.08 982.509 709.03H990.489C990.369 707.05 989.169 706.18 986.529 706.18ZM1000.74 718H996.237V702.97H1000.41V707.53H1000.65C1001.01 705.01 1002.51 702.67 1006.29 702.67C1009.77 702.67 1011.54 704.8 1011.87 707.59H1012.14C1012.5 705.04 1014.03 702.67 1017.9 702.67C1021.77 702.67 1023.66 705.22 1023.66 708.64V718H1019.16V710.14C1019.16 707.65 1018.29 706.72 1015.71 706.72C1012.98 706.72 1012.2 707.8 1012.2 710.41V718H1007.7V710.14C1007.7 707.65 1006.83 706.72 1004.25 706.72C1001.52 706.72 1000.74 707.8 1000.74 710.41V718ZM1030.08 718.3C1026.84 718.3 1024.89 716.8 1024.89 714.28C1024.89 712.06 1026.54 710.68 1029.75 710.35L1036.2 709.69V709.12C1036.2 707.17 1035.33 706.63 1032.93 706.63C1030.65 706.63 1029.72 707.23 1029.72 708.94V709.06H1025.19V708.97C1025.19 705.25 1028.31 702.67 1033.26 702.67C1038.27 702.67 1040.64 705.25 1040.64 709.18V718H1036.44V714.55H1036.2C1035.51 716.89 1033.41 718.3 1030.08 718.3ZM1029.42 713.98C1029.42 714.79 1030.05 715.12 1031.37 715.12C1034.43 715.12 1036.08 714.4 1036.2 712.27L1030.98 712.87C1029.9 712.96 1029.42 713.26 1029.42 713.98ZM1046.95 701.44H1042.45V697.9H1046.95V701.44ZM1046.95 718H1042.45V702.97H1046.95V718ZM1053.32 718H1048.82V697.9H1053.32V718Z" fill="white"/>
<g opacity="0.26" filter="url(#filter0_f_858_1266)">
<ellipse cx="737.5" cy="431.5" rx="258.5" ry="163.5" fill="#CBE52A" fill-opacity="0.45"/>
</g>
<path d="M629.575 260.25C624.05 260.25 620.625 256.85 620.625 251.625C620.625 246.4 624.05 243 629.575 243C634.775 243 638.125 245.6 638.125 249.85V250.225H633.95V249.85C633.95 247.65 632.7 246.6 629.65 246.6C625.975 246.6 624.6 247.9 624.6 251.625C624.6 255.35 625.975 256.65 629.65 256.65C632.7 256.65 633.95 255.6 633.95 253.4V253.025H638.125V253.4C638.125 257.65 634.8 260.25 629.575 260.25ZM645.5 260H641.75V243.25H651C655.125 243.25 657.475 245.075 657.475 248.275C657.475 251 655.9 252.625 652.75 252.925V253.125C654.25 253.525 654.825 254.325 655.45 255.5L657.875 260H653.525L651.225 255.65C650.55 254.35 649.925 253.925 647.975 253.925H645.5V260ZM645.5 246.625V251.1H650.975C652.75 251.1 653.55 250.6 653.55 248.85C653.55 247.2 652.75 246.625 650.975 246.625H645.5ZM675.235 260H661.06V243.25H675.235V246.625H664.81V249.9H674.86V253.25H664.81V256.625H675.235V260ZM682.004 260H677.804L685.129 243.25H690.479L697.854 260H693.554L691.979 256.3H683.604L682.004 260ZM686.629 249.275L685.054 252.925H690.529L688.954 249.275L687.929 246.675H687.654L686.629 249.275ZM710.054 260H706.304V246.625H700.079V243.25H716.279V246.625H710.054V260ZM733.798 260H719.623V243.25H733.798V246.625H723.373V249.9H733.423V253.25H723.373V256.625H733.798V260ZM746.425 260H742.225L749.55 243.25H754.9L762.275 260H757.975L756.4 256.3H748.025L746.425 260ZM751.05 249.275L749.475 252.925H754.95L753.375 249.275L752.35 246.675H752.075L751.05 249.275ZM774.757 260H771.007V243.25H780.257C784.382 243.25 786.732 245.075 786.732 248.275C786.732 251 785.157 252.625 782.007 252.925V253.125C783.507 253.525 784.082 254.325 784.707 255.5L787.132 260H782.782L780.482 255.65C779.807 254.35 779.182 253.925 777.232 253.925H774.757V260ZM774.757 246.625V251.1H780.232C782.007 251.1 782.807 250.6 782.807 248.85C782.807 247.2 782.007 246.625 780.232 246.625H774.757ZM804.491 260H790.316V243.25H804.491V246.625H794.066V249.9H804.116V253.25H794.066V256.625H804.491V260ZM811.936 260H808.186V243.25H816.936C820.811 243.25 823.311 245.45 823.311 249.3C823.311 253.15 820.811 255.375 816.936 255.375H811.936V260ZM816.536 246.625H811.936V252H816.536C818.611 252 819.586 251.4 819.586 249.3C819.586 247.25 818.611 246.625 816.536 246.625ZM835.266 260.25C829.716 260.25 826.266 256.85 826.266 251.625C826.266 246.4 829.716 243 835.266 243C840.941 243 844.366 246.4 844.366 251.625C844.366 256.85 840.941 260.25 835.266 260.25ZM835.266 256.65C838.941 256.65 840.366 255.35 840.366 251.625C840.366 247.9 838.941 246.6 835.266 246.6C831.591 246.6 830.241 247.9 830.241 251.625C830.241 255.35 831.591 256.65 835.266 256.65Z" fill="white" fill-opacity="0.85"/>
<path d="M630.92 294.3C624.38 294.3 621.05 291 621.05 285.6V273.9H625.55V285.27C625.55 288.69 626.84 289.92 630.92 289.92C635.03 289.92 636.29 288.69 636.29 285.27V273.9H640.79V285.6C640.79 291 637.49 294.3 630.92 294.3ZM650.165 294.3C645.095 294.3 642.305 292.32 642.305 288.84V288.75H646.805V289.02C646.805 290.37 647.645 290.73 650.195 290.73C652.595 290.73 653.165 290.34 653.165 289.44C653.165 288.6 652.715 288.36 650.945 288.12L646.715 287.61C643.715 287.28 642.035 285.93 642.035 283.41C642.035 280.77 644.285 278.67 649.445 278.67C654.365 278.67 657.155 280.53 657.155 284.19V284.28H652.655V284.1C652.655 282.87 652.055 282.24 649.295 282.24C647.045 282.24 646.475 282.63 646.475 283.59C646.475 284.37 646.895 284.7 648.875 284.94L652.085 285.33C656.105 285.78 657.605 287.13 657.605 289.62C657.605 292.44 654.815 294.3 650.165 294.3ZM663.441 277.44H658.941V273.9H663.441V277.44ZM663.441 294H658.941V278.97H663.441V294ZM669.817 294H665.317V278.97H669.487V283.59H669.757C670.147 281.07 671.947 278.67 675.877 278.67C679.987 278.67 681.937 281.31 681.937 284.64V294H677.437V286.14C677.437 283.74 676.447 282.72 673.687 282.72C670.837 282.72 669.817 283.86 669.817 286.41V294ZM690.333 292.47C685.863 292.47 683.283 289.8 683.283 285.57C683.283 281.37 686.013 278.67 690.513 278.67C693.573 278.67 695.763 279.99 696.243 282.6H696.483V278.97H700.683V291.81C700.683 297.06 697.503 299.4 692.133 299.4C687.273 299.4 684.213 297.24 684.213 293.46H688.713C688.713 295.14 689.373 295.65 692.433 295.65C695.313 295.65 696.183 295.05 696.183 292.11V288.72H695.943C695.463 290.94 693.693 292.47 690.333 292.47ZM687.813 285.57C687.813 287.79 689.073 288.6 691.893 288.6C694.773 288.6 696.183 287.79 696.183 285.72V285.39C696.183 283.35 694.743 282.57 691.953 282.57C689.073 282.57 687.813 283.35 687.813 285.57ZM717.328 294H713.608C710.098 294 707.968 292.35 707.968 288.57V282.69H705.598V278.97H707.968V276.06H712.468V278.97H717.328V282.69H712.468V288.06C712.468 289.56 713.038 289.95 714.628 289.95H717.328V294ZM723.033 294H718.533V273.9H723.033V283.56H723.273C723.753 281.01 725.523 278.67 729.363 278.67C733.413 278.67 735.393 281.31 735.393 284.79V294H730.893V286.14C730.893 283.62 729.813 282.72 726.993 282.72C723.963 282.72 723.033 283.95 723.033 286.47V294ZM745.164 294.3C740.154 294.3 736.734 291.84 736.734 286.5C736.734 281.7 740.124 278.67 745.074 278.67C749.994 278.67 753.264 281.25 753.264 285.96C753.264 286.5 753.204 286.89 753.144 287.4H740.904C741.024 289.71 742.104 290.7 745.014 290.7C747.684 290.7 748.614 290.01 748.614 288.72V288.42H753.114V288.75C753.114 292.02 749.934 294.3 745.164 294.3ZM744.984 282.18C742.314 282.18 741.174 283.08 740.964 285.03H748.944C748.824 283.05 747.624 282.18 744.984 282.18ZM765.441 292.47C760.971 292.47 758.391 289.8 758.391 285.57C758.391 281.37 761.121 278.67 765.621 278.67C768.681 278.67 770.871 279.99 771.351 282.6H771.591V278.97H775.791V291.81C775.791 297.06 772.611 299.4 767.241 299.4C762.381 299.4 759.321 297.24 759.321 293.46H763.821C763.821 295.14 764.481 295.65 767.541 295.65C770.421 295.65 771.291 295.05 771.291 292.11V288.72H771.051C770.571 290.94 768.801 292.47 765.441 292.47ZM762.921 285.57C762.921 287.79 764.181 288.6 767.001 288.6C769.881 288.6 771.291 287.79 771.291 285.72V285.39C771.291 283.35 769.851 282.57 767.061 282.57C764.181 282.57 762.921 283.35 762.921 285.57ZM782.197 277.44H777.697V273.9H782.197V277.44ZM782.197 294H777.697V278.97H782.197V294ZM795.263 294H789.713L782.873 278.97H787.883L792.383 289.62H792.683L797.213 278.97H802.133L795.263 294ZM810.821 294.3C805.811 294.3 802.391 291.84 802.391 286.5C802.391 281.7 805.781 278.67 810.731 278.67C815.651 278.67 818.921 281.25 818.921 285.96C818.921 286.5 818.861 286.89 818.801 287.4H806.561C806.681 289.71 807.761 290.7 810.671 290.7C813.341 290.7 814.271 290.01 814.271 288.72V288.42H818.771V288.75C818.771 292.02 815.591 294.3 810.821 294.3ZM810.641 282.18C807.971 282.18 806.831 283.08 806.621 285.03H814.601C814.481 283.05 813.281 282.18 810.641 282.18ZM824.849 294H820.349V278.97H824.519V283.59H824.789C825.179 281.07 826.979 278.67 830.909 278.67C835.019 278.67 836.969 281.31 836.969 284.64V294H832.469V286.14C832.469 283.74 831.479 282.72 828.719 282.72C825.869 282.72 824.849 283.86 824.849 286.41V294ZM631.79 320H628.07C624.56 320 622.43 318.35 622.43 314.57V308.69H620.06V304.97H622.43V302.06H626.93V304.97H631.79V308.69H626.93V314.06C626.93 315.56 627.5 315.95 629.09 315.95H631.79V320ZM640.975 320.3C635.965 320.3 632.545 317.84 632.545 312.5C632.545 307.7 635.935 304.67 640.885 304.67C645.805 304.67 649.075 307.25 649.075 311.96C649.075 312.5 649.015 312.89 648.955 313.4H636.715C636.835 315.71 637.915 316.7 640.825 316.7C643.495 316.7 644.425 316.01 644.425 314.72V314.42H648.925V314.75C648.925 318.02 645.745 320.3 640.975 320.3ZM640.795 308.18C638.125 308.18 636.985 309.08 636.775 311.03H644.755C644.635 309.05 643.435 308.18 640.795 308.18ZM655.004 320H650.504V304.97H654.674V309.53H654.914C655.274 307.01 656.774 304.67 660.554 304.67C664.034 304.67 665.804 306.8 666.134 309.59H666.404C666.764 307.04 668.294 304.67 672.164 304.67C676.034 304.67 677.924 307.22 677.924 310.64V320H673.424V312.14C673.424 309.65 672.554 308.72 669.974 308.72C667.244 308.72 666.464 309.8 666.464 312.41V320H661.964V312.14C661.964 309.65 661.094 308.72 658.514 308.72C655.784 308.72 655.004 309.8 655.004 312.41V320ZM684.231 325.1H679.731V304.97H683.901V309.08H684.201C684.741 306.2 686.661 304.67 690.201 304.67C694.821 304.67 697.401 307.73 697.401 312.5C697.401 317.27 694.881 320.3 690.351 320.3C686.871 320.3 684.951 318.59 684.441 315.95H684.231V325.1ZM684.231 312.71C684.231 315.29 685.791 316.19 688.611 316.19C691.491 316.19 692.841 315.23 692.841 312.5C692.841 309.74 691.491 308.81 688.641 308.81C685.731 308.81 684.231 309.8 684.231 312.47V312.71ZM703.292 320H698.792V299.9H703.292V320ZM709.787 320.3C706.547 320.3 704.597 318.8 704.597 316.28C704.597 314.06 706.247 312.68 709.457 312.35L715.907 311.69V311.12C715.907 309.17 715.037 308.63 712.637 308.63C710.357 308.63 709.427 309.23 709.427 310.94V311.06H704.897V310.97C704.897 307.25 708.017 304.67 712.967 304.67C717.977 304.67 720.347 307.25 720.347 311.18V320H716.147V316.55H715.907C715.217 318.89 713.117 320.3 709.787 320.3ZM709.127 315.98C709.127 316.79 709.757 317.12 711.077 317.12C714.137 317.12 715.787 316.4 715.907 314.27L710.687 314.87C709.607 314.96 709.127 315.26 709.127 315.98ZM732.738 320H729.018C725.508 320 723.378 318.35 723.378 314.57V308.69H721.008V304.97H723.378V302.06H727.878V304.97H732.738V308.69H727.878V314.06C727.878 315.56 728.448 315.95 730.038 315.95H732.738V320ZM741.924 320.3C736.914 320.3 733.494 317.84 733.494 312.5C733.494 307.7 736.884 304.67 741.834 304.67C746.754 304.67 750.024 307.25 750.024 311.96C750.024 312.5 749.964 312.89 749.904 313.4H737.664C737.784 315.71 738.864 316.7 741.774 316.7C744.444 316.7 745.374 316.01 745.374 314.72V314.42H749.874V314.75C749.874 318.02 746.694 320.3 741.924 320.3ZM741.744 308.18C739.074 308.18 737.934 309.08 737.724 311.03H745.704C745.584 309.05 744.384 308.18 741.744 308.18Z" fill="white"/>
<path d="M624.75 450H621V433.25H635.175V436.625H624.75V440.4H634.8V443.75H624.75V450ZM647.396 450.25C641.846 450.25 638.396 446.85 638.396 441.625C638.396 436.4 641.846 433 647.396 433C653.071 433 656.496 436.4 656.496 441.625C656.496 446.85 653.071 450.25 647.396 450.25ZM647.396 446.65C651.071 446.65 652.496 445.35 652.496 441.625C652.496 437.9 651.071 436.6 647.396 436.6C643.721 436.6 642.371 437.9 642.371 441.625C642.371 445.35 643.721 446.65 647.396 446.65ZM663.882 450H660.132V433.25H669.382C673.507 433.25 675.857 435.075 675.857 438.275C675.857 441 674.282 442.625 671.132 442.925V443.125C672.632 443.525 673.207 444.325 673.832 445.5L676.257 450H671.907L669.607 445.65C668.932 444.35 668.307 443.925 666.357 443.925H663.882V450ZM663.882 436.625V441.1H669.357C671.132 441.1 671.932 440.6 671.932 438.85C671.932 437.2 671.132 436.625 669.357 436.625H663.882ZM683.191 450H679.441V433.25H684.516L688.441 441.5L690.016 445.425H690.291L691.816 441.5L695.616 433.25H700.716V450H696.966V441.5L697.091 438.875H696.816L695.841 441.5L692.341 449H687.791L684.291 441.5L683.316 438.875H683.041L683.191 441.5V450ZM713.616 450H709.416L716.741 433.25H722.091L729.466 450H725.166L723.591 446.3H715.216L713.616 450ZM718.241 439.275L716.666 442.925H722.141L720.566 439.275L719.541 436.675H719.266L718.241 439.275ZM747.523 450H743.773V436.625H737.548V433.25H753.748V436.625H747.523V450ZM771.268 450H757.093V433.25H771.268V436.625H760.843V439.9H770.893V443.25H760.843V446.625H771.268V450ZM778.037 450H773.837L781.162 433.25H786.512L793.887 450H789.587L788.012 446.3H779.637L778.037 450ZM782.662 439.275L781.087 442.925H786.562L784.987 439.275L783.962 436.675H783.687L782.662 439.275ZM800.512 450H796.762V433.25H801.837L805.762 441.5L807.337 445.425H807.612L809.137 441.5L812.937 433.25H818.037V450H814.287V441.5L814.412 438.875H814.137L813.162 441.5L809.662 449H805.112L801.612 441.5L800.637 438.875H800.362L800.512 441.5V450Z" fill="white" fill-opacity="0.85"/>
<path d="M631.55 482.3C624.89 482.3 620.75 478.22 620.75 471.95C620.75 465.68 624.89 461.6 631.55 461.6C638.36 461.6 642.47 465.68 642.47 471.95C642.47 478.22 638.36 482.3 631.55 482.3ZM631.55 477.98C635.96 477.98 637.67 476.42 637.67 471.95C637.67 467.48 635.96 465.92 631.55 465.92C627.14 465.92 625.52 467.48 625.52 471.95C625.52 476.42 627.14 477.98 631.55 477.98ZM649.652 482H645.152V470.69H643.022V466.97H645.242C645.722 463.94 648.362 461.9 652.982 461.9H654.302V465.17H652.262C650.282 465.17 649.352 465.5 649.472 466.97H654.302V470.69H649.652V482ZM676.797 482H658.947V479.12C658.947 475.58 660.477 473.75 664.707 472.34L669.867 470.66C671.667 470.03 672.327 469.43 672.327 468.11C672.327 466.58 671.487 465.71 668.187 465.71C664.497 465.71 663.387 466.82 663.387 469.04V469.43H658.977V469.04C658.977 465.14 661.647 461.6 668.337 461.6C674.397 461.6 676.857 464.36 676.857 468.17C676.857 471.74 674.517 473.51 670.947 474.5L666.567 475.7C664.617 476.3 663.687 476.87 663.687 478.46L668.937 477.95H676.797V482ZM689.174 475.07H677.984V471.2H689.174V475.07ZM707.282 482H702.782V478.16H690.032V475.1L702.062 461.9H707.282V474.11H710.342V478.16H707.282V482ZM696.302 474.11H702.782V467.09H702.452L696.302 473.78V474.11ZM720.133 482H715.633V466.97H719.803V471.53H720.043C720.403 469.01 721.903 466.67 725.683 466.67C729.163 466.67 730.933 468.8 731.263 471.59H731.533C731.893 469.04 733.423 466.67 737.293 466.67C741.163 466.67 743.053 469.22 743.053 472.64V482H738.553V474.14C738.553 471.65 737.683 470.72 735.103 470.72C732.373 470.72 731.593 471.8 731.593 474.41V482H727.093V474.14C727.093 471.65 726.223 470.72 723.643 470.72C720.913 470.72 720.133 471.8 720.133 474.41V482ZM752.84 482.3C747.83 482.3 744.41 479.84 744.41 474.5C744.41 469.7 747.8 466.67 752.75 466.67C757.67 466.67 760.94 469.25 760.94 473.96C760.94 474.5 760.88 474.89 760.82 475.4H748.58C748.7 477.71 749.78 478.7 752.69 478.7C755.36 478.7 756.29 478.01 756.29 476.72V476.42H760.79V476.75C760.79 480.02 757.61 482.3 752.84 482.3ZM752.66 470.18C749.99 470.18 748.85 471.08 748.64 473.03H756.62C756.5 471.05 755.3 470.18 752.66 470.18ZM766.868 482H762.368V466.97H766.538V471.53H766.778C767.138 469.01 768.638 466.67 772.418 466.67C775.898 466.67 777.668 468.8 777.998 471.59H778.268C778.628 469.04 780.158 466.67 784.028 466.67C787.898 466.67 789.788 469.22 789.788 472.64V482H785.288V474.14C785.288 471.65 784.418 470.72 781.838 470.72C779.108 470.72 778.328 471.8 778.328 474.41V482H773.828V474.14C773.828 471.65 772.958 470.72 770.378 470.72C767.648 470.72 766.868 471.8 766.868 474.41V482ZM795.765 482H791.595V461.9H796.095V470.96H796.335C796.845 468.44 798.675 466.67 802.245 466.67C806.745 466.67 809.265 469.7 809.265 474.5C809.265 479.24 806.715 482.3 802.035 482.3C798.555 482.3 796.575 480.8 796.035 477.83H795.765V482ZM796.095 474.59C796.095 477.2 797.625 478.19 800.475 478.19C803.385 478.19 804.705 477.23 804.705 474.5C804.705 471.74 803.385 470.78 800.505 470.78C797.595 470.78 796.095 471.74 796.095 474.35V474.59ZM818.636 482.3C813.626 482.3 810.206 479.84 810.206 474.5C810.206 469.7 813.596 466.67 818.546 466.67C823.466 466.67 826.736 469.25 826.736 473.96C826.736 474.5 826.676 474.89 826.616 475.4H814.376C814.496 477.71 815.576 478.7 818.486 478.7C821.156 478.7 822.086 478.01 822.086 476.72V476.42H826.586V476.75C826.586 480.02 823.406 482.3 818.636 482.3ZM818.456 470.18C815.786 470.18 814.646 471.08 814.436 473.03H822.416C822.296 471.05 821.096 470.18 818.456 470.18ZM832.665 482H828.165V466.97H832.335V470.96H832.605C833.025 468.53 834.615 466.67 837.645 466.67C841.005 466.67 842.385 468.98 842.385 471.92V474.41H837.885V472.85C837.885 471.2 837.225 470.48 835.395 470.48C833.385 470.48 832.665 471.41 832.665 473.3V482ZM851.124 482.3C846.054 482.3 843.264 480.32 843.264 476.84V476.75H847.764V477.02C847.764 478.37 848.604 478.73 851.154 478.73C853.554 478.73 854.124 478.34 854.124 477.44C854.124 476.6 853.674 476.36 851.904 476.12L847.674 475.61C844.674 475.28 842.994 473.93 842.994 471.41C842.994 468.77 845.244 466.67 850.404 466.67C855.324 466.67 858.114 468.53 858.114 472.19V472.28H853.614V472.1C853.614 470.87 853.014 470.24 850.254 470.24C848.004 470.24 847.434 470.63 847.434 471.59C847.434 472.37 847.854 472.7 849.834 472.94L853.044 473.33C857.064 473.78 858.564 475.13 858.564 477.62C858.564 480.44 855.774 482.3 851.124 482.3ZM625.7 491.44H621.2V487.9H625.7V491.44ZM625.7 508H621.2V492.97H625.7V508ZM632.075 508H627.575V492.97H631.745V497.59H632.015C632.405 495.07 634.205 492.67 638.135 492.67C642.245 492.67 644.195 495.31 644.195 498.64V508H639.695V500.14C639.695 497.74 638.705 496.72 635.945 496.72C633.095 496.72 632.075 497.86 632.075 500.41V508ZM654.002 508.3C648.842 508.3 645.542 505.24 645.542 500.5C645.542 495.7 648.842 492.67 654.002 492.67C658.832 492.67 662.132 495.25 662.132 499.15V499.57H657.662V499.33C657.662 497.41 656.252 496.72 653.912 496.72C651.242 496.72 650.012 497.71 650.012 500.5C650.012 503.26 651.242 504.25 653.912 504.25C656.252 504.25 657.662 503.56 657.662 501.64V501.4H662.132V501.82C662.132 505.69 658.832 508.3 654.002 508.3ZM668.088 508H663.588V487.9H668.088V508ZM676.174 508.3C671.944 508.3 669.934 505.69 669.934 502.33V492.97H674.434V500.83C674.434 503.26 675.454 504.28 678.304 504.28C681.244 504.28 682.294 503.14 682.294 500.59V492.97H686.794V508H682.594V503.41H682.354C681.964 505.93 680.134 508.3 676.174 508.3ZM695.334 508.3C690.654 508.3 688.074 505.24 688.074 500.5C688.074 495.7 690.624 492.67 695.094 492.67C698.664 492.67 700.494 494.44 701.004 496.96H701.274V487.9H705.774V508H701.574V503.83H701.334C700.764 506.8 698.784 508.3 695.334 508.3ZM692.634 500.5C692.634 503.23 693.984 504.19 696.864 504.19C699.714 504.19 701.274 503.2 701.274 500.59V500.35C701.274 497.74 699.744 496.78 696.864 496.78C693.984 496.78 692.634 497.74 692.634 500.5ZM712.175 491.44H707.675V487.9H712.175V491.44ZM712.175 508H707.675V492.97H712.175V508ZM718.551 508H714.051V492.97H718.221V497.59H718.491C718.881 495.07 720.681 492.67 724.611 492.67C728.721 492.67 730.671 495.31 730.671 498.64V508H726.171V500.14C726.171 497.74 725.181 496.72 722.421 496.72C719.571 496.72 718.551 497.86 718.551 500.41V508ZM739.067 506.47C734.597 506.47 732.017 503.8 732.017 499.57C732.017 495.37 734.747 492.67 739.247 492.67C742.307 492.67 744.497 493.99 744.977 496.6H745.217V492.97H749.417V505.81C749.417 511.06 746.237 513.4 740.867 513.4C736.007 513.4 732.947 511.24 732.947 507.46H737.447C737.447 509.14 738.107 509.65 741.167 509.65C744.047 509.65 744.917 509.05 744.917 506.11V502.72H744.677C744.197 504.94 742.427 506.47 739.067 506.47ZM736.547 499.57C736.547 501.79 737.807 502.6 740.627 502.6C743.507 502.6 744.917 501.79 744.917 499.72V499.39C744.917 497.35 743.477 496.57 740.687 496.57C737.807 496.57 736.547 497.35 736.547 499.57ZM766.662 508H762.162V491.95H754.692V487.9H774.132V491.95H766.662V508ZM783.246 508.3C778.236 508.3 774.816 505.84 774.816 500.5C774.816 495.7 778.206 492.67 783.156 492.67C788.076 492.67 791.346 495.25 791.346 499.96C791.346 500.5 791.286 500.89 791.226 501.4H778.986C779.106 503.71 780.186 504.7 783.096 504.7C785.766 504.7 786.696 504.01 786.696 502.72V502.42H791.196V502.75C791.196 506.02 788.016 508.3 783.246 508.3ZM783.066 496.18C780.396 496.18 779.256 497.08 779.046 499.03H787.026C786.906 497.05 785.706 496.18 783.066 496.18ZM797.394 508.3C794.154 508.3 792.204 506.8 792.204 504.28C792.204 502.06 793.854 500.68 797.064 500.35L803.514 499.69V499.12C803.514 497.17 802.644 496.63 800.244 496.63C797.964 496.63 797.034 497.23 797.034 498.94V499.06H792.504V498.97C792.504 495.25 795.624 492.67 800.574 492.67C805.584 492.67 807.954 495.25 807.954 499.18V508H803.754V504.55H803.514C802.824 506.89 800.724 508.3 797.394 508.3ZM796.734 503.98C796.734 504.79 797.364 505.12 798.684 505.12C801.744 505.12 803.394 504.4 803.514 502.27L798.294 502.87C797.214 502.96 796.734 503.26 796.734 503.98ZM814.255 508H809.755V492.97H813.925V497.53H814.165C814.525 495.01 816.025 492.67 819.805 492.67C823.285 492.67 825.055 494.8 825.385 497.59H825.655C826.015 495.04 827.545 492.67 831.415 492.67C835.285 492.67 837.175 495.22 837.175 498.64V508H832.675V500.14C832.675 497.65 831.805 496.72 829.225 496.72C826.495 496.72 825.715 497.8 825.715 500.41V508H821.215V500.14C821.215 497.65 820.345 496.72 817.765 496.72C815.035 496.72 814.255 497.8 814.255 500.41V508ZM859.601 508H843.131V487.9H847.631V503.95H859.601V508ZM868.912 508.3C863.902 508.3 860.482 505.84 860.482 500.5C860.482 495.7 863.872 492.67 868.822 492.67C873.742 492.67 877.012 495.25 877.012 499.96C877.012 500.5 876.952 500.89 876.892 501.4H864.652C864.772 503.71 865.852 504.7 868.762 504.7C871.432 504.7 872.362 504.01 872.362 502.72V502.42H876.862V502.75C876.862 506.02 873.682 508.3 868.912 508.3ZM868.732 496.18C866.062 496.18 864.922 497.08 864.712 499.03H872.692C872.572 497.05 871.372 496.18 868.732 496.18ZM883.06 508.3C879.82 508.3 877.87 506.8 877.87 504.28C877.87 502.06 879.52 500.68 882.73 500.35L889.18 499.69V499.12C889.18 497.17 888.31 496.63 885.91 496.63C883.63 496.63 882.7 497.23 882.7 498.94V499.06H878.17V498.97C878.17 495.25 881.29 492.67 886.24 492.67C891.25 492.67 893.62 495.25 893.62 499.18V508H889.42V504.55H889.18C888.49 506.89 886.39 508.3 883.06 508.3ZM882.4 503.98C882.4 504.79 883.03 505.12 884.35 505.12C887.41 505.12 889.06 504.4 889.18 502.27L883.96 502.87C882.88 502.96 882.4 503.26 882.4 503.98ZM902.141 508.3C897.461 508.3 894.881 505.24 894.881 500.5C894.881 495.7 897.431 492.67 901.901 492.67C905.471 492.67 907.301 494.44 907.811 496.96H908.081V487.9H912.581V508H908.381V503.83H908.141C907.571 506.8 905.591 508.3 902.141 508.3ZM899.441 500.5C899.441 503.23 900.791 504.19 903.671 504.19C906.521 504.19 908.081 503.2 908.081 500.59V500.35C908.081 497.74 906.551 496.78 903.671 496.78C900.791 496.78 899.441 497.74 899.441 500.5Z" fill="white"/>
<path d="M624.75 625H621V608.25H630.25C634.375 608.25 636.725 610.075 636.725 613.275C636.725 616 635.15 617.625 632 617.925V618.125C633.5 618.525 634.075 619.325 634.7 620.5L637.125 625H632.775L630.475 620.65C629.8 619.35 629.175 618.925 627.225 618.925H624.75V625ZM624.75 611.625V616.1H630.225C632 616.1 632.8 615.6 632.8 613.85C632.8 612.2 632 611.625 630.225 611.625H624.75ZM654.485 625H640.31V608.25H654.485V611.625H644.06V614.9H654.11V618.25H644.06V621.625H654.485V625ZM666.079 625.25C660.954 625.25 657.804 621.85 657.804 616.625C657.804 611.4 661.354 608 667.104 608C672.354 608 675.679 610.45 675.679 614.475V614.675H671.504V614.475C671.504 612.525 670.229 611.6 667.004 611.6C663.204 611.6 661.779 612.9 661.779 616.625C661.779 620.35 663.154 621.65 666.829 621.65C670.679 621.65 671.854 621.05 671.954 618.925H666.279V616.15H675.704V625H672.229V621.4H672.029C671.454 623.6 669.704 625.25 666.079 625.25ZM683.289 625H679.539V608.25H683.289V625ZM694.852 625.25C689.777 625.25 686.927 623.25 686.927 619.35V619.2H690.677V619.65C690.677 621.2 691.452 621.825 694.852 621.825C697.852 621.825 698.552 621.375 698.552 620.25C698.552 619.225 697.977 618.85 696.252 618.55L691.552 617.875C688.552 617.4 686.777 615.9 686.777 613.175C686.777 610.65 688.827 608 694.452 608C699.602 608 702.002 610.375 702.002 613.9V614.05H698.227V613.7C698.227 612.1 697.402 611.425 694.077 611.425C691.377 611.425 690.552 611.95 690.552 613.025C690.552 614 691.102 614.35 692.502 614.6L697.202 615.35C700.952 615.95 702.302 617.775 702.302 620.075C702.302 622.8 700.177 625.25 694.852 625.25ZM715.154 625H711.404V611.625H705.179V608.25H721.379V611.625H715.154V625ZM738.899 625H724.724V608.25H738.899V611.625H728.474V614.9H738.524V618.25H728.474V621.625H738.899V625ZM746.343 625H742.593V608.25H751.843C755.968 608.25 758.318 610.075 758.318 613.275C758.318 616 756.743 617.625 753.593 617.925V618.125C755.093 618.525 755.668 619.325 756.293 620.5L758.718 625H754.368L752.068 620.65C751.393 619.35 750.768 618.925 748.818 618.925H746.343V625ZM746.343 611.625V616.1H751.818C753.593 616.1 754.393 615.6 754.393 613.85C754.393 612.2 753.593 611.625 751.818 611.625H746.343ZM777.685 625H773.91V619.45L766.485 608.25H771.11L774.31 613.15L775.71 615.4H775.985L777.385 613.15L780.585 608.25H785.235L777.685 619.475V625ZM796.573 625.25C791.023 625.25 787.573 621.85 787.573 616.625C787.573 611.4 791.023 608 796.573 608C802.248 608 805.673 611.4 805.673 616.625C805.673 621.85 802.248 625.25 796.573 625.25ZM796.573 621.65C800.248 621.65 801.673 620.35 801.673 616.625C801.673 612.9 800.248 611.6 796.573 611.6C792.898 611.6 791.548 612.9 791.548 616.625C791.548 620.35 792.898 621.65 796.573 621.65ZM817.409 625.25C811.959 625.25 809.184 622.5 809.184 618V608.25H812.934V617.725C812.934 620.575 814.009 621.6 817.409 621.6C820.834 621.6 821.884 620.575 821.884 617.725V608.25H825.634V618C825.634 622.5 822.884 625.25 817.409 625.25ZM833.271 625H829.521V608.25H838.771C842.896 608.25 845.246 610.075 845.246 613.275C845.246 616 843.671 617.625 840.521 617.925V618.125C842.021 618.525 842.596 619.325 843.221 620.5L845.646 625H841.296L838.996 620.65C838.321 619.35 837.696 618.925 835.746 618.925H833.271V625ZM833.271 611.625V616.1H838.746C840.521 616.1 841.321 615.6 841.321 613.85C841.321 612.2 840.521 611.625 838.746 611.625H833.271ZM864.013 625H860.263V611.625H854.038V608.25H870.238V611.625H864.013V625ZM887.758 625H873.583V608.25H887.758V611.625H877.333V614.9H887.383V618.25H877.333V621.625H887.758V625ZM894.527 625H890.327L897.652 608.25H903.002L910.377 625H906.077L904.502 621.3H896.127L894.527 625ZM899.152 614.275L897.577 617.925H903.052L901.477 614.275L900.452 611.675H900.177L899.152 614.275ZM917.002 625H913.252V608.25H918.327L922.252 616.5L923.827 620.425H924.102L925.627 616.5L929.427 608.25H934.527V625H930.777V616.5L930.902 613.875H930.627L929.652 616.5L926.152 624H921.602L918.102 616.5L917.127 613.875H916.852L917.002 616.5V625Z" fill="white" fill-opacity="0.85"/>
<defs>
<filter id="filter0_f_858_1266" x="319" y="108" width="837" height="647" filterUnits="userSpaceOnUse" color-interpolation-filters="sRGB">
<feFlood flood-opacity="0" result="BackgroundImageFix"/>
<feBlend mode="normal" in="SourceGraphic" in2="BackgroundImageFix" result="shape"/>
<feGaussianBlur stdDeviation="80" result="effect1_foregroundBlur_858_1266"/>
</filter>
</defs>
</svg>
