<svg width="1156" height="867" viewBox="0 0 1156 867" fill="none" xmlns="http://www.w3.org/2000/svg">
<rect x="405" width="745" height="867" rx="24" fill="#131723" fill-opacity="0.55"/>
<line x1="564.5" y1="232" x2="564.5" y2="626" stroke="white" stroke-width="3" stroke-dasharray="6 6"/>
<rect x="539" y="232" width="48" height="48" rx="24" fill="white"/>
<rect x="539" y="232" width="48" height="48" rx="24" stroke="#1D2939" stroke-width="2" stroke-linecap="round" stroke-linejoin="round" stroke-dasharray="7 7"/>
<circle cx="563" cy="256" r="18" fill="#CBE52A"/>
<rect x="539" y="426.5" width="48" height="48" rx="24" fill="white"/>
<rect x="539" y="426.5" width="48" height="48" rx="24" stroke="#1D2939" stroke-width="2" stroke-linecap="round" stroke-linejoin="round" stroke-dasharray="7 7"/>
<circle cx="563" cy="450.5" r="18" fill="#1D2939"/>
<rect x="539" y="621" width="48" height="48" rx="24" fill="white"/>
<rect x="539" y="621" width="48" height="48" rx="24" stroke="#1D2939" stroke-width="2" stroke-linecap="round" stroke-linejoin="round" stroke-dasharray="7 7"/>
<circle cx="563" cy="645" r="18" fill="#CBE52A"/>
<g opacity="0.26" filter="url(#filter0_f_890_1126)">
<ellipse cx="737.5" cy="431.5" rx="258.5" ry="163.5" fill="#CBE52A" fill-opacity="0.45"/>
</g>
<path d="M629.42 263H622.96V249.6H629.42C633.72 249.6 636.44 252.1 636.44 256.3C636.44 260.5 633.72 263 629.42 263ZM629.42 252.3H625.96V260.3H629.42C632.14 260.3 633.24 259.52 633.24 256.3C633.24 253.08 632.14 252.3 629.42 252.3ZM642.741 263H639.741V249.6H642.741V263ZM655.192 263H650.912L645.352 249.6H648.972L652.992 259.96H653.192L657.152 249.6H660.752L655.192 263ZM674.73 263H663.39V249.6H674.73V252.3H666.39V254.92H674.43V257.6H666.39V260.3H674.73V263ZM686.171 263H683.171V249.6H686.171V263ZM692.741 263H689.741V249.6H692.941L697.741 255.94L699.581 258.76H699.801L699.661 256.06V249.6H702.661V263H699.461L694.521 256.6L692.821 254.08H692.621L692.741 256.54V263ZM713.713 263H710.713V252.3H705.733V249.6H718.693V252.3H713.713V263ZM728.669 263.2C724.229 263.2 721.469 260.48 721.469 256.3C721.469 252.12 724.229 249.4 728.669 249.4C733.209 249.4 735.949 252.12 735.949 256.3C735.949 260.48 733.209 263.2 728.669 263.2ZM728.669 260.32C731.609 260.32 732.749 259.28 732.749 256.3C732.749 253.32 731.609 252.28 728.669 252.28C725.729 252.28 724.649 253.32 724.649 256.3C724.649 259.28 725.729 260.32 728.669 260.32ZM751.803 263H748.803V252.3H743.823V249.6H756.783V252.3H751.803V263ZM762.859 263H759.859V249.6H762.859V254.92H769.859V249.6H772.859V263H769.859V257.62H762.859V263ZM787.808 263H776.468V249.6H787.808V252.3H779.468V254.92H787.508V257.6H779.468V260.3H787.808V263ZM799.249 263H796.249V249.6H807.589V252.3H799.249V255.32H807.289V258H799.249V263ZM813.866 263H810.866V249.6H818.266C821.566 249.6 823.446 251.06 823.446 253.62C823.446 255.8 822.186 257.1 819.666 257.34V257.5C820.866 257.82 821.326 258.46 821.826 259.4L823.766 263H820.286L818.446 259.52C817.906 258.48 817.406 258.14 815.846 258.14H813.866V263ZM813.866 252.3V255.88H818.246C819.666 255.88 820.306 255.48 820.306 254.08C820.306 252.76 819.666 252.3 818.246 252.3H813.866ZM829.174 263H825.814L831.674 249.6H835.954L841.854 263H838.414L837.154 260.04H830.454L829.174 263ZM832.874 254.42L831.614 257.34H835.994L834.734 254.42L833.914 252.34H833.694L832.874 254.42ZM847.554 263H844.554V249.6H848.614L851.754 256.2L853.014 259.34H853.234L854.454 256.2L857.494 249.6H861.574V263H858.574V256.2L858.674 254.1H858.454L857.674 256.2L854.874 262.2H851.234L848.434 256.2L847.654 254.1H847.434L847.554 256.2V263ZM876.488 263H865.148V249.6H876.488V252.3H868.148V254.92H876.188V257.6H868.148V260.3H876.488V263ZM886.883 263H882.423L879.263 249.6H882.623L884.243 257.2L884.703 260.14H884.923L885.543 257.2L887.783 249.6H892.243L894.463 257.2L895.083 260.14H895.303L895.763 257.2L897.383 249.6H900.663L897.483 263H893.023L891.023 256.3L890.083 252.44H889.863L888.923 256.3L886.883 263ZM910.598 263.2C906.158 263.2 903.398 260.48 903.398 256.3C903.398 252.12 906.158 249.4 910.598 249.4C915.138 249.4 917.878 252.12 917.878 256.3C917.878 260.48 915.138 263.2 910.598 263.2ZM910.598 260.32C913.538 260.32 914.678 259.28 914.678 256.3C914.678 253.32 913.538 252.28 910.598 252.28C907.658 252.28 906.578 253.32 906.578 256.3C906.578 259.28 907.658 260.32 910.598 260.32ZM924.187 263H921.187V249.6H928.587C931.887 249.6 933.767 251.06 933.767 253.62C933.767 255.8 932.507 257.1 929.987 257.34V257.5C931.187 257.82 931.647 258.46 932.147 259.4L934.087 263H930.607L928.767 259.52C928.227 258.48 927.727 258.14 926.167 258.14H924.187V263ZM924.187 252.3V255.88H928.567C929.987 255.88 930.627 255.48 930.627 254.08C930.627 252.76 929.987 252.3 928.567 252.3H924.187ZM940.034 263H937.034V249.6H940.034V254.92H943.374L946.934 249.6H950.534L945.874 256.2L950.474 263H946.874L943.414 257.84H940.034V263ZM955.292 263.4H952.092L959.292 249.2H962.492L955.292 263.4ZM967.244 263H963.884L969.744 249.6H974.024L979.924 263H976.484L975.224 260.04H968.524L967.244 263ZM970.944 254.42L969.684 257.34H974.064L972.804 254.42L971.984 252.34H971.764L970.944 254.42ZM985.624 263H982.624V249.6H989.624C992.724 249.6 994.724 251.36 994.724 254.44C994.724 257.52 992.724 259.3 989.624 259.3H985.624V263ZM989.304 252.3H985.624V256.6H989.304C990.964 256.6 991.744 256.12 991.744 254.44C991.744 252.8 990.964 252.3 989.304 252.3ZM1000.79 263H997.788V249.6H1000.79V263Z" fill="white" fill-opacity="0.85"/>
<path d="M632.92 302.3C626.38 302.3 623.05 299 623.05 293.6V281.9H627.55V293.27C627.55 296.69 628.84 297.92 632.92 297.92C637.03 297.92 638.29 296.69 638.29 293.27V281.9H642.79V293.6C642.79 299 639.49 302.3 632.92 302.3ZM652.165 302.3C647.095 302.3 644.305 300.32 644.305 296.84V296.75H648.805V297.02C648.805 298.37 649.645 298.73 652.195 298.73C654.595 298.73 655.165 298.34 655.165 297.44C655.165 296.6 654.715 296.36 652.945 296.12L648.715 295.61C645.715 295.28 644.035 293.93 644.035 291.41C644.035 288.77 646.285 286.67 651.445 286.67C656.365 286.67 659.155 288.53 659.155 292.19V292.28H654.655V292.1C654.655 290.87 654.055 290.24 651.295 290.24C649.045 290.24 648.475 290.63 648.475 291.59C648.475 292.37 648.895 292.7 650.875 292.94L654.085 293.33C658.105 293.78 659.605 295.13 659.605 297.62C659.605 300.44 656.815 302.3 652.165 302.3ZM665.441 285.44H660.941V281.9H665.441V285.44ZM665.441 302H660.941V286.97H665.441V302ZM671.817 302H667.317V286.97H671.487V291.59H671.757C672.147 289.07 673.947 286.67 677.877 286.67C681.987 286.67 683.937 289.31 683.937 292.64V302H679.437V294.14C679.437 291.74 678.447 290.72 675.687 290.72C672.837 290.72 671.817 291.86 671.817 294.41V302ZM692.333 300.47C687.863 300.47 685.283 297.8 685.283 293.57C685.283 289.37 688.013 286.67 692.513 286.67C695.573 286.67 697.763 287.99 698.243 290.6H698.483V286.97H702.683V299.81C702.683 305.06 699.503 307.4 694.133 307.4C689.273 307.4 686.213 305.24 686.213 301.46H690.713C690.713 303.14 691.373 303.65 694.433 303.65C697.313 303.65 698.183 303.05 698.183 300.11V296.72H697.943C697.463 298.94 695.693 300.47 692.333 300.47ZM689.813 293.57C689.813 295.79 691.073 296.6 693.893 296.6C696.773 296.6 698.183 295.79 698.183 293.72V293.39C698.183 291.35 696.743 290.57 693.953 290.57C691.073 290.57 689.813 291.35 689.813 293.57ZM719.328 302H715.608C712.098 302 709.968 300.35 709.968 296.57V290.69H707.598V286.97H709.968V284.06H714.468V286.97H719.328V290.69H714.468V296.06C714.468 297.56 715.038 297.95 716.628 297.95H719.328V302ZM725.033 302H720.533V281.9H725.033V291.56H725.273C725.753 289.01 727.523 286.67 731.363 286.67C735.413 286.67 737.393 289.31 737.393 292.79V302H732.893V294.14C732.893 291.62 731.813 290.72 728.993 290.72C725.963 290.72 725.033 291.95 725.033 294.47V302ZM747.164 302.3C742.154 302.3 738.734 299.84 738.734 294.5C738.734 289.7 742.124 286.67 747.074 286.67C751.994 286.67 755.264 289.25 755.264 293.96C755.264 294.5 755.204 294.89 755.144 295.4H742.904C743.024 297.71 744.104 298.7 747.014 298.7C749.684 298.7 750.614 298.01 750.614 296.72V296.42H755.114V296.75C755.114 300.02 751.934 302.3 747.164 302.3ZM746.984 290.18C744.314 290.18 743.174 291.08 742.964 293.03H750.944C750.824 291.05 749.624 290.18 746.984 290.18ZM767.561 302.3C762.881 302.3 760.301 299.24 760.301 294.5C760.301 289.7 762.851 286.67 767.321 286.67C770.891 286.67 772.721 288.44 773.231 290.96H773.501V281.9H778.001V302H773.801V297.83H773.561C772.991 300.8 771.011 302.3 767.561 302.3ZM764.861 294.5C764.861 297.23 766.211 298.19 769.091 298.19C771.941 298.19 773.501 297.2 773.501 294.59V294.35C773.501 291.74 771.971 290.78 769.091 290.78C766.211 290.78 764.861 291.74 764.861 294.5ZM787.912 302.3C782.782 302.3 779.332 299.24 779.332 294.5C779.332 289.7 782.782 286.67 787.912 286.67C793.042 286.67 796.492 289.7 796.492 294.5C796.492 299.24 793.042 302.3 787.912 302.3ZM787.912 298.31C790.942 298.31 792.022 297.14 792.022 294.5C792.022 291.86 790.942 290.63 787.912 290.63C784.852 290.63 783.802 291.86 783.802 294.5C783.802 297.14 784.852 298.31 787.912 298.31ZM805.86 302.3C800.7 302.3 797.4 299.24 797.4 294.5C797.4 289.7 800.7 286.67 805.86 286.67C810.69 286.67 813.99 289.25 813.99 293.15V293.57H809.52V293.33C809.52 291.41 808.11 290.72 805.77 290.72C803.1 290.72 801.87 291.71 801.87 294.5C801.87 297.26 803.1 298.25 805.77 298.25C808.11 298.25 809.52 297.56 809.52 295.64V295.4H813.99V295.82C813.99 299.69 810.69 302.3 805.86 302.3ZM823.036 302.3C817.966 302.3 815.176 300.32 815.176 296.84V296.75H819.676V297.02C819.676 298.37 820.516 298.73 823.066 298.73C825.466 298.73 826.036 298.34 826.036 297.44C826.036 296.6 825.586 296.36 823.816 296.12L819.586 295.61C816.586 295.28 814.906 293.93 814.906 291.41C814.906 288.77 817.156 286.67 822.316 286.67C827.236 286.67 830.026 288.53 830.026 292.19V292.28H825.526V292.1C825.526 290.87 824.926 290.24 822.166 290.24C819.916 290.24 819.346 290.63 819.346 291.59C819.346 292.37 819.766 292.7 821.746 292.94L824.956 293.33C828.976 293.78 830.476 295.13 830.476 297.62C830.476 300.44 827.686 302.3 823.036 302.3ZM840.461 307.1H835.961V286.97H840.131V291.08H840.431C840.971 288.2 842.891 286.67 846.431 286.67C851.051 286.67 853.631 289.73 853.631 294.5C853.631 299.27 851.111 302.3 846.581 302.3C843.101 302.3 841.181 300.59 840.671 297.95H840.461V307.1ZM840.461 294.71C840.461 297.29 842.021 298.19 844.841 298.19C847.721 298.19 849.071 297.23 849.071 294.5C849.071 291.74 847.721 290.81 844.871 290.81C841.961 290.81 840.461 291.8 840.461 294.47V294.71ZM859.522 302H855.022V286.97H859.192V290.96H859.462C859.882 288.53 861.472 286.67 864.502 286.67C867.862 286.67 869.242 288.98 869.242 291.92V294.41H864.742V292.85C864.742 291.2 864.082 290.48 862.252 290.48C860.242 290.48 859.522 291.41 859.522 293.3V302ZM878.402 302.3C873.272 302.3 869.822 299.24 869.822 294.5C869.822 289.7 873.272 286.67 878.402 286.67C883.532 286.67 886.982 289.7 886.982 294.5C886.982 299.24 883.532 302.3 878.402 302.3ZM878.402 298.31C881.432 298.31 882.512 297.14 882.512 294.5C882.512 291.86 881.432 290.63 878.402 290.63C875.342 290.63 874.292 291.86 874.292 294.5C874.292 297.14 875.342 298.31 878.402 298.31ZM899.529 302H893.979L887.139 286.97H892.149L896.649 297.62H896.949L901.479 286.97H906.399L899.529 302ZM911.607 285.44H907.107V281.9H911.607V285.44ZM911.607 302H907.107V286.97H911.607V302ZM920.203 302.3C915.523 302.3 912.943 299.24 912.943 294.5C912.943 289.7 915.493 286.67 919.963 286.67C923.533 286.67 925.363 288.44 925.873 290.96H926.143V281.9H930.643V302H926.443V297.83H926.203C925.633 300.8 923.653 302.3 920.203 302.3ZM917.503 294.5C917.503 297.23 918.853 298.19 921.733 298.19C924.583 298.19 926.143 297.2 926.143 294.59V294.35C926.143 291.74 924.613 290.78 921.733 290.78C918.853 290.78 917.503 291.74 917.503 294.5ZM940.524 302.3C935.514 302.3 932.094 299.84 932.094 294.5C932.094 289.7 935.484 286.67 940.434 286.67C945.354 286.67 948.624 289.25 948.624 293.96C948.624 294.5 948.564 294.89 948.504 295.4H936.264C936.384 297.71 937.464 298.7 940.374 298.7C943.044 298.7 943.974 298.01 943.974 296.72V296.42H948.474V296.75C948.474 300.02 945.294 302.3 940.524 302.3ZM940.344 290.18C937.674 290.18 936.534 291.08 936.324 293.03H944.304C944.184 291.05 942.984 290.18 940.344 290.18ZM956.772 302.3C952.092 302.3 949.512 299.24 949.512 294.5C949.512 289.7 952.062 286.67 956.532 286.67C960.102 286.67 961.932 288.44 962.442 290.96H962.712V281.9H967.212V302H963.012V297.83H962.772C962.202 300.8 960.222 302.3 956.772 302.3ZM954.072 294.5C954.072 297.23 955.422 298.19 958.302 298.19C961.152 298.19 962.712 297.2 962.712 294.59V294.35C962.712 291.74 961.182 290.78 958.302 290.78C955.422 290.78 954.072 291.74 954.072 294.5ZM977.762 285.44H973.262V281.9H977.762V285.44ZM977.762 302H973.262V286.97H977.762V302ZM984.138 302H979.638V286.97H983.808V291.59H984.078C984.468 289.07 986.268 286.67 990.198 286.67C994.308 286.67 996.258 289.31 996.258 292.64V302H991.758V294.14C991.758 291.74 990.768 290.72 988.008 290.72C985.158 290.72 984.138 291.86 984.138 294.41V302ZM633.79 328H630.07C626.56 328 624.43 326.35 624.43 322.57V316.69H622.06V312.97H624.43V310.06H628.93V312.97H633.79V316.69H628.93V322.06C628.93 323.56 629.5 323.95 631.09 323.95H633.79V328ZM639.495 328H634.995V307.9H639.495V317.56H639.735C640.215 315.01 641.985 312.67 645.825 312.67C649.875 312.67 651.855 315.31 651.855 318.79V328H647.355V320.14C647.355 317.62 646.275 316.72 643.455 316.72C640.425 316.72 639.495 317.95 639.495 320.47V328ZM661.626 328.3C656.616 328.3 653.196 325.84 653.196 320.5C653.196 315.7 656.586 312.67 661.536 312.67C666.456 312.67 669.726 315.25 669.726 319.96C669.726 320.5 669.666 320.89 669.606 321.4H657.366C657.486 323.71 658.566 324.7 661.476 324.7C664.146 324.7 665.076 324.01 665.076 322.72V322.42H669.576V322.75C669.576 326.02 666.396 328.3 661.626 328.3ZM661.446 316.18C658.776 316.18 657.636 317.08 657.426 319.03H665.406C665.286 317.05 664.086 316.18 661.446 316.18ZM679.803 328H675.303V307.9H681.393L686.103 317.8L687.993 322.51H688.323L690.153 317.8L694.713 307.9H700.833V328H696.333V317.8L696.483 314.65H696.153L694.983 317.8L690.783 326.8H685.323L681.123 317.8L679.953 314.65H679.623L679.803 317.8V328ZM710.724 328.3C705.594 328.3 702.144 325.24 702.144 320.5C702.144 315.7 705.594 312.67 710.724 312.67C715.854 312.67 719.304 315.7 719.304 320.5C719.304 325.24 715.854 328.3 710.724 328.3ZM710.724 324.31C713.754 324.31 714.834 323.14 714.834 320.5C714.834 317.86 713.754 316.63 710.724 316.63C707.664 316.63 706.614 317.86 706.614 320.5C706.614 323.14 707.664 324.31 710.724 324.31ZM725.162 328H720.662V312.97H724.832V316.96H725.102C725.522 314.53 727.112 312.67 730.142 312.67C733.502 312.67 734.882 314.98 734.882 317.92V320.41H730.382V318.85C730.382 317.2 729.722 316.48 727.892 316.48C725.882 316.48 725.162 317.41 725.162 319.3V328ZM744.011 328.3C739.001 328.3 735.581 325.84 735.581 320.5C735.581 315.7 738.971 312.67 743.921 312.67C748.841 312.67 752.111 315.25 752.111 319.96C752.111 320.5 752.051 320.89 751.991 321.4H739.751C739.871 323.71 740.951 324.7 743.861 324.7C746.531 324.7 747.461 324.01 747.461 322.72V322.42H751.961V322.75C751.961 326.02 748.781 328.3 744.011 328.3ZM743.831 316.18C741.161 316.18 740.021 317.08 739.811 319.03H747.791C747.671 317.05 746.471 316.18 743.831 316.18ZM762.189 328H757.689V307.9H762.189V328ZM768.564 328H764.064V312.97H768.234V317.59H768.504C768.894 315.07 770.694 312.67 774.624 312.67C778.734 312.67 780.684 315.31 780.684 318.64V328H776.184V320.14C776.184 317.74 775.194 316.72 772.434 316.72C769.584 316.72 768.564 317.86 768.564 320.41V328ZM788.181 328H783.681V316.69H781.551V312.97H783.771C784.251 309.94 786.891 307.9 791.511 307.9H792.831V311.17H790.791C788.811 311.17 787.881 311.5 788.001 312.97H792.831V316.69H788.181V328ZM801.846 328.3C796.716 328.3 793.266 325.24 793.266 320.5C793.266 315.7 796.716 312.67 801.846 312.67C806.976 312.67 810.426 315.7 810.426 320.5C810.426 325.24 806.976 328.3 801.846 328.3ZM801.846 324.31C804.876 324.31 805.956 323.14 805.956 320.5C805.956 317.86 804.876 316.63 801.846 316.63C798.786 316.63 797.736 317.86 797.736 320.5C797.736 323.14 798.786 324.31 801.846 324.31ZM823.523 328.3C818.453 328.3 815.663 326.32 815.663 322.84V322.75H820.163V323.02C820.163 324.37 821.003 324.73 823.553 324.73C825.953 324.73 826.523 324.34 826.523 323.44C826.523 322.6 826.073 322.36 824.303 322.12L820.073 321.61C817.073 321.28 815.393 319.93 815.393 317.41C815.393 314.77 817.643 312.67 822.803 312.67C827.723 312.67 830.513 314.53 830.513 318.19V318.28H826.013V318.1C826.013 316.87 825.413 316.24 822.653 316.24C820.403 316.24 819.833 316.63 819.833 317.59C819.833 318.37 820.253 318.7 822.233 318.94L825.443 319.33C829.463 319.78 830.963 321.13 830.963 323.62C830.963 326.44 828.173 328.3 823.523 328.3ZM840.279 328.3C835.269 328.3 831.849 325.84 831.849 320.5C831.849 315.7 835.239 312.67 840.189 312.67C845.109 312.67 848.379 315.25 848.379 319.96C848.379 320.5 848.319 320.89 848.259 321.4H836.019C836.139 323.71 837.219 324.7 840.129 324.7C842.799 324.7 843.729 324.01 843.729 322.72V322.42H848.229V322.75C848.229 326.02 845.049 328.3 840.279 328.3ZM840.099 316.18C837.429 316.18 836.289 317.08 836.079 319.03H844.059C843.939 317.05 842.739 316.18 840.099 316.18ZM857.817 328.3C852.657 328.3 849.357 325.24 849.357 320.5C849.357 315.7 852.657 312.67 857.817 312.67C862.647 312.67 865.947 315.25 865.947 319.15V319.57H861.477V319.33C861.477 317.41 860.067 316.72 857.727 316.72C855.057 316.72 853.827 317.71 853.827 320.5C853.827 323.26 855.057 324.25 857.727 324.25C860.067 324.25 861.477 323.56 861.477 321.64V321.4H865.947V321.82C865.947 325.69 862.647 328.3 857.817 328.3ZM877.993 328H874.273C870.763 328 868.633 326.35 868.633 322.57V316.69H866.263V312.97H868.633V310.06H873.133V312.97H877.993V316.69H873.133V322.06C873.133 323.56 873.703 323.95 875.293 323.95H877.993V328ZM883.699 311.44H879.199V307.9H883.699V311.44ZM883.699 328H879.199V312.97H883.699V328ZM893.584 328.3C888.454 328.3 885.004 325.24 885.004 320.5C885.004 315.7 888.454 312.67 893.584 312.67C898.714 312.67 902.164 315.7 902.164 320.5C902.164 325.24 898.714 328.3 893.584 328.3ZM893.584 324.31C896.614 324.31 897.694 323.14 897.694 320.5C897.694 317.86 896.614 316.63 893.584 316.63C890.524 316.63 889.474 317.86 889.474 320.5C889.474 323.14 890.524 324.31 893.584 324.31ZM908.022 328H903.522V312.97H907.692V317.59H907.962C908.352 315.07 910.152 312.67 914.082 312.67C918.192 312.67 920.142 315.31 920.142 318.64V328H915.642V320.14C915.642 317.74 914.652 316.72 911.892 316.72C909.042 316.72 908.022 317.86 908.022 320.41V328Z" fill="white"/>
<path d="M627.7 487H623.2V466.9H627.7V474.88H638.2V466.9H642.7V487H638.2V478.93H627.7V487ZM652.614 487.3C647.604 487.3 644.184 484.84 644.184 479.5C644.184 474.7 647.574 471.67 652.524 471.67C657.444 471.67 660.714 474.25 660.714 478.96C660.714 479.5 660.654 479.89 660.594 480.4H648.354C648.474 482.71 649.554 483.7 652.464 483.7C655.134 483.7 656.064 483.01 656.064 481.72V481.42H660.564V481.75C660.564 485.02 657.384 487.3 652.614 487.3ZM652.434 475.18C649.764 475.18 648.624 476.08 648.414 478.03H656.394C656.274 476.05 655.074 475.18 652.434 475.18ZM666.642 487H662.142V466.9H666.642V487ZM675.238 487.3C670.558 487.3 667.978 484.24 667.978 479.5C667.978 474.7 670.528 471.67 674.998 471.67C678.568 471.67 680.398 473.44 680.908 475.96H681.178V466.9H685.678V487H681.478V482.83H681.238C680.668 485.8 678.688 487.3 675.238 487.3ZM672.538 479.5C672.538 482.23 673.888 483.19 676.768 483.19C679.618 483.19 681.178 482.2 681.178 479.59V479.35C681.178 476.74 679.648 475.78 676.768 475.78C673.888 475.78 672.538 476.74 672.538 479.5ZM702.318 487H698.598C695.088 487 692.958 485.35 692.958 481.57V475.69H690.588V471.97H692.958V469.06H697.458V471.97H702.318V475.69H697.458V481.06C697.458 482.56 698.028 482.95 699.618 482.95H702.318V487ZM708.023 487H703.523V466.9H708.023V476.56H708.263C708.743 474.01 710.513 471.67 714.353 471.67C718.403 471.67 720.383 474.31 720.383 477.79V487H715.883V479.14C715.883 476.62 714.803 475.72 711.983 475.72C708.953 475.72 708.023 476.95 708.023 479.47V487ZM730.154 487.3C725.144 487.3 721.724 484.84 721.724 479.5C721.724 474.7 725.114 471.67 730.064 471.67C734.984 471.67 738.254 474.25 738.254 478.96C738.254 479.5 738.194 479.89 738.134 480.4H725.894C726.014 482.71 727.094 483.7 730.004 483.7C732.674 483.7 733.604 483.01 733.604 481.72V481.42H738.104V481.75C738.104 485.02 734.924 487.3 730.154 487.3ZM729.974 475.18C727.304 475.18 726.164 476.08 725.954 478.03H733.934C733.814 476.05 732.614 475.18 729.974 475.18ZM750.551 487.3C745.871 487.3 743.291 484.24 743.291 479.5C743.291 474.7 745.841 471.67 750.311 471.67C753.881 471.67 755.711 473.44 756.221 475.96H756.491V466.9H760.991V487H756.791V482.83H756.551C755.981 485.8 754.001 487.3 750.551 487.3ZM747.851 479.5C747.851 482.23 749.201 483.19 752.081 483.19C754.931 483.19 756.491 482.2 756.491 479.59V479.35C756.491 476.74 754.961 475.78 752.081 475.78C749.201 475.78 747.851 476.74 747.851 479.5ZM767.512 487.3C764.272 487.3 762.322 485.8 762.322 483.28C762.322 481.06 763.972 479.68 767.182 479.35L773.632 478.69V478.12C773.632 476.17 772.762 475.63 770.362 475.63C768.082 475.63 767.152 476.23 767.152 477.94V478.06H762.622V477.97C762.622 474.25 765.742 471.67 770.692 471.67C775.702 471.67 778.072 474.25 778.072 478.18V487H773.872V483.55H773.632C772.942 485.89 770.842 487.3 767.512 487.3ZM766.852 482.98C766.852 483.79 767.482 484.12 768.802 484.12C771.862 484.12 773.512 483.4 773.632 481.27L768.412 481.87C767.332 481.96 766.852 482.26 766.852 482.98ZM782.753 492.1H780.293V488.02H783.983C785.093 488.02 785.573 487.72 785.873 487.06L778.523 471.97H783.623L786.803 478.84L788.063 482.38H788.363L789.563 478.81L792.413 471.97H797.423L789.983 488.08C788.543 491.23 786.533 492.1 782.753 492.1ZM806.345 487H802.175V466.9H806.675V475.96H806.915C807.425 473.44 809.255 471.67 812.825 471.67C817.325 471.67 819.845 474.7 819.845 479.5C819.845 484.24 817.295 487.3 812.615 487.3C809.135 487.3 807.155 485.8 806.615 482.83H806.345V487ZM806.675 479.59C806.675 482.2 808.205 483.19 811.055 483.19C813.965 483.19 815.285 482.23 815.285 479.5C815.285 476.74 813.965 475.78 811.085 475.78C808.175 475.78 806.675 476.74 806.675 479.35V479.59ZM829.216 487.3C824.206 487.3 820.786 484.84 820.786 479.5C820.786 474.7 824.176 471.67 829.126 471.67C834.046 471.67 837.316 474.25 837.316 478.96C837.316 479.5 837.256 479.89 837.196 480.4H824.956C825.076 482.71 826.156 483.7 829.066 483.7C831.736 483.7 832.666 483.01 832.666 481.72V481.42H837.166V481.75C837.166 485.02 833.986 487.3 829.216 487.3ZM829.036 475.18C826.366 475.18 825.226 476.08 825.016 478.03H832.996C832.876 476.05 831.676 475.18 829.036 475.18ZM844.444 487H839.944V475.69H837.814V471.97H840.034C840.514 468.94 843.154 466.9 847.774 466.9H849.094V470.17H847.054C845.074 470.17 844.144 470.5 844.264 471.97H849.094V475.69H844.444V487ZM858.11 487.3C852.98 487.3 849.53 484.24 849.53 479.5C849.53 474.7 852.98 471.67 858.11 471.67C863.24 471.67 866.69 474.7 866.69 479.5C866.69 484.24 863.24 487.3 858.11 487.3ZM858.11 483.31C861.14 483.31 862.22 482.14 862.22 479.5C862.22 476.86 861.14 475.63 858.11 475.63C855.05 475.63 854 476.86 854 479.5C854 482.14 855.05 483.31 858.11 483.31ZM872.548 487H868.048V471.97H872.218V475.96H872.488C872.908 473.53 874.498 471.67 877.528 471.67C880.888 471.67 882.268 473.98 882.268 476.92V479.41H877.768V477.85C877.768 476.2 877.108 475.48 875.278 475.48C873.268 475.48 872.548 476.41 872.548 478.3V487ZM891.397 487.3C886.387 487.3 882.967 484.84 882.967 479.5C882.967 474.7 886.357 471.67 891.307 471.67C896.227 471.67 899.497 474.25 899.497 478.96C899.497 479.5 899.437 479.89 899.377 480.4H887.137C887.257 482.71 888.337 483.7 891.247 483.7C893.917 483.7 894.847 483.01 894.847 481.72V481.42H899.347V481.75C899.347 485.02 896.167 487.3 891.397 487.3ZM891.217 475.18C888.547 475.18 887.407 476.08 887.197 478.03H895.177C895.057 476.05 893.857 475.18 891.217 475.18ZM627.7 513H623.2V492.9H627.7V500.88H638.2V492.9H642.7V513H638.2V504.93H627.7V513ZM649.254 513.3C646.014 513.3 644.064 511.8 644.064 509.28C644.064 507.06 645.714 505.68 648.924 505.35L655.374 504.69V504.12C655.374 502.17 654.504 501.63 652.104 501.63C649.824 501.63 648.894 502.23 648.894 503.94V504.06H644.364V503.97C644.364 500.25 647.484 497.67 652.434 497.67C657.444 497.67 659.814 500.25 659.814 504.18V513H655.614V509.55H655.374C654.684 511.89 652.584 513.3 649.254 513.3ZM648.594 508.98C648.594 509.79 649.224 510.12 650.544 510.12C653.604 510.12 655.254 509.4 655.374 507.27L650.154 507.87C649.074 507.96 648.594 508.26 648.594 508.98ZM669.625 513.3C664.465 513.3 661.165 510.24 661.165 505.5C661.165 500.7 664.465 497.67 669.625 497.67C674.455 497.67 677.755 500.25 677.755 504.15V504.57H673.285V504.33C673.285 502.41 671.875 501.72 669.535 501.72C666.865 501.72 665.635 502.71 665.635 505.5C665.635 508.26 666.865 509.25 669.535 509.25C671.875 509.25 673.285 508.56 673.285 506.64V506.4H677.755V506.82C677.755 510.69 674.455 513.3 669.625 513.3ZM683.711 513H679.211V492.9H683.711V503.55H687.131L690.971 497.97H696.311L690.821 505.23L696.221 513H690.911L687.161 507.57H683.711V513ZM701.425 513H696.925V492.9H701.725L708.925 502.41L711.685 506.64H712.015L711.805 502.59V492.9H716.305V513H711.505L704.095 503.4L701.545 499.62H701.245L701.425 503.31V513ZM722.712 496.44H718.212V492.9H722.712V496.44ZM722.712 513H718.212V497.97H722.712V513ZM731.188 511.47C726.718 511.47 724.138 508.8 724.138 504.57C724.138 500.37 726.868 497.67 731.368 497.67C734.428 497.67 736.618 498.99 737.098 501.6H737.338V497.97H741.538V510.81C741.538 516.06 738.358 518.4 732.988 518.4C728.128 518.4 725.068 516.24 725.068 512.46H729.568C729.568 514.14 730.228 514.65 733.288 514.65C736.168 514.65 737.038 514.05 737.038 511.11V507.72H736.798C736.318 509.94 734.548 511.47 731.188 511.47ZM728.668 504.57C728.668 506.79 729.928 507.6 732.748 507.6C735.628 507.6 737.038 506.79 737.038 504.72V504.39C737.038 502.35 735.598 501.57 732.808 501.57C729.928 501.57 728.668 502.35 728.668 504.57ZM747.944 513H743.444V492.9H747.944V502.56H748.184C748.664 500.01 750.434 497.67 754.274 497.67C758.324 497.67 760.304 500.31 760.304 503.79V513H755.804V505.14C755.804 502.62 754.724 501.72 751.904 501.72C748.874 501.72 747.944 502.95 747.944 505.47V513ZM772.684 513H768.964C765.454 513 763.324 511.35 763.324 507.57V501.69H760.954V497.97H763.324V495.06H767.824V497.97H772.684V501.69H767.824V507.06C767.824 508.56 768.394 508.95 769.984 508.95H772.684V513ZM786.319 513.06L784.039 515.16C781.099 512.49 777.649 508.56 777.649 502.95C777.649 497.34 781.099 493.41 784.039 490.74L786.319 492.84C783.649 496.47 782.599 498.48 782.599 502.95C782.599 507.42 783.649 509.43 786.319 513.06ZM791.844 513H787.344V492.9H804.354V496.95H791.844V501.48H803.904V505.5H791.844V513ZM810.29 513H805.79V497.97H809.96V501.96H810.23C810.65 499.53 812.24 497.67 815.27 497.67C818.63 497.67 820.01 499.98 820.01 502.92V505.41H815.51V503.85C815.51 502.2 814.85 501.48 813.02 501.48C811.01 501.48 810.29 502.41 810.29 504.3V513ZM825.659 496.44H821.159V492.9H825.659V496.44ZM825.659 513H821.159V497.97H825.659V513ZM834.255 513.3C829.575 513.3 826.995 510.24 826.995 505.5C826.995 500.7 829.545 497.67 834.015 497.67C837.585 497.67 839.415 499.44 839.925 501.96H840.195V492.9H844.695V513H840.495V508.83H840.255C839.685 511.8 837.705 513.3 834.255 513.3ZM831.555 505.5C831.555 508.23 832.905 509.19 835.785 509.19C838.635 509.19 840.195 508.2 840.195 505.59V505.35C840.195 502.74 838.665 501.78 835.785 501.78C832.905 501.78 831.555 502.74 831.555 505.5ZM851.216 513.3C847.976 513.3 846.026 511.8 846.026 509.28C846.026 507.06 847.676 505.68 850.886 505.35L857.336 504.69V504.12C857.336 502.17 856.466 501.63 854.066 501.63C851.786 501.63 850.856 502.23 850.856 503.94V504.06H846.326V503.97C846.326 500.25 849.446 497.67 854.396 497.67C859.406 497.67 861.776 500.25 861.776 504.18V513H857.576V509.55H857.336C856.646 511.89 854.546 513.3 851.216 513.3ZM850.556 508.98C850.556 509.79 851.186 510.12 852.506 510.12C855.566 510.12 857.216 509.4 857.336 507.27L852.116 507.87C851.036 507.96 850.556 508.26 850.556 508.98ZM866.457 518.1H863.997V514.02H867.687C868.797 514.02 869.277 513.72 869.577 513.06L862.227 497.97H867.327L870.507 504.84L871.767 508.38H872.067L873.267 504.81L876.117 497.97H881.127L873.687 514.08C872.247 517.23 870.237 518.1 866.457 518.1ZM881.519 492.84L883.799 490.74C886.739 493.41 890.189 497.34 890.189 502.95C890.189 508.56 886.739 512.49 883.799 515.16L881.519 513.06C884.189 509.43 885.239 507.42 885.239 502.95C885.239 498.48 884.189 496.47 881.519 492.84ZM900.829 513.3C897.589 513.3 895.639 511.8 895.639 509.28C895.639 507.06 897.289 505.68 900.499 505.35L906.949 504.69V504.12C906.949 502.17 906.079 501.63 903.679 501.63C901.399 501.63 900.469 502.23 900.469 503.94V504.06H895.939V503.97C895.939 500.25 899.059 497.67 904.009 497.67C909.019 497.67 911.389 500.25 911.389 504.18V513H907.189V509.55H906.949C906.259 511.89 904.159 513.3 900.829 513.3ZM900.169 508.98C900.169 509.79 900.799 510.12 902.119 510.12C905.179 510.12 906.829 509.4 906.949 507.27L901.729 507.87C900.649 507.96 900.169 508.26 900.169 508.98ZM923.78 513H920.06C916.55 513 914.42 511.35 914.42 507.57V501.69H912.05V497.97H914.42V495.06H918.92V497.97H923.78V501.69H918.92V507.06C918.92 508.56 919.49 508.95 921.08 508.95H923.78V513ZM632.2 539.3C626.32 539.3 622.57 537.47 622.57 533.48C622.57 530.45 624.73 529.04 627.34 528.5V528.17C624.7 527.72 623.17 526.25 623.17 523.88C623.17 520.64 626.26 518.6 632.17 518.6C638.14 518.6 641.2 520.64 641.2 523.88C641.2 526.25 639.7 527.72 637 528.17V528.5C639.82 529.04 641.77 530.45 641.77 533.48C641.77 537.47 637.99 539.3 632.2 539.3ZM632.17 527.09C635.65 527.09 636.7 526.43 636.7 525.02C636.7 523.58 635.8 522.92 632.17 522.92C628.63 522.92 627.67 523.58 627.67 525.02C627.67 526.43 628.75 527.09 632.17 527.09ZM632.17 534.98C636.04 534.98 637.21 534.29 637.21 532.55C637.21 530.87 636.1 530.18 632.17 530.18C628.24 530.18 627.13 530.87 627.13 532.55C627.13 534.29 628.27 534.98 632.17 534.98ZM648.542 529.19H642.752V523.97H648.542V529.19ZM648.542 539H642.752V533.75H648.542V539ZM659.76 539.3C653.28 539.3 649.71 535.22 649.71 528.95C649.71 522.71 653.28 518.6 659.76 518.6C666.21 518.6 669.81 522.71 669.81 528.95C669.81 535.22 666.21 539.3 659.76 539.3ZM659.76 534.92C663.57 534.92 664.98 533.27 664.98 528.95C664.98 524.63 663.57 522.98 659.76 522.98C655.92 522.98 654.54 524.63 654.54 528.95C654.54 533.27 655.92 534.92 659.76 534.92ZM680.842 539.3C674.362 539.3 670.792 535.22 670.792 528.95C670.792 522.71 674.362 518.6 680.842 518.6C687.292 518.6 690.892 522.71 690.892 528.95C690.892 535.22 687.292 539.3 680.842 539.3ZM680.842 534.92C684.652 534.92 686.062 533.27 686.062 528.95C686.062 524.63 684.652 522.98 680.842 522.98C677.002 522.98 675.622 524.63 675.622 528.95C675.622 533.27 677.002 534.92 680.842 534.92ZM700.974 539H696.474V518.9H706.974C711.624 518.9 714.624 521.54 714.624 526.16C714.624 530.78 711.624 533.45 706.974 533.45H700.974V539ZM706.494 522.95H700.974V529.4H706.494C708.984 529.4 710.154 528.68 710.154 526.16C710.154 523.7 708.984 522.95 706.494 522.95ZM720.24 539H715.74V518.9H721.83L726.54 528.8L728.43 533.51H728.76L730.59 528.8L735.15 518.9H741.27V539H736.77V528.8L736.92 525.65H736.59L735.42 528.8L731.22 537.8H725.76L721.56 528.8L720.39 525.65H720.06L720.24 528.8V539ZM748.641 539H742.851V533.75H748.641V539Z" fill="white"/>
<path d="M626.75 630H623V613.25H626.75V630ZM634.463 630H630.713V613.25H634.713L640.713 621.175L643.013 624.7H643.288L643.113 621.325V613.25H646.863V630H642.863L636.688 622L634.563 618.85H634.313L634.463 621.925V630ZM661.953 630H656.603L649.653 613.25H654.178L659.203 626.2H659.453L664.403 613.25H668.903L661.953 630ZM675.45 630H671.7V613.25H675.45V630ZM688.738 630H684.988V616.625H678.763V613.25H694.963V616.625H688.738V630ZM701.383 630H697.183L704.508 613.25H709.858L717.233 630H712.933L711.358 626.3H702.983L701.383 630ZM706.008 619.275L704.433 622.925H709.908L708.333 619.275L707.308 616.675H707.033L706.008 619.275ZM729.432 630H725.682V616.625H719.457V613.25H735.657V616.625H729.432V630ZM742.752 630H739.002V613.25H742.752V630ZM755.34 630.25C749.79 630.25 746.34 626.85 746.34 621.625C746.34 616.4 749.79 613 755.34 613C761.015 613 764.44 616.4 764.44 621.625C764.44 626.85 761.015 630.25 755.34 630.25ZM755.34 626.65C759.015 626.65 760.44 625.35 760.44 621.625C760.44 617.9 759.015 616.6 755.34 616.6C751.665 616.6 750.315 617.9 750.315 621.625C750.315 625.35 751.665 626.65 755.34 626.65ZM771.825 630H768.075V613.25H772.075L778.075 621.175L780.375 624.7H780.65L780.475 621.325V613.25H784.225V630H780.225L774.05 622L771.925 618.85H771.675L771.825 621.925V630ZM797.822 630H794.072V613.25H808.247V616.625H797.822V620.4H807.872V623.75H797.822V630ZM820.469 630.25C814.919 630.25 811.469 626.85 811.469 621.625C811.469 616.4 814.919 613 820.469 613C826.144 613 829.569 616.4 829.569 621.625C829.569 626.85 826.144 630.25 820.469 630.25ZM820.469 626.65C824.144 626.65 825.569 625.35 825.569 621.625C825.569 617.9 824.144 616.6 820.469 616.6C816.794 616.6 815.444 617.9 815.444 621.625C815.444 625.35 816.794 626.65 820.469 626.65ZM836.954 630H833.204V613.25H842.454C846.579 613.25 848.929 615.075 848.929 618.275C848.929 621 847.354 622.625 844.204 622.925V623.125C845.704 623.525 846.279 624.325 846.904 625.5L849.329 630H844.979L842.679 625.65C842.004 624.35 841.379 623.925 839.429 623.925H836.954V630ZM836.954 616.625V621.1H842.429C844.204 621.1 845.004 620.6 845.004 618.85C845.004 617.2 844.204 616.625 842.429 616.625H836.954ZM867.696 630H863.946V616.625H857.721V613.25H873.921V616.625H867.696V630ZM881.016 630H877.266V613.25H881.016V619.9H889.766V613.25H893.516V630H889.766V623.275H881.016V630ZM911.702 630H897.527V613.25H911.702V616.625H901.277V619.9H911.327V623.25H901.277V626.625H911.702V630ZM928.854 630.25C923.779 630.25 920.929 628.25 920.929 624.35V624.2H924.679V624.65C924.679 626.2 925.454 626.825 928.854 626.825C931.854 626.825 932.554 626.375 932.554 625.25C932.554 624.225 931.979 623.85 930.254 623.55L925.554 622.875C922.554 622.4 920.779 620.9 920.779 618.175C920.779 615.65 922.829 613 928.454 613C933.604 613 936.004 615.375 936.004 618.9V619.05H932.229V618.7C932.229 617.1 931.404 616.425 928.079 616.425C925.379 616.425 924.554 616.95 924.554 618.025C924.554 619 925.104 619.35 926.504 619.6L931.204 620.35C934.954 620.95 936.304 622.775 936.304 625.075C936.304 627.8 934.179 630.25 928.854 630.25ZM954.006 630H939.831V613.25H954.006V616.625H943.581V619.9H953.631V623.25H943.581V626.625H954.006V630ZM965.3 630.25C960.225 630.25 957.375 628.25 957.375 624.35V624.2H961.125V624.65C961.125 626.2 961.9 626.825 965.3 626.825C968.3 626.825 969 626.375 969 625.25C969 624.225 968.425 623.85 966.7 623.55L962 622.875C959 622.4 957.225 620.9 957.225 618.175C957.225 615.65 959.275 613 964.9 613C970.05 613 972.45 615.375 972.45 618.9V619.05H968.675V618.7C968.675 617.1 967.85 616.425 964.525 616.425C961.825 616.425 961 616.95 961 618.025C961 619 961.55 619.35 962.95 619.6L967.65 620.35C971.4 620.95 972.75 622.775 972.75 625.075C972.75 627.8 970.625 630.25 965.3 630.25ZM983.877 630.25C978.802 630.25 975.952 628.25 975.952 624.35V624.2H979.702V624.65C979.702 626.2 980.477 626.825 983.877 626.825C986.877 626.825 987.577 626.375 987.577 625.25C987.577 624.225 987.002 623.85 985.277 623.55L980.577 622.875C977.577 622.4 975.802 620.9 975.802 618.175C975.802 615.65 977.852 613 983.477 613C988.627 613 991.027 615.375 991.027 618.9V619.05H987.252V618.7C987.252 617.1 986.427 616.425 983.102 616.425C980.402 616.425 979.577 616.95 979.577 618.025C979.577 619 980.127 619.35 981.527 619.6L986.227 620.35C989.977 620.95 991.327 622.775 991.327 625.075C991.327 627.8 989.202 630.25 983.877 630.25ZM998.604 630H994.854V613.25H998.604V630ZM1011.19 630.25C1005.64 630.25 1002.19 626.85 1002.19 621.625C1002.19 616.4 1005.64 613 1011.19 613C1016.87 613 1020.29 616.4 1020.29 621.625C1020.29 626.85 1016.87 630.25 1011.19 630.25ZM1011.19 626.65C1014.87 626.65 1016.29 625.35 1016.29 621.625C1016.29 617.9 1014.87 616.6 1011.19 616.6C1007.52 616.6 1006.17 617.9 1006.17 621.625C1006.17 625.35 1007.52 626.65 1011.19 626.65ZM1027.68 630H1023.93V613.25H1027.93L1033.93 621.175L1036.23 624.7H1036.5L1036.33 621.325V613.25H1040.08V630H1036.08L1029.9 622L1027.78 618.85H1027.53L1027.68 621.925V630ZM1059.25 630H1055.5V616.625H1049.27V613.25H1065.47V616.625H1059.25V630ZM1082.99 630H1068.82V613.25H1082.99V616.625H1072.57V619.9H1082.62V623.25H1072.57V626.625H1082.99V630ZM1089.76 630H1085.56L1092.89 613.25H1098.24L1105.61 630H1101.31L1099.74 626.3H1091.36L1089.76 630ZM1094.39 619.275L1092.81 622.925H1098.29L1096.71 619.275L1095.69 616.675H1095.41L1094.39 619.275ZM1112.24 630H1108.49V613.25H1113.56L1117.49 621.5L1119.06 625.425H1119.34L1120.86 621.5L1124.66 613.25H1129.76V630H1126.01V621.5L1126.14 618.875H1125.86L1124.89 621.5L1121.39 629H1116.84L1113.34 621.5L1112.36 618.875H1112.09L1112.24 621.5V630Z" fill="white" fill-opacity="0.85"/>
<path d="M527.293 166H515.393V152.6H527.293V155.98H519.153V157.58H526.993V160.94H519.153V162.62H527.293V166ZM534.482 166H529.562L534.622 159.42V159.16L529.562 152.6H534.482L537.722 156.94H537.982L541.042 152.6H545.962L540.922 159.24V159.5L545.962 166H541.042L537.822 161.64H537.562L534.482 166ZM552.118 166H548.358V152.6H555.778C558.958 152.6 560.958 154.42 560.958 157.6C560.958 160.78 558.958 162.62 555.778 162.62H552.118V166ZM555.358 155.98H552.118V159.24H555.358C556.678 159.24 557.218 158.98 557.218 157.6C557.218 156.24 556.678 155.98 555.358 155.98ZM575.256 166H563.756V152.6H567.516V162.62H575.256V166ZM585.476 166.2C580.816 166.2 578.056 163.48 578.056 159.3C578.056 155.12 580.816 152.4 585.476 152.4C590.256 152.4 592.976 155.12 592.976 159.3C592.976 163.48 590.256 166.2 585.476 166.2ZM585.476 162.6C588.196 162.6 588.976 161.96 588.976 159.3C588.976 156.64 588.196 156 585.476 156C582.756 156 582.056 156.64 582.056 159.3C582.056 161.96 582.756 162.6 585.476 162.6ZM599.739 166H595.979V152.6H603.799C607.339 152.6 609.199 154.08 609.199 156.7C609.199 158.82 608.139 160.08 605.579 160.4V160.6C606.959 160.96 607.399 161.62 607.899 162.64L609.559 166H605.219L603.619 162.72C603.139 161.72 602.739 161.44 601.279 161.44H599.739V166ZM599.739 155.98V158.64H603.759C604.859 158.64 605.259 158.44 605.259 157.3C605.259 156.24 604.859 155.98 603.759 155.98H599.739ZM624.059 166H612.159V152.6H624.059V155.98H615.919V157.58H623.759V160.94H615.919V162.62H624.059V166ZM632.007 166H627.127V162.16H632.007V166ZM645.855 166.2C641.275 166.2 639.595 164.14 639.595 160.26V159.74H643.595V160.22C643.595 162.04 643.695 162.56 645.855 162.56C647.995 162.56 648.155 162.08 648.155 160.42V152.6H652.155V160.46C652.155 164.2 650.455 166.2 645.855 166.2ZM662.496 166.2C657.836 166.2 655.076 163.48 655.076 159.3C655.076 155.12 657.836 152.4 662.496 152.4C667.276 152.4 669.996 155.12 669.996 159.3C669.996 163.48 667.276 166.2 662.496 166.2ZM662.496 162.6C665.216 162.6 665.996 161.96 665.996 159.3C665.996 156.64 665.216 156 662.496 156C659.776 156 659.076 156.64 659.076 159.3C659.076 161.96 659.776 162.6 662.496 162.6ZM676.758 166H672.998V152.6H676.758V166ZM683.719 166H679.959V152.6H683.959L687.679 157.62L689.639 160.7H689.899L689.719 157.78V152.6H693.479V166H689.479L685.519 160.84L683.819 158.2H683.559L683.719 160.76V166ZM709.679 166H705.919V155.98H701.179V152.6H714.399V155.98H709.679V166ZM721.067 166H717.307V152.6H721.067V157.58H727.307V152.6H731.067V166H727.307V160.96H721.067V166ZM746.168 166H734.268V152.6H746.168V155.98H738.028V157.58H745.868V160.94H738.028V162.62H746.168V166ZM907.385 166.2C903.285 166.2 900.785 164.74 900.785 161.34V161.22H904.545V161.64C904.545 162.54 904.865 162.78 907.385 162.78C909.665 162.78 909.905 162.6 909.905 162C909.905 161.52 909.645 161.32 908.545 161.18L904.345 160.62C901.845 160.28 900.585 158.94 900.585 156.78C900.585 154.64 902.245 152.4 907.085 152.4C911.345 152.4 913.385 154.26 913.385 157.26V157.38H909.625V157.08C909.625 156.12 909.205 155.8 906.685 155.8C904.765 155.8 904.345 156.06 904.345 156.64C904.345 157.06 904.585 157.26 905.305 157.36L909.505 157.98C912.785 158.46 913.665 160.14 913.665 161.86C913.665 164.16 911.905 166.2 907.385 166.2ZM928.457 166H916.557V152.6H928.457V155.98H920.317V157.58H928.157V160.94H920.317V162.62H928.457V166ZM938.026 166.2C933.926 166.2 931.426 164.74 931.426 161.34V161.22H935.186V161.64C935.186 162.54 935.506 162.78 938.026 162.78C940.306 162.78 940.546 162.6 940.546 162C940.546 161.52 940.286 161.32 939.186 161.18L934.986 160.62C932.486 160.28 931.226 158.94 931.226 156.78C931.226 154.64 932.886 152.4 937.726 152.4C941.986 152.4 944.026 154.26 944.026 157.26V157.38H940.266V157.08C940.266 156.12 939.846 155.8 937.326 155.8C935.406 155.8 934.986 156.06 934.986 156.64C934.986 157.06 935.226 157.26 935.946 157.36L940.146 157.98C943.426 158.46 944.306 160.14 944.306 161.86C944.306 164.16 942.546 166.2 938.026 166.2ZM953.698 166.2C949.598 166.2 947.098 164.74 947.098 161.34V161.22H950.858V161.64C950.858 162.54 951.178 162.78 953.698 162.78C955.978 162.78 956.218 162.6 956.218 162C956.218 161.52 955.958 161.32 954.858 161.18L950.658 160.62C948.158 160.28 946.898 158.94 946.898 156.78C946.898 154.64 948.558 152.4 953.398 152.4C957.658 152.4 959.698 154.26 959.698 157.26V157.38H955.938V157.08C955.938 156.12 955.518 155.8 952.998 155.8C951.078 155.8 950.658 156.06 950.658 156.64C950.658 157.06 950.898 157.26 951.618 157.36L955.818 157.98C959.098 158.46 959.978 160.14 959.978 161.86C959.978 164.16 958.218 166.2 953.698 166.2ZM966.63 166H962.87V152.6H966.63V166ZM977.05 166.2C972.39 166.2 969.63 163.48 969.63 159.3C969.63 155.12 972.39 152.4 977.05 152.4C981.83 152.4 984.55 155.12 984.55 159.3C984.55 163.48 981.83 166.2 977.05 166.2ZM977.05 162.6C979.77 162.6 980.55 161.96 980.55 159.3C980.55 156.64 979.77 156 977.05 156C974.33 156 973.63 156.64 973.63 159.3C973.63 161.96 974.33 162.6 977.05 162.6ZM991.313 166H987.553V152.6H991.553L995.273 157.62L997.233 160.7H997.493L997.313 157.78V152.6H1001.07V166H997.073L993.113 160.84L991.413 158.2H991.153L991.313 160.76V166Z" fill="white"/>
<path d="M765.53 166H754.03V152.6H757.79V162.62H765.53V166ZM780.43 166H768.53V152.6H780.43V155.98H772.29V157.58H780.13V160.94H772.29V162.62H780.43V166ZM791.698 166H787.938V155.98H783.198V152.6H796.418V155.98H791.698V166ZM803.447 166H798.527L803.587 159.42V159.16L798.527 152.6H803.447L806.687 156.94H806.947L810.007 152.6H814.927L809.887 159.24V159.5L814.927 166H810.007L806.787 161.64H806.527L803.447 166ZM821.083 166H817.323V152.6H824.743C827.923 152.6 829.923 154.42 829.923 157.6C829.923 160.78 827.923 162.62 824.743 162.62H821.083V166ZM824.323 155.98H821.083V159.24H824.323C825.643 159.24 826.183 158.98 826.183 157.6C826.183 156.24 825.643 155.98 824.323 155.98ZM844.221 166H832.721V152.6H836.481V162.62H844.221V166ZM854.441 166.2C849.781 166.2 847.021 163.48 847.021 159.3C847.021 155.12 849.781 152.4 854.441 152.4C859.221 152.4 861.941 155.12 861.941 159.3C861.941 163.48 859.221 166.2 854.441 166.2ZM854.441 162.6C857.161 162.6 857.941 161.96 857.941 159.3C857.941 156.64 857.161 156 854.441 156C851.721 156 851.021 156.64 851.021 159.3C851.021 161.96 851.721 162.6 854.441 162.6ZM868.704 166H864.944V152.6H872.764C876.304 152.6 878.164 154.08 878.164 156.7C878.164 158.82 877.104 160.08 874.544 160.4V160.6C875.924 160.96 876.364 161.62 876.864 162.64L878.524 166H874.184L872.584 162.72C872.104 161.72 871.704 161.44 870.244 161.44H868.704V166ZM868.704 155.98V158.64H872.724C873.824 158.64 874.224 158.44 874.224 157.3C874.224 156.24 873.824 155.98 872.724 155.98H868.704ZM893.023 166H881.123V152.6H893.023V155.98H884.883V157.58H892.723V160.94H884.883V162.62H893.023V166Z" fill="#CBE52A"/>
<path d="M624.26 454.2C619.92 454.2 618.3 452.1 618.3 448.56V447.98H621.48V448.56C621.48 450.54 621.88 451.28 624.26 451.28C626.62 451.28 627.08 450.58 627.08 448.7V440.6H630.26V448.7C630.26 452.14 628.62 454.2 624.26 454.2ZM640.669 454.2C636.229 454.2 633.469 451.48 633.469 447.3C633.469 443.12 636.229 440.4 640.669 440.4C645.209 440.4 647.949 443.12 647.949 447.3C647.949 451.48 645.209 454.2 640.669 454.2ZM640.669 451.32C643.609 451.32 644.749 450.28 644.749 447.3C644.749 444.32 643.609 443.28 640.669 443.28C637.729 443.28 636.649 444.32 636.649 447.3C636.649 450.28 637.729 451.32 640.669 451.32ZM654.257 454H651.257V440.6H654.257V454ZM660.827 454H657.827V440.6H661.027L665.827 446.94L667.667 449.76H667.887L667.747 447.06V440.6H670.747V454H667.547L662.607 447.6L660.907 445.08H660.707L660.827 447.54V454ZM686.885 454H683.885V443.3H678.905V440.6H691.865V443.3H686.885V454ZM697.941 454H694.941V440.6H697.941V445.92H704.941V440.6H707.941V454H704.941V448.62H697.941V454ZM722.89 454H711.55V440.6H722.89V443.3H714.55V445.92H722.59V448.6H714.55V451.3H722.89V454ZM881.513 454.2C877.453 454.2 875.173 452.6 875.173 449.48V449.36H878.173V449.72C878.173 450.96 878.793 451.46 881.513 451.46C883.913 451.46 884.473 451.1 884.473 450.2C884.473 449.38 884.013 449.08 882.633 448.84L878.873 448.3C876.473 447.92 875.053 446.72 875.053 444.54C875.053 442.52 876.693 440.4 881.193 440.4C885.313 440.4 887.233 442.3 887.233 445.12V445.24H884.213V444.96C884.213 443.68 883.553 443.14 880.893 443.14C878.733 443.14 878.073 443.56 878.073 444.42C878.073 445.2 878.513 445.48 879.633 445.68L883.393 446.28C886.393 446.76 887.473 448.22 887.473 450.06C887.473 452.24 885.773 454.2 881.513 454.2ZM902.035 454H890.695V440.6H902.035V443.3H893.695V445.92H901.735V448.6H893.695V451.3H902.035V454ZM911.47 454.2C907.41 454.2 905.13 452.6 905.13 449.48V449.36H908.13V449.72C908.13 450.96 908.75 451.46 911.47 451.46C913.87 451.46 914.43 451.1 914.43 450.2C914.43 449.38 913.97 449.08 912.59 448.84L908.83 448.3C906.43 447.92 905.01 446.72 905.01 444.54C905.01 442.52 906.65 440.4 911.15 440.4C915.27 440.4 917.19 442.3 917.19 445.12V445.24H914.17V444.96C914.17 443.68 913.51 443.14 910.85 443.14C908.69 443.14 908.03 443.56 908.03 444.42C908.03 445.2 908.47 445.48 909.59 445.68L913.35 446.28C916.35 446.76 917.43 448.22 917.43 450.06C917.43 452.24 915.73 454.2 911.47 454.2ZM926.732 454.2C922.672 454.2 920.392 452.6 920.392 449.48V449.36H923.392V449.72C923.392 450.96 924.012 451.46 926.732 451.46C929.132 451.46 929.692 451.1 929.692 450.2C929.692 449.38 929.232 449.08 927.852 448.84L924.092 448.3C921.692 447.92 920.272 446.72 920.272 444.54C920.272 442.52 921.912 440.4 926.412 440.4C930.532 440.4 932.452 442.3 932.452 445.12V445.24H929.432V444.96C929.432 443.68 928.772 443.14 926.112 443.14C923.952 443.14 923.292 443.56 923.292 444.42C923.292 445.2 923.732 445.48 924.852 445.68L928.612 446.28C931.612 446.76 932.692 448.22 932.692 450.06C932.692 452.24 930.992 454.2 926.732 454.2ZM938.913 454H935.913V440.6H938.913V454ZM949.384 454.2C944.944 454.2 942.184 451.48 942.184 447.3C942.184 443.12 944.944 440.4 949.384 440.4C953.924 440.4 956.664 443.12 956.664 447.3C956.664 451.48 953.924 454.2 949.384 454.2ZM949.384 451.32C952.324 451.32 953.464 450.28 953.464 447.3C953.464 444.32 952.324 443.28 949.384 443.28C946.444 443.28 945.364 444.32 945.364 447.3C945.364 450.28 946.444 451.32 949.384 451.32ZM962.972 454H959.972V440.6H963.172L967.972 446.94L969.812 449.76H970.032L969.892 447.06V440.6H972.892V454H969.692L964.752 447.6L963.052 445.08H962.852L962.972 447.54V454Z" fill="white" fill-opacity="0.85"/>
<path d="M742.311 454H731.331V440.6H734.331V451.3H742.311V454ZM756.859 454H745.519V440.6H756.859V443.3H748.519V445.92H756.559V448.6H748.519V451.3H756.859V454ZM767.674 454H764.674V443.3H759.694V440.6H772.654V443.3H767.674V454ZM778.75 454H774.83L780.05 447.38V447.16L774.83 440.6H778.75L782.51 445.38H782.73L786.35 440.6H790.27L785.07 447.22V447.44L790.27 454H786.35L782.61 449.16H782.39L778.75 454ZM795.964 454H792.964V440.6H799.964C803.064 440.6 805.064 442.36 805.064 445.44C805.064 448.52 803.064 450.3 799.964 450.3H795.964V454ZM799.644 443.3H795.964V447.6H799.644C801.304 447.6 802.084 447.12 802.084 445.44C802.084 443.8 801.304 443.3 799.644 443.3ZM819.108 454H808.128V440.6H811.128V451.3H819.108V454ZM829.216 454.2C824.776 454.2 822.016 451.48 822.016 447.3C822.016 443.12 824.776 440.4 829.216 440.4C833.756 440.4 836.496 443.12 836.496 447.3C836.496 451.48 833.756 454.2 829.216 454.2ZM829.216 451.32C832.156 451.32 833.296 450.28 833.296 447.3C833.296 444.32 832.156 443.28 829.216 443.28C826.276 443.28 825.196 444.32 825.196 447.3C825.196 450.28 826.276 451.32 829.216 451.32ZM842.804 454H839.804V440.6H847.204C850.504 440.6 852.384 442.06 852.384 444.62C852.384 446.8 851.124 448.1 848.604 448.34V448.5C849.804 448.82 850.264 449.46 850.764 450.4L852.704 454H849.224L847.384 450.52C846.844 449.48 846.344 449.14 844.784 449.14H842.804V454ZM842.804 443.3V446.88H847.184C848.604 446.88 849.244 446.48 849.244 445.08C849.244 443.76 848.604 443.3 847.184 443.3H842.804ZM866.992 454H855.652V440.6H866.992V443.3H858.652V445.92H866.692V448.6H858.652V451.3H866.992V454Z" fill="#CBE52A"/>
<path d="M633.76 669H627.07L622.33 648.9H627.37L629.8 660.3L630.49 664.71H630.82L631.75 660.3L635.11 648.9H641.8L645.13 660.3L646.06 664.71H646.39L647.08 660.3L649.51 648.9H654.43L649.66 669H642.97L639.97 658.95L638.56 653.16H638.23L636.82 658.95L633.76 669ZM660.003 652.44H655.503V648.9H660.003V652.44ZM660.003 669H655.503V653.97H660.003V669ZM666.379 669H661.879V648.9H666.379V669ZM672.754 669H668.254V648.9H672.754V669ZM682.949 669H678.779V648.9H683.279V657.96H683.519C684.029 655.44 685.859 653.67 689.429 653.67C693.929 653.67 696.449 656.7 696.449 661.5C696.449 666.24 693.899 669.3 689.219 669.3C685.739 669.3 683.759 667.8 683.219 664.83H682.949V669ZM683.279 661.59C683.279 664.2 684.809 665.19 687.659 665.19C690.569 665.19 691.889 664.23 691.889 661.5C691.889 658.74 690.569 657.78 687.689 657.78C684.779 657.78 683.279 658.74 683.279 661.35V661.59ZM705.82 669.3C700.81 669.3 697.39 666.84 697.39 661.5C697.39 656.7 700.78 653.67 705.73 653.67C710.65 653.67 713.92 656.25 713.92 660.96C713.92 661.5 713.86 661.89 713.8 662.4H701.56C701.68 664.71 702.76 665.7 705.67 665.7C708.34 665.7 709.27 665.01 709.27 663.72V663.42H713.77V663.75C713.77 667.02 710.59 669.3 705.82 669.3ZM705.64 657.18C702.97 657.18 701.83 658.08 701.62 660.03H709.6C709.48 658.05 708.28 657.18 705.64 657.18ZM727.087 669.3C722.017 669.3 719.227 667.32 719.227 663.84V663.75H723.727V664.02C723.727 665.37 724.567 665.73 727.117 665.73C729.517 665.73 730.087 665.34 730.087 664.44C730.087 663.6 729.637 663.36 727.867 663.12L723.637 662.61C720.637 662.28 718.957 660.93 718.957 658.41C718.957 655.77 721.207 653.67 726.367 653.67C731.287 653.67 734.077 655.53 734.077 659.19V659.28H729.577V659.1C729.577 657.87 728.977 657.24 726.217 657.24C723.967 657.24 723.397 657.63 723.397 658.59C723.397 659.37 723.817 659.7 725.797 659.94L729.007 660.33C733.027 660.78 734.527 662.13 734.527 664.62C734.527 667.44 731.737 669.3 727.087 669.3ZM743.842 669.3C738.832 669.3 735.412 666.84 735.412 661.5C735.412 656.7 738.802 653.67 743.752 653.67C748.672 653.67 751.942 656.25 751.942 660.96C751.942 661.5 751.882 661.89 751.822 662.4H739.582C739.702 664.71 740.782 665.7 743.692 665.7C746.362 665.7 747.292 665.01 747.292 663.72V663.42H751.792V663.75C751.792 667.02 748.612 669.3 743.842 669.3ZM743.662 657.18C740.992 657.18 739.852 658.08 739.642 660.03H747.622C747.502 658.05 746.302 657.18 743.662 657.18ZM757.871 669H753.371V653.97H757.541V658.59H757.811C758.201 656.07 760.001 653.67 763.931 653.67C768.041 653.67 769.991 656.31 769.991 659.64V669H765.491V661.14C765.491 658.74 764.501 657.72 761.741 657.72C758.891 657.72 757.871 658.86 757.871 661.41V669ZM782.377 669H778.657C775.147 669 773.017 667.35 773.017 663.57V657.69H770.647V653.97H773.017V651.06H777.517V653.97H782.377V657.69H777.517V663.06C777.517 664.56 778.087 664.95 779.677 664.95H782.377V669ZM798.921 669H793.371L786.531 653.97H791.541L796.041 664.62H796.341L800.871 653.97H805.791L798.921 669ZM811 652.44H806.5V648.9H811V652.44ZM811 669H806.5V653.97H811V669ZM817.495 669.3C814.255 669.3 812.305 667.8 812.305 665.28C812.305 663.06 813.955 661.68 817.165 661.35L823.615 660.69V660.12C823.615 658.17 822.745 657.63 820.345 657.63C818.065 657.63 817.135 658.23 817.135 659.94V660.06H812.605V659.97C812.605 656.25 815.725 653.67 820.675 653.67C825.685 653.67 828.055 656.25 828.055 660.18V669H823.855V665.55H823.615C822.925 667.89 820.825 669.3 817.495 669.3ZM816.835 664.98C816.835 665.79 817.465 666.12 818.785 666.12C821.845 666.12 823.495 665.4 823.615 663.27L818.395 663.87C817.315 663.96 816.835 664.26 816.835 664.98ZM851.015 669H834.005V648.9H851.015V652.95H838.505V656.88H850.565V660.9H838.505V664.95H851.015V669ZM857.068 669H852.568V653.97H856.738V658.53H856.978C857.338 656.01 858.838 653.67 862.618 653.67C866.098 653.67 867.868 655.8 868.198 658.59H868.468C868.828 656.04 870.358 653.67 874.228 653.67C878.098 653.67 879.988 656.22 879.988 659.64V669H875.488V661.14C875.488 658.65 874.618 657.72 872.038 657.72C869.308 657.72 868.528 658.8 868.528 661.41V669H864.028V661.14C864.028 658.65 863.158 657.72 860.578 657.72C857.848 657.72 857.068 658.8 857.068 661.41V669ZM886.415 669.3C883.175 669.3 881.225 667.8 881.225 665.28C881.225 663.06 882.875 661.68 886.085 661.35L892.535 660.69V660.12C892.535 658.17 891.665 657.63 889.265 657.63C886.985 657.63 886.055 658.23 886.055 659.94V660.06H881.525V659.97C881.525 656.25 884.645 653.67 889.595 653.67C894.605 653.67 896.975 656.25 896.975 660.18V669H892.775V665.55H892.535C891.845 667.89 889.745 669.3 886.415 669.3ZM885.755 664.98C885.755 665.79 886.385 666.12 887.705 666.12C890.765 666.12 892.415 665.4 892.535 663.27L887.315 663.87C886.235 663.96 885.755 664.26 885.755 664.98ZM903.276 652.44H898.776V648.9H903.276V652.44ZM903.276 669H898.776V653.97H903.276V669ZM909.651 669H905.151V648.9H909.651V669Z" fill="white"/>
<defs>
<filter id="filter0_f_890_1126" x="319" y="108" width="837" height="647" filterUnits="userSpaceOnUse" color-interpolation-filters="sRGB">
<feFlood flood-opacity="0" result="BackgroundImageFix"/>
<feBlend mode="normal" in="SourceGraphic" in2="BackgroundImageFix" result="shape"/>
<feGaussianBlur stdDeviation="80" result="effect1_foregroundBlur_890_1126"/>
</filter>
</defs>
</svg>
