<svg width="1156" height="867" viewBox="0 0 1156 867" fill="none" xmlns="http://www.w3.org/2000/svg">
<rect x="405" width="745" height="867" rx="24" fill="#131723" fill-opacity="0.55"/>
<line x1="564.5" y1="232" x2="564.5" y2="626" stroke="white" stroke-width="3" stroke-dasharray="6 6"/>
<rect x="539" y="232" width="48" height="48" rx="24" fill="white"/>
<rect x="539" y="232" width="48" height="48" rx="24" stroke="#1D2939" stroke-width="2" stroke-linecap="round" stroke-linejoin="round" stroke-dasharray="7 7"/>
<circle cx="563" cy="256" r="18" fill="#CBE52A"/>
<rect x="539" y="426.5" width="48" height="48" rx="24" fill="white"/>
<rect x="539" y="426.5" width="48" height="48" rx="24" stroke="#1D2939" stroke-width="2" stroke-linecap="round" stroke-linejoin="round" stroke-dasharray="7 7"/>
<circle cx="563" cy="450.5" r="18" fill="#1D2939"/>
<rect x="539" y="621" width="48" height="48" rx="24" fill="white"/>
<rect x="539" y="621" width="48" height="48" rx="24" stroke="#1D2939" stroke-width="2" stroke-linecap="round" stroke-linejoin="round" stroke-dasharray="7 7"/>
<circle cx="563" cy="645" r="18" fill="#CBE52A"/>
<g opacity="0.26" filter="url(#filter0_f_858_1398)">
<ellipse cx="737.5" cy="431.5" rx="258.5" ry="163.5" fill="#CBE52A" fill-opacity="0.45"/>
</g>
<path d="M618.89 652H613.85L622.64 631.9H629.06L637.91 652H632.75L630.86 647.56H620.81L618.89 652ZM624.44 639.13L622.55 643.51H629.12L627.23 639.13L626 636.01H625.67L624.44 639.13ZM649.07 652H645.35C641.84 652 639.71 650.35 639.71 646.57V640.69H637.34V636.97H639.71V634.06H644.21V636.97H649.07V640.69H644.21V646.06C644.21 647.56 644.78 647.95 646.37 647.95H649.07V652ZM663.424 652.3C657.544 652.3 653.794 650.47 653.794 646.48C653.794 643.45 655.954 642.04 658.564 641.5V641.17C655.924 640.72 654.394 639.25 654.394 636.88C654.394 633.64 657.484 631.6 663.394 631.6C669.364 631.6 672.424 633.64 672.424 636.88C672.424 639.25 670.924 640.72 668.224 641.17V641.5C671.044 642.04 672.994 643.45 672.994 646.48C672.994 650.47 669.214 652.3 663.424 652.3ZM663.394 640.09C666.874 640.09 667.924 639.43 667.924 638.02C667.924 636.58 667.024 635.92 663.394 635.92C659.854 635.92 658.894 636.58 658.894 638.02C658.894 639.43 659.974 640.09 663.394 640.09ZM663.394 647.98C667.264 647.98 668.434 647.29 668.434 645.55C668.434 643.87 667.324 643.18 663.394 643.18C659.464 643.18 658.354 643.87 658.354 645.55C658.354 647.29 659.494 647.98 663.394 647.98ZM679.766 642.19H673.976V636.97H679.766V642.19ZM679.766 652H673.976V646.75H679.766V652ZM690.984 652.3C684.504 652.3 680.934 648.22 680.934 641.95C680.934 635.71 684.504 631.6 690.984 631.6C697.434 631.6 701.034 635.71 701.034 641.95C701.034 648.22 697.434 652.3 690.984 652.3ZM690.984 647.92C694.794 647.92 696.204 646.27 696.204 641.95C696.204 637.63 694.794 635.98 690.984 635.98C687.144 635.98 685.764 637.63 685.764 641.95C685.764 646.27 687.144 647.92 690.984 647.92ZM712.066 652.3C705.586 652.3 702.016 648.22 702.016 641.95C702.016 635.71 705.586 631.6 712.066 631.6C718.516 631.6 722.116 635.71 722.116 641.95C722.116 648.22 718.516 652.3 712.066 652.3ZM712.066 647.92C715.876 647.92 717.286 646.27 717.286 641.95C717.286 637.63 715.876 635.98 712.066 635.98C708.226 635.98 706.846 637.63 706.846 641.95C706.846 646.27 708.226 647.92 712.066 647.92ZM732.198 652H727.698V631.9H738.198C742.848 631.9 745.848 634.54 745.848 639.16C745.848 643.78 742.848 646.45 738.198 646.45H732.198V652ZM737.718 635.95H732.198V642.4H737.718C740.208 642.4 741.378 641.68 741.378 639.16C741.378 636.7 740.208 635.95 737.718 635.95ZM751.464 652H746.964V631.9H753.054L757.764 641.8L759.654 646.51H759.984L761.814 641.8L766.374 631.9H772.494V652H767.994V641.8L768.144 638.65H767.814L766.644 641.8L762.444 650.8H756.984L752.784 641.8L751.614 638.65H751.284L751.464 641.8V652ZM789.714 652H784.164L777.324 636.97H782.334L786.834 647.62H787.134L791.664 636.97H796.584L789.714 652ZM801.792 635.44H797.292V631.9H801.792V635.44ZM801.792 652H797.292V636.97H801.792V652ZM808.287 652.3C805.047 652.3 803.097 650.8 803.097 648.28C803.097 646.06 804.747 644.68 807.957 644.35L814.407 643.69V643.12C814.407 641.17 813.537 640.63 811.137 640.63C808.857 640.63 807.927 641.23 807.927 642.94V643.06H803.397V642.97C803.397 639.25 806.517 636.67 811.467 636.67C816.477 636.67 818.847 639.25 818.847 643.18V652H814.647V648.55H814.407C813.717 650.89 811.617 652.3 808.287 652.3ZM807.627 647.98C807.627 648.79 808.257 649.12 809.577 649.12C812.637 649.12 814.287 648.4 814.407 646.27L809.187 646.87C808.107 646.96 807.627 647.26 807.627 647.98ZM834.277 652.3C828.127 652.3 824.347 648.22 824.347 641.95C824.347 635.68 828.607 631.6 835.507 631.6C841.807 631.6 845.797 634.54 845.797 639.37V639.61H840.787V639.37C840.787 637.03 839.257 635.92 835.387 635.92C830.827 635.92 829.117 637.48 829.117 641.95C829.117 646.42 830.767 647.98 835.177 647.98C839.797 647.98 841.207 647.26 841.327 644.71H834.517V641.38H845.827V652H841.657V647.68H841.417C840.727 650.32 838.627 652.3 834.277 652.3ZM855.559 652.3C850.429 652.3 846.979 649.24 846.979 644.5C846.979 639.7 850.429 636.67 855.559 636.67C860.689 636.67 864.139 639.7 864.139 644.5C864.139 649.24 860.689 652.3 855.559 652.3ZM855.559 648.31C858.589 648.31 859.669 647.14 859.669 644.5C859.669 641.86 858.589 640.63 855.559 640.63C852.499 640.63 851.449 641.86 851.449 644.5C851.449 647.14 852.499 648.31 855.559 648.31ZM873.507 652.3C868.377 652.3 864.927 649.24 864.927 644.5C864.927 639.7 868.377 636.67 873.507 636.67C878.637 636.67 882.087 639.7 882.087 644.5C882.087 649.24 878.637 652.3 873.507 652.3ZM873.507 648.31C876.537 648.31 877.617 647.14 877.617 644.5C877.617 641.86 876.537 640.63 873.507 640.63C870.447 640.63 869.397 641.86 869.397 644.5C869.397 647.14 870.447 648.31 873.507 648.31ZM890.045 650.47C885.575 650.47 882.995 647.8 882.995 643.57C882.995 639.37 885.725 636.67 890.225 636.67C893.285 636.67 895.475 637.99 895.955 640.6H896.195V636.97H900.395V649.81C900.395 655.06 897.215 657.4 891.845 657.4C886.985 657.4 883.925 655.24 883.925 651.46H888.425C888.425 653.14 889.085 653.65 892.145 653.65C895.025 653.65 895.895 653.05 895.895 650.11V646.72H895.655C895.175 648.94 893.405 650.47 890.045 650.47ZM887.525 643.57C887.525 645.79 888.785 646.6 891.605 646.6C894.485 646.6 895.895 645.79 895.895 643.72V643.39C895.895 641.35 894.455 640.57 891.665 640.57C888.785 640.57 887.525 641.35 887.525 643.57ZM906.801 652H902.301V631.9H906.801V652ZM916.656 652.3C911.646 652.3 908.226 649.84 908.226 644.5C908.226 639.7 911.616 636.67 916.566 636.67C921.486 636.67 924.756 639.25 924.756 643.96C924.756 644.5 924.696 644.89 924.636 645.4H912.396C912.516 647.71 913.596 648.7 916.506 648.7C919.176 648.7 920.106 648.01 920.106 646.72V646.42H924.606V646.75C924.606 650.02 921.426 652.3 916.656 652.3ZM916.476 640.18C913.806 640.18 912.666 641.08 912.456 643.03H920.436C920.316 641.05 919.116 640.18 916.476 640.18ZM934.833 652H930.333V631.9H936.423L941.133 641.8L943.023 646.51H943.353L945.183 641.8L949.743 631.9H955.863V652H951.363V641.8L951.513 638.65H951.183L950.013 641.8L945.813 650.8H940.353L936.153 641.8L934.983 638.65H934.653L934.833 641.8V652ZM965.724 652.3C960.714 652.3 957.294 649.84 957.294 644.5C957.294 639.7 960.684 636.67 965.634 636.67C970.554 636.67 973.824 639.25 973.824 643.96C973.824 644.5 973.764 644.89 973.704 645.4H961.464C961.584 647.71 962.664 648.7 965.574 648.7C968.244 648.7 969.174 648.01 969.174 646.72V646.42H973.674V646.75C973.674 650.02 970.494 652.3 965.724 652.3ZM965.544 640.18C962.874 640.18 961.734 641.08 961.524 643.03H969.504C969.384 641.05 968.184 640.18 965.544 640.18ZM983.232 652.3C978.222 652.3 974.802 649.84 974.802 644.5C974.802 639.7 978.192 636.67 983.142 636.67C988.062 636.67 991.332 639.25 991.332 643.96C991.332 644.5 991.272 644.89 991.212 645.4H978.972C979.092 647.71 980.172 648.7 983.082 648.7C985.752 648.7 986.682 648.01 986.682 646.72V646.42H991.182V646.75C991.182 650.02 988.002 652.3 983.232 652.3ZM983.052 640.18C980.382 640.18 979.242 641.08 979.032 643.03H987.012C986.892 641.05 985.692 640.18 983.052 640.18ZM1003.35 652H999.631C996.121 652 993.991 650.35 993.991 646.57V640.69H991.621V636.97H993.991V634.06H998.491V636.97H1003.35V640.69H998.491V646.06C998.491 647.56 999.061 647.95 1000.65 647.95H1003.35V652ZM1010.05 652H1004.26V646.75H1010.05V652ZM1027 652H1022.5V635.95H1015.03V631.9H1034.47V635.95H1027V652ZM1040.11 652H1035.61V631.9H1040.11V641.56H1040.35C1040.83 639.01 1042.6 636.67 1046.44 636.67C1050.49 636.67 1052.47 639.31 1052.47 642.79V652H1047.97V644.14C1047.97 641.62 1046.89 640.72 1044.07 640.72C1041.04 640.72 1040.11 641.95 1040.11 644.47V652ZM1062.24 652.3C1057.23 652.3 1053.81 649.84 1053.81 644.5C1053.81 639.7 1057.2 636.67 1062.15 636.67C1067.07 636.67 1070.34 639.25 1070.34 643.96C1070.34 644.5 1070.28 644.89 1070.22 645.4H1057.98C1058.1 647.71 1059.18 648.7 1062.09 648.7C1064.76 648.7 1065.69 648.01 1065.69 646.72V646.42H1070.19V646.75C1070.19 650.02 1067.01 652.3 1062.24 652.3ZM1062.06 640.18C1059.39 640.18 1058.25 641.08 1058.04 643.03H1066.02C1065.9 641.05 1064.7 640.18 1062.06 640.18ZM619.7 661.44H615.2V657.9H619.7V661.44ZM619.7 678H615.2V662.97H619.7V678ZM626.075 678H621.575V662.97H625.745V667.59H626.015C626.405 665.07 628.205 662.67 632.135 662.67C636.245 662.67 638.195 665.31 638.195 668.64V678H633.695V670.14C633.695 667.74 632.705 666.72 629.945 666.72C627.095 666.72 626.075 667.86 626.075 670.41V678ZM651.182 678H645.632L638.792 662.97H643.802L648.302 673.62H648.602L653.132 662.97H658.052L651.182 678ZM663.26 661.44H658.76V657.9H663.26V661.44ZM663.26 678H658.76V662.97H663.26V678ZM675.725 678H672.005C668.495 678 666.365 676.35 666.365 672.57V666.69H663.995V662.97H666.365V660.06H670.865V662.97H675.725V666.69H670.865V672.06C670.865 673.56 671.435 673.95 673.025 673.95H675.725V678ZM681.551 678.3C678.311 678.3 676.361 676.8 676.361 674.28C676.361 672.06 678.011 670.68 681.221 670.35L687.671 669.69V669.12C687.671 667.17 686.801 666.63 684.401 666.63C682.121 666.63 681.191 667.23 681.191 668.94V669.06H676.661V668.97C676.661 665.25 679.781 662.67 684.731 662.67C689.741 662.67 692.111 665.25 692.111 669.18V678H687.911V674.55H687.671C686.981 676.89 684.881 678.3 681.551 678.3ZM680.891 673.98C680.891 674.79 681.521 675.12 682.841 675.12C685.901 675.12 687.551 674.4 687.671 672.27L682.451 672.87C681.371 672.96 680.891 673.26 680.891 673.98ZM704.502 678H700.782C697.272 678 695.142 676.35 695.142 672.57V666.69H692.772V662.97H695.142V660.06H699.642V662.97H704.502V666.69H699.642V672.06C699.642 673.56 700.212 673.95 701.802 673.95H704.502V678ZM710.207 661.44H705.707V657.9H710.207V661.44ZM710.207 678H705.707V662.97H710.207V678ZM720.093 678.3C714.963 678.3 711.513 675.24 711.513 670.5C711.513 665.7 714.963 662.67 720.093 662.67C725.223 662.67 728.673 665.7 728.673 670.5C728.673 675.24 725.223 678.3 720.093 678.3ZM720.093 674.31C723.123 674.31 724.203 673.14 724.203 670.5C724.203 667.86 723.123 666.63 720.093 666.63C717.033 666.63 715.983 667.86 715.983 670.5C715.983 673.14 717.033 674.31 720.093 674.31ZM734.53 678H730.03V662.97H734.2V667.59H734.47C734.86 665.07 736.66 662.67 740.59 662.67C744.7 662.67 746.65 665.31 746.65 668.64V678H742.15V670.14C742.15 667.74 741.16 666.72 738.4 666.72C735.55 666.72 734.53 667.86 734.53 670.41V678ZM761.116 678H755.506L751.396 662.97H756.046L757.816 669.84L758.446 674.52H758.746L759.946 669.39L762.226 662.97H768.016L770.266 669.39L771.466 674.52H771.766L772.426 669.84L774.166 662.97H778.756L774.496 678H768.886L766.306 670.77L765.196 666.63H764.866L763.726 670.77L761.116 678ZM783.979 661.44H779.479V657.9H783.979V661.44ZM783.979 678H779.479V662.97H783.979V678ZM790.355 678H785.855V657.9H790.355V678ZM796.73 678H792.23V657.9H796.73V678ZM806.924 678H802.754V657.9H807.254V666.96H807.494C808.004 664.44 809.834 662.67 813.404 662.67C817.904 662.67 820.424 665.7 820.424 670.5C820.424 675.24 817.874 678.3 813.194 678.3C809.714 678.3 807.734 676.8 807.194 673.83H806.924V678ZM807.254 670.59C807.254 673.2 808.784 674.19 811.634 674.19C814.544 674.19 815.864 673.23 815.864 670.5C815.864 667.74 814.544 666.78 811.664 666.78C808.754 666.78 807.254 667.74 807.254 670.35V670.59ZM829.795 678.3C824.785 678.3 821.365 675.84 821.365 670.5C821.365 665.7 824.755 662.67 829.705 662.67C834.625 662.67 837.895 665.25 837.895 669.96C837.895 670.5 837.835 670.89 837.775 671.4H825.535C825.655 673.71 826.735 674.7 829.645 674.7C832.315 674.7 833.245 674.01 833.245 672.72V672.42H837.745V672.75C837.745 676.02 834.565 678.3 829.795 678.3ZM829.615 666.18C826.945 666.18 825.805 667.08 825.595 669.03H833.575C833.455 667.05 832.255 666.18 829.615 666.18ZM851.063 678.3C845.993 678.3 843.203 676.32 843.203 672.84V672.75H847.703V673.02C847.703 674.37 848.543 674.73 851.093 674.73C853.493 674.73 854.063 674.34 854.063 673.44C854.063 672.6 853.613 672.36 851.843 672.12L847.613 671.61C844.613 671.28 842.933 669.93 842.933 667.41C842.933 664.77 845.183 662.67 850.343 662.67C855.263 662.67 858.053 664.53 858.053 668.19V668.28H853.553V668.1C853.553 666.87 852.953 666.24 850.193 666.24C847.943 666.24 847.373 666.63 847.373 667.59C847.373 668.37 847.793 668.7 849.773 668.94L852.983 669.33C857.003 669.78 858.503 671.13 858.503 673.62C858.503 676.44 855.713 678.3 851.063 678.3ZM867.818 678.3C862.808 678.3 859.388 675.84 859.388 670.5C859.388 665.7 862.778 662.67 867.728 662.67C872.648 662.67 875.918 665.25 875.918 669.96C875.918 670.5 875.858 670.89 875.798 671.4H863.558C863.678 673.71 864.758 674.7 867.668 674.7C870.338 674.7 871.268 674.01 871.268 672.72V672.42H875.768V672.75C875.768 676.02 872.588 678.3 867.818 678.3ZM867.638 666.18C864.968 666.18 863.828 667.08 863.618 669.03H871.598C871.478 667.05 870.278 666.18 867.638 666.18ZM881.847 678H877.347V662.97H881.517V667.59H881.787C882.177 665.07 883.977 662.67 887.907 662.67C892.017 662.67 893.967 665.31 893.967 668.64V678H889.467V670.14C889.467 667.74 888.477 666.72 885.717 666.72C882.867 666.72 881.847 667.86 881.847 670.41V678ZM906.353 678H902.633C899.123 678 896.993 676.35 896.993 672.57V666.69H894.623V662.97H896.993V660.06H901.493V662.97H906.353V666.69H901.493V672.06C901.493 673.56 902.063 673.95 903.653 673.95H906.353V678ZM927.046 678H921.496L914.656 662.97H919.666L924.166 673.62H924.466L928.996 662.97H933.916L927.046 678ZM939.124 661.44H934.624V657.9H939.124V661.44ZM939.124 678H934.624V662.97H939.124V678ZM945.62 678.3C942.38 678.3 940.43 676.8 940.43 674.28C940.43 672.06 942.08 670.68 945.29 670.35L951.74 669.69V669.12C951.74 667.17 950.87 666.63 948.47 666.63C946.19 666.63 945.26 667.23 945.26 668.94V669.06H940.73V668.97C940.73 665.25 943.85 662.67 948.8 662.67C953.81 662.67 956.18 665.25 956.18 669.18V678H951.98V674.55H951.74C951.05 676.89 948.95 678.3 945.62 678.3ZM944.96 673.98C944.96 674.79 945.59 675.12 946.91 675.12C949.97 675.12 951.62 674.4 951.74 672.27L946.52 672.87C945.44 672.96 944.96 673.26 944.96 673.98ZM970.11 678.3C965.1 678.3 961.68 675.84 961.68 670.5C961.68 665.7 965.07 662.67 970.02 662.67C974.94 662.67 978.21 665.25 978.21 669.96C978.21 670.5 978.15 670.89 978.09 671.4H965.85C965.97 673.71 967.05 674.7 969.96 674.7C972.63 674.7 973.56 674.01 973.56 672.72V672.42H978.06V672.75C978.06 676.02 974.88 678.3 970.11 678.3ZM969.93 666.18C967.26 666.18 966.12 667.08 965.91 669.03H973.89C973.77 667.05 972.57 666.18 969.93 666.18ZM984.138 678H979.638V662.97H983.808V667.53H984.048C984.408 665.01 985.908 662.67 989.688 662.67C993.168 662.67 994.938 664.8 995.268 667.59H995.538C995.898 665.04 997.428 662.67 1001.3 662.67C1005.17 662.67 1007.06 665.22 1007.06 668.64V678H1002.56V670.14C1002.56 667.65 1001.69 666.72 999.108 666.72C996.378 666.72 995.598 667.8 995.598 670.41V678H991.098V670.14C991.098 667.65 990.228 666.72 987.648 666.72C984.918 666.72 984.138 667.8 984.138 670.41V678ZM1013.48 678.3C1010.24 678.3 1008.29 676.8 1008.29 674.28C1008.29 672.06 1009.94 670.68 1013.15 670.35L1019.6 669.69V669.12C1019.6 667.17 1018.73 666.63 1016.33 666.63C1014.05 666.63 1013.12 667.23 1013.12 668.94V669.06H1008.59V668.97C1008.59 665.25 1011.71 662.67 1016.66 662.67C1021.67 662.67 1024.04 665.25 1024.04 669.18V678H1019.84V674.55H1019.6C1018.91 676.89 1016.81 678.3 1013.48 678.3ZM1012.82 673.98C1012.82 674.79 1013.45 675.12 1014.77 675.12C1017.83 675.12 1019.48 674.4 1019.6 672.27L1014.38 672.87C1013.3 672.96 1012.82 673.26 1012.82 673.98ZM1030.35 661.44H1025.85V657.9H1030.35V661.44ZM1030.35 678H1025.85V662.97H1030.35V678ZM1036.72 678H1032.22V657.9H1036.72V678ZM1044.09 678H1038.3V672.75H1044.09V678Z" fill="white"/>
<path d="M621.575 256.25C616.05 256.25 612.625 252.85 612.625 247.625C612.625 242.4 616.05 239 621.575 239C626.775 239 630.125 241.6 630.125 245.85V246.225H625.95V245.85C625.95 243.65 624.7 242.6 621.65 242.6C617.975 242.6 616.6 243.9 616.6 247.625C616.6 251.35 617.975 252.65 621.65 252.65C624.7 252.65 625.95 251.6 625.95 249.4V249.025H630.125V249.4C630.125 253.65 626.8 256.25 621.575 256.25ZM642.375 256.25C636.825 256.25 633.375 252.85 633.375 247.625C633.375 242.4 636.825 239 642.375 239C648.05 239 651.475 242.4 651.475 247.625C651.475 252.85 648.05 256.25 642.375 256.25ZM642.375 252.65C646.05 252.65 647.475 251.35 647.475 247.625C647.475 243.9 646.05 242.6 642.375 242.6C638.7 242.6 637.35 243.9 637.35 247.625C637.35 251.35 638.7 252.65 642.375 252.65ZM668.835 256H655.11V239.25H658.86V252.625H668.835V256ZM686.07 256H672.345V239.25H676.095V252.625H686.07V256ZM692.654 256H688.454L695.779 239.25H701.129L708.504 256H704.204L702.629 252.3H694.254L692.654 256ZM697.279 245.275L695.704 248.925H701.179L699.604 245.275L698.579 242.675H698.304L697.279 245.275ZM721.829 256H711.304V239.25H721.354C724.779 239.25 726.629 240.7 726.629 243.325C726.629 245.4 725.529 246.9 722.729 247.1V247.325C725.829 247.55 727.329 249.1 727.329 251.35C727.329 254.2 725.579 256 721.829 256ZM715.054 242.625V245.9H720.929C722.304 245.9 722.879 245.425 722.879 244.275C722.879 243.125 722.279 242.625 720.879 242.625H715.054ZM715.054 249V252.625H721.379C722.904 252.625 723.529 252.15 723.529 250.8C723.529 249.475 722.904 249 721.379 249H715.054ZM739.338 256.25C733.788 256.25 730.338 252.85 730.338 247.625C730.338 242.4 733.788 239 739.338 239C745.013 239 748.438 242.4 748.438 247.625C748.438 252.85 745.013 256.25 739.338 256.25ZM739.338 252.65C743.013 252.65 744.438 251.35 744.438 247.625C744.438 243.9 743.013 242.6 739.338 242.6C735.663 242.6 734.313 243.9 734.313 247.625C734.313 251.35 735.663 252.65 739.338 252.65ZM755.823 256H752.073V239.25H761.323C765.448 239.25 767.798 241.075 767.798 244.275C767.798 247 766.223 248.625 763.073 248.925V249.125C764.573 249.525 765.148 250.325 765.773 251.5L768.198 256H763.848L761.548 251.65C760.873 250.35 760.248 249.925 758.298 249.925H755.823V256ZM755.823 242.625V247.1H761.298C763.073 247.1 763.873 246.6 763.873 244.85C763.873 243.2 763.073 242.625 761.298 242.625H755.823ZM774.458 256H770.258L777.583 239.25H782.933L790.308 256H786.008L784.433 252.3H776.058L774.458 256ZM779.083 245.275L777.508 248.925H782.983L781.408 245.275L780.383 242.675H780.108L779.083 245.275ZM802.508 256H798.758V242.625H792.533V239.25H808.733V242.625H802.508V256ZM826.252 256H812.077V239.25H826.252V242.625H815.827V245.9H825.877V249.25H815.827V252.625H826.252V256ZM838.879 256H834.679L842.004 239.25H847.354L854.729 256H850.429L848.854 252.3H840.479L838.879 256ZM843.504 245.275L841.929 248.925H847.404L845.829 245.275L844.804 242.675H844.529L843.504 245.275ZM861.354 256H857.604V239.25H861.604L867.604 247.175L869.904 250.7H870.179L870.004 247.325V239.25H873.754V256H869.754L863.579 248L861.454 244.85H861.204L861.354 247.925V256ZM886.018 256H877.943V239.25H886.018C891.393 239.25 894.793 242.375 894.793 247.625C894.793 252.875 891.393 256 886.018 256ZM886.018 242.625H881.693V252.625H886.018C889.418 252.625 890.793 251.65 890.793 247.625C890.793 243.6 889.418 242.625 886.018 242.625ZM914.727 256H904.202V239.25H914.252C917.677 239.25 919.527 240.7 919.527 243.325C919.527 245.4 918.427 246.9 915.627 247.1V247.325C918.727 247.55 920.227 249.1 920.227 251.35C920.227 254.2 918.477 256 914.727 256ZM907.952 242.625V245.9H913.827C915.202 245.9 915.777 245.425 915.777 244.275C915.777 243.125 915.177 242.625 913.777 242.625H907.952ZM907.952 249V252.625H914.277C915.802 252.625 916.427 252.15 916.427 250.8C916.427 249.475 915.802 249 914.277 249H907.952ZM931.711 256.25C926.261 256.25 923.486 253.5 923.486 249V239.25H927.236V248.725C927.236 251.575 928.311 252.6 931.711 252.6C935.136 252.6 936.186 251.575 936.186 248.725V239.25H939.936V249C939.936 253.5 937.186 256.25 931.711 256.25ZM947.574 256H943.824V239.25H947.574V256ZM965.262 256H951.537V239.25H955.287V252.625H965.262V256ZM977.046 256H968.971V239.25H977.046C982.421 239.25 985.821 242.375 985.821 247.625C985.821 252.875 982.421 256 977.046 256ZM977.046 242.625H972.721V252.625H977.046C980.446 252.625 981.821 251.65 981.821 247.625C981.821 243.6 980.446 242.625 977.046 242.625Z" fill="white" fill-opacity="0.85"/>
<path d="M619.7 290H615.2V269.9H632.21V273.95H619.7V278.48H631.76V282.5H619.7V290ZM638.146 290H633.646V274.97H637.816V278.96H638.086C638.506 276.53 640.096 274.67 643.126 274.67C646.486 274.67 647.866 276.98 647.866 279.92V282.41H643.366V280.85C643.366 279.2 642.706 278.48 640.876 278.48C638.866 278.48 638.146 279.41 638.146 281.3V290ZM657.025 290.3C651.895 290.3 648.445 287.24 648.445 282.5C648.445 277.7 651.895 274.67 657.025 274.67C662.155 274.67 665.605 277.7 665.605 282.5C665.605 287.24 662.155 290.3 657.025 290.3ZM657.025 286.31C660.055 286.31 661.135 285.14 661.135 282.5C661.135 279.86 660.055 278.63 657.025 278.63C653.965 278.63 652.915 279.86 652.915 282.5C652.915 285.14 653.965 286.31 657.025 286.31ZM671.463 290H666.963V274.97H671.133V279.53H671.373C671.733 277.01 673.233 274.67 677.013 274.67C680.493 274.67 682.263 276.8 682.593 279.59H682.863C683.223 277.04 684.753 274.67 688.623 274.67C692.493 274.67 694.383 277.22 694.383 280.64V290H689.883V282.14C689.883 279.65 689.013 278.72 686.433 278.72C683.703 278.72 682.923 279.8 682.923 282.41V290H678.423V282.14C678.423 279.65 677.553 278.72 674.973 278.72C672.243 278.72 671.463 279.8 671.463 282.41V290ZM710.239 290.3C702.919 290.3 699.919 287.09 699.919 279.98C699.919 272.99 703.849 269.6 709.849 269.6C715.339 269.6 718.879 272.24 718.879 276.35V276.59H713.869V276.35C713.869 274.61 712.729 273.92 709.849 273.92C706.159 273.92 704.719 275.09 704.719 279.2V280.52H705.049C705.889 278.9 708.049 277.58 711.649 277.58C716.599 277.58 719.359 279.59 719.359 283.7C719.359 287.72 716.209 290.3 710.239 290.3ZM709.999 285.98C713.569 285.98 714.649 285.14 714.649 283.37C714.649 281.51 713.599 280.7 710.029 280.7C706.249 280.7 705.079 281.51 705.079 283.31C705.079 285.11 706.279 285.98 709.999 285.98ZM726.472 290H720.682V284.75H726.472V290ZM737.69 290.3C731.21 290.3 727.64 286.22 727.64 279.95C727.64 273.71 731.21 269.6 737.69 269.6C744.14 269.6 747.74 273.71 747.74 279.95C747.74 286.22 744.14 290.3 737.69 290.3ZM737.69 285.92C741.5 285.92 742.91 284.27 742.91 279.95C742.91 275.63 741.5 273.98 737.69 273.98C733.85 273.98 732.47 275.63 732.47 279.95C732.47 284.27 733.85 285.92 737.69 285.92ZM758.773 290.3C752.293 290.3 748.723 286.22 748.723 279.95C748.723 273.71 752.293 269.6 758.773 269.6C765.223 269.6 768.823 273.71 768.823 279.95C768.823 286.22 765.223 290.3 758.773 290.3ZM758.773 285.92C762.583 285.92 763.993 284.27 763.993 279.95C763.993 275.63 762.583 273.98 758.773 273.98C754.933 273.98 753.553 275.63 753.553 279.95C753.553 284.27 754.933 285.92 758.773 285.92ZM774.755 290H770.255V269.9H780.755C785.405 269.9 788.405 272.54 788.405 277.16C788.405 281.78 785.405 284.45 780.755 284.45H774.755V290ZM780.275 273.95H774.755V280.4H780.275C782.765 280.4 783.935 279.68 783.935 277.16C783.935 274.7 782.765 273.95 780.275 273.95ZM794.021 290H789.521V269.9H795.611L800.321 279.8L802.211 284.51H802.541L804.371 279.8L808.931 269.9H815.051V290H810.551V279.8L810.701 276.65H810.371L809.201 279.8L805.001 288.8H799.541L795.341 279.8L794.171 276.65H793.841L794.021 279.8V290ZM827.822 283.07H816.632V279.2H827.822V283.07ZM838.19 290H833.69V275.48H828.53V272.39H829.37C831.59 272.39 833.09 271.88 834.08 269.9H838.19V290ZM848.872 290H844.372V275.48H839.212V272.39H840.052C842.272 272.39 843.772 271.88 844.762 269.9H848.872V290ZM856.284 290H850.494V284.75H856.284V290ZM867.502 290.3C861.022 290.3 857.452 286.22 857.452 279.95C857.452 273.71 861.022 269.6 867.502 269.6C873.952 269.6 877.552 273.71 877.552 279.95C877.552 286.22 873.952 290.3 867.502 290.3ZM867.502 285.92C871.312 285.92 872.722 284.27 872.722 279.95C872.722 275.63 871.312 273.98 867.502 273.98C863.662 273.98 862.282 275.63 862.282 279.95C862.282 284.27 863.662 285.92 867.502 285.92ZM888.585 290.3C882.105 290.3 878.535 286.22 878.535 279.95C878.535 273.71 882.105 269.6 888.585 269.6C895.035 269.6 898.635 273.71 898.635 279.95C898.635 286.22 895.035 290.3 888.585 290.3ZM888.585 285.92C892.395 285.92 893.805 284.27 893.805 279.95C893.805 275.63 892.395 273.98 888.585 273.98C884.745 273.98 883.365 275.63 883.365 279.95C883.365 284.27 884.745 285.92 888.585 285.92ZM904.567 295.1H900.067V274.97H904.237V279.08H904.537C905.077 276.2 906.997 274.67 910.537 274.67C915.157 274.67 917.737 277.73 917.737 282.5C917.737 287.27 915.217 290.3 910.687 290.3C907.207 290.3 905.287 288.59 904.777 285.95H904.567V295.1ZM904.567 282.71C904.567 285.29 906.127 286.19 908.947 286.19C911.827 286.19 913.177 285.23 913.177 282.5C913.177 279.74 911.827 278.81 908.977 278.81C906.067 278.81 904.567 279.8 904.567 282.47V282.71ZM923.628 290H919.128V274.97H923.298V279.53H923.538C923.898 277.01 925.398 274.67 929.178 274.67C932.658 274.67 934.428 276.8 934.758 279.59H935.028C935.388 277.04 936.918 274.67 940.788 274.67C944.658 274.67 946.548 277.22 946.548 280.64V290H942.048V282.14C942.048 279.65 941.178 278.72 938.598 278.72C935.868 278.72 935.088 279.8 935.088 282.41V290H930.588V282.14C930.588 279.65 929.718 278.72 927.138 278.72C924.408 278.72 923.628 279.8 923.628 282.41V290Z" fill="white"/>
<path d="M623.8 440H618.225L614.275 423.25H618.475L620.5 432.75L621.075 436.425H621.35L622.125 432.75L624.925 423.25H630.5L633.275 432.75L634.05 436.425H634.325L634.9 432.75L636.925 423.25H641.025L637.05 440H631.475L628.975 431.625L627.8 426.8H627.525L626.35 431.625L623.8 440ZM648.069 440H644.319V423.25H653.569C657.694 423.25 660.044 425.075 660.044 428.275C660.044 431 658.469 432.625 655.319 432.925V433.125C656.819 433.525 657.394 434.325 658.019 435.5L660.444 440H656.094L653.794 435.65C653.119 434.35 652.494 433.925 650.544 433.925H648.069V440ZM648.069 426.625V431.1H653.544C655.319 431.1 656.119 430.6 656.119 428.85C656.119 427.2 655.319 426.625 653.544 426.625H648.069ZM666.704 440H662.504L669.829 423.25H675.179L682.554 440H678.254L676.679 436.3H668.304L666.704 440ZM671.329 429.275L669.754 432.925H675.229L673.654 429.275L672.629 426.675H672.354L671.329 429.275ZM689.179 440H685.429V423.25H694.179C698.054 423.25 700.554 425.45 700.554 429.3C700.554 433.15 698.054 435.375 694.179 435.375H689.179V440ZM693.779 426.625H689.179V432H693.779C695.854 432 696.829 431.4 696.829 429.3C696.829 427.25 695.854 426.625 693.779 426.625ZM717.841 440.25C712.391 440.25 709.616 437.5 709.616 433V423.25H713.366V432.725C713.366 435.575 714.441 436.6 717.841 436.6C721.266 436.6 722.316 435.575 722.316 432.725V423.25H726.066V433C726.066 437.5 723.316 440.25 717.841 440.25ZM733.704 440H729.954V423.25H738.704C742.579 423.25 745.079 425.45 745.079 429.3C745.079 433.15 742.579 435.375 738.704 435.375H733.704V440ZM738.304 426.625H733.704V432H738.304C740.379 432 741.354 431.4 741.354 429.3C741.354 427.25 740.379 426.625 738.304 426.625ZM763.067 440H757.492L753.542 423.25H757.742L759.767 432.75L760.342 436.425H760.617L761.392 432.75L764.192 423.25H769.767L772.542 432.75L773.317 436.425H773.592L774.167 432.75L776.192 423.25H780.292L776.317 440H770.742L768.242 431.625L767.067 426.8H766.792L765.617 431.625L763.067 440ZM787.336 440H783.586V423.25H787.336V440ZM800.624 440H796.874V426.625H790.649V423.25H806.849V426.625H800.624V440ZM813.943 440H810.193V423.25H813.943V429.9H822.693V423.25H826.443V440H822.693V433.275H813.943V440ZM839.388 440H835.187L842.513 423.25H847.863L855.238 440H850.938L849.363 436.3H840.988L839.388 440ZM844.013 429.275L842.438 432.925H847.913L846.338 429.275L845.313 426.675H845.038L844.013 429.275ZM872.245 440H864.17V423.25H872.245C877.62 423.25 881.02 426.375 881.02 431.625C881.02 436.875 877.62 440 872.245 440ZM872.245 426.625H867.92V436.625H872.245C875.645 436.625 877.02 435.65 877.02 431.625C877.02 427.6 875.645 426.625 872.245 426.625ZM898.821 440H884.646V423.25H898.821V426.625H888.396V429.9H898.446V433.25H888.396V436.625H898.821V440ZM911.841 440H908.091V426.625H901.866V423.25H918.066V426.625H911.841V440ZM924.485 440H920.285L927.61 423.25H932.96L940.335 440H936.035L934.46 436.3H926.085L924.485 440ZM929.11 429.275L927.535 432.925H933.01L931.435 429.275L930.41 426.675H930.135L929.11 429.275ZM946.96 440H943.21V423.25H946.96V440ZM964.648 440H950.923V423.25H954.673V436.625H964.648V440ZM982.332 440H968.157V423.25H982.332V426.625H971.907V429.9H981.957V433.25H971.907V436.625H982.332V440ZM994.301 440H986.226V423.25H994.301C999.676 423.25 1003.08 426.375 1003.08 431.625C1003.08 436.875 999.676 440 994.301 440ZM994.301 426.625H989.976V436.625H994.301C997.701 436.625 999.076 435.65 999.076 431.625C999.076 427.6 997.701 426.625 994.301 426.625Z" fill="white" fill-opacity="0.85"/>
<path d="M623.849 482H619.349V461.9H630.449C635.399 461.9 638.219 464.09 638.219 467.93C638.219 471.2 636.329 473.15 632.549 473.51V473.75C634.349 474.23 635.039 475.19 635.789 476.6L638.699 482H633.479L630.719 476.78C629.909 475.22 629.159 474.71 626.819 474.71H623.849V482ZM623.849 465.95V471.32H630.419C632.549 471.32 633.509 470.72 633.509 468.62C633.509 466.64 632.549 465.95 630.419 465.95H623.849ZM656.65 482H639.64V461.9H656.65V465.95H644.14V469.88H656.2V473.9H644.14V477.95H656.65V482ZM661.893 482H656.853L665.643 461.9H672.063L680.913 482H675.753L673.863 477.56H663.813L661.893 482ZM667.443 469.13L665.553 473.51H672.123L670.233 469.13L669.003 466.01H668.673L667.443 469.13ZM691.413 482H681.723V461.9H691.413C697.863 461.9 701.943 465.65 701.943 471.95C701.943 478.25 697.863 482 691.413 482ZM691.413 465.95H686.223V477.95H691.413C695.493 477.95 697.143 476.78 697.143 471.95C697.143 467.12 695.493 465.95 691.413 465.95ZM707.915 482H703.415V461.9H709.505L714.215 471.8L716.105 476.51H716.435L718.265 471.8L722.825 461.9H728.945V482H724.445V471.8L724.595 468.65H724.265L723.095 471.8L718.895 480.8H713.435L709.235 471.8L708.065 468.65H707.735L707.915 471.8V482ZM747.836 482H730.826V461.9H747.836V465.95H735.326V469.88H747.386V473.9H735.326V477.95H747.836V482ZM758.038 465.44H753.538V461.9H758.038V465.44ZM758.038 482H753.538V466.97H758.038V482ZM764.413 482H759.913V466.97H764.083V471.59H764.353C764.743 469.07 766.543 466.67 770.473 466.67C774.583 466.67 776.533 469.31 776.533 472.64V482H772.033V474.14C772.033 471.74 771.043 470.72 768.283 470.72C765.433 470.72 764.413 471.86 764.413 474.41V482ZM793.069 482H789.349C785.839 482 783.709 480.35 783.709 476.57V470.69H781.339V466.97H783.709V464.06H788.209V466.97H793.069V470.69H788.209V476.06C788.209 477.56 788.779 477.95 790.369 477.95H793.069V482ZM798.774 482H794.274V461.9H798.774V471.56H799.014C799.494 469.01 801.264 466.67 805.104 466.67C809.154 466.67 811.134 469.31 811.134 472.79V482H806.634V474.14C806.634 471.62 805.554 470.72 802.734 470.72C799.704 470.72 798.774 471.95 798.774 474.47V482ZM820.905 482.3C815.895 482.3 812.475 479.84 812.475 474.5C812.475 469.7 815.865 466.67 820.815 466.67C825.735 466.67 829.005 469.25 829.005 473.96C829.005 474.5 828.945 474.89 828.885 475.4H816.645C816.765 477.71 817.845 478.7 820.755 478.7C823.425 478.7 824.355 478.01 824.355 476.72V476.42H828.855V476.75C828.855 480.02 825.675 482.3 820.905 482.3ZM820.725 470.18C818.055 470.18 816.915 471.08 816.705 473.03H824.685C824.565 471.05 823.365 470.18 820.725 470.18ZM839.082 482H834.582V466.97H838.752V470.96H839.022C839.442 468.53 841.032 466.67 844.062 466.67C847.422 466.67 848.802 468.98 848.802 471.92V474.41H844.302V472.85C844.302 471.2 843.642 470.48 841.812 470.48C839.802 470.48 839.082 471.41 839.082 473.3V482ZM857.932 482.3C852.922 482.3 849.502 479.84 849.502 474.5C849.502 469.7 852.892 466.67 857.842 466.67C862.762 466.67 866.032 469.25 866.032 473.96C866.032 474.5 865.972 474.89 865.912 475.4H853.672C853.792 477.71 854.872 478.7 857.782 478.7C860.452 478.7 861.382 478.01 861.382 476.72V476.42H865.882V476.75C865.882 480.02 862.702 482.3 857.932 482.3ZM857.752 470.18C855.082 470.18 853.942 471.08 853.732 473.03H861.712C861.592 471.05 860.392 470.18 857.752 470.18ZM871.96 487.1H867.46V466.97H871.63V471.08H871.93C872.47 468.2 874.39 466.67 877.93 466.67C882.55 466.67 885.13 469.73 885.13 474.5C885.13 479.27 882.61 482.3 878.08 482.3C874.6 482.3 872.68 480.59 872.17 477.95H871.96V487.1ZM871.96 474.71C871.96 477.29 873.52 478.19 876.34 478.19C879.22 478.19 880.57 477.23 880.57 474.5C880.57 471.74 879.22 470.81 876.37 470.81C873.46 470.81 871.96 471.8 871.96 474.47V474.71ZM894.531 482.3C889.401 482.3 885.951 479.24 885.951 474.5C885.951 469.7 889.401 466.67 894.531 466.67C899.661 466.67 903.111 469.7 903.111 474.5C903.111 479.24 899.661 482.3 894.531 482.3ZM894.531 478.31C897.561 478.31 898.641 477.14 898.641 474.5C898.641 471.86 897.561 470.63 894.531 470.63C891.471 470.63 890.421 471.86 890.421 474.5C890.421 477.14 891.471 478.31 894.531 478.31ZM912.059 482.3C906.989 482.3 904.199 480.32 904.199 476.84V476.75H908.699V477.02C908.699 478.37 909.539 478.73 912.089 478.73C914.489 478.73 915.059 478.34 915.059 477.44C915.059 476.6 914.609 476.36 912.839 476.12L908.609 475.61C905.609 475.28 903.929 473.93 903.929 471.41C903.929 468.77 906.179 466.67 911.339 466.67C916.259 466.67 919.049 468.53 919.049 472.19V472.28H914.549V472.1C914.549 470.87 913.949 470.24 911.189 470.24C908.939 470.24 908.369 470.63 908.369 471.59C908.369 472.37 908.789 472.7 910.769 472.94L913.979 473.33C917.999 473.78 919.499 475.13 919.499 477.62C919.499 480.44 916.709 482.3 912.059 482.3ZM925.334 465.44H920.834V461.9H925.334V465.44ZM925.334 482H920.834V466.97H925.334V482ZM937.8 482H934.08C930.57 482 928.44 480.35 928.44 476.57V470.69H926.07V466.97H928.44V464.06H932.94V466.97H937.8V470.69H932.94V476.06C932.94 477.56 933.51 477.95 935.1 477.95H937.8V482ZM947.015 482.3C941.885 482.3 938.435 479.24 938.435 474.5C938.435 469.7 941.885 466.67 947.015 466.67C952.145 466.67 955.595 469.7 955.595 474.5C955.595 479.24 952.145 482.3 947.015 482.3ZM947.015 478.31C950.045 478.31 951.125 477.14 951.125 474.5C951.125 471.86 950.045 470.63 947.015 470.63C943.955 470.63 942.905 471.86 942.905 474.5C942.905 477.14 943.955 478.31 947.015 478.31ZM961.453 482H956.953V466.97H961.123V470.96H961.393C961.813 468.53 963.403 466.67 966.433 466.67C969.793 466.67 971.173 468.98 971.173 471.92V474.41H966.673V472.85C966.673 471.2 966.013 470.48 964.183 470.48C962.173 470.48 961.453 471.41 961.453 473.3V482ZM975.203 487.1H972.743V483.02H976.433C977.543 483.02 978.023 482.72 978.323 482.06L970.973 466.97H976.073L979.253 473.84L980.513 477.38H980.813L982.013 473.81L984.863 466.97H989.873L982.433 483.08C980.993 486.23 978.983 487.1 975.203 487.1ZM618.08 513.1H615.62V509.02H619.31C620.42 509.02 620.9 508.72 621.2 508.06L613.85 492.97H618.95L622.13 499.84L623.39 503.38H623.69L624.89 499.81L627.74 492.97H632.75L625.31 509.08C623.87 512.23 621.86 513.1 618.08 513.1ZM641.363 508.3C636.233 508.3 632.783 505.24 632.783 500.5C632.783 495.7 636.233 492.67 641.363 492.67C646.493 492.67 649.943 495.7 649.943 500.5C649.943 505.24 646.493 508.3 641.363 508.3ZM641.363 504.31C644.393 504.31 645.473 503.14 645.473 500.5C645.473 497.86 644.393 496.63 641.363 496.63C638.303 496.63 637.253 497.86 637.253 500.5C637.253 503.14 638.303 504.31 641.363 504.31ZM657.511 508.3C653.281 508.3 651.271 505.69 651.271 502.33V492.97H655.771V500.83C655.771 503.26 656.791 504.28 659.641 504.28C662.581 504.28 663.631 503.14 663.631 500.59V492.97H668.131V508H663.931V503.41H663.691C663.301 505.93 661.471 508.3 657.511 508.3ZM682.11 508.3C676.95 508.3 673.65 505.24 673.65 500.5C673.65 495.7 676.95 492.67 682.11 492.67C686.94 492.67 690.24 495.25 690.24 499.15V499.57H685.77V499.33C685.77 497.41 684.36 496.72 682.02 496.72C679.35 496.72 678.12 497.71 678.12 500.5C678.12 503.26 679.35 504.25 682.02 504.25C684.36 504.25 685.77 503.56 685.77 501.64V501.4H690.24V501.82C690.24 505.69 686.94 508.3 682.11 508.3ZM696.196 508H691.696V492.97H695.866V496.96H696.136C696.556 494.53 698.146 492.67 701.176 492.67C704.536 492.67 705.916 494.98 705.916 497.92V500.41H701.416V498.85C701.416 497.2 700.756 496.48 698.926 496.48C696.916 496.48 696.196 497.41 696.196 499.3V508ZM715.046 508.3C710.036 508.3 706.616 505.84 706.616 500.5C706.616 495.7 710.006 492.67 714.956 492.67C719.876 492.67 723.146 495.25 723.146 499.96C723.146 500.5 723.086 500.89 723.026 501.4H710.786C710.906 503.71 711.986 504.7 714.896 504.7C717.566 504.7 718.496 504.01 718.496 502.72V502.42H722.996V502.75C722.996 506.02 719.816 508.3 715.046 508.3ZM714.866 496.18C712.196 496.18 711.056 497.08 710.846 499.03H718.826C718.706 497.05 717.506 496.18 714.866 496.18ZM729.194 508.3C725.954 508.3 724.004 506.8 724.004 504.28C724.004 502.06 725.654 500.68 728.864 500.35L735.314 499.69V499.12C735.314 497.17 734.444 496.63 732.044 496.63C729.764 496.63 728.834 497.23 728.834 498.94V499.06H724.304V498.97C724.304 495.25 727.424 492.67 732.374 492.67C737.384 492.67 739.754 495.25 739.754 499.18V508H735.554V504.55H735.314C734.624 506.89 732.524 508.3 729.194 508.3ZM728.534 503.98C728.534 504.79 729.164 505.12 730.484 505.12C733.544 505.12 735.194 504.4 735.314 502.27L730.094 502.87C729.014 502.96 728.534 503.26 728.534 503.98ZM752.145 508H748.425C744.915 508 742.785 506.35 742.785 502.57V496.69H740.415V492.97H742.785V490.06H747.285V492.97H752.145V496.69H747.285V502.06C747.285 503.56 747.855 503.95 749.445 503.95H752.145V508ZM761.331 508.3C756.321 508.3 752.901 505.84 752.901 500.5C752.901 495.7 756.291 492.67 761.241 492.67C766.161 492.67 769.431 495.25 769.431 499.96C769.431 500.5 769.371 500.89 769.311 501.4H757.071C757.191 503.71 758.271 504.7 761.181 504.7C763.851 504.7 764.781 504.01 764.781 502.72V502.42H769.281V502.75C769.281 506.02 766.101 508.3 761.331 508.3ZM761.151 496.18C758.481 496.18 757.341 497.08 757.131 499.03H765.111C764.991 497.05 763.791 496.18 761.151 496.18ZM777.579 508.3C772.899 508.3 770.319 505.24 770.319 500.5C770.319 495.7 772.869 492.67 777.339 492.67C780.909 492.67 782.739 494.44 783.249 496.96H783.519V487.9H788.019V508H783.819V503.83H783.579C783.009 506.8 781.029 508.3 777.579 508.3ZM774.879 500.5C774.879 503.23 776.229 504.19 779.109 504.19C781.959 504.19 783.519 503.2 783.519 500.59V500.35C783.519 497.74 781.989 496.78 779.109 496.78C776.229 496.78 774.879 497.74 774.879 500.5ZM795.41 508H789.62V502.75H795.41V508Z" fill="white"/>
<path d="M621.825 619.25C616.4 619.25 614.375 616.625 614.375 612.2V611.475H618.35V612.2C618.35 614.675 618.85 615.6 621.825 615.6C624.775 615.6 625.35 614.725 625.35 612.375V602.25H629.325V612.375C629.325 616.675 627.275 619.25 621.825 619.25ZM641.836 619.25C636.286 619.25 632.836 615.85 632.836 610.625C632.836 605.4 636.286 602 641.836 602C647.511 602 650.936 605.4 650.936 610.625C650.936 615.85 647.511 619.25 641.836 619.25ZM641.836 615.65C645.511 615.65 646.936 614.35 646.936 610.625C646.936 606.9 645.511 605.6 641.836 605.6C638.161 605.6 636.811 606.9 636.811 610.625C636.811 614.35 638.161 615.65 641.836 615.65ZM658.321 619H654.571V602.25H658.321V619ZM666.034 619H662.284V602.25H666.284L672.284 610.175L674.584 613.7H674.859L674.684 610.325V602.25H678.434V619H674.434L668.259 611L666.134 607.85H665.884L666.034 610.925V619ZM697.606 619H693.856V605.625H687.631V602.25H703.831V605.625H697.606V619ZM710.926 619H707.176V602.25H710.926V608.9H719.676V602.25H723.426V619H719.676V612.275H710.926V619ZM741.613 619H727.438V602.25H741.613V605.625H731.188V608.9H741.238V612.25H731.188V615.625H741.613V619ZM754.914 619H751.164V602.25H754.914V619ZM767.152 619H759.077V602.25H767.152C772.527 602.25 775.927 605.375 775.927 610.625C775.927 615.875 772.527 619 767.152 619ZM767.152 605.625H762.827V615.625H767.152C770.552 615.625 771.927 614.65 771.927 610.625C771.927 606.6 770.552 605.625 767.152 605.625ZM793.729 619H779.554V602.25H793.729V605.625H783.304V608.9H793.354V612.25H783.304V615.625H793.729V619ZM800.498 619H796.298L803.623 602.25H808.973L816.348 619H812.048L810.473 615.3H802.098L800.498 619ZM805.123 608.275L803.548 611.925H809.023L807.448 608.275L806.423 605.675H806.148L805.123 608.275ZM828.83 619H825.08V602.25H833.83C837.705 602.25 840.205 604.45 840.205 608.3C840.205 612.15 837.705 614.375 833.83 614.375H828.83V619ZM833.43 605.625H828.83V611H833.43C835.505 611 836.48 610.4 836.48 608.3C836.48 606.25 835.505 605.625 833.43 605.625ZM847.285 619H843.535V602.25H847.285V619ZM860.573 619H856.823V605.625H850.598V602.25H866.798V605.625H860.573V619ZM878.718 619.25C873.193 619.25 869.768 615.85 869.768 610.625C869.768 605.4 873.193 602 878.718 602C883.918 602 887.268 604.6 887.268 608.85V609.225H883.093V608.85C883.093 606.65 881.843 605.6 878.793 605.6C875.118 605.6 873.743 606.9 873.743 610.625C873.743 614.35 875.118 615.65 878.793 615.65C881.843 615.65 883.093 614.6 883.093 612.4V612.025H887.268V612.4C887.268 616.65 883.943 619.25 878.718 619.25ZM894.643 619H890.893V602.25H894.643V608.9H903.393V602.25H907.143V619H903.393V612.275H894.643V619ZM914.904 619H911.154V602.25H914.904V619ZM922.617 619H918.867V602.25H922.867L928.867 610.175L931.167 613.7H931.442L931.267 610.325V602.25H935.017V619H931.017L924.842 611L922.717 607.85H922.467L922.617 610.925V619ZM946.907 619.25C941.782 619.25 938.632 615.85 938.632 610.625C938.632 605.4 942.182 602 947.932 602C953.182 602 956.507 604.45 956.507 608.475V608.675H952.332V608.475C952.332 606.525 951.057 605.6 947.832 605.6C944.032 605.6 942.607 606.9 942.607 610.625C942.607 614.35 943.982 615.65 947.657 615.65C951.507 615.65 952.682 615.05 952.782 612.925H947.107V610.15H956.532V619H953.057V615.4H952.857C952.282 617.6 950.532 619.25 946.907 619.25ZM973.825 619.25C968.75 619.25 965.9 617.25 965.9 613.35V613.2H969.65V613.65C969.65 615.2 970.425 615.825 973.825 615.825C976.825 615.825 977.525 615.375 977.525 614.25C977.525 613.225 976.95 612.85 975.225 612.55L970.525 611.875C967.525 611.4 965.75 609.9 965.75 607.175C965.75 604.65 967.8 602 973.425 602C978.575 602 980.975 604.375 980.975 607.9V608.05H977.2V607.7C977.2 606.1 976.375 605.425 973.05 605.425C970.35 605.425 969.525 605.95 969.525 607.025C969.525 608 970.075 608.35 971.475 608.6L976.175 609.35C979.925 609.95 981.275 611.775 981.275 614.075C981.275 616.8 979.15 619.25 973.825 619.25ZM998.977 619H984.802V602.25H998.977V605.625H988.552V608.9H998.602V612.25H988.552V615.625H998.977V619ZM1010.27 619.25C1005.2 619.25 1002.35 617.25 1002.35 613.35V613.2H1006.1V613.65C1006.1 615.2 1006.87 615.825 1010.27 615.825C1013.27 615.825 1013.97 615.375 1013.97 614.25C1013.97 613.225 1013.4 612.85 1011.67 612.55L1006.97 611.875C1003.97 611.4 1002.2 609.9 1002.2 607.175C1002.2 604.65 1004.25 602 1009.87 602C1015.02 602 1017.42 604.375 1017.42 607.9V608.05H1013.65V607.7C1013.65 606.1 1012.82 605.425 1009.5 605.425C1006.8 605.425 1005.97 605.95 1005.97 607.025C1005.97 608 1006.52 608.35 1007.92 608.6L1012.62 609.35C1016.37 609.95 1017.72 611.775 1017.72 614.075C1017.72 616.8 1015.6 619.25 1010.27 619.25ZM1028.85 619.25C1023.77 619.25 1020.92 617.25 1020.92 613.35V613.2H1024.67V613.65C1024.67 615.2 1025.45 615.825 1028.85 615.825C1031.85 615.825 1032.55 615.375 1032.55 614.25C1032.55 613.225 1031.97 612.85 1030.25 612.55L1025.55 611.875C1022.55 611.4 1020.77 609.9 1020.77 607.175C1020.77 604.65 1022.82 602 1028.45 602C1033.6 602 1036 604.375 1036 607.9V608.05H1032.22V607.7C1032.22 606.1 1031.4 605.425 1028.07 605.425C1025.37 605.425 1024.55 605.95 1024.55 607.025C1024.55 608 1025.1 608.35 1026.5 608.6L1031.2 609.35C1034.95 609.95 1036.3 611.775 1036.3 614.075C1036.3 616.8 1034.17 619.25 1028.85 619.25ZM1043.58 619H1039.83V602.25H1043.58V619ZM1056.16 619.25C1050.61 619.25 1047.16 615.85 1047.16 610.625C1047.16 605.4 1050.61 602 1056.16 602C1061.84 602 1065.26 605.4 1065.26 610.625C1065.26 615.85 1061.84 619.25 1056.16 619.25ZM1056.16 615.65C1059.84 615.65 1061.26 614.35 1061.26 610.625C1061.26 606.9 1059.84 605.6 1056.16 605.6C1052.49 605.6 1051.14 606.9 1051.14 610.625C1051.14 614.35 1052.49 615.65 1056.16 615.65ZM1072.65 619H1068.9V602.25H1072.9L1078.9 610.175L1081.2 613.7H1081.47L1081.3 610.325V602.25H1085.05V619H1081.05L1074.87 611L1072.75 607.85H1072.5L1072.65 610.925V619Z" fill="white" fill-opacity="0.85"/>
<path d="M682.58 166H673.6V152.6H682.12C685.02 152.6 686.46 153.74 686.46 155.84C686.46 157.56 685.56 158.78 683.12 158.88V159.08C685.8 159.18 687.08 160.42 687.08 162.28C687.08 164.54 685.78 166 682.58 166ZM677.34 155.98V157.68H681.72C682.48 157.68 682.7 157.46 682.7 156.84C682.7 156.22 682.4 155.98 681.62 155.98H677.34ZM677.34 160.76V162.62H682.1C683 162.62 683.28 162.44 683.28 161.68C683.28 160.94 683.02 160.76 682.1 160.76H677.34ZM696.637 166.2C691.957 166.2 689.797 163.94 689.797 160.38V152.6H693.557V160.08C693.557 161.98 694.097 162.56 696.637 162.56C699.177 162.56 699.717 161.98 699.717 160.08V152.6H703.477V160.38C703.477 163.94 701.317 166.2 696.637 166.2ZM710.364 166H706.604V152.6H710.364V166ZM725.065 166H713.565V152.6H717.325V162.62H725.065V166ZM735.065 166H728.285V152.6H735.065C739.485 152.6 742.285 155.06 742.285 159.3C742.285 163.54 739.485 166 735.065 166ZM735.065 155.98H732.045V162.62H735.065C737.445 162.62 738.265 162.32 738.265 159.3C738.265 156.28 737.445 155.98 735.065 155.98ZM750.16 166H745.28V162.16H750.16V166Z" fill="white"/>
<path d="M761.907 166H758.147V152.6H761.907V157.58H768.147V152.6H771.907V166H768.147V160.96H761.907V166ZM778.528 166H774.308L780.088 152.6H785.468L791.268 166H786.948L785.928 163.52H779.568L778.528 166ZM781.768 158.26L780.988 160.14H784.548L783.768 158.26L782.888 156H782.628L781.768 158.26ZM803.65 166H798.25L792.87 152.6H797.41L800.87 162.2H801.13L804.51 152.6H809.03L803.65 166ZM823.332 166H811.432V152.6H823.332V155.98H815.192V157.58H823.032V160.94H815.192V162.62H823.332V166ZM834.954 166H831.194V152.6H843.174V155.98H834.954V157.98H842.874V161.34H834.954V166ZM852.923 166.2C848.243 166.2 846.083 163.94 846.083 160.38V152.6H849.843V160.08C849.843 161.98 850.383 162.56 852.923 162.56C855.463 162.56 856.003 161.98 856.003 160.08V152.6H859.763V160.38C859.763 163.94 857.603 166.2 852.923 166.2ZM866.649 166H862.889V152.6H866.889L870.609 157.62L872.569 160.7H872.829L872.649 157.78V152.6H876.409V166H872.409L868.449 160.84L866.749 158.2H866.489L866.649 160.76V166ZM884.456 161.6H880.616C880.616 160.24 880.096 155.54 880.096 154V152.6H884.976V154C884.976 155.54 884.456 160.26 884.456 161.6ZM884.676 166H880.376V162.46H884.676V166ZM893.487 161.6H889.647C889.647 160.24 889.127 155.54 889.127 154V152.6H894.007V154C894.007 155.54 893.487 160.26 893.487 161.6ZM893.707 166H889.407V162.46H893.707V166Z" fill="#CBE52A"/>
<defs>
<filter id="filter0_f_858_1398" x="319" y="108" width="837" height="647" filterUnits="userSpaceOnUse" color-interpolation-filters="sRGB">
<feFlood flood-opacity="0" result="BackgroundImageFix"/>
<feBlend mode="normal" in="SourceGraphic" in2="BackgroundImageFix" result="shape"/>
<feGaussianBlur stdDeviation="80" result="effect1_foregroundBlur_858_1398"/>
</filter>
</defs>
</svg>
