<svg width="566" height="478" viewBox="0 0 566 478" fill="none" xmlns="http://www.w3.org/2000/svg">
<g filter="url(#filter0_d_757_3104)">
<rect y="53" width="519.423" height="363.836" rx="11.3226" fill="#1A202C"/>
<rect x="25.4758" y="84.1371" width="58.0282" height="288.726" rx="2.83065" fill="#1D2939"/>
<path fill-rule="evenodd" clip-rule="evenodd" d="M50.32 341.751C53.9529 341.22 56.4543 341.266 60.092 341.769C60.3555 341.808 60.5962 341.94 60.7698 342.142C60.9433 342.343 61.038 342.601 61.0362 342.867C61.0362 343.122 60.9487 343.37 60.7905 343.563C60.5148 343.9 60.2324 344.231 59.9434 344.556H61.3451C61.4332 344.451 61.5219 344.344 61.6116 344.235C61.9264 343.849 62.0981 343.366 62.0977 342.868C62.0977 341.793 61.3133 340.867 60.2375 340.718C56.5138 340.203 53.911 340.154 50.1666 340.701C49.0796 340.86 48.2983 341.8 48.2983 342.882C48.2983 343.363 48.4549 343.838 48.7516 344.222C48.8392 344.336 48.9257 344.447 49.0117 344.557H50.3794C50.1105 344.235 49.8483 343.908 49.5928 343.575C49.441 343.376 49.3591 343.132 49.3598 342.882C49.3598 342.31 49.7706 341.831 50.32 341.751ZM55.198 336.595C55.6162 336.595 56.0303 336.513 56.4167 336.353C56.803 336.193 57.1541 335.958 57.4498 335.662C57.7455 335.367 57.9801 335.016 58.1401 334.629C58.3001 334.243 58.3825 333.829 58.3825 333.411C58.3825 332.992 58.3001 332.578 58.1401 332.192C57.9801 331.806 57.7455 331.455 57.4498 331.159C57.1541 330.863 56.803 330.629 56.4167 330.469C56.0303 330.309 55.6162 330.226 55.198 330.226C54.3535 330.226 53.5435 330.562 52.9463 331.159C52.3491 331.756 52.0136 332.566 52.0136 333.411C52.0136 334.255 52.3491 335.065 52.9463 335.662C53.5435 336.26 54.3535 336.595 55.198 336.595ZM55.198 337.657C56.3241 337.657 57.4041 337.209 58.2004 336.413C58.9967 335.617 59.444 334.537 59.444 333.411C59.444 332.285 58.9967 331.205 58.2004 330.408C57.4041 329.612 56.3241 329.165 55.198 329.165C54.0719 329.165 52.992 329.612 52.1957 330.408C51.3994 331.205 50.9521 332.285 50.9521 333.411C50.9521 334.537 51.3994 335.617 52.1957 336.413C52.992 337.209 54.0719 337.657 55.198 337.657Z" fill="#A0A0A0"/>
<path fill-rule="evenodd" clip-rule="evenodd" d="M55.1982 345.618C60.4743 345.618 64.7516 341.341 64.7516 336.064C64.7516 330.788 60.4743 326.511 55.1982 326.511C49.922 326.511 45.6447 330.788 45.6447 336.064C45.6447 341.341 49.922 345.618 55.1982 345.618ZM55.1982 346.679C61.0608 346.679 65.8131 341.927 65.8131 336.064C65.8131 330.202 61.0608 325.449 55.1982 325.449C49.3356 325.449 44.5833 330.202 44.5833 336.064C44.5833 341.927 49.3356 346.679 55.1982 346.679Z" fill="#A0A0A0"/>
<path d="M53.6042 109.79C52.7596 109.79 51.9496 110.125 51.3524 110.723C50.7552 111.32 50.4197 112.13 50.4197 112.974V125.712C50.4197 126.557 50.7552 127.367 51.3524 127.964C51.9496 128.561 52.7596 128.897 53.6042 128.897H61.567C62.4115 128.897 63.2215 128.561 63.8187 127.964C64.4159 127.367 64.7514 126.557 64.7514 125.712V116.955H64.7482V115.226C64.7481 114.593 64.4967 113.986 64.0493 113.538L61.0017 110.489C60.554 110.041 59.9469 109.79 59.3139 109.79H53.6026H53.6042ZM61.567 127.304H53.6042C53.1819 127.304 52.7769 127.137 52.4783 126.838C52.1797 126.54 52.0119 126.135 52.0119 125.712V112.974C52.0119 112.552 52.1797 112.147 52.4783 111.848C52.7769 111.55 53.1819 111.382 53.6042 111.382H58.3809V113.77C58.3809 114.404 58.6325 115.011 59.0804 115.459C59.5283 115.907 60.1358 116.159 60.7692 116.159H63.1576V117.848H63.1592V125.712C63.1592 126.135 62.9914 126.54 62.6928 126.838C62.3942 127.137 61.9892 127.304 61.567 127.304ZM62.8264 114.567H60.7677C60.5565 114.567 60.354 114.483 60.2047 114.333C60.0554 114.184 59.9715 113.982 59.9715 113.77V111.712L62.8264 114.567ZM47.2368 114.567C47.2368 114.144 47.4046 113.739 47.7032 113.441C48.0018 113.142 48.4068 112.974 48.8291 112.974V125.712C48.8291 126.979 49.3323 128.194 50.2281 129.09C51.1239 129.986 52.3389 130.489 53.6058 130.489H61.567C61.567 130.911 61.3992 131.316 61.1006 131.615C60.802 131.913 60.397 132.081 59.9747 132.081H53.2714C51.6709 132.081 50.136 131.445 49.0043 130.314C47.8726 129.182 47.2368 127.647 47.2368 126.047V114.567Z" fill="#A0A0A0"/>
<path d="M48.1316 160.841L45.022 163.95C44.877 164.1 44.7967 164.301 44.7985 164.51C44.8003 164.718 44.8841 164.918 45.0317 165.066C45.1793 165.213 45.379 165.297 45.5877 165.299C45.7964 165.301 45.9975 165.22 46.1477 165.075L49.2573 161.966C51.2894 163.707 53.9168 164.593 56.5883 164.438C59.2597 164.284 61.7675 163.101 63.5855 161.137C65.4034 159.174 66.3902 156.582 66.3387 153.907C66.2872 151.232 65.2014 148.68 63.3093 146.788C61.4171 144.896 58.8656 143.81 56.1902 143.759C53.5148 143.707 50.9234 144.694 48.9599 146.512C46.9963 148.33 45.8132 150.837 45.6587 153.509C45.5043 156.18 46.3906 158.808 48.1316 160.84V160.841ZM55.9909 162.864C53.6683 162.864 51.4409 161.941 49.7985 160.299C48.1562 158.656 47.2336 156.429 47.2336 154.106C47.2336 151.784 48.1562 149.556 49.7985 147.914C51.4409 146.272 53.6683 145.349 55.9909 145.349C58.3135 145.349 60.5409 146.272 62.1833 147.914C63.8256 149.556 64.7482 151.784 64.7482 154.106C64.7482 156.429 63.8256 158.656 62.1833 160.299C60.5409 161.941 58.3135 162.864 55.9909 162.864Z" fill="#A0A0A0"/>
<path d="M52.5825 189.933H50.2398C49.989 190.641 49.496 191.238 48.8479 191.617C48.1997 191.997 47.4382 192.135 46.6979 192.008C45.9575 191.881 45.2861 191.496 44.8022 190.921C44.3183 190.346 44.0531 189.619 44.0535 188.868C44.0538 188.117 44.3198 187.39 44.8042 186.816C45.2887 186.242 45.9606 185.857 46.701 185.731C47.4415 185.604 48.2028 185.743 48.8506 186.124C49.4984 186.504 49.9908 187.101 50.2408 187.81H52.5825L56.2595 181.441H59.6244C59.8745 180.732 60.3669 180.135 61.0146 179.755C61.6624 179.374 62.4238 179.235 63.1642 179.362C63.9047 179.489 64.5765 179.873 65.061 180.447C65.5455 181.021 65.8114 181.748 65.8118 182.499C65.8121 183.25 65.5469 183.978 65.063 184.552C64.5791 185.127 63.9077 185.512 63.1674 185.639C62.427 185.767 61.6655 185.628 61.0174 185.248C60.3692 184.869 59.8762 184.272 59.6255 183.564H57.4844L54.421 188.87L57.4855 194.179H59.6255C59.8759 193.47 60.3686 192.874 61.0165 192.493C61.6645 192.113 62.4259 191.975 63.1663 192.102C63.9067 192.229 64.5784 192.613 65.0625 193.188C65.5467 193.762 65.8123 194.489 65.8123 195.24C65.8123 195.991 65.5467 196.718 65.0625 197.293C64.5784 197.867 63.9067 198.252 63.1663 198.379C62.4259 198.506 61.6645 198.367 61.0165 197.987C60.3686 197.607 59.8759 197.01 59.6255 196.302H56.2595L52.5825 189.933ZM62.6284 194.179C62.3469 194.179 62.0769 194.291 61.8778 194.49C61.6788 194.689 61.5669 194.959 61.5669 195.24C61.5669 195.522 61.6788 195.792 61.8778 195.991C62.0769 196.19 62.3469 196.302 62.6284 196.302C62.91 196.302 63.18 196.19 63.379 195.991C63.5781 195.792 63.6899 195.522 63.6899 195.24C63.6899 194.959 63.5781 194.689 63.379 194.49C63.18 194.291 62.91 194.179 62.6284 194.179ZM47.2368 187.81C46.9553 187.81 46.6853 187.922 46.4862 188.121C46.2871 188.32 46.1753 188.59 46.1753 188.871C46.1753 189.153 46.2871 189.423 46.4862 189.622C46.6853 189.821 46.9553 189.933 47.2368 189.933C47.5183 189.933 47.7883 189.821 47.9874 189.622C48.1865 189.423 48.2983 189.153 48.2983 188.871C48.2983 188.59 48.1865 188.32 47.9874 188.121C47.7883 187.922 47.5183 187.81 47.2368 187.81ZM62.6284 181.441C62.3469 181.441 62.0769 181.553 61.8778 181.752C61.6788 181.951 61.5669 182.221 61.5669 182.502C61.5669 182.784 61.6788 183.054 61.8778 183.253C62.0769 183.452 62.3469 183.564 62.6284 183.564C62.91 183.564 63.18 183.452 63.379 183.253C63.5781 183.054 63.6899 182.784 63.6899 182.502C63.6899 182.221 63.5781 181.951 63.379 181.752C63.18 181.553 62.91 181.441 62.6284 181.441Z" fill="#A0A0A0"/>
<path d="M101.22 105.643H100.32V103.423H101.22V105.643ZM101.22 116.823H100.32V107.003H101.22V116.823ZM105.155 116.823H103.735V106.943H105.015V109.923H105.095C105.375 108.263 106.515 106.743 108.975 106.743C111.175 106.743 112.415 108.103 112.735 110.023H112.835C113.115 108.323 114.295 106.743 116.775 106.743C119.355 106.743 120.695 108.563 120.695 111.063V116.823H119.275V111.263C119.275 109.063 118.335 108.043 116.255 108.043C113.875 108.043 112.915 109.423 112.915 112.043V116.823H111.495V111.263C111.495 109.063 110.575 108.043 108.495 108.043C106.095 108.043 105.155 109.423 105.155 112.043V116.823ZM124.433 120.223H123.013V106.943H124.293V109.723H124.452C124.893 107.943 126.373 106.743 128.713 106.743C131.793 106.743 133.553 108.883 133.553 111.883C133.553 114.883 131.812 117.023 128.673 117.023C126.493 117.023 124.913 115.823 124.452 113.923H124.433V120.223ZM124.433 112.063C124.433 114.403 125.973 115.723 128.293 115.723C130.593 115.723 132.113 114.743 132.113 111.883C132.113 109.023 130.573 108.063 128.333 108.063C125.873 108.063 124.433 109.443 124.433 111.883V112.063ZM140.138 117.023C136.918 117.023 134.778 114.883 134.778 111.883C134.778 108.883 136.918 106.743 140.138 106.743C143.378 106.743 145.518 108.883 145.518 111.883C145.518 114.883 143.378 117.023 140.138 117.023ZM140.138 115.743C142.858 115.743 144.118 114.283 144.118 111.883C144.118 109.503 142.858 108.023 140.138 108.023C137.418 108.023 136.178 109.503 136.178 111.883C136.178 114.283 137.418 115.743 140.138 115.743ZM148.827 116.823H147.407V106.943H148.687V109.643H148.787C149.087 108.063 150.207 106.743 152.267 106.743C154.547 106.743 155.547 108.423 155.547 110.263V111.243H154.127V110.483C154.127 108.803 153.427 107.983 151.707 107.983C149.707 107.983 148.827 109.243 148.827 111.463V116.823ZM163.252 116.823H161.112C159.152 116.823 157.892 116.003 157.892 113.683V108.163H156.132V106.943H157.892V104.583H159.332V106.943H163.252V108.163H159.332V113.763C159.332 115.143 160.012 115.523 161.452 115.523H163.252V116.823ZM169.901 116.823H168.481V106.943H169.761V109.643H169.861C170.161 108.063 171.281 106.743 173.341 106.743C175.621 106.743 176.621 108.423 176.621 110.263V111.243H175.201V110.483C175.201 108.803 174.501 107.983 172.781 107.983C170.781 107.983 169.901 109.243 169.901 111.463V116.823ZM181.006 117.023C179.066 117.023 177.746 116.103 177.746 114.503C177.746 112.883 179.086 112.183 180.926 111.983L185.626 111.463V110.703C185.626 108.783 184.786 108.023 182.626 108.023C180.506 108.023 179.386 108.783 179.386 110.523V110.603H177.966V110.523C177.966 108.443 179.686 106.743 182.726 106.743C185.726 106.743 187.006 108.463 187.006 110.643V116.823H185.726V114.163H185.626C185.046 115.983 183.306 117.023 181.006 117.023ZM179.166 114.403C179.166 115.403 179.826 115.923 181.326 115.923C183.726 115.923 185.626 114.863 185.626 112.483V112.403L181.366 112.883C179.886 113.023 179.166 113.383 179.166 114.403ZM190.761 116.823H189.341V106.943H190.621V110.043H190.721C191.061 108.363 192.461 106.743 194.921 106.743C197.701 106.743 199.081 108.723 199.081 111.063V116.823H197.661V111.263C197.661 109.223 196.681 108.043 194.421 108.043C192.021 108.043 190.761 109.503 190.761 112.043V116.823ZM205.651 117.023C202.491 117.023 200.731 114.883 200.731 111.883C200.731 108.883 202.491 106.743 205.531 106.743C207.871 106.743 209.331 108.003 209.771 109.703H209.871V103.423H211.291V116.823H209.991V113.903H209.911C209.431 115.883 207.831 117.023 205.651 117.023ZM202.171 111.883C202.171 114.743 203.691 115.723 206.011 115.723C208.331 115.723 209.871 114.383 209.871 112.043V111.863C209.871 109.423 208.411 108.063 205.971 108.063C203.711 108.063 202.171 109.023 202.171 111.883ZM218.517 117.023C215.297 117.023 213.157 114.883 213.157 111.883C213.157 108.883 215.297 106.743 218.517 106.743C221.757 106.743 223.897 108.883 223.897 111.883C223.897 114.883 221.757 117.023 218.517 117.023ZM218.517 115.743C221.237 115.743 222.497 114.283 222.497 111.883C222.497 109.503 221.237 108.023 218.517 108.023C215.797 108.023 214.557 109.503 214.557 111.883C214.557 114.283 215.797 115.743 218.517 115.743ZM227.206 116.823H225.786V106.943H227.066V109.923H227.146C227.426 108.263 228.566 106.743 231.026 106.743C233.226 106.743 234.466 108.103 234.786 110.023H234.886C235.166 108.323 236.346 106.743 238.826 106.743C241.406 106.743 242.746 108.563 242.746 111.063V116.823H241.326V111.263C241.326 109.063 240.386 108.043 238.306 108.043C235.926 108.043 234.966 109.423 234.966 112.043V116.823H233.546V111.263C233.546 109.063 232.626 108.043 230.546 108.043C228.146 108.043 227.206 109.423 227.206 112.043V116.823Z" fill="#F083C3"/>
<path d="M104.46 175.023C101.3 175.023 99.54 172.883 99.54 169.883C99.54 166.883 101.3 164.743 104.34 164.743C106.68 164.743 108.14 166.003 108.58 167.703H108.68V161.423H110.1V174.823H108.8V171.903H108.72C108.24 173.883 106.64 175.023 104.46 175.023ZM100.98 169.883C100.98 172.743 102.5 173.723 104.82 173.723C107.14 173.723 108.68 172.383 108.68 170.043V169.863C108.68 167.423 107.22 166.063 104.78 166.063C102.52 166.063 100.98 167.023 100.98 169.883ZM117.185 175.023C114.005 175.023 111.985 173.023 111.985 169.883C111.985 166.883 113.985 164.743 117.165 164.743C120.065 164.743 122.125 166.423 122.125 169.363C122.125 169.723 122.085 170.023 122.025 170.283H113.325C113.405 172.503 114.545 173.843 117.165 173.843C119.485 173.843 120.565 172.983 120.565 171.543V171.403H121.985V171.543C121.985 173.603 119.945 175.023 117.185 175.023ZM117.145 165.923C114.585 165.923 113.425 167.243 113.325 169.403H120.785C120.785 169.303 120.785 169.203 120.785 169.103C120.785 167.023 119.465 165.923 117.145 165.923ZM126.129 174.823H124.709V166.163H123.129V164.943H124.729C124.889 162.603 126.469 161.423 129.029 161.423H130.109V162.543H128.829C127.029 162.543 126.049 163.143 126.129 164.943H130.109V166.163H126.129V174.823ZM136.6 174.823H135.18V161.423H136.6V167.963H136.7C137.02 166.303 138.3 164.743 140.82 164.743C143.58 164.743 144.96 166.583 144.96 169.083V174.823H143.54V169.263C143.54 167.003 142.48 166.043 140.26 166.043C137.62 166.043 136.6 167.723 136.6 170.183V174.823ZM150.049 175.023C148.109 175.023 146.789 174.103 146.789 172.503C146.789 170.883 148.129 170.183 149.969 169.983L154.669 169.463V168.703C154.669 166.783 153.829 166.023 151.669 166.023C149.549 166.023 148.429 166.783 148.429 168.523V168.603H147.009V168.523C147.009 166.443 148.729 164.743 151.769 164.743C154.769 164.743 156.049 166.463 156.049 168.643V174.823H154.769V172.163H154.669C154.089 173.983 152.349 175.023 150.049 175.023ZM148.209 172.403C148.209 173.403 148.869 173.923 150.369 173.923C152.769 173.923 154.669 172.863 154.669 170.483V170.403L150.409 170.883C148.929 171.023 148.209 171.383 148.209 172.403ZM163.104 175.023C159.944 175.023 157.884 172.883 157.884 169.883C157.884 166.883 159.944 164.743 163.104 164.743C165.864 164.743 168.024 166.383 168.024 168.763V168.923H166.624V168.803C166.624 167.043 165.344 166.043 163.084 166.043C160.444 166.043 159.304 167.463 159.304 169.883C159.304 172.303 160.444 173.723 163.084 173.723C165.344 173.723 166.624 172.723 166.624 170.963V170.843H168.024V171.003C168.024 173.383 165.864 175.023 163.104 175.023ZM171.347 174.823H169.927V161.423H171.347V169.083H174.667L177.967 164.943H179.647L175.827 169.663L179.627 174.823H177.967L174.647 170.383H171.347V174.823ZM182.44 174.823H181.02V164.943H182.3V168.043H182.4C182.74 166.363 184.14 164.743 186.6 164.743C189.38 164.743 190.76 166.723 190.76 169.063V174.823H189.34V169.263C189.34 167.223 188.36 166.043 186.1 166.043C183.7 166.043 182.44 167.503 182.44 170.043V174.823ZM194.491 163.683H193.071V161.423H194.491V163.683ZM194.491 174.823H193.071V164.943H194.491V174.823ZM201.12 174.023C198.18 174.023 196.38 172.083 196.38 169.383C196.38 166.683 198.24 164.743 201.28 164.743C203.36 164.743 205 165.723 205.4 167.483H205.5V164.943H206.78V173.883C206.78 177.143 204.72 178.423 201.74 178.423C199.06 178.423 197.02 177.083 197.02 174.783H198.44C198.44 176.523 199.6 177.203 201.8 177.203C204.36 177.203 205.36 176.423 205.36 173.963V171.383H205.26C204.86 172.903 203.4 174.023 201.12 174.023ZM197.8 169.383C197.8 171.903 199.36 172.763 201.5 172.763C203.94 172.763 205.36 171.543 205.36 169.443V169.103C205.36 167.163 203.88 166.003 201.6 166.003C199.38 166.003 197.8 166.863 197.8 169.383ZM210.604 174.823H209.184V161.423H210.604V167.963H210.704C211.024 166.303 212.304 164.743 214.824 164.743C217.584 164.743 218.964 166.583 218.964 169.083V174.823H217.544V169.263C217.544 167.003 216.484 166.043 214.264 166.043C211.624 166.043 210.604 167.723 210.604 170.183V174.823ZM227.373 174.823H225.233C223.273 174.823 222.013 174.003 222.013 171.683V166.163H220.253V164.943H222.013V162.583H223.453V164.943H227.373V166.163H223.453V171.763C223.453 173.143 224.133 173.523 225.573 173.523H227.373V174.823ZM235.13 175.883H227.93V174.823H235.13V175.883ZM237.948 174.823H236.528V161.423H237.948V167.963H238.048C238.368 166.303 239.648 164.743 242.168 164.743C244.928 164.743 246.308 166.583 246.308 169.083V174.823H244.888V169.263C244.888 167.003 243.828 166.043 241.608 166.043C238.968 166.043 237.948 167.723 237.948 170.183V174.823ZM249.957 178.223H248.717V176.923H250.217C251.217 176.923 251.597 176.623 251.977 175.803L252.457 174.803L247.557 164.943H249.117L252.017 170.823L253.117 173.243H253.237L254.297 170.803L257.037 164.943H258.597L253.237 176.203C252.517 177.723 251.597 178.223 249.957 178.223ZM261.386 178.223H259.966V164.943H261.246V167.723H261.406C261.846 165.943 263.326 164.743 265.666 164.743C268.746 164.743 270.506 166.883 270.506 169.883C270.506 172.883 268.766 175.023 265.626 175.023C263.446 175.023 261.866 173.823 261.406 171.923H261.386V178.223ZM261.386 170.063C261.386 172.403 262.926 173.723 265.246 173.723C267.546 173.723 269.066 172.743 269.066 169.883C269.066 167.023 267.526 166.063 265.286 166.063C262.826 166.063 261.386 167.443 261.386 169.883V170.063ZM276.951 175.023C273.771 175.023 271.751 173.023 271.751 169.883C271.751 166.883 273.751 164.743 276.931 164.743C279.831 164.743 281.891 166.423 281.891 169.363C281.891 169.723 281.851 170.023 281.791 170.283H273.091C273.171 172.503 274.311 173.843 276.931 173.843C279.251 173.843 280.331 172.983 280.331 171.543V171.403H281.751V171.543C281.751 173.603 279.711 175.023 276.951 175.023ZM276.911 165.923C274.351 165.923 273.191 167.243 273.091 169.403H280.551C280.551 169.303 280.551 169.203 280.551 169.103C280.551 167.023 279.231 165.923 276.911 165.923ZM287.954 175.583L287.214 176.263C285.514 174.583 283.414 171.963 283.414 168.123C283.414 164.283 285.514 161.663 287.214 159.983L287.954 160.663C286.434 162.583 284.934 164.483 284.934 168.123C284.934 171.763 286.434 173.663 287.954 175.583ZM288.52 160.663L289.24 159.983C290.94 161.663 293.04 164.283 293.04 168.123C293.04 171.963 290.94 174.583 289.24 176.263L288.52 175.583C290.04 173.663 291.52 171.763 291.52 168.123C291.52 164.483 290.04 162.583 288.52 160.663ZM296.321 167.723H294.561V164.943H296.321V167.723ZM296.321 174.823H294.561V172.043H296.321V174.823ZM101.62 208.223H100.2V194.943H101.48V197.723H101.64C102.08 195.943 103.56 194.743 105.9 194.743C108.98 194.743 110.74 196.883 110.74 199.883C110.74 202.883 109 205.023 105.86 205.023C103.68 205.023 102.1 203.823 101.64 201.923H101.62V208.223ZM101.62 200.063C101.62 202.403 103.16 203.723 105.48 203.723C107.78 203.723 109.3 202.743 109.3 199.883C109.3 197.023 107.76 196.063 105.52 196.063C103.06 196.063 101.62 197.443 101.62 199.883V200.063ZM113.905 204.823H112.485V191.423H113.905V197.963H114.005C114.325 196.303 115.605 194.743 118.125 194.743C120.885 194.743 122.265 196.583 122.265 199.083V204.823H120.845V199.263C120.845 197.003 119.785 196.043 117.565 196.043C114.925 196.043 113.905 197.723 113.905 200.183V204.823ZM126.034 204.823H124.614V194.943H125.894V197.643H125.994C126.294 196.063 127.414 194.743 129.474 194.743C131.754 194.743 132.754 196.423 132.754 198.263V199.243H131.334V198.483C131.334 196.803 130.634 195.983 128.914 195.983C126.914 195.983 126.034 197.243 126.034 199.463V204.823ZM137.139 205.023C135.199 205.023 133.879 204.103 133.879 202.503C133.879 200.883 135.219 200.183 137.059 199.983L141.759 199.463V198.703C141.759 196.783 140.919 196.023 138.759 196.023C136.639 196.023 135.519 196.783 135.519 198.523V198.603H134.099V198.523C134.099 196.443 135.819 194.743 138.859 194.743C141.859 194.743 143.139 196.463 143.139 198.643V204.823H141.859V202.163H141.759C141.179 203.983 139.439 205.023 137.139 205.023ZM135.299 202.403C135.299 203.403 135.959 203.923 137.459 203.923C139.859 203.923 141.759 202.863 141.759 200.483V200.403L137.499 200.883C136.019 201.023 135.299 201.383 135.299 202.403ZM149.813 205.023C146.773 205.023 145.013 203.803 145.013 201.523V201.483H146.433V201.603C146.433 203.263 147.413 203.843 149.833 203.843C152.053 203.843 152.813 203.323 152.813 202.183C152.813 201.143 152.193 200.803 150.553 200.543L147.913 200.163C146.113 199.923 144.973 199.223 144.973 197.583C144.973 195.843 146.633 194.743 149.353 194.743C152.193 194.743 154.033 195.943 154.033 198.263V198.303H152.613V198.203C152.613 196.723 151.833 195.923 149.313 195.923C147.233 195.923 146.373 196.423 146.373 197.603C146.373 198.623 146.893 198.983 148.533 199.223L150.953 199.563C153.073 199.863 154.213 200.583 154.213 202.183C154.213 204.043 152.373 205.023 149.813 205.023ZM160.779 205.023C157.599 205.023 155.579 203.023 155.579 199.883C155.579 196.883 157.579 194.743 160.759 194.743C163.659 194.743 165.719 196.423 165.719 199.363C165.719 199.723 165.679 200.023 165.619 200.283H156.919C156.999 202.503 158.139 203.843 160.759 203.843C163.079 203.843 164.159 202.983 164.159 201.543V201.403H165.579V201.543C165.579 203.603 163.539 205.023 160.779 205.023ZM160.739 195.923C158.179 195.923 157.019 197.243 156.919 199.403H164.379C164.379 199.303 164.379 199.203 164.379 199.103C164.379 197.023 163.059 195.923 160.739 195.923ZM171.942 205.023C168.902 205.023 167.142 203.803 167.142 201.523V201.483H168.562V201.603C168.562 203.263 169.542 203.843 171.962 203.843C174.182 203.843 174.942 203.323 174.942 202.183C174.942 201.143 174.322 200.803 172.682 200.543L170.042 200.163C168.242 199.923 167.102 199.223 167.102 197.583C167.102 195.843 168.762 194.743 171.482 194.743C174.322 194.743 176.162 195.943 176.162 198.263V198.303H174.742V198.203C174.742 196.723 173.962 195.923 171.442 195.923C169.362 195.923 168.502 196.423 168.502 197.603C168.502 198.623 169.022 198.983 170.662 199.223L173.082 199.563C175.202 199.863 176.342 200.583 176.342 202.183C176.342 204.043 174.502 205.023 171.942 205.023ZM189.22 196.643H181.42V195.443H189.22V196.643ZM189.22 200.823H181.42V199.603H189.22V200.823ZM198.229 206.023H194.829V190.223H198.229V191.443H196.169V204.803H198.229V206.023ZM202.634 195.923H201.854L201.514 193.603V191.423H202.974V193.603L202.634 195.923ZM200.094 195.923H199.334L198.974 193.603V191.423H200.434V193.603L200.094 195.923ZM206.151 204.823H204.731V191.423H206.151V197.423H214.771V191.423H216.191V204.823H214.771V198.723H206.151V204.823ZM221.338 205.023C219.398 205.023 218.078 204.103 218.078 202.503C218.078 200.883 219.418 200.183 221.258 199.983L225.958 199.463V198.703C225.958 196.783 225.118 196.023 222.958 196.023C220.838 196.023 219.718 196.783 219.718 198.523V198.603H218.298V198.523C218.298 196.443 220.018 194.743 223.058 194.743C226.058 194.743 227.338 196.463 227.338 198.643V204.823H226.058V202.163H225.958C225.378 203.983 223.638 205.023 221.338 205.023ZM219.498 202.403C219.498 203.403 220.158 203.923 221.658 203.923C224.058 203.923 225.958 202.863 225.958 200.483V200.403L221.698 200.883C220.218 201.023 219.498 201.383 219.498 202.403ZM234.393 205.023C231.233 205.023 229.173 202.883 229.173 199.883C229.173 196.883 231.233 194.743 234.393 194.743C237.153 194.743 239.313 196.383 239.313 198.763V198.923H237.913V198.803C237.913 197.043 236.633 196.043 234.373 196.043C231.733 196.043 230.593 197.463 230.593 199.883C230.593 202.303 231.733 203.723 234.373 203.723C236.633 203.723 237.913 202.723 237.913 200.963V200.843H239.313V201.003C239.313 203.383 237.153 205.023 234.393 205.023ZM242.636 204.823H241.216V191.423H242.636V199.083H245.956L249.256 194.943H250.936L247.116 199.663L250.916 204.823H249.256L245.936 200.383H242.636V204.823ZM253.729 193.683H252.309V191.423H253.729V193.683ZM253.729 204.823H252.309V194.943H253.729V204.823ZM257.538 204.823H256.118V194.943H257.398V198.043H257.498C257.838 196.363 259.238 194.743 261.698 194.743C264.478 194.743 265.858 196.723 265.858 199.063V204.823H264.438V199.263C264.438 197.223 263.458 196.043 261.198 196.043C258.798 196.043 257.538 197.503 257.538 200.043V204.823ZM272.409 204.023C269.469 204.023 267.669 202.083 267.669 199.383C267.669 196.683 269.529 194.743 272.569 194.743C274.649 194.743 276.289 195.723 276.689 197.483H276.789V194.943H278.069V203.883C278.069 207.143 276.009 208.423 273.029 208.423C270.349 208.423 268.309 207.083 268.309 204.783H269.729C269.729 206.523 270.889 207.203 273.089 207.203C275.649 207.203 276.649 206.423 276.649 203.963V201.383H276.549C276.149 202.903 274.689 204.023 272.409 204.023ZM269.089 199.383C269.089 201.903 270.649 202.763 272.789 202.763C275.229 202.763 276.649 201.543 276.649 199.443V199.103C276.649 197.163 275.169 196.003 272.889 196.003C270.669 196.003 269.089 196.863 269.089 199.383ZM288.485 205.023C285.445 205.023 283.685 203.803 283.685 201.523V201.483H285.105V201.603C285.105 203.263 286.085 203.843 288.505 203.843C290.725 203.843 291.485 203.323 291.485 202.183C291.485 201.143 290.865 200.803 289.225 200.543L286.585 200.163C284.785 199.923 283.645 199.223 283.645 197.583C283.645 195.843 285.305 194.743 288.025 194.743C290.865 194.743 292.705 195.943 292.705 198.263V198.303H291.285V198.203C291.285 196.723 290.505 195.923 287.985 195.923C285.905 195.923 285.045 196.423 285.045 197.603C285.045 198.623 285.565 198.983 287.205 199.223L289.625 199.563C291.745 199.863 292.885 200.583 292.885 202.183C292.885 204.043 291.045 205.023 288.485 205.023ZM300.811 204.823H298.671C296.711 204.823 295.451 204.003 295.451 201.683V196.163H293.691V194.943H295.451V192.583H296.891V194.943H300.811V196.163H296.891V201.763C296.891 203.143 297.571 203.523 299.011 203.523H300.811V204.823ZM305.108 205.023C303.168 205.023 301.848 204.103 301.848 202.503C301.848 200.883 303.188 200.183 305.028 199.983L309.728 199.463V198.703C309.728 196.783 308.888 196.023 306.728 196.023C304.608 196.023 303.488 196.783 303.488 198.523V198.603H302.068V198.523C302.068 196.443 303.788 194.743 306.828 194.743C309.828 194.743 311.108 196.463 311.108 198.643V204.823H309.828V202.163H309.728C309.148 203.983 307.408 205.023 305.108 205.023ZM303.268 202.403C303.268 203.403 303.928 203.923 305.428 203.923C307.828 203.923 309.728 202.863 309.728 200.483V200.403L305.468 200.883C303.988 201.023 303.268 201.383 303.268 202.403ZM314.862 204.823H313.442V194.943H314.722V197.643H314.822C315.122 196.063 316.242 194.743 318.302 194.743C320.582 194.743 321.582 196.423 321.582 198.263V199.243H320.162V198.483C320.162 196.803 319.462 195.983 317.742 195.983C315.742 195.983 314.862 197.243 314.862 199.463V204.823ZM329.287 204.823H327.147C325.187 204.823 323.927 204.003 323.927 201.683V196.163H322.167V194.943H323.927V192.583H325.367V194.943H329.287V196.163H325.367V201.763C325.367 203.143 326.047 203.523 327.487 203.523H329.287V204.823ZM335.185 205.023C332.145 205.023 330.385 203.803 330.385 201.523V201.483H331.805V201.603C331.805 203.263 332.785 203.843 335.205 203.843C337.425 203.843 338.185 203.323 338.185 202.183C338.185 201.143 337.565 200.803 335.925 200.543L333.285 200.163C331.485 199.923 330.345 199.223 330.345 197.583C330.345 195.843 332.005 194.743 334.725 194.743C337.565 194.743 339.405 195.943 339.405 198.263V198.303H337.985V198.203C337.985 196.723 337.205 195.923 334.685 195.923C332.605 195.923 331.745 196.423 331.745 197.603C331.745 198.623 332.265 198.983 333.905 199.223L336.325 199.563C338.445 199.863 339.585 200.583 339.585 202.183C339.585 204.043 337.745 205.023 335.185 205.023ZM346.542 204.823H345.122V191.423H346.682L353.702 200.523L355.322 202.763H355.442L355.402 200.563V191.423H356.822V204.823H355.262L348.282 195.823L346.602 193.563H346.502L346.542 195.803V204.823ZM365.464 205.023C361.484 205.023 358.704 202.303 358.704 198.123C358.704 193.943 361.484 191.223 365.464 191.223C369.484 191.223 372.264 193.943 372.264 198.123C372.264 202.303 369.484 205.023 365.464 205.023ZM365.464 203.643C368.864 203.643 370.764 201.763 370.764 198.123C370.764 194.483 368.864 192.603 365.464 192.603C362.084 192.603 360.204 194.483 360.204 198.123C360.204 201.763 362.084 203.643 365.464 203.643ZM379.285 204.823H377.165L373.285 191.423H374.865L377.525 200.663L378.225 203.403H378.345L379.145 200.663L382.265 191.423H384.265L387.705 200.663L388.605 203.403H388.705L389.325 200.663L391.665 191.423H393.225L389.765 204.823H387.645L384.385 196.103L383.325 192.983H383.185L382.245 196.103L379.285 204.823ZM395.99 200.423H394.67C394.67 198.223 394.45 194.363 394.45 192.823V191.423H396.21V192.823C396.21 194.363 395.99 198.243 395.99 200.423ZM396.13 204.823H394.53V202.123H396.13V204.823ZM401.286 195.923H400.506L400.166 193.603V191.423H401.626V193.603L401.286 195.923ZM398.746 195.923H397.986L397.626 193.603V191.423H399.086V193.603L398.746 195.923ZM403.184 206.583H402.764V205.723H403.164C403.424 205.723 403.564 205.663 403.564 205.303V204.823H402.784V202.043H404.544V205.283C404.544 206.163 404.024 206.583 403.184 206.583ZM413.024 195.923H412.244L411.904 193.603V191.423H413.364V193.603L413.024 195.923ZM410.484 195.923H409.724L409.364 193.603V191.423H410.824V193.603L410.484 195.923ZM421.062 205.023C417.342 205.023 415.022 202.963 415.022 199.283V191.423H416.442V199.223C416.442 202.283 417.942 203.623 421.062 203.623C424.182 203.623 425.682 202.283 425.682 199.223V191.423H427.102V199.283C427.102 202.963 424.782 205.023 421.062 205.023ZM430.819 204.823H429.399V194.943H430.679V198.043H430.779C431.119 196.363 432.519 194.743 434.979 194.743C437.759 194.743 439.139 196.723 439.139 199.063V204.823H437.719V199.263C437.719 197.223 436.739 196.043 434.479 196.043C432.079 196.043 430.819 197.503 430.819 200.043V204.823ZM442.87 204.823H441.45V191.423H442.87V204.823ZM449.959 205.023C446.779 205.023 444.759 203.023 444.759 199.883C444.759 196.883 446.759 194.743 449.939 194.743C452.839 194.743 454.899 196.423 454.899 199.363C454.899 199.723 454.859 200.023 454.799 200.283H446.099C446.179 202.503 447.319 203.843 449.939 203.843C452.259 203.843 453.339 202.983 453.339 201.543V201.403H454.759V201.543C454.759 203.603 452.719 205.023 449.959 205.023ZM449.919 195.923C447.359 195.923 446.199 197.243 446.099 199.403H453.559C453.559 199.303 453.559 199.203 453.559 199.103C453.559 197.023 452.239 195.923 449.919 195.923ZM459.522 205.023C457.582 205.023 456.262 204.103 456.262 202.503C456.262 200.883 457.602 200.183 459.442 199.983L464.142 199.463V198.703C464.142 196.783 463.302 196.023 461.142 196.023C459.022 196.023 457.902 196.783 457.902 198.523V198.603H456.482V198.523C456.482 196.443 458.202 194.743 461.242 194.743C464.242 194.743 465.522 196.463 465.522 198.643V204.823H464.242V202.163H464.142C463.562 203.983 461.822 205.023 459.522 205.023ZM457.682 202.403C457.682 203.403 458.342 203.923 459.842 203.923C462.242 203.923 464.142 202.863 464.142 200.483V200.403L459.882 200.883C458.402 201.023 457.682 201.383 457.682 202.403ZM472.196 205.023C469.156 205.023 467.396 203.803 467.396 201.523V201.483H468.816V201.603C468.816 203.263 469.796 203.843 472.216 203.843C474.436 203.843 475.196 203.323 475.196 202.183C475.196 201.143 474.576 200.803 472.936 200.543L470.296 200.163C468.496 199.923 467.356 199.223 467.356 197.583C467.356 195.843 469.016 194.743 471.736 194.743C474.576 194.743 476.416 195.943 476.416 198.263V198.303H474.996V198.203C474.996 196.723 474.216 195.923 471.696 195.923C469.616 195.923 468.756 196.423 468.756 197.603C468.756 198.623 469.276 198.983 470.916 199.223L473.336 199.563C475.456 199.863 476.596 200.583 476.596 202.183C476.596 204.043 474.756 205.023 472.196 205.023ZM479.882 204.823H478.462V191.423H479.882V197.963H479.982C480.302 196.303 481.582 194.743 484.102 194.743C486.862 194.743 488.242 196.583 488.242 199.083V204.823H486.822V199.263C486.822 197.003 485.762 196.043 483.542 196.043C480.902 196.043 479.882 197.723 479.882 200.183V204.823ZM101.5 233.223H100.26V231.923H101.76C102.76 231.923 103.14 231.623 103.52 230.803L104 229.803L99.1 219.943H100.66L103.56 225.823L104.66 228.243H104.78L105.84 225.803L108.58 219.943H110.14L104.78 231.203C104.06 232.723 103.14 233.223 101.5 233.223ZM116.349 230.023C113.129 230.023 110.989 227.883 110.989 224.883C110.989 221.883 113.129 219.743 116.349 219.743C119.589 219.743 121.729 221.883 121.729 224.883C121.729 227.883 119.589 230.023 116.349 230.023ZM116.349 228.743C119.069 228.743 120.329 227.283 120.329 224.883C120.329 222.503 119.069 221.023 116.349 221.023C113.629 221.023 112.389 222.503 112.389 224.883C112.389 227.283 113.629 228.743 116.349 228.743ZM127.758 230.023C124.938 230.023 123.558 228.063 123.558 225.723V219.943H124.978V225.503C124.978 227.563 125.978 228.743 128.258 228.743C130.678 228.743 131.938 227.283 131.938 224.743V219.943H133.358V229.823H132.078V226.743H131.978C131.638 228.423 130.218 230.023 127.758 230.023ZM137.167 229.823H135.747V219.943H137.027V222.643H137.127C137.427 221.063 138.547 219.743 140.607 219.743C142.887 219.743 143.887 221.423 143.887 223.263V224.243H142.467V223.483C142.467 221.803 141.767 220.983 140.047 220.983C138.047 220.983 137.167 222.243 137.167 224.463V229.823ZM150.624 218.683H149.204V216.423H150.624V218.683ZM150.624 229.823H149.204V219.943H150.624V229.823ZM154.433 229.823H153.013V219.943H154.293V223.043H154.393C154.733 221.363 156.133 219.743 158.593 219.743C161.373 219.743 162.753 221.723 162.753 224.063V229.823H161.333V224.263C161.333 222.223 160.353 221.043 158.093 221.043C155.693 221.043 154.433 222.503 154.433 225.043V229.823ZM166.483 229.823H165.063V219.943H166.343V223.043H166.443C166.783 221.363 168.183 219.743 170.643 219.743C173.423 219.743 174.803 221.723 174.803 224.063V229.823H173.383V224.263C173.383 222.223 172.403 221.043 170.143 221.043C167.743 221.043 166.483 222.503 166.483 225.043V229.823ZM181.814 230.023C178.634 230.023 176.614 228.023 176.614 224.883C176.614 221.883 178.614 219.743 181.794 219.743C184.694 219.743 186.754 221.423 186.754 224.363C186.754 224.723 186.714 225.023 186.654 225.283H177.954C178.034 227.503 179.174 228.843 181.794 228.843C184.114 228.843 185.194 227.983 185.194 226.543V226.403H186.614V226.543C186.614 228.603 184.574 230.023 181.814 230.023ZM181.774 220.923C179.214 220.923 178.054 222.243 177.954 224.403H185.414C185.414 224.303 185.414 224.203 185.414 224.103C185.414 222.023 184.094 220.923 181.774 220.923ZM190.058 229.823H188.638V219.943H189.918V222.643H190.018C190.318 221.063 191.438 219.743 193.498 219.743C195.778 219.743 196.778 221.423 196.778 223.263V224.243H195.358V223.483C195.358 221.803 194.658 220.983 192.938 220.983C190.938 220.983 190.058 222.243 190.058 224.463V229.823ZM206.815 230.023C203.655 230.023 201.595 227.883 201.595 224.883C201.595 221.883 203.655 219.743 206.815 219.743C209.575 219.743 211.735 221.383 211.735 223.763V223.923H210.335V223.803C210.335 222.043 209.055 221.043 206.795 221.043C204.155 221.043 203.015 222.463 203.015 224.883C203.015 227.303 204.155 228.723 206.795 228.723C209.055 228.723 210.335 227.723 210.335 225.963V225.843H211.735V226.003C211.735 228.383 209.575 230.023 206.815 230.023ZM218.478 230.023C215.258 230.023 213.118 227.883 213.118 224.883C213.118 221.883 215.258 219.743 218.478 219.743C221.718 219.743 223.858 221.883 223.858 224.883C223.858 227.883 221.718 230.023 218.478 230.023ZM218.478 228.743C221.198 228.743 222.458 227.283 222.458 224.883C222.458 222.503 221.198 221.023 218.478 221.023C215.758 221.023 214.518 222.503 214.518 224.883C214.518 227.283 215.758 228.743 218.478 228.743ZM230.007 230.023C226.847 230.023 225.087 227.883 225.087 224.883C225.087 221.883 226.847 219.743 229.887 219.743C232.227 219.743 233.687 221.003 234.127 222.703H234.227V216.423H235.647V229.823H234.347V226.903H234.267C233.787 228.883 232.187 230.023 230.007 230.023ZM226.527 224.883C226.527 227.743 228.047 228.723 230.367 228.723C232.687 228.723 234.227 227.383 234.227 225.043V224.863C234.227 222.423 232.767 221.063 230.327 221.063C228.067 221.063 226.527 222.023 226.527 224.883ZM242.732 230.023C239.552 230.023 237.532 228.023 237.532 224.883C237.532 221.883 239.532 219.743 242.712 219.743C245.612 219.743 247.672 221.423 247.672 224.363C247.672 224.723 247.632 225.023 247.572 225.283H238.872C238.952 227.503 240.092 228.843 242.712 228.843C245.032 228.843 246.112 227.983 246.112 226.543V226.403H247.532V226.543C247.532 228.603 245.492 230.023 242.732 230.023ZM242.692 220.923C240.132 220.923 238.972 222.243 238.872 224.403H246.332C246.332 224.303 246.332 224.203 246.332 224.103C246.332 222.023 245.012 220.923 242.692 220.923ZM250.975 229.823H249.555V219.943H250.835V222.643H250.935C251.235 221.063 252.355 219.743 254.415 219.743C256.695 219.743 257.695 221.423 257.695 223.263V224.243H256.275V223.483C256.275 221.803 255.575 220.983 253.855 220.983C251.855 220.983 250.975 222.243 250.975 224.463V229.823ZM260.561 225.423H259.241C259.241 223.223 259.021 219.363 259.021 217.823V216.423H260.781V217.823C260.781 219.363 260.561 223.243 260.561 225.423ZM260.701 229.823H259.101V227.123H260.701V229.823ZM265.856 220.923H265.076L264.736 218.603V216.423H266.196V218.603L265.856 220.923ZM263.316 220.923H262.556L262.196 218.603V216.423H263.656V218.603L263.316 220.923ZM267.754 231.583H267.334V230.723H267.734C267.994 230.723 268.134 230.663 268.134 230.303V229.823H267.354V227.043H269.114V230.283C269.114 231.163 268.594 231.583 267.754 231.583ZM277.595 220.923H276.815L276.475 218.603V216.423H277.935V218.603L277.595 220.923ZM275.055 220.923H274.295L273.935 218.603V216.423H275.395V218.603L275.055 220.923ZM285.872 230.023C281.952 230.023 279.192 227.303 279.192 223.123C279.192 218.943 281.952 216.223 285.872 216.223C289.332 216.223 291.952 218.163 291.952 221.203V221.443H290.412V221.203C290.412 218.923 288.832 217.603 285.892 217.603C282.552 217.603 280.692 219.483 280.692 223.123C280.692 226.763 282.552 228.643 285.892 228.643C288.832 228.643 290.412 227.323 290.412 225.043V224.803H291.952V225.043C291.952 228.083 289.352 230.023 285.872 230.023ZM298.692 230.023C295.472 230.023 293.332 227.883 293.332 224.883C293.332 221.883 295.472 219.743 298.692 219.743C301.932 219.743 304.072 221.883 304.072 224.883C304.072 227.883 301.932 230.023 298.692 230.023ZM298.692 228.743C301.412 228.743 302.672 227.283 302.672 224.883C302.672 222.503 301.412 221.023 298.692 221.023C295.972 221.023 294.732 222.503 294.732 224.883C294.732 227.283 295.972 228.743 298.692 228.743ZM310.222 230.023C307.062 230.023 305.302 227.883 305.302 224.883C305.302 221.883 307.062 219.743 310.102 219.743C312.442 219.743 313.902 221.003 314.342 222.703H314.442V216.423H315.862V229.823H314.562V226.903H314.482C314.002 228.883 312.402 230.023 310.222 230.023ZM306.742 224.883C306.742 227.743 308.262 228.723 310.582 228.723C312.902 228.723 314.442 227.383 314.442 225.043V224.863C314.442 222.423 312.982 221.063 310.542 221.063C308.282 221.063 306.742 222.023 306.742 224.883ZM322.947 230.023C319.767 230.023 317.747 228.023 317.747 224.883C317.747 221.883 319.747 219.743 322.927 219.743C325.827 219.743 327.887 221.423 327.887 224.363C327.887 224.723 327.847 225.023 327.787 225.283H319.087C319.167 227.503 320.307 228.843 322.927 228.843C325.247 228.843 326.327 227.983 326.327 226.543V226.403H327.747V226.543C327.747 228.603 325.707 230.023 322.947 230.023ZM322.907 220.923C320.347 220.923 319.187 222.243 319.087 224.403H326.547C326.547 224.303 326.547 224.203 326.547 224.103C326.547 222.023 325.227 220.923 322.907 220.923ZM334.862 229.823H333.442V216.423H334.862V229.823ZM338.671 218.683H337.251V216.423H338.671V218.683ZM338.671 229.823H337.251V219.943H338.671V229.823ZM342.479 229.823H341.059V216.423H342.479V224.083H345.799L349.099 219.943H350.779L346.959 224.663L350.759 229.823H349.099L345.779 225.383H342.479V229.823ZM356.853 230.023C353.673 230.023 351.653 228.023 351.653 224.883C351.653 221.883 353.653 219.743 356.833 219.743C359.733 219.743 361.793 221.423 361.793 224.363C361.793 224.723 361.753 225.023 361.693 225.283H352.993C353.073 227.503 354.213 228.843 356.833 228.843C359.153 228.843 360.233 227.983 360.233 226.543V226.403H361.653V226.543C361.653 228.603 359.613 230.023 356.853 230.023ZM356.813 220.923C354.253 220.923 353.093 222.243 352.993 224.403H360.453C360.453 224.303 360.453 224.203 360.453 224.103C360.453 222.023 359.133 220.923 356.813 220.923ZM370.088 230.023C368.148 230.023 366.828 229.103 366.828 227.503C366.828 225.883 368.168 225.183 370.008 224.983L374.708 224.463V223.703C374.708 221.783 373.868 221.023 371.708 221.023C369.588 221.023 368.468 221.783 368.468 223.523V223.603H367.048V223.523C367.048 221.443 368.768 219.743 371.808 219.743C374.808 219.743 376.088 221.463 376.088 223.643V229.823H374.808V227.163H374.708C374.128 228.983 372.388 230.023 370.088 230.023ZM368.248 227.403C368.248 228.403 368.908 228.923 370.408 228.923C372.808 228.923 374.708 227.863 374.708 225.483V225.403L370.448 225.883C368.968 226.023 368.248 226.383 368.248 227.403ZM383.375 229.823H382.095V216.423H383.515V222.703H383.615C384.035 221.003 385.455 219.743 387.835 219.743C390.935 219.743 392.635 221.883 392.635 224.883C392.635 227.883 390.935 230.023 387.715 230.023C385.515 230.023 383.935 228.883 383.475 226.903H383.375V229.823ZM383.515 225.043C383.515 227.383 384.995 228.723 387.375 228.723C389.735 228.723 391.195 227.743 391.195 224.883C391.195 222.023 389.695 221.063 387.415 221.063C384.915 221.063 383.515 222.423 383.515 224.863V225.043ZM399.22 230.023C396 230.023 393.86 227.883 393.86 224.883C393.86 221.883 396 219.743 399.22 219.743C402.46 219.743 404.6 221.883 404.6 224.883C404.6 227.883 402.46 230.023 399.22 230.023ZM399.22 228.743C401.94 228.743 403.2 227.283 403.2 224.883C403.2 222.503 401.94 221.023 399.22 221.023C396.5 221.023 395.26 222.503 395.26 224.883C395.26 227.283 396.5 228.743 399.22 228.743ZM410.829 230.023C407.789 230.023 406.029 228.803 406.029 226.523V226.483H407.449V226.603C407.449 228.263 408.429 228.843 410.849 228.843C413.069 228.843 413.829 228.323 413.829 227.183C413.829 226.143 413.209 225.803 411.569 225.543L408.929 225.163C407.129 224.923 405.989 224.223 405.989 222.583C405.989 220.843 407.649 219.743 410.369 219.743C413.209 219.743 415.049 220.943 415.049 223.263V223.303H413.629V223.203C413.629 221.723 412.849 220.923 410.329 220.923C408.249 220.923 407.389 221.423 407.389 222.603C407.389 223.623 407.909 223.983 409.549 224.223L411.969 224.563C414.089 224.863 415.229 225.583 415.229 227.183C415.229 229.043 413.389 230.023 410.829 230.023ZM421.435 230.023C418.395 230.023 416.635 228.803 416.635 226.523V226.483H418.055V226.603C418.055 228.263 419.035 228.843 421.455 228.843C423.675 228.843 424.435 228.323 424.435 227.183C424.435 226.143 423.815 225.803 422.175 225.543L419.535 225.163C417.735 224.923 416.595 224.223 416.595 222.583C416.595 220.843 418.255 219.743 420.975 219.743C423.815 219.743 425.655 220.943 425.655 223.263V223.303H424.235V223.203C424.235 221.723 423.455 220.923 420.935 220.923C418.855 220.923 417.995 221.423 417.995 222.603C417.995 223.623 418.515 223.983 420.155 224.223L422.575 224.563C424.695 224.863 425.835 225.583 425.835 227.183C425.835 229.043 423.995 230.023 421.435 230.023ZM427.5 231.583H427.08V230.723H427.48C427.74 230.723 427.88 230.663 427.88 230.303V229.823H427.1V227.043H428.86V230.283C428.86 231.163 428.34 231.583 427.5 231.583ZM435.761 233.223H434.341V219.943H435.621V222.723H435.781C436.221 220.943 437.701 219.743 440.041 219.743C443.121 219.743 444.881 221.883 444.881 224.883C444.881 227.883 443.141 230.023 440.001 230.023C437.821 230.023 436.241 228.823 435.781 226.923H435.761V233.223ZM435.761 225.063C435.761 227.403 437.301 228.723 439.621 228.723C441.921 228.723 443.441 227.743 443.441 224.883C443.441 222.023 441.901 221.063 439.661 221.063C437.201 221.063 435.761 222.443 435.761 224.883V225.063ZM449.366 230.023C447.426 230.023 446.106 229.103 446.106 227.503C446.106 225.883 447.446 225.183 449.286 224.983L453.986 224.463V223.703C453.986 221.783 453.146 221.023 450.986 221.023C448.866 221.023 447.746 221.783 447.746 223.523V223.603H446.326V223.523C446.326 221.443 448.046 219.743 451.086 219.743C454.086 219.743 455.366 221.463 455.366 223.643V229.823H454.086V227.163H453.986C453.406 228.983 451.666 230.023 449.366 230.023ZM447.526 227.403C447.526 228.403 448.186 228.923 449.686 228.923C452.086 228.923 453.986 227.863 453.986 225.483V225.403L449.726 225.883C448.246 226.023 447.526 226.383 447.526 227.403ZM459.12 229.823H457.7V219.943H458.98V222.643H459.08C459.38 221.063 460.5 219.743 462.56 219.743C464.84 219.743 465.84 221.423 465.84 223.263V224.243H464.42V223.483C464.42 221.803 463.72 220.983 462 220.983C460 220.983 459.12 222.243 459.12 224.463V229.823ZM473.545 229.823H471.405C469.445 229.823 468.185 229.003 468.185 226.683V221.163H466.425V219.943H468.185V217.583H469.625V219.943H473.545V221.163H469.625V226.763C469.625 228.143 470.305 228.523 471.745 228.523H473.545V229.823ZM476.402 233.223H475.162V231.923H476.662C477.662 231.923 478.042 231.623 478.422 230.803L478.902 229.803L474.002 219.943H475.562L478.462 225.823L479.562 228.243H479.682L480.742 225.803L483.482 219.943H485.042L479.682 231.203C478.962 232.723 478.042 233.223 476.402 233.223ZM101.62 254.823H100.2V241.423H101.62V254.823ZM105.429 243.683H104.009V241.423H105.429V243.683ZM105.429 254.823H104.009V244.943H105.429V254.823ZM109.237 254.823H107.817V241.423H109.237V249.083H112.557L115.857 244.943H117.537L113.717 249.663L117.517 254.823H115.857L112.537 250.383H109.237V254.823ZM123.611 255.023C120.431 255.023 118.411 253.023 118.411 249.883C118.411 246.883 120.411 244.743 123.591 244.743C126.491 244.743 128.551 246.423 128.551 249.363C128.551 249.723 128.511 250.023 128.451 250.283H119.751C119.831 252.503 120.971 253.843 123.591 253.843C125.911 253.843 126.991 252.983 126.991 251.543V251.403H128.411V251.543C128.411 253.603 126.371 255.023 123.611 255.023ZM123.571 245.923C121.011 245.923 119.851 247.243 119.751 249.403H127.211C127.211 249.303 127.211 249.203 127.211 249.103C127.211 247.023 125.891 245.923 123.571 245.923ZM136.846 255.023C134.906 255.023 133.586 254.103 133.586 252.503C133.586 250.883 134.926 250.183 136.766 249.983L141.466 249.463V248.703C141.466 246.783 140.626 246.023 138.466 246.023C136.346 246.023 135.226 246.783 135.226 248.523V248.603H133.806V248.523C133.806 246.443 135.526 244.743 138.566 244.743C141.566 244.743 142.846 246.463 142.846 248.643V254.823H141.566V252.163H141.466C140.886 253.983 139.146 255.023 136.846 255.023ZM135.006 252.403C135.006 253.403 135.666 253.923 137.166 253.923C139.566 253.923 141.466 252.863 141.466 250.483V250.403L137.206 250.883C135.726 251.023 135.006 251.383 135.006 252.403ZM150.272 254.823H148.852V244.943H150.132V247.643H150.232C150.532 246.063 151.652 244.743 153.712 244.743C155.992 244.743 156.992 246.423 156.992 248.263V249.243H155.572V248.483C155.572 246.803 154.872 245.983 153.152 245.983C151.152 245.983 150.272 247.243 150.272 249.463V254.823ZM163.478 255.023C160.258 255.023 158.118 252.883 158.118 249.883C158.118 246.883 160.258 244.743 163.478 244.743C166.718 244.743 168.858 246.883 168.858 249.883C168.858 252.883 166.718 255.023 163.478 255.023ZM163.478 253.743C166.198 253.743 167.458 252.283 167.458 249.883C167.458 247.503 166.198 246.023 163.478 246.023C160.758 246.023 159.518 247.503 159.518 249.883C159.518 252.283 160.758 253.743 163.478 253.743ZM175.467 255.023C172.307 255.023 170.247 252.883 170.247 249.883C170.247 246.883 172.307 244.743 175.467 244.743C178.227 244.743 180.387 246.383 180.387 248.763V248.923H178.987V248.803C178.987 247.043 177.707 246.043 175.447 246.043C172.807 246.043 171.667 247.463 171.667 249.883C171.667 252.303 172.807 253.723 175.447 253.723C177.707 253.723 178.987 252.723 178.987 250.963V250.843H180.387V251.003C180.387 253.383 178.227 255.023 175.467 255.023ZM183.71 254.823H182.29V241.423H183.71V249.083H187.03L190.33 244.943H192.01L188.19 249.663L191.99 254.823H190.33L187.01 250.383H183.71V254.823ZM197.724 255.023C194.684 255.023 192.924 253.803 192.924 251.523V251.483H194.344V251.603C194.344 253.263 195.324 253.843 197.744 253.843C199.964 253.843 200.724 253.323 200.724 252.183C200.724 251.143 200.104 250.803 198.464 250.543L195.824 250.163C194.024 249.923 192.884 249.223 192.884 247.583C192.884 245.843 194.544 244.743 197.264 244.743C200.104 244.743 201.944 245.943 201.944 248.263V248.303H200.524V248.203C200.524 246.723 199.744 245.923 197.224 245.923C195.144 245.923 194.284 246.423 194.284 247.603C194.284 248.623 194.804 248.983 196.444 249.223L198.864 249.563C200.984 249.863 202.124 250.583 202.124 252.183C202.124 254.043 200.284 255.023 197.724 255.023ZM210.049 254.823H207.909C205.949 254.823 204.689 254.003 204.689 251.683V246.163H202.929V244.943H204.689V242.583H206.129V244.943H210.049V246.163H206.129V251.763C206.129 253.143 206.809 253.523 208.249 253.523H210.049V254.823ZM214.346 255.023C212.406 255.023 211.086 254.103 211.086 252.503C211.086 250.883 212.426 250.183 214.266 249.983L218.966 249.463V248.703C218.966 246.783 218.126 246.023 215.966 246.023C213.846 246.023 212.726 246.783 212.726 248.523V248.603H211.306V248.523C211.306 246.443 213.026 244.743 216.066 244.743C219.066 244.743 220.346 246.463 220.346 248.643V254.823H219.066V252.163H218.966C218.386 253.983 216.646 255.023 214.346 255.023ZM212.506 252.403C212.506 253.403 213.166 253.923 214.666 253.923C217.066 253.923 218.966 252.863 218.966 250.483V250.403L214.706 250.883C213.226 251.023 212.506 251.383 212.506 252.403ZM224.1 254.823H222.68V244.943H223.96V247.643H224.06C224.36 246.063 225.48 244.743 227.54 244.743C229.82 244.743 230.82 246.423 230.82 248.263V249.243H229.4V248.483C229.4 246.803 228.7 245.983 226.98 245.983C224.98 245.983 224.1 247.243 224.1 249.463V254.823ZM233.686 250.423H232.366C232.366 248.223 232.146 244.363 232.146 242.823V241.423H233.906V242.823C233.906 244.363 233.686 248.243 233.686 250.423ZM233.826 254.823H232.226V252.123H233.826V254.823ZM238.981 245.923H238.201L237.861 243.603V241.423H239.321V243.603L238.981 245.923ZM236.441 245.923H235.681L235.321 243.603V241.423H236.781V243.603L236.441 245.923ZM240.879 256.583H240.459V255.723H240.859C241.119 255.723 241.259 255.663 241.259 255.303V254.823H240.479V252.043H242.239V255.283C242.239 256.163 241.719 256.583 240.879 256.583ZM250.72 245.923H249.94L249.6 243.603V241.423H251.06V243.603L250.72 245.923ZM248.18 245.923H247.42L247.06 243.603V241.423H248.52V243.603L248.18 245.923ZM254.237 254.823H252.817V241.423H259.377C262.177 241.423 264.077 242.843 264.077 245.303C264.077 247.563 262.417 248.963 259.937 249.023V249.123C260.817 249.363 261.317 249.943 261.777 250.723L264.297 254.823H262.657L260.277 250.943C259.597 249.823 258.897 249.343 257.117 249.343H254.237V254.823ZM254.237 242.723V248.203H259.357C261.477 248.203 262.597 247.363 262.597 245.463C262.597 243.563 261.477 242.723 259.357 242.723H254.237ZM270.642 255.023C267.462 255.023 265.442 253.023 265.442 249.883C265.442 246.883 267.442 244.743 270.622 244.743C273.522 244.743 275.582 246.423 275.582 249.363C275.582 249.723 275.542 250.023 275.482 250.283H266.782C266.862 252.503 268.002 253.843 270.622 253.843C272.942 253.843 274.022 252.983 274.022 251.543V251.403H275.442V251.543C275.442 253.603 273.402 255.023 270.642 255.023ZM270.602 245.923C268.042 245.923 266.882 247.243 266.782 249.403H274.242C274.242 249.303 274.242 249.203 274.242 249.103C274.242 247.023 272.922 245.923 270.602 245.923ZM280.206 255.023C278.266 255.023 276.946 254.103 276.946 252.503C276.946 250.883 278.286 250.183 280.126 249.983L284.826 249.463V248.703C284.826 246.783 283.986 246.023 281.826 246.023C279.706 246.023 278.586 246.783 278.586 248.523V248.603H277.166V248.523C277.166 246.443 278.886 244.743 281.926 244.743C284.926 244.743 286.206 246.463 286.206 248.643V254.823H284.926V252.163H284.826C284.246 253.983 282.506 255.023 280.206 255.023ZM278.366 252.403C278.366 253.403 279.026 253.923 280.526 253.923C282.926 253.923 284.826 252.863 284.826 250.483V250.403L280.566 250.883C279.086 251.023 278.366 251.383 278.366 252.403ZM292.8 255.023C289.64 255.023 287.88 252.883 287.88 249.883C287.88 246.883 289.64 244.743 292.68 244.743C295.02 244.743 296.48 246.003 296.92 247.703H297.02V241.423H298.44V254.823H297.14V251.903H297.06C296.58 253.883 294.98 255.023 292.8 255.023ZM289.32 249.883C289.32 252.743 290.84 253.723 293.16 253.723C295.48 253.723 297.02 252.383 297.02 250.043V249.863C297.02 247.423 295.56 246.063 293.12 246.063C290.86 246.063 289.32 247.023 289.32 249.883ZM302.125 258.223H300.885V256.923H302.385C303.385 256.923 303.765 256.623 304.145 255.803L304.625 254.803L299.725 244.943H301.285L304.185 250.823L305.285 253.243H305.405L306.465 250.803L309.205 244.943H310.765L305.405 256.203C304.685 257.723 303.765 258.223 302.125 258.223ZM321.865 254.823H319.725C317.765 254.823 316.505 254.003 316.505 251.683V246.163H314.745V244.943H316.505V242.583H317.945V244.943H321.865V246.163H317.945V251.763C317.945 253.143 318.625 253.523 320.065 253.523H321.865V254.823ZM328.263 255.023C325.043 255.023 322.903 252.883 322.903 249.883C322.903 246.883 325.043 244.743 328.263 244.743C331.503 244.743 333.643 246.883 333.643 249.883C333.643 252.883 331.503 255.023 328.263 255.023ZM328.263 253.743C330.983 253.743 332.243 252.283 332.243 249.883C332.243 247.503 330.983 246.023 328.263 246.023C325.543 246.023 324.303 247.503 324.303 249.883C324.303 252.283 325.543 253.743 328.263 253.743ZM343.924 255.023C340.764 255.023 338.704 252.883 338.704 249.883C338.704 246.883 340.764 244.743 343.924 244.743C346.684 244.743 348.844 246.383 348.844 248.763V248.923H347.444V248.803C347.444 247.043 346.164 246.043 343.904 246.043C341.264 246.043 340.124 247.463 340.124 249.883C340.124 252.303 341.264 253.723 343.904 253.723C346.164 253.723 347.444 252.723 347.444 250.963V250.843H348.844V251.003C348.844 253.383 346.684 255.023 343.924 255.023ZM355.587 255.023C352.367 255.023 350.227 252.883 350.227 249.883C350.227 246.883 352.367 244.743 355.587 244.743C358.827 244.743 360.967 246.883 360.967 249.883C360.967 252.883 358.827 255.023 355.587 255.023ZM355.587 253.743C358.307 253.743 359.567 252.283 359.567 249.883C359.567 247.503 358.307 246.023 355.587 246.023C352.867 246.023 351.627 247.503 351.627 249.883C351.627 252.283 352.867 253.743 355.587 253.743ZM364.276 254.823H362.856V244.943H364.136V248.043H364.236C364.576 246.363 365.976 244.743 368.436 244.743C371.216 244.743 372.596 246.723 372.596 249.063V254.823H371.176V249.263C371.176 247.223 370.196 246.043 367.936 246.043C365.536 246.043 364.276 247.503 364.276 250.043V254.823ZM379.127 255.023C375.987 255.023 374.247 252.883 374.247 249.883C374.247 246.883 376.007 244.743 379.087 244.743C381.427 244.743 382.907 245.943 383.347 247.723H383.507V244.943H384.807V258.223H383.387V251.923H383.347C382.887 253.823 381.307 255.023 379.127 255.023ZM375.687 249.883C375.687 252.743 377.207 253.723 379.527 253.723C381.847 253.723 383.387 252.403 383.387 250.063V249.883C383.387 247.443 381.927 246.063 379.487 246.063C377.227 246.063 375.687 247.023 375.687 249.883ZM391.332 255.023C388.512 255.023 387.132 253.063 387.132 250.723V244.943H388.552V250.503C388.552 252.563 389.552 253.743 391.832 253.743C394.252 253.743 395.512 252.283 395.512 249.743V244.943H396.932V254.823H395.652V251.743H395.552C395.212 253.423 393.792 255.023 391.332 255.023ZM404.021 255.023C400.841 255.023 398.821 253.023 398.821 249.883C398.821 246.883 400.821 244.743 404.001 244.743C406.901 244.743 408.961 246.423 408.961 249.363C408.961 249.723 408.921 250.023 408.861 250.283H400.161C400.241 252.503 401.381 253.843 404.001 253.843C406.321 253.843 407.401 252.983 407.401 251.543V251.403H408.821V251.543C408.821 253.603 406.781 255.023 404.021 255.023ZM403.981 245.923C401.421 245.923 400.261 247.243 400.161 249.403H407.621C407.621 249.303 407.621 249.203 407.621 249.103C407.621 247.023 406.301 245.923 403.981 245.923ZM412.265 254.823H410.845V244.943H412.125V247.643H412.225C412.525 246.063 413.645 244.743 415.705 244.743C417.985 244.743 418.985 246.423 418.985 248.263V249.243H417.565V248.483C417.565 246.803 416.865 245.983 415.145 245.983C413.145 245.983 412.265 247.243 412.265 249.463V254.823ZM430.362 254.823H428.222C426.262 254.823 425.002 254.003 425.002 251.683V246.163H423.242V244.943H425.002V242.583H426.442V244.943H430.362V246.163H426.442V251.763C426.442 253.143 427.122 253.523 428.562 253.523H430.362V254.823ZM433.339 254.823H431.919V241.423H433.339V247.963H433.439C433.759 246.303 435.039 244.743 437.559 244.743C440.319 244.743 441.699 246.583 441.699 249.083V254.823H440.279V249.263C440.279 247.003 439.219 246.043 436.999 246.043C434.359 246.043 433.339 247.723 433.339 250.183V254.823ZM448.748 255.023C445.568 255.023 443.548 253.023 443.548 249.883C443.548 246.883 445.548 244.743 448.728 244.743C451.628 244.743 453.688 246.423 453.688 249.363C453.688 249.723 453.648 250.023 453.588 250.283H444.888C444.968 252.503 446.108 253.843 448.728 253.843C451.048 253.843 452.128 252.983 452.128 251.543V251.403H453.548V251.543C453.548 253.603 451.508 255.023 448.748 255.023ZM448.708 245.923C446.148 245.923 444.988 247.243 444.888 249.403H452.348C452.348 249.303 452.348 249.203 452.348 249.103C452.348 247.023 451.028 245.923 448.708 245.923ZM463.503 255.023C460.343 255.023 458.583 252.883 458.583 249.883C458.583 246.883 460.343 244.743 463.383 244.743C465.723 244.743 467.183 246.003 467.623 247.703H467.723V241.423H469.143V254.823H467.843V251.903H467.763C467.283 253.883 465.683 255.023 463.503 255.023ZM460.023 249.883C460.023 252.743 461.543 253.723 463.863 253.723C466.183 253.723 467.723 252.383 467.723 250.043V249.863C467.723 247.423 466.263 246.063 463.823 246.063C461.563 246.063 460.023 247.023 460.023 249.883ZM472.948 243.683H471.528V241.423H472.948V243.683ZM472.948 254.823H471.528V244.943H472.948V254.823ZM479.577 254.023C476.637 254.023 474.837 252.083 474.837 249.383C474.837 246.683 476.697 244.743 479.737 244.743C481.817 244.743 483.457 245.723 483.857 247.483H483.957V244.943H485.237V253.883C485.237 257.143 483.177 258.423 480.197 258.423C477.517 258.423 475.477 257.083 475.477 254.783H476.897C476.897 256.523 478.057 257.203 480.257 257.203C482.817 257.203 483.817 256.423 483.817 253.963V251.383H483.717C483.317 252.903 481.857 254.023 479.577 254.023ZM476.257 249.383C476.257 251.903 477.817 252.763 479.957 252.763C482.397 252.763 483.817 251.543 483.817 249.443V249.103C483.817 247.163 482.337 246.003 480.057 246.003C477.837 246.003 476.257 246.863 476.257 249.383ZM489.061 243.683H487.641V241.423H489.061V243.683ZM489.061 254.823H487.641V244.943H489.061V254.823ZM497.51 254.823H495.37C493.41 254.823 492.15 254.003 492.15 251.683V246.163H490.39V244.943H492.15V242.583H493.59V244.943H497.51V246.163H493.59V251.763C493.59 253.143 494.27 253.523 495.71 253.523H497.51V254.823ZM501.807 255.023C499.867 255.023 498.547 254.103 498.547 252.503C498.547 250.883 499.887 250.183 501.727 249.983L506.427 249.463V248.703C506.427 246.783 505.587 246.023 503.427 246.023C501.307 246.023 500.187 246.783 500.187 248.523V248.603H498.767V248.523C498.767 246.443 500.487 244.743 503.527 244.743C506.527 244.743 507.807 246.463 507.807 248.643V254.823H506.527V252.163H506.427C505.847 253.983 504.107 255.023 501.807 255.023ZM499.967 252.403C499.967 253.403 500.627 253.923 502.127 253.923C504.527 253.923 506.427 252.863 506.427 250.483V250.403L502.167 250.883C500.687 251.023 499.967 251.383 499.967 252.403ZM511.561 254.823H510.141V241.423H511.561V254.823ZM104.12 279.823H102.36L99.2 269.943H100.66L102.76 276.483L103.26 278.583H103.38L104.06 276.363L106.66 269.943H108.48L111.06 276.363L111.74 278.563H111.86L112.34 276.483L114.46 269.943H115.92L112.72 279.823H110.94L108.38 273.363L107.6 271.163H107.5L106.72 273.363L104.12 279.823ZM122.149 280.023C118.929 280.023 116.789 277.883 116.789 274.883C116.789 271.883 118.929 269.743 122.149 269.743C125.389 269.743 127.529 271.883 127.529 274.883C127.529 277.883 125.389 280.023 122.149 280.023ZM122.149 278.743C124.869 278.743 126.129 277.283 126.129 274.883C126.129 272.503 124.869 271.023 122.149 271.023C119.429 271.023 118.189 272.503 118.189 274.883C118.189 277.283 119.429 278.743 122.149 278.743ZM130.839 279.823H129.419V269.943H130.699V272.643H130.799C131.099 271.063 132.219 269.743 134.279 269.743C136.559 269.743 137.559 271.423 137.559 273.263V274.243H136.139V273.483C136.139 271.803 135.439 270.983 133.719 270.983C131.719 270.983 130.839 272.243 130.839 274.463V279.823ZM140.624 279.823H139.204V266.423H140.624V279.823ZM147.273 280.023C144.113 280.023 142.353 277.883 142.353 274.883C142.353 271.883 144.113 269.743 147.153 269.743C149.493 269.743 150.953 271.003 151.393 272.703H151.493V266.423H152.913V279.823H151.613V276.903H151.533C151.053 278.883 149.453 280.023 147.273 280.023ZM143.793 274.883C143.793 277.743 145.313 278.723 147.633 278.723C149.953 278.723 151.493 277.383 151.493 275.043V274.863C151.493 272.423 150.033 271.063 147.593 271.063C145.333 271.063 143.793 272.023 143.793 274.883ZM159.758 275.503H158.338V274.863C158.338 273.863 158.818 273.203 160.018 272.683L161.458 272.023C162.778 271.423 163.518 270.883 163.518 269.723C163.518 268.463 162.718 267.523 159.918 267.523C156.818 267.523 155.698 268.583 155.698 270.583V270.983H154.298V270.603C154.298 268.223 155.998 266.223 159.978 266.223C163.478 266.223 164.938 267.803 164.938 269.683C164.938 271.503 163.598 272.423 162.178 273.043L160.738 273.663C159.978 274.003 159.758 274.283 159.758 274.943V275.503ZM159.878 279.823H158.278V277.123H159.878V279.823ZM169.684 270.923H168.904L168.564 268.603V266.423H170.024V268.603L169.684 270.923ZM167.144 270.923H166.384L166.024 268.603V266.423H167.484V268.603L167.144 270.923ZM170.522 279.803H172.562V266.443H170.522V265.223H173.922V281.023H170.522V279.803Z" fill="white"/>
<path d="M101.62 337.823H100.2V324.423H101.62V330.963H101.72C102.04 329.303 103.32 327.743 105.84 327.743C108.6 327.743 109.98 329.583 109.98 332.083V337.823H108.56V332.263C108.56 330.003 107.5 329.043 105.28 329.043C102.64 329.043 101.62 330.723 101.62 333.183V337.823ZM115.069 338.023C113.129 338.023 111.809 337.103 111.809 335.503C111.809 333.883 113.149 333.183 114.989 332.983L119.689 332.463V331.703C119.689 329.783 118.849 329.023 116.689 329.023C114.569 329.023 113.449 329.783 113.449 331.523V331.603H112.029V331.523C112.029 329.443 113.749 327.743 116.789 327.743C119.789 327.743 121.069 329.463 121.069 331.643V337.823H119.789V335.163H119.689C119.109 336.983 117.369 338.023 115.069 338.023ZM113.229 335.403C113.229 336.403 113.889 336.923 115.389 336.923C117.789 336.923 119.689 335.863 119.689 333.483V333.403L115.429 333.883C113.949 334.023 113.229 334.383 113.229 335.403ZM128.123 338.023C124.963 338.023 122.903 335.883 122.903 332.883C122.903 329.883 124.963 327.743 128.123 327.743C130.883 327.743 133.043 329.383 133.043 331.763V331.923H131.643V331.803C131.643 330.043 130.363 329.043 128.103 329.043C125.463 329.043 124.323 330.463 124.323 332.883C124.323 335.303 125.463 336.723 128.103 336.723C130.363 336.723 131.643 335.723 131.643 333.963V333.843H133.043V334.003C133.043 336.383 130.883 338.023 128.123 338.023ZM136.366 337.823H134.946V324.423H136.366V332.083H139.686L142.986 327.943H144.666L140.846 332.663L144.646 337.823H142.986L139.666 333.383H136.366V337.823ZM147.46 337.823H146.04V327.943H147.32V331.043H147.42C147.76 329.363 149.16 327.743 151.62 327.743C154.4 327.743 155.78 329.723 155.78 332.063V337.823H154.36V332.263C154.36 330.223 153.38 329.043 151.12 329.043C148.72 329.043 147.46 330.503 147.46 333.043V337.823ZM159.511 326.683H158.091V324.423H159.511V326.683ZM159.511 337.823H158.091V327.943H159.511V337.823ZM166.139 337.023C163.199 337.023 161.399 335.083 161.399 332.383C161.399 329.683 163.259 327.743 166.299 327.743C168.379 327.743 170.019 328.723 170.419 330.483H170.519V327.943H171.799V336.883C171.799 340.143 169.739 341.423 166.759 341.423C164.079 341.423 162.039 340.083 162.039 337.783H163.459C163.459 339.523 164.619 340.203 166.819 340.203C169.379 340.203 170.379 339.423 170.379 336.963V334.383H170.279C169.879 335.903 168.419 337.023 166.139 337.023ZM162.819 332.383C162.819 334.903 164.379 335.763 166.519 335.763C168.959 335.763 170.379 334.543 170.379 332.443V332.103C170.379 330.163 168.899 329.003 166.619 329.003C164.399 329.003 162.819 329.863 162.819 332.383ZM175.624 337.823H174.204V324.423H175.624V330.963H175.724C176.044 329.303 177.324 327.743 179.844 327.743C182.604 327.743 183.984 329.583 183.984 332.083V337.823H182.564V332.263C182.564 330.003 181.504 329.043 179.284 329.043C176.644 329.043 175.624 330.723 175.624 333.183V337.823ZM192.393 337.823H190.253C188.293 337.823 187.033 337.003 187.033 334.683V329.163H185.273V327.943H187.033V325.583H188.473V327.943H192.393V329.163H188.473V334.763C188.473 336.143 189.153 336.523 190.593 336.523H192.393V337.823ZM200.15 338.883H192.95V337.823H200.15V338.883ZM202.968 337.823H201.548V324.423H202.968V330.963H203.068C203.388 329.303 204.668 327.743 207.188 327.743C209.948 327.743 211.328 329.583 211.328 332.083V337.823H209.908V332.263C209.908 330.003 208.848 329.043 206.628 329.043C203.988 329.043 202.968 330.723 202.968 333.183V337.823ZM214.977 341.223H213.737V339.923H215.237C216.237 339.923 216.617 339.623 216.997 338.803L217.477 337.803L212.577 327.943H214.137L217.037 333.823L218.137 336.243H218.257L219.317 333.803L222.057 327.943H223.617L218.257 339.203C217.537 340.723 216.617 341.223 214.977 341.223ZM226.405 341.223H224.985V327.943H226.265V330.723H226.425C226.865 328.943 228.345 327.743 230.685 327.743C233.765 327.743 235.525 329.883 235.525 332.883C235.525 335.883 233.785 338.023 230.645 338.023C228.465 338.023 226.885 336.823 226.425 334.923H226.405V341.223ZM226.405 333.063C226.405 335.403 227.945 336.723 230.265 336.723C232.565 336.723 234.085 335.743 234.085 332.883C234.085 330.023 232.545 329.063 230.305 329.063C227.845 329.063 226.405 330.443 226.405 332.883V333.063ZM241.97 338.023C238.79 338.023 236.77 336.023 236.77 332.883C236.77 329.883 238.77 327.743 241.95 327.743C244.85 327.743 246.91 329.423 246.91 332.363C246.91 332.723 246.87 333.023 246.81 333.283H238.11C238.19 335.503 239.33 336.843 241.95 336.843C244.27 336.843 245.35 335.983 245.35 334.543V334.403H246.77V334.543C246.77 336.603 244.73 338.023 241.97 338.023ZM241.93 328.923C239.37 328.923 238.21 330.243 238.11 332.403H245.57C245.57 332.303 245.57 332.203 245.57 332.103C245.57 330.023 244.25 328.923 241.93 328.923ZM252.974 338.583L252.234 339.263C250.534 337.583 248.434 334.963 248.434 331.123C248.434 327.283 250.534 324.663 252.234 322.983L252.974 323.663C251.454 325.583 249.954 327.483 249.954 331.123C249.954 334.763 251.454 336.663 252.974 338.583ZM253.54 323.663L254.26 322.983C255.96 324.663 258.06 327.283 258.06 331.123C258.06 334.963 255.96 337.583 254.26 339.263L253.54 338.583C255.06 336.663 256.54 334.763 256.54 331.123C256.54 327.483 255.06 325.583 253.54 323.663Z" fill="#807BED"/>
</g>
<defs>
<filter id="filter0_d_757_3104" x="-57" y="0" width="633.423" height="477.836" filterUnits="userSpaceOnUse" color-interpolation-filters="sRGB">
<feFlood flood-opacity="0" result="BackgroundImageFix"/>
<feColorMatrix in="SourceAlpha" type="matrix" values="0 0 0 0 0 0 0 0 0 0 0 0 0 0 0 0 0 0 127 0" result="hardAlpha"/>
<feOffset dy="4"/>
<feGaussianBlur stdDeviation="28.5"/>
<feComposite in2="hardAlpha" operator="out"/>
<feColorMatrix type="matrix" values="0 0 0 0 0 0 0 0 0 0 0 0 0 0 0 0 0 0 0.15 0"/>
<feBlend mode="normal" in2="BackgroundImageFix" result="effect1_dropShadow_757_3104"/>
<feBlend mode="normal" in="SourceGraphic" in2="effect1_dropShadow_757_3104" result="shape"/>
</filter>
</defs>
</svg>
