<svg width="551" height="602" viewBox="0 0 551 602" fill="none" xmlns="http://www.w3.org/2000/svg">
<path d="M345.373 70.1338L94.8098 117.353L418.931 185.069L10.8662 194.472L874.239 396.878L336.17 409.277L727.051 491.895L332.013 562.481" stroke="#DBF72C" stroke-width="35" stroke-linejoin="bevel"/>
<path d="M130.305 117.748L127.36 118.322L124.795 105.17L127.739 104.596L128.758 109.817L135.628 108.477L134.61 103.256L137.554 102.681L140.12 115.833L137.175 116.408L136.145 111.127L129.275 112.467L130.305 117.748ZM144.114 115.054L140.816 115.698L144.002 101.423L148.203 100.604L156.559 112.627L153.183 113.285L151.38 110.621L144.804 111.904L144.114 115.054ZM146.103 105.925L145.425 109.032L149.724 108.193L147.928 105.568L146.725 103.684L146.509 103.726L146.103 105.925ZM164.018 111.375C159.679 112.222 156.469 110.077 155.669 105.974C154.869 101.871 157.037 98.677 161.376 97.8308C165.459 97.0343 168.487 98.5627 169.138 101.9L169.196 102.194L165.917 102.834L165.86 102.539C165.523 100.812 164.381 100.179 161.986 100.646C159.1 101.209 158.22 102.44 158.79 105.365C159.361 108.29 160.64 109.1 163.525 108.537C165.92 108.07 166.741 107.054 166.404 105.327L166.346 105.032L169.625 104.393L169.682 104.687C170.333 108.024 168.12 110.575 164.018 111.375ZM174.913 109.046L171.969 109.621L169.403 96.4686L172.348 95.8942L173.366 101.116L176.645 100.476L179.12 94.5732L182.654 93.8839L179.343 101.254L185.16 107.048L181.627 107.737L177.243 103.335L173.925 103.982L174.913 109.046ZM188.907 106.317L185.963 106.891L183.397 93.7389L186.538 93.1262L192.463 98.4299L194.809 100.845L195.025 100.803L194.371 98.1801L193.134 91.8396L196.078 91.2652L198.644 104.417L195.503 105.03L189.429 99.6942L187.278 97.5463L187.082 97.5846L187.671 99.9761L188.907 106.317ZM203.151 103.538L200.206 104.113L197.641 90.9605L200.585 90.3861L203.151 103.538ZM210.933 102.224C206.909 103.009 203.915 100.822 203.115 96.719C202.314 92.6163 204.581 89.4029 209.096 88.5222C213.218 87.7181 216.204 89.1325 216.821 92.293L216.852 92.45L213.573 93.0895L213.543 92.9324C213.244 91.4013 212.101 90.8703 209.569 91.3642C206.585 91.9462 205.665 93.1853 206.236 96.1101C206.806 99.035 208.085 99.8452 210.971 99.2823C213.994 98.6926 214.825 98.0415 214.578 96.3576L210.122 97.2269L209.697 95.0479L217.097 93.6043L218.453 100.553L215.724 101.086L215.173 98.2589L215.016 98.2895C214.901 100.105 213.78 101.669 210.933 102.224ZM222.838 99.6979L219.894 100.272L217.328 87.1201L220.273 86.5458L221.291 91.7674L228.162 90.4272L227.143 85.2056L230.088 84.6312L232.653 97.7833L229.709 98.3577L228.679 93.0772L221.808 94.4174L222.838 99.6979ZM241.555 96.0469L238.61 96.6213L236.562 86.1192L231.674 87.0727L231.157 84.4226L243.877 81.9414L244.394 84.5914L239.506 85.5449L241.555 96.0469ZM256.533 93.329C252.548 94.1063 250.004 92.9724 249.407 89.9101L249.384 89.7923L252.328 89.218L252.397 89.5713C252.635 90.7884 253.339 91.1604 256.008 90.6397C258.364 90.1802 258.845 89.7196 258.672 88.8363C258.516 88.0314 258.007 87.825 256.606 87.8537L252.812 88.0436C250.384 88.1301 248.76 87.2241 248.343 85.0845C247.956 83.1018 249.16 80.7071 253.577 79.8455C257.621 79.0567 259.869 80.554 260.409 83.3218L260.432 83.4396L257.468 84.0178L257.414 83.743C257.169 82.4866 256.418 82.083 253.807 82.5923C251.687 83.0058 251.12 83.5444 251.284 84.3885C251.434 85.1541 251.919 85.3446 253.057 85.3265L256.862 85.1955C259.898 85.0923 261.238 86.3185 261.59 88.1245C262.008 90.2641 260.714 92.5134 256.533 93.329ZM270.354 90.6329C265.996 91.483 262.767 89.3417 261.966 85.2391C261.166 81.1364 263.354 77.9383 267.712 77.0882C272.168 76.219 275.378 78.3641 276.179 82.4668C276.979 86.5694 274.81 89.7637 270.354 90.6329ZM269.803 87.8062C272.689 87.2433 273.608 86.0043 273.038 83.0794C272.467 80.1546 271.149 79.3521 268.264 79.9149C265.378 80.4778 264.517 81.7054 265.088 84.6302C265.658 87.5551 266.917 88.3691 269.803 87.8062ZM284.719 87.6272L281.774 88.2015L279.209 75.0494L290.339 72.8783L290.856 75.5283L282.67 77.1251L283.248 80.0892L291.14 78.5499L291.653 81.1803L283.761 82.7197L284.719 87.6272ZM296.573 85.3149L293.275 85.9582L296.461 71.6841L300.662 70.8647L309.018 82.8872L305.642 83.5458L303.838 80.8818L297.262 82.1646L296.573 85.3149ZM298.561 76.1852L297.884 79.2925L302.183 78.4539L300.387 75.8291L299.184 73.9446L298.968 73.9867L298.561 76.1852ZM312.649 82.1789L309.705 82.7532L307.139 69.6011L314.402 68.1844C317.641 67.5525 319.766 68.6256 320.256 71.1382C320.674 73.2779 319.686 74.7951 317.258 75.5131L317.289 75.6702C318.528 75.7545 319.102 76.2946 319.773 77.1215L322.366 80.2835L318.951 80.9497L316.478 77.8864C315.749 76.969 315.193 76.731 313.662 77.0297L311.719 77.4088L312.649 82.1789ZM310.601 71.6768L311.286 75.1906L315.585 74.352C316.979 74.0801 317.53 73.565 317.262 72.1909C317.01 70.8953 316.294 70.5664 314.9 70.8382L310.601 71.6768Z" fill="black"/>
<path d="M230.865 193.451L228.466 193.519L228.246 185.778L225.495 185.857L225.448 184.209L225.896 184.197C227.08 184.163 227.872 183.868 228.369 182.798L230.561 182.735L230.865 193.451ZM237.269 193.429C233.814 193.527 231.849 191.406 231.754 188.064C231.659 184.737 233.5 182.492 236.954 182.393C240.393 182.295 242.375 184.432 242.469 187.759C242.564 191.101 240.707 193.331 237.269 193.429ZM237.202 191.094C239.233 191.036 239.96 190.135 239.894 187.832C239.829 185.529 239.052 184.671 237.021 184.728C234.974 184.787 234.263 185.687 234.329 187.99C234.394 190.293 235.155 191.152 237.202 191.094ZM248.764 193.102C245.309 193.2 243.344 191.079 243.249 187.736C243.154 184.41 244.995 182.164 248.45 182.066C251.888 181.968 253.87 184.105 253.965 187.431C254.06 190.774 252.203 193.004 248.764 193.102ZM248.697 190.767C250.729 190.709 251.455 189.808 251.39 187.505C251.324 185.202 250.547 184.343 248.516 184.401C246.469 184.459 245.758 185.36 245.824 187.663C245.89 189.966 246.65 190.825 248.697 190.767ZM260.259 192.774C256.805 192.873 254.84 190.752 254.744 187.409C254.65 184.083 256.491 181.837 259.945 181.739C263.384 181.641 265.365 183.778 265.46 187.104C265.555 190.447 263.698 192.677 260.259 192.774ZM260.193 190.439C262.224 190.382 262.951 189.481 262.885 187.178C262.82 184.874 262.043 184.016 260.012 184.074C257.964 184.132 257.254 185.033 257.319 187.336C257.385 189.639 258.146 190.498 260.193 190.439ZM271.059 190.514L268.996 190.573L268.923 187.998L266.38 188.07L266.323 186.087L268.866 186.015L268.793 183.44L270.856 183.381L270.93 185.956L273.473 185.884L273.529 187.867L270.986 187.939L271.059 190.514ZM279.667 192.062L277.268 192.13L276.963 181.415L282.561 181.255C285.04 181.185 286.68 182.547 286.75 185.01C286.82 187.473 285.261 188.942 282.782 189.012L279.583 189.103L279.667 192.062ZM282.367 183.422L279.424 183.506L279.522 186.944L282.465 186.86C283.792 186.823 284.405 186.421 284.367 185.078C284.329 183.766 283.694 183.384 282.367 183.422ZM289.763 191.775L287.076 191.851L291.457 181.002L294.879 180.905L299.903 191.486L297.152 191.564L296.077 189.226L290.719 189.379L289.763 191.775ZM292.526 184.829L291.585 187.193L295.088 187.093L294.014 184.787L293.31 183.142L293.135 183.147L292.526 184.829ZM302.861 191.402L300.462 191.47L300.157 180.755L306.075 180.586C308.714 180.511 310.25 181.636 310.309 183.683C310.358 185.426 309.38 186.495 307.371 186.744L307.374 186.872C308.341 187.1 308.723 187.602 309.145 188.342L310.778 191.177L307.995 191.256L306.445 188.515C305.989 187.695 305.581 187.435 304.334 187.47L302.751 187.516L302.861 191.402ZM302.618 182.845L302.699 185.708L306.202 185.609C307.337 185.576 307.84 185.242 307.808 184.122C307.778 183.067 307.256 182.713 306.12 182.746L302.618 182.845ZM317.501 190.985L315.102 191.054L314.859 182.497L310.876 182.61L310.815 180.451L321.179 180.156L321.24 182.315L317.258 182.429L317.501 190.985ZM324.743 190.779L322.344 190.847L322.039 180.132L324.438 180.064L324.743 190.779ZM331.489 190.747C327.954 190.848 325.701 188.735 325.606 185.392C325.511 182.05 327.64 179.812 331.175 179.712C334.502 179.617 336.692 181.219 336.769 183.938L336.776 184.178L334.105 184.254L334.099 184.014C334.058 182.607 333.24 181.958 331.288 182.013C328.937 182.08 328.081 182.937 328.149 185.32C328.217 187.703 329.12 188.51 331.471 188.443C333.423 188.387 334.203 187.693 334.163 186.285L334.156 186.046L336.827 185.969L336.834 186.209C336.911 188.928 334.832 190.652 331.489 190.747ZM340.393 190.334L337.994 190.402L337.689 179.686L340.088 179.618L340.393 190.334ZM344.048 190.23L341.649 190.298L341.344 179.582L346.941 179.423C349.42 179.353 351.06 180.714 351.13 183.177C351.2 185.64 349.641 187.109 347.162 187.18L343.963 187.271L344.048 190.23ZM346.747 181.59L343.804 181.673L343.902 185.112L346.845 185.028C348.172 184.99 348.785 184.589 348.747 183.245C348.71 181.934 348.074 181.552 346.747 181.59ZM354.143 189.943L351.456 190.019L355.837 179.17L359.26 179.073L364.283 189.654L361.532 189.732L360.457 187.394L355.099 187.546L354.143 189.943ZM356.906 182.997L355.965 185.361L359.468 185.261L358.394 182.955L357.691 181.31L357.515 181.315L356.906 182.997ZM367.241 189.57L364.842 189.638L364.537 178.922L367.096 178.85L371.079 183.81L372.615 186.023L372.791 186.018L372.617 183.862L372.47 178.697L374.869 178.628L375.174 189.344L372.615 189.417L368.519 184.411L367.102 182.435L366.942 182.439L367.094 184.404L367.241 189.57ZM382.413 189.138L380.014 189.206L379.77 180.65L375.788 180.763L375.726 178.604L386.09 178.309L386.151 180.468L382.169 180.581L382.413 189.138ZM392.122 189.022C388.875 189.114 387.015 187.886 386.944 185.392L386.942 185.296L389.341 185.227L389.349 185.515C389.377 186.507 389.884 186.892 392.059 186.831C393.979 186.776 394.418 186.475 394.398 185.756C394.379 185.1 394.004 184.87 392.895 184.71L389.876 184.364C387.948 184.114 386.786 183.187 386.736 181.444C386.69 179.828 387.953 178.096 391.552 177.993C394.846 177.9 396.425 179.375 396.489 181.63L396.492 181.726L394.077 181.795L394.071 181.571C394.041 180.548 393.501 180.131 391.374 180.191C389.647 180.241 389.129 180.591 389.148 181.279C389.166 181.903 389.524 182.117 390.424 182.251L393.445 182.645C395.855 182.961 396.752 184.104 396.794 185.575C396.843 187.319 395.528 188.925 392.122 189.022Z" fill="black"/>
<path d="M48.917 199.628C45.4144 199.728 43.7906 198.349 43.7232 195.982L43.7159 195.726L46.2589 195.654L46.2662 195.91C46.2971 196.997 46.6124 197.389 48.7395 197.328C50.7547 197.271 51.3693 196.933 51.3429 196.005C51.3202 195.206 50.7988 194.884 49.7912 194.913L46.7045 195.001L46.6485 193.034L49.5114 192.952C50.439 192.926 50.8453 192.578 50.8261 191.907C50.8048 191.155 50.3478 190.848 48.5246 190.9C46.6053 190.954 46.1369 191.368 46.1679 192.455L46.1701 192.535L43.6272 192.608L43.6249 192.528C43.5607 190.273 45.1804 188.69 48.6669 188.591C51.5298 188.509 53.1409 189.44 53.1946 191.327C53.2297 192.558 52.5176 193.411 51.1312 193.627L51.1362 193.802C52.7099 193.982 53.7563 194.752 53.8009 196.32C53.86 198.399 52.0357 199.539 48.917 199.628ZM59.9189 199.315C56.4643 199.413 54.4992 197.292 54.4041 193.95C54.3094 190.623 56.1503 188.378 59.6049 188.279C63.0435 188.181 65.0251 190.318 65.1197 193.645C65.2149 196.987 63.3575 199.217 59.9189 199.315ZM59.8525 196.98C61.8837 196.922 62.6103 196.021 62.5448 193.718C62.4792 191.415 61.7025 190.557 59.6713 190.614C57.6242 190.673 56.9135 191.573 56.979 193.876C57.0446 196.179 57.8053 197.038 59.8525 196.98ZM71.4143 198.988C67.9597 199.086 65.9945 196.965 65.8994 193.622C65.8048 190.296 67.6456 188.051 71.1002 187.952C74.5389 187.854 76.5204 189.991 76.6151 193.318C76.7102 196.66 74.8529 198.89 71.4143 198.988ZM71.3478 196.653C73.379 196.595 74.1057 195.694 74.0401 193.391C73.9746 191.088 73.1979 190.229 71.1667 190.287C69.1195 190.346 68.4088 191.246 68.4744 193.549C68.5399 195.852 69.3007 196.711 71.3478 196.653ZM82.2144 196.728L80.1512 196.786L80.0779 194.211L77.5349 194.284L77.4785 192.301L80.0215 192.228L79.9482 189.653L82.0114 189.595L82.0846 192.169L84.6276 192.097L84.6841 194.08L82.1411 194.153L82.2144 196.728ZM90.8225 198.275L88.4235 198.344L88.1185 187.628L93.7163 187.469C96.1953 187.398 97.8347 188.76 97.9048 191.223C97.9748 193.686 96.416 195.155 93.937 195.226L90.7383 195.317L90.8225 198.275ZM93.5218 189.635L90.579 189.719L90.6769 193.157L93.6197 193.074C94.9471 193.036 95.5599 192.634 95.5217 191.291C95.4844 189.979 94.8493 189.597 93.5218 189.635ZM101.349 197.976L98.9505 198.044L98.6455 187.328L104.563 187.16C107.202 187.085 108.739 188.21 108.797 190.257C108.847 192 107.869 193.068 105.859 193.318L105.862 193.446C106.829 193.674 107.212 194.176 107.633 194.916L109.266 197.751L106.483 197.83L104.933 195.089C104.477 194.269 104.07 194.009 102.822 194.044L101.239 194.089L101.349 197.976ZM101.106 189.419L101.187 192.282L104.69 192.182C105.826 192.15 106.328 191.816 106.296 190.696C106.266 189.641 105.744 189.287 104.609 189.32L101.106 189.419ZM115.546 197.732C111.996 197.833 109.727 195.721 109.632 192.378C109.537 189.035 111.682 186.797 115.232 186.696C118.863 186.593 121.116 188.706 121.211 192.048C121.306 195.391 119.177 197.629 115.546 197.732ZM115.481 195.429C117.832 195.362 118.72 194.504 118.652 192.121C118.584 189.738 117.649 188.933 115.298 188.999C112.947 189.066 112.107 189.923 112.175 192.306C112.243 194.689 113.13 195.496 115.481 195.429ZM126.78 197.412C123.31 197.511 121.967 195.869 121.886 193.038L121.873 192.574L124.416 192.501L124.429 192.965C124.474 194.549 124.811 195.131 126.714 195.077C128.601 195.023 128.953 194.453 128.91 192.95L128.726 186.472L131.269 186.4L131.453 192.877C131.532 195.628 130.267 197.313 126.78 197.412ZM141.849 196.823L132.781 197.081L132.476 186.366L141.544 186.108L141.605 188.267L134.936 188.457L134.996 190.552L141.425 190.369L141.486 192.512L135.057 192.695L135.118 194.854L141.787 194.664L141.849 196.823ZM148.423 196.796C144.888 196.897 142.635 194.784 142.54 191.442C142.445 188.099 144.574 185.861 148.109 185.761C151.436 185.666 153.626 187.268 153.703 189.987L153.71 190.227L151.039 190.303L151.033 190.063C150.992 188.656 150.174 188.007 148.222 188.063C145.871 188.129 145.015 188.986 145.083 191.369C145.151 193.752 146.054 194.559 148.405 194.492C150.357 194.436 151.137 193.742 151.097 192.334L151.09 192.095L153.761 192.019L153.768 192.258C153.845 194.977 151.766 196.701 148.423 196.796ZM160.893 196.281L158.494 196.35L158.251 187.793L154.268 187.906L154.207 185.747L164.571 185.452L164.632 187.612L160.65 187.725L160.893 196.281ZM170.603 196.165C167.356 196.258 165.496 195.03 165.425 192.535L165.422 192.439L167.821 192.371L167.83 192.659C167.858 193.65 168.365 194.036 170.54 193.974C172.459 193.919 172.899 193.619 172.879 192.899C172.86 192.243 172.485 192.014 171.376 191.853L168.357 191.507C166.429 191.258 165.266 190.331 165.217 188.587C165.171 186.972 166.434 185.239 170.033 185.137C173.327 185.043 174.906 186.519 174.97 188.774L174.973 188.87L172.558 188.939L172.551 188.715C172.522 187.691 171.982 187.274 169.855 187.335C168.128 187.384 167.609 187.735 167.629 188.423C167.647 189.046 168.005 189.26 168.905 189.395L171.926 189.789C174.336 190.105 175.232 191.248 175.274 192.719C175.324 194.462 174.009 196.068 170.603 196.165Z" fill="black"/>
<path d="M103.446 223.728C100.034 222.929 98.8165 221.181 99.3563 218.875L99.4147 218.626L101.892 219.206L101.833 219.455C101.585 220.515 101.79 220.974 103.862 221.459C105.825 221.918 106.505 221.749 106.717 220.845C106.899 220.066 106.478 219.623 105.496 219.393L102.489 218.689L102.938 216.773L105.727 217.426C106.63 217.637 107.112 217.405 107.265 216.75C107.436 216.018 107.073 215.605 105.297 215.189C103.428 214.751 102.869 215.031 102.621 216.09L102.603 216.168L100.126 215.588L100.144 215.51C100.659 213.314 102.629 212.198 106.025 212.993C108.814 213.646 110.133 214.957 109.703 216.795C109.422 217.995 108.516 218.637 107.12 218.491L107.08 218.663C108.556 219.238 109.371 220.251 109.013 221.777C108.539 223.803 106.484 224.439 103.446 223.728ZM114.038 226.208C110.766 225.442 109.312 223.934 109.848 221.644L109.881 221.504L112.295 222.069L112.262 222.21C112.055 223.098 112.59 223.617 114.569 224.081C116.36 224.5 117.004 224.207 117.27 223.07C117.54 221.917 117.093 221.369 115.317 220.953C113.884 220.617 113.065 220.606 112.564 221.064L112.396 221.008L112.392 221.024L110.21 220.447L112.203 214.604L120.802 216.617L120.31 218.72L113.782 217.192L112.817 219.842L112.953 219.89C113.47 219.37 114.754 218.866 116.702 219.322C119.272 219.924 120.258 221.469 119.754 223.619C119.226 225.878 117.356 226.985 114.038 226.208ZM124.816 226.727L122.807 226.256L123.394 223.748L120.917 223.168L121.369 221.236L123.846 221.816L124.433 219.308L126.443 219.779L125.856 222.287L128.333 222.867L127.881 224.798L125.404 224.218L124.816 226.727ZM132.743 230.423L130.406 229.876L132.85 219.438L135.187 219.985L134.217 224.129L139.669 225.406L140.639 221.262L142.976 221.809L140.532 232.247L138.195 231.7L139.177 227.509L133.724 226.232L132.743 230.423ZM143.702 232.989L141.085 232.376L148.093 223.007L151.427 223.788L153.579 235.302L150.899 234.674L150.458 232.139L145.239 230.917L143.702 232.989ZM148.149 226.981L146.635 229.025L150.047 229.824L149.598 227.32L149.338 225.55L149.167 225.51L148.149 226.981ZM159.431 236.836C155.988 236.03 154.35 233.412 155.112 230.156C155.875 226.9 158.505 225.281 161.948 226.087C165.188 226.846 166.896 228.955 166.276 231.603L166.222 231.837L163.62 231.228L163.675 230.994C163.996 229.623 163.37 228.787 161.469 228.341C159.179 227.805 158.133 228.415 157.589 230.736C157.046 233.057 157.713 234.068 160.003 234.604C161.904 235.049 162.836 234.577 163.157 233.206L163.211 232.973L165.813 233.582L165.758 233.815C165.138 236.464 162.687 237.599 159.431 236.836ZM168.145 238.713L165.808 238.165L168.252 227.728L170.589 228.275L169.618 232.419L172.22 233.028L175.963 229.533L178.767 230.19L173.934 234.481L176.277 240.617L173.473 239.96L171.719 235.31L169.086 234.693L168.145 238.713ZM179.251 241.313L176.914 240.766L179.358 230.328L181.85 230.912L184.433 236.726L185.352 239.258L185.523 239.298L185.907 237.169L187.085 232.137L189.422 232.685L186.978 243.122L184.485 242.539L181.804 236.652L180.94 234.379L180.784 234.343L180.429 236.281L179.251 241.313ZM190.554 243.96L188.217 243.413L190.661 232.975L192.998 233.522L190.554 243.96ZM196.664 245.555C193.47 244.807 192.003 242.228 192.766 238.973C193.528 235.717 196.236 234.116 199.819 234.955C203.091 235.721 204.805 237.733 204.218 240.241L204.189 240.366L201.587 239.756L201.616 239.632C201.901 238.417 201.241 237.654 199.232 237.184C196.864 236.629 195.786 237.231 195.243 239.553C194.699 241.874 195.366 242.884 197.656 243.421C200.055 243.982 200.875 243.78 201.248 242.47L197.711 241.642L198.116 239.913L203.989 241.288L202.698 246.803L200.533 246.296L201.058 244.053L200.933 244.024C200.254 245.311 198.923 246.084 196.664 245.555ZM206.178 247.618L203.842 247.071L206.286 236.633L208.622 237.18L207.652 241.324L213.105 242.601L214.075 238.457L216.412 239.004L213.968 249.442L211.631 248.895L212.612 244.704L207.16 243.428L206.178 247.618ZM221.032 251.096L218.695 250.549L220.647 242.214L216.768 241.306L217.26 239.203L227.355 241.567L226.863 243.67L222.984 242.762L221.032 251.096ZM230.449 253.465C227.286 252.725 225.802 251.063 226.371 248.632L226.393 248.539L228.73 249.086L228.664 249.367C228.438 250.332 228.83 250.835 230.948 251.331C232.818 251.769 233.32 251.591 233.484 250.889C233.633 250.251 233.33 249.933 232.299 249.495L229.468 248.388C227.668 247.654 226.781 246.461 227.179 244.763C227.547 243.189 229.211 241.837 232.716 242.658C235.925 243.409 237.074 245.239 236.56 247.436L236.538 247.529L234.186 246.979L234.237 246.76C234.47 245.763 234.055 245.222 231.983 244.737C230.3 244.343 229.71 244.55 229.553 245.22C229.411 245.828 229.702 246.126 230.538 246.486L233.357 247.639C235.607 248.56 236.182 249.894 235.846 251.328C235.448 253.026 233.767 254.242 230.449 253.465Z" fill="black"/>
<path d="M279.586 264.76C276.315 263.994 274.86 262.487 275.396 260.197L275.429 260.057L277.844 260.622L277.811 260.762C277.603 261.65 278.138 262.17 280.117 262.633C281.908 263.053 282.552 262.76 282.818 261.623C283.088 260.47 282.642 259.922 280.866 259.506C279.432 259.17 278.613 259.159 278.112 259.617L277.944 259.561L277.94 259.577L275.758 259L277.751 253.156L286.351 255.17L285.858 257.273L279.331 255.745L278.365 258.394L278.502 258.443C279.018 257.923 280.303 257.418 282.25 257.874C284.821 258.476 285.806 260.022 285.303 262.172C284.774 264.43 282.904 265.537 279.586 264.76ZM290.335 267.113L287.998 266.566L290.442 256.128L295.894 257.405C298.309 257.97 299.546 259.706 298.984 262.105C298.422 264.504 296.54 265.526 294.125 264.96L291.009 264.231L290.335 267.113ZM295.153 259.449L292.286 258.778L291.502 262.128L294.368 262.799C295.661 263.102 296.356 262.87 296.663 261.561C296.962 260.284 296.446 259.752 295.153 259.449ZM300.588 269.514L298.252 268.967L300.696 258.529L303.032 259.076L302.062 263.22L307.515 264.497L308.485 260.353L310.822 260.9L308.378 271.338L306.041 270.79L307.022 266.6L301.57 265.323L300.588 269.514ZM315.816 273.079L313.464 272.529L314.273 269.07L311.281 261.007L314.163 261.682L315.442 265.203L315.986 266.809L316.157 266.849L317.358 265.651L320.067 263.065L322.965 263.743L316.622 269.636L315.816 273.079ZM325.665 275.55C322.502 274.809 321.018 273.147 321.587 270.717L321.609 270.623L323.946 271.171L323.88 271.451C323.654 272.417 324.046 272.919 326.165 273.415C328.034 273.853 328.536 273.675 328.7 272.974C328.85 272.335 328.546 272.018 327.515 271.579L324.685 270.473C322.884 269.739 321.997 268.545 322.395 266.847C322.763 265.274 324.427 263.921 327.933 264.742C331.142 265.494 332.291 267.324 331.776 269.52L331.755 269.614L329.402 269.063L329.453 268.845C329.687 267.848 329.271 267.307 327.199 266.822C325.517 266.428 324.926 266.634 324.769 267.304C324.627 267.912 324.918 268.21 325.754 268.57L328.574 269.723C330.823 270.645 331.398 271.979 331.062 273.412C330.665 275.11 328.983 276.327 325.665 275.55ZM333.632 277.251L331.295 276.704L333.739 266.266L336.076 266.813L333.632 277.251ZM340.162 278.944C336.719 278.138 335.081 275.52 335.844 272.264C336.606 269.008 339.236 267.389 342.679 268.195C345.92 268.954 347.628 271.063 347.008 273.711L346.953 273.945L344.351 273.336L344.406 273.102C344.727 271.731 344.101 270.894 342.201 270.449C339.911 269.913 338.864 270.523 338.321 272.844C337.777 275.165 338.444 276.176 340.734 276.712C342.635 277.157 343.567 276.685 343.888 275.314L343.943 275.08L346.544 275.69L346.49 275.923C345.87 278.572 343.418 279.707 340.162 278.944ZM348.455 280.722L345.838 280.109L352.847 270.74L356.181 271.521L358.332 283.035L355.653 282.407L355.211 279.872L349.992 278.65L348.455 280.722ZM352.902 274.713L351.388 276.758L354.8 277.557L354.351 275.053L354.092 273.283L353.921 273.243L352.902 274.713ZM367.43 285.165L358.877 283.162L361.321 272.725L363.658 273.272L361.707 281.606L367.923 283.062L367.43 285.165ZM373.111 286.495L370.774 285.948L373.218 275.51L375.555 276.057L374.585 280.201L380.037 281.478L381.008 277.334L383.345 277.881L380.901 288.319L378.564 287.772L379.545 283.581L374.092 282.304L373.111 286.495ZM384.07 289.061L381.453 288.448L388.462 279.079L391.795 279.86L393.947 291.374L391.268 290.746L390.826 288.211L385.607 286.989L384.07 289.061ZM388.517 283.053L387.003 285.097L390.415 285.896L389.966 283.392L389.707 281.622L389.535 281.582L388.517 283.053ZM399.799 292.908C396.356 292.102 394.718 289.484 395.481 286.228C396.243 282.972 398.873 281.353 402.316 282.159C405.557 282.918 407.265 285.027 406.645 287.675L406.59 287.909L403.988 287.3L404.043 287.066C404.364 285.695 403.738 284.858 401.838 284.413C399.548 283.877 398.501 284.487 397.958 286.808C397.414 289.129 398.081 290.14 400.371 290.676C402.272 291.121 403.204 290.649 403.525 289.278L403.58 289.045L406.181 289.654L406.127 289.887C405.507 292.536 403.055 293.671 399.799 292.908ZM408.513 294.784L406.176 294.237L408.62 283.8L410.957 284.347L409.987 288.491L412.588 289.1L416.332 285.605L419.136 286.262L414.302 290.553L416.645 296.689L413.841 296.032L412.087 291.382L409.454 290.765L408.513 294.784ZM419.619 297.385L417.282 296.838L419.726 286.4L422.219 286.984L424.801 292.798L425.72 295.33L425.892 295.37L426.275 293.241L427.453 288.209L429.79 288.756L427.346 299.194L424.853 298.611L422.173 292.724L421.308 290.451L421.152 290.415L420.797 292.353L419.619 297.385ZM430.923 300.032L428.586 299.484L431.03 289.047L433.367 289.594L430.923 300.032ZM437.032 301.627C433.839 300.879 432.372 298.3 433.134 295.044C433.896 291.789 436.605 290.188 440.188 291.027C443.459 291.793 445.174 293.805 444.586 296.313L444.557 296.437L441.956 295.828L441.985 295.704C442.269 294.489 441.61 293.726 439.6 293.256C437.232 292.701 436.155 293.303 435.611 295.624C435.068 297.946 435.735 298.956 438.025 299.493C440.424 300.054 441.244 299.852 441.616 298.542L438.08 297.714L438.485 295.985L444.358 297.36L443.066 302.875L440.901 302.368L441.426 300.125L441.302 300.096C440.622 301.383 439.291 302.155 437.032 301.627ZM446.547 303.69L444.21 303.143L446.654 292.705L448.991 293.252L448.021 297.396L453.473 298.673L454.443 294.529L456.78 295.076L454.336 305.514L451.999 304.967L452.981 300.776L447.528 299.499L446.547 303.69ZM461.401 307.168L459.064 306.621L461.015 298.286L457.136 297.378L457.629 295.275L467.724 297.639L467.231 299.742L463.352 298.834L461.401 307.168ZM470.817 309.537C467.654 308.797 466.17 307.135 466.739 304.704L466.761 304.611L469.098 305.158L469.032 305.438C468.806 306.404 469.198 306.907 471.317 307.403C473.186 307.841 473.688 307.662 473.852 306.961C474.002 306.323 473.698 306.005 472.667 305.566L469.837 304.46C468.037 303.726 467.149 302.533 467.547 300.835C467.915 299.261 469.579 297.909 473.085 298.73C476.294 299.481 477.443 301.311 476.929 303.508L476.907 303.601L474.554 303.05L474.605 302.832C474.839 301.835 474.423 301.294 472.351 300.809C470.669 300.415 470.078 300.622 469.921 301.292C469.779 301.899 470.071 302.198 470.907 302.558L473.726 303.711C475.975 304.632 476.55 305.966 476.214 307.4C475.817 309.098 474.135 310.314 470.817 309.537Z" fill="black"/>
<path d="M67.6079 206.929C67.6175 206.717 67.9662 206.632 68.0702 206.817C68.5595 207.684 69.3917 208.958 70.3356 209.537C71.2796 210.115 72.7937 210.281 73.7877 210.323C73.9997 210.333 74.0825 210.682 73.8976 210.786C73.0307 211.275 71.7593 212.107 71.1794 213.051C70.5996 213.995 70.4358 215.509 70.3934 216.503C70.3838 216.715 70.0332 216.798 69.9311 216.613C69.4418 215.746 68.6096 214.475 67.6637 213.895C66.7198 213.315 65.2056 213.151 64.2135 213.109C64.0016 213.099 63.9169 212.749 64.1018 212.647C64.9687 212.157 66.242 211.325 66.8219 210.379C67.3998 209.435 67.5655 207.921 67.6079 206.929Z" fill="black"/>
<path d="M253.608 248.929C253.617 248.717 253.966 248.632 254.07 248.817C254.56 249.684 255.392 250.958 256.336 251.537C257.28 252.115 258.794 252.281 259.788 252.323C260 252.333 260.082 252.682 259.898 252.786C259.031 253.275 257.759 254.107 257.179 255.051C256.6 255.995 256.436 257.509 256.393 258.503C256.384 258.715 256.033 258.798 255.931 258.613C255.442 257.746 254.61 256.475 253.664 255.895C252.72 255.315 251.206 255.151 250.214 255.109C250.002 255.099 249.917 254.749 250.102 254.647C250.969 254.157 252.242 253.325 252.822 252.379C253.4 251.435 253.565 249.921 253.608 248.929Z" fill="black"/>
<path d="M201.608 183.929C201.617 183.717 201.966 183.632 202.07 183.817C202.56 184.684 203.392 185.958 204.336 186.537C205.28 187.115 206.794 187.281 207.788 187.323C208 187.333 208.082 187.682 207.898 187.786C207.031 188.275 205.759 189.107 205.179 190.051C204.6 190.995 204.436 192.509 204.393 193.503C204.384 193.715 204.033 193.798 203.931 193.613C203.442 192.746 202.61 191.475 201.664 190.895C200.72 190.315 199.206 190.151 198.214 190.109C198.002 190.099 197.917 189.749 198.102 189.647C198.969 189.157 200.242 188.325 200.822 187.379C201.4 186.435 201.565 184.921 201.608 183.929Z" fill="black"/>
</svg>
