<svg width="1271" height="456" viewBox="0 0 1271 456" fill="none" xmlns="http://www.w3.org/2000/svg">
<g clip-path="url(#clip0_386_2030)">
<path d="M83.36 33H79.6V19.6H87.42C90.96 19.6 92.82 21.08 92.82 23.7C92.82 25.82 91.76 27.08 89.2 27.4V27.6C90.58 27.96 91.02 28.62 91.52 29.64L93.18 33H88.84L87.24 29.72C86.76 28.72 86.36 28.44 84.9 28.44H83.36V33ZM83.36 22.98V25.64H87.38C88.48 25.64 88.88 25.44 88.88 24.3C88.88 23.24 88.48 22.98 87.38 22.98H83.36ZM107.68 33H95.7797V19.6H107.68V22.98H99.5397V24.58H107.38V27.94H99.5397V29.62H107.68V33ZM117.228 33.2C113.008 33.2 110.548 30.48 110.548 26.3C110.548 22.12 113.428 19.4 118.308 19.4C122.848 19.4 125.548 21.4 125.548 24.72V24.86H121.348V24.72C121.348 23.48 120.588 23 118.208 23C115.328 23 114.548 23.64 114.548 26.3C114.548 28.96 115.288 29.6 118.008 29.6C120.788 29.6 121.588 29.46 121.768 28.44H117.648V25.68H125.568V33H122.068V30.14H121.868C121.508 31.7 120.368 33.2 117.228 33.2ZM132.446 33H128.686V19.6H132.446V33ZM142.147 33.2C138.047 33.2 135.547 31.74 135.547 28.34V28.22H139.307V28.64C139.307 29.54 139.627 29.78 142.147 29.78C144.427 29.78 144.667 29.6 144.667 29C144.667 28.52 144.407 28.32 143.307 28.18L139.107 27.62C136.607 27.28 135.347 25.94 135.347 23.78C135.347 21.64 137.007 19.4 141.847 19.4C146.107 19.4 148.147 21.26 148.147 24.26V24.38H144.387V24.08C144.387 23.12 143.967 22.8 141.447 22.8C139.527 22.8 139.107 23.06 139.107 23.64C139.107 24.06 139.347 24.26 140.067 24.36L144.267 24.98C147.547 25.46 148.427 27.14 148.427 28.86C148.427 31.16 146.667 33.2 142.147 33.2ZM159.519 33H155.759V22.98H151.019V19.6H164.239V22.98H159.519V33ZM179.047 33H167.147V19.6H179.047V22.98H170.907V24.58H178.747V27.94H170.907V29.62H179.047V33ZM185.876 33H182.116V19.6H189.936C193.476 19.6 195.336 21.08 195.336 23.7C195.336 25.82 194.276 27.08 191.716 27.4V27.6C193.096 27.96 193.536 28.62 194.036 29.64L195.696 33H191.356L189.756 29.72C189.276 28.72 188.876 28.44 187.416 28.44H185.876V33ZM185.876 22.98V25.64H189.896C190.996 25.64 191.396 25.44 191.396 24.3C191.396 23.24 190.996 22.98 189.896 22.98H185.876ZM203.175 33H198.295V29.16H203.175V33Z" fill="white"/>
<path d="M218.363 33.2C213.703 33.2 210.963 30.48 210.963 26.3C210.963 22.12 213.703 19.4 218.363 19.4C222.863 19.4 225.563 21.54 225.563 25.12V25.46H221.363V25.12C221.363 23.6 220.643 23 218.423 23C215.702 23 214.963 23.64 214.963 26.3C214.963 28.96 215.702 29.6 218.423 29.6C220.643 29.6 221.363 29 221.363 27.48V27.14H225.563V27.48C225.563 31.06 222.863 33.2 218.363 33.2ZM232.313 33H228.553V19.6H236.373C239.913 19.6 241.773 21.08 241.773 23.7C241.773 25.82 240.713 27.08 238.153 27.4V27.6C239.533 27.96 239.973 28.62 240.473 29.64L242.133 33H237.793L236.193 29.72C235.713 28.72 235.313 28.44 233.853 28.44H232.313V33ZM232.313 22.98V25.64H236.333C237.433 25.64 237.833 25.44 237.833 24.3C237.833 23.24 237.433 22.98 236.333 22.98H232.313ZM256.633 33H244.733V19.6H256.633V22.98H248.493V24.58H256.333V27.94H248.493V29.62H256.633V33ZM263.122 33H258.902L264.682 19.6H270.062L275.862 33H271.542L270.522 30.52H264.162L263.122 33ZM266.362 25.26L265.582 27.14H269.142L268.362 25.26L267.482 23H267.222L266.362 25.26ZM286.464 33H282.704V22.98H277.964V19.6H291.184V22.98H286.464V33ZM305.992 33H294.092V19.6H305.992V22.98H297.852V24.58H305.692V27.94H297.852V29.62H305.992V33ZM322.054 33H318.294V22.98H313.554V19.6H326.774V22.98H322.054V33ZM333.442 33H329.682V19.6H333.442V24.58H339.682V19.6H343.442V33H339.682V27.96H333.442V33ZM358.543 33H346.643V19.6H358.543V22.98H350.403V24.58H358.243V27.94H350.403V29.62H358.543V33ZM370.165 33H366.405V19.6H374.225C377.765 19.6 379.625 21.08 379.625 23.7C379.625 25.82 378.565 27.08 376.005 27.4V27.6C377.385 27.96 377.825 28.62 378.325 29.64L379.985 33H375.645L374.045 29.72C373.565 28.72 373.165 28.44 371.705 28.44H370.165V33ZM370.165 22.98V25.64H374.185C375.285 25.64 375.685 25.44 375.685 24.3C375.685 23.24 375.285 22.98 374.185 22.98H370.165ZM394.484 33H382.584V19.6H394.484V22.98H386.344V24.58H394.184V27.94H386.344V29.62H394.484V33ZM401.313 33H397.553V19.6H404.973C408.153 19.6 410.153 21.42 410.153 24.6C410.153 27.78 408.153 29.62 404.973 29.62H401.313V33ZM404.553 22.98H401.313V26.24H404.553C405.873 26.24 406.413 25.98 406.413 24.6C406.413 23.24 405.873 22.98 404.553 22.98ZM420.172 33.2C415.512 33.2 412.752 30.48 412.752 26.3C412.752 22.12 415.512 19.4 420.172 19.4C424.952 19.4 427.672 22.12 427.672 26.3C427.672 30.48 424.952 33.2 420.172 33.2ZM420.172 29.6C422.892 29.6 423.672 28.96 423.672 26.3C423.672 23.64 422.892 23 420.172 23C417.452 23 416.752 23.64 416.752 26.3C416.752 28.96 417.452 29.6 420.172 29.6ZM438.887 33H434.667L440.447 19.6H445.827L451.627 33H447.307L446.287 30.52H439.927L438.887 33ZM442.127 25.26L441.347 27.14H444.907L444.127 25.26L443.247 23H442.987L442.127 25.26ZM457.79 33H454.03V19.6H458.03L461.75 24.62L463.71 27.7H463.97L463.79 24.78V19.6H467.55V33H463.55L459.59 27.84L457.89 25.2H457.63L457.79 27.76V33ZM477.756 33H470.976V19.6H477.756C482.176 19.6 484.976 22.06 484.976 26.3C484.976 30.54 482.176 33 477.756 33ZM477.756 22.98H474.736V29.62H477.756C480.136 29.62 480.956 29.32 480.956 26.3C480.956 23.28 480.136 22.98 477.756 22.98ZM496.524 33H492.764V19.6H504.744V22.98H496.524V24.98H504.444V28.34H496.524V33ZM514.953 33.2C510.293 33.2 507.533 30.48 507.533 26.3C507.533 22.12 510.293 19.4 514.953 19.4C519.733 19.4 522.453 22.12 522.453 26.3C522.453 30.48 519.733 33.2 514.953 33.2ZM514.953 29.6C517.673 29.6 518.453 28.96 518.453 26.3C518.453 23.64 517.673 23 514.953 23C512.233 23 511.533 23.64 511.533 26.3C511.533 28.96 512.233 29.6 514.953 29.6ZM529.215 33H525.455V19.6H533.275C536.815 19.6 538.675 21.08 538.675 23.7C538.675 25.82 537.615 27.08 535.055 27.4V27.6C536.435 27.96 536.875 28.62 537.375 29.64L539.035 33H534.695L533.095 29.72C532.615 28.72 532.215 28.44 530.755 28.44H529.215V33ZM529.215 22.98V25.64H533.235C534.335 25.64 534.735 25.44 534.735 24.3C534.735 23.24 534.335 22.98 533.235 22.98H529.215ZM545.395 33H541.635V19.6H546.735L549.195 25.16L550.515 28.62H550.775L552.035 25.16L554.375 19.6H559.475V33H555.715V27.46L555.855 25.22H555.595L554.835 27.46L552.835 32.2H548.275L546.275 27.46L545.515 25.22H545.255L545.395 27.46V33ZM576.351 33H572.591V28.74L566.571 19.6H571.231L573.251 22.78L574.391 24.66H574.651L575.791 22.78L577.811 19.6H582.491L576.351 28.76V33ZM592.004 33.2C587.344 33.2 584.584 30.48 584.584 26.3C584.584 22.12 587.344 19.4 592.004 19.4C596.784 19.4 599.504 22.12 599.504 26.3C599.504 30.48 596.784 33.2 592.004 33.2ZM592.004 29.6C594.724 29.6 595.504 28.96 595.504 26.3C595.504 23.64 594.724 23 592.004 23C589.284 23 588.584 23.64 588.584 26.3C588.584 28.96 589.284 29.6 592.004 29.6ZM609.266 33.2C604.586 33.2 602.426 30.94 602.426 27.38V19.6H606.186V27.08C606.186 28.98 606.726 29.56 609.266 29.56C611.806 29.56 612.346 28.98 612.346 27.08V19.6H616.106V27.38C616.106 30.94 613.946 33.2 609.266 33.2ZM622.993 33H619.233V19.6H627.053C630.593 19.6 632.453 21.08 632.453 23.7C632.453 25.82 631.393 27.08 628.833 27.4V27.6C630.213 27.96 630.653 28.62 631.153 29.64L632.813 33H628.473L626.873 29.72C626.393 28.72 625.993 28.44 624.533 28.44H622.993V33ZM622.993 22.98V25.64H627.013C628.113 25.64 628.513 25.44 628.513 24.3C628.513 23.24 628.113 22.98 627.013 22.98H622.993ZM648.405 33H644.645V22.98H639.905V19.6H653.125V22.98H648.405V33ZM667.934 33H656.034V19.6H667.934V22.98H659.794V24.58H667.634V27.94H659.794V29.62H667.934V33ZM674.422 33H670.202L675.982 19.6H681.362L687.162 33H682.842L681.822 30.52H675.462L674.422 33ZM677.662 25.26L676.882 27.14H680.442L679.662 25.26L678.782 23H678.522L677.662 25.26ZM693.325 33H689.565V19.6H694.665L697.125 25.16L698.445 28.62H698.705L699.965 25.16L702.305 19.6H707.405V33H703.645V27.46L703.785 25.22H703.525L702.765 27.46L700.765 32.2H696.205L694.205 27.46L693.445 25.22H693.185L693.325 27.46V33Z" fill="white" fill-opacity="0.5"/>
<line x1="260.994" y1="99.5" x2="966.994" y2="96.5085" stroke="white" stroke-width="3" stroke-dasharray="6 6"/>
<rect x="254" y="122" width="48" height="48" rx="24" transform="rotate(-90 254 122)" fill="white"/>
<rect x="254" y="122" width="48" height="48" rx="24" transform="rotate(-90 254 122)" stroke="#1D2939" stroke-width="2" stroke-linecap="round" stroke-linejoin="round" stroke-dasharray="7 7"/>
<circle cx="278" cy="98" r="18" transform="rotate(-90 278 98)" fill="#CBE52A"/>
<rect x="596.5" y="122" width="48" height="48" rx="24" transform="rotate(-90 596.5 122)" fill="white"/>
<rect x="596.5" y="122" width="48" height="48" rx="24" transform="rotate(-90 596.5 122)" stroke="#1D2939" stroke-width="2" stroke-linecap="round" stroke-linejoin="round" stroke-dasharray="7 7"/>
<circle cx="620.5" cy="98" r="18" transform="rotate(-90 620.5 98)" fill="#1D2939"/>
<rect x="939" y="122" width="48" height="48" rx="24" transform="rotate(-90 939 122)" fill="white"/>
<rect x="939" y="122" width="48" height="48" rx="24" transform="rotate(-90 939 122)" stroke="#1D2939" stroke-width="2" stroke-linecap="round" stroke-linejoin="round" stroke-dasharray="7 7"/>
<circle cx="963" cy="98" r="18" transform="rotate(-90 963 98)" fill="#CBE52A"/>
<path d="M206.66 150.2C202.24 150.2 199.5 147.48 199.5 143.3C199.5 139.12 202.24 136.4 206.66 136.4C210.82 136.4 213.5 138.48 213.5 141.88V142.18H210.16V141.88C210.16 140.12 209.16 139.28 206.72 139.28C203.78 139.28 202.68 140.32 202.68 143.3C202.68 146.28 203.78 147.32 206.72 147.32C209.16 147.32 210.16 146.48 210.16 144.72V144.42H213.5V144.72C213.5 148.12 210.84 150.2 206.66 150.2ZM219.8 150H216.8V136.6H224.2C227.5 136.6 229.38 138.06 229.38 140.62C229.38 142.8 228.12 144.1 225.6 144.34V144.5C226.8 144.82 227.26 145.46 227.76 146.4L229.7 150H226.22L224.38 146.52C223.84 145.48 223.34 145.14 221.78 145.14H219.8V150ZM219.8 139.3V142.88H224.18C225.6 142.88 226.24 142.48 226.24 141.08C226.24 139.76 225.6 139.3 224.18 139.3H219.8ZM243.988 150H232.648V136.6H243.988V139.3H235.648V141.92H243.688V144.6H235.648V147.3H243.988V150ZM249.803 150H246.443L252.303 136.6H256.583L262.483 150H259.043L257.783 147.04H251.083L249.803 150ZM253.503 141.42L252.243 144.34H256.623L255.363 141.42L254.543 139.34H254.323L253.503 141.42ZM272.643 150H269.643V139.3H264.663V136.6H277.623V139.3H272.643V150ZM292.038 150H280.698V136.6H292.038V139.3H283.698V141.92H291.738V144.6H283.698V147.3H292.038V150ZM302.94 150H299.58L305.44 136.6H309.72L315.62 150H312.18L310.92 147.04H304.22L302.94 150ZM306.64 141.42L305.38 144.34H309.76L308.5 141.42L307.68 139.34H307.46L306.64 141.42ZM326.405 150H323.405V136.6H330.805C334.105 136.6 335.985 138.06 335.985 140.62C335.985 142.8 334.725 144.1 332.205 144.34V144.5C333.405 144.82 333.865 145.46 334.365 146.4L336.305 150H332.825L330.985 146.52C330.445 145.48 329.945 145.14 328.385 145.14H326.405V150ZM326.405 139.3V142.88H330.785C332.205 142.88 332.845 142.48 332.845 141.08C332.845 139.76 332.205 139.3 330.785 139.3H326.405ZM350.593 150H339.253V136.6H350.593V139.3H342.253V141.92H350.293V144.6H342.253V147.3H350.593V150ZM356.948 150H353.948V136.6H360.948C364.048 136.6 366.048 138.36 366.048 141.44C366.048 144.52 364.048 146.3 360.948 146.3H356.948V150ZM360.628 139.3H356.948V143.6H360.628C362.288 143.6 363.068 143.12 363.068 141.44C363.068 139.8 362.288 139.3 360.628 139.3ZM376.013 150.2C371.573 150.2 368.813 147.48 368.813 143.3C368.813 139.12 371.573 136.4 376.013 136.4C380.553 136.4 383.293 139.12 383.293 143.3C383.293 147.48 380.553 150.2 376.013 150.2ZM376.013 147.32C378.953 147.32 380.093 146.28 380.093 143.3C380.093 140.32 378.953 139.28 376.013 139.28C373.073 139.28 371.993 140.32 371.993 143.3C371.993 146.28 373.073 147.32 376.013 147.32Z" fill="white" fill-opacity="0.85"/>
<path d="M220.43 183.24C215.198 183.24 212.534 180.6 212.534 176.28V166.92H216.134V176.016C216.134 178.752 217.166 179.736 220.43 179.736C223.718 179.736 224.726 178.752 224.726 176.016V166.92H228.326V176.28C228.326 180.6 225.686 183.24 220.43 183.24ZM235.73 183.24C231.674 183.24 229.442 181.656 229.442 178.872V178.8H233.042V179.016C233.042 180.096 233.714 180.384 235.754 180.384C237.674 180.384 238.13 180.072 238.13 179.352C238.13 178.68 237.77 178.488 236.354 178.296L232.97 177.888C230.57 177.624 229.226 176.544 229.226 174.528C229.226 172.416 231.026 170.736 235.154 170.736C239.09 170.736 241.322 172.224 241.322 175.152V175.224H237.722V175.08C237.722 174.096 237.242 173.592 235.034 173.592C233.234 173.592 232.778 173.904 232.778 174.672C232.778 175.296 233.114 175.56 234.698 175.752L237.266 176.064C240.482 176.424 241.682 177.504 241.682 179.496C241.682 181.752 239.45 183.24 235.73 183.24ZM246.255 169.752H242.655V166.92H246.255V169.752ZM246.255 183H242.655V170.976H246.255V183ZM251.259 183H247.659V170.976H250.995V174.672H251.211C251.523 172.656 252.963 170.736 256.107 170.736C259.395 170.736 260.955 172.848 260.955 175.512V183H257.355V176.712C257.355 174.792 256.563 173.976 254.355 173.976C252.075 173.976 251.259 174.888 251.259 176.928V183ZM267.576 181.776C264 181.776 261.936 179.64 261.936 176.256C261.936 172.896 264.12 170.736 267.72 170.736C270.168 170.736 271.92 171.792 272.304 173.88H272.496V170.976H275.856V181.248C275.856 185.448 273.312 187.32 269.016 187.32C265.128 187.32 262.68 185.592 262.68 182.568H266.28C266.28 183.912 266.808 184.32 269.256 184.32C271.56 184.32 272.256 183.84 272.256 181.488V178.776H272.064C271.68 180.552 270.264 181.776 267.576 181.776ZM265.56 176.256C265.56 178.032 266.568 178.68 268.824 178.68C271.128 178.68 272.256 178.032 272.256 176.376V176.112C272.256 174.48 271.104 173.856 268.872 173.856C266.568 173.856 265.56 174.48 265.56 176.256ZM288.98 183H286.004C283.196 183 281.492 181.68 281.492 178.656V173.952H279.596V170.976H281.492V168.648H285.092V170.976H288.98V173.952H285.092V178.248C285.092 179.448 285.548 179.76 286.82 179.76H288.98V183ZM293.448 183H289.848V166.92H293.448V174.648H293.64C294.024 172.608 295.44 170.736 298.512 170.736C301.752 170.736 303.336 172.848 303.336 175.632V183H299.736V176.712C299.736 174.696 298.872 173.976 296.616 173.976C294.192 173.976 293.448 174.96 293.448 176.976V183ZM311.057 183.24C307.049 183.24 304.313 181.272 304.313 177C304.313 173.16 307.025 170.736 310.985 170.736C314.921 170.736 317.537 172.8 317.537 176.568C317.537 177 317.489 177.312 317.441 177.72H307.649C307.745 179.568 308.609 180.36 310.937 180.36C313.073 180.36 313.817 179.808 313.817 178.776V178.536H317.417V178.8C317.417 181.416 314.873 183.24 311.057 183.24ZM310.913 173.544C308.777 173.544 307.865 174.264 307.697 175.824H314.081C313.985 174.24 313.025 173.544 310.913 173.544ZM327.087 181.776C323.511 181.776 321.447 179.64 321.447 176.256C321.447 172.896 323.631 170.736 327.231 170.736C329.679 170.736 331.431 171.792 331.815 173.88H332.007V170.976H335.367V181.248C335.367 185.448 332.823 187.32 328.527 187.32C324.639 187.32 322.191 185.592 322.191 182.568H325.791C325.791 183.912 326.319 184.32 328.767 184.32C331.071 184.32 331.767 183.84 331.767 181.488V178.776H331.575C331.191 180.552 329.775 181.776 327.087 181.776ZM325.071 176.256C325.071 178.032 326.079 178.68 328.335 178.68C330.639 178.68 331.767 178.032 331.767 176.376V176.112C331.767 174.48 330.615 173.856 328.383 173.856C326.079 173.856 325.071 174.48 325.071 176.256ZM340.396 169.752H336.796V166.92H340.396V169.752ZM340.396 183H336.796V170.976H340.396V183ZM350.752 183H346.312L340.84 170.976H344.848L348.448 179.496H348.688L352.312 170.976H356.248L350.752 183ZM363.102 183.24C359.094 183.24 356.358 181.272 356.358 177C356.358 173.16 359.07 170.736 363.03 170.736C366.966 170.736 369.582 172.8 369.582 176.568C369.582 177 369.534 177.312 369.486 177.72H359.694C359.79 179.568 360.654 180.36 362.982 180.36C365.118 180.36 365.862 179.808 365.862 178.776V178.536H369.462V178.8C369.462 181.416 366.918 183.24 363.102 183.24ZM362.958 173.544C360.822 173.544 359.91 174.264 359.742 175.824H366.126C366.03 174.24 365.07 173.544 362.958 173.544ZM374.229 183H370.629V170.976H373.965V174.672H374.181C374.493 172.656 375.933 170.736 379.077 170.736C382.365 170.736 383.925 172.848 383.925 175.512V183H380.325V176.712C380.325 174.792 379.533 173.976 377.325 173.976C375.045 173.976 374.229 174.888 374.229 176.928V183ZM255.475 209H252.499C249.691 209 247.987 207.68 247.987 204.656V199.952H246.091V196.976H247.987V194.648H251.587V196.976H255.475V199.952H251.587V204.248C251.587 205.448 252.043 205.76 253.315 205.76H255.475V209ZM262.728 209.24C258.72 209.24 255.984 207.272 255.984 203C255.984 199.16 258.696 196.736 262.656 196.736C266.592 196.736 269.208 198.8 269.208 202.568C269.208 203 269.16 203.312 269.112 203.72H259.32C259.416 205.568 260.28 206.36 262.608 206.36C264.744 206.36 265.488 205.808 265.488 204.776V204.536H269.088V204.8C269.088 207.416 266.544 209.24 262.728 209.24ZM262.584 199.544C260.448 199.544 259.536 200.264 259.368 201.824H265.752C265.656 200.24 264.696 199.544 262.584 199.544ZM273.854 209H270.254V196.976H273.59V200.624H273.782C274.07 198.608 275.27 196.736 278.294 196.736C281.078 196.736 282.494 198.44 282.758 200.672H282.974C283.262 198.632 284.486 196.736 287.582 196.736C290.678 196.736 292.19 198.776 292.19 201.512V209H288.59V202.712C288.59 200.72 287.894 199.976 285.83 199.976C283.646 199.976 283.022 200.84 283.022 202.928V209H279.422V202.712C279.422 200.72 278.726 199.976 276.662 199.976C274.478 199.976 273.854 200.84 273.854 202.928V209ZM297.14 213.08H293.54V196.976H296.876V200.264H297.116C297.548 197.96 299.084 196.736 301.916 196.736C305.612 196.736 307.676 199.184 307.676 203C307.676 206.816 305.66 209.24 302.036 209.24C299.252 209.24 297.716 207.872 297.308 205.76H297.14V213.08ZM297.14 203.168C297.14 205.232 298.388 205.952 300.644 205.952C302.948 205.952 304.028 205.184 304.028 203C304.028 200.792 302.948 200.048 300.668 200.048C298.34 200.048 297.14 200.84 297.14 202.976V203.168ZM312.293 209H308.693V192.92H312.293V209ZM317.393 209.24C314.801 209.24 313.241 208.04 313.241 206.024C313.241 204.248 314.561 203.144 317.129 202.88L322.289 202.352V201.896C322.289 200.336 321.593 199.904 319.673 199.904C317.849 199.904 317.105 200.384 317.105 201.752V201.848H313.481V201.776C313.481 198.8 315.977 196.736 319.937 196.736C323.945 196.736 325.841 198.8 325.841 201.944V209H322.481V206.24H322.289C321.737 208.112 320.057 209.24 317.393 209.24ZM316.865 205.784C316.865 206.432 317.369 206.696 318.425 206.696C320.873 206.696 322.193 206.12 322.289 204.416L318.113 204.896C317.249 204.968 316.865 205.208 316.865 205.784ZM335.658 209H332.682C329.874 209 328.17 207.68 328.17 204.656V199.952H326.274V196.976H328.17V194.648H331.77V196.976H335.658V199.952H331.77V204.248C331.77 205.448 332.226 205.76 333.498 205.76H335.658V209ZM342.91 209.24C338.902 209.24 336.166 207.272 336.166 203C336.166 199.16 338.878 196.736 342.838 196.736C346.774 196.736 349.39 198.8 349.39 202.568C349.39 203 349.342 203.312 349.294 203.72H339.502C339.598 205.568 340.462 206.36 342.79 206.36C344.926 206.36 345.67 205.808 345.67 204.776V204.536H349.27V204.8C349.27 207.416 346.726 209.24 342.91 209.24ZM342.766 199.544C340.63 199.544 339.718 200.264 339.55 201.824H345.934C345.838 200.24 344.878 199.544 342.766 199.544Z" fill="white"/>
<path d="M555.8 152H552.8V138.6H564.14V141.3H555.8V144.32H563.84V147H555.8V152ZM574.317 152.2C569.877 152.2 567.117 149.48 567.117 145.3C567.117 141.12 569.877 138.4 574.317 138.4C578.857 138.4 581.597 141.12 581.597 145.3C581.597 149.48 578.857 152.2 574.317 152.2ZM574.317 149.32C577.257 149.32 578.397 148.28 578.397 145.3C578.397 142.32 577.257 141.28 574.317 141.28C571.377 141.28 570.297 142.32 570.297 145.3C570.297 148.28 571.377 149.32 574.317 149.32ZM587.905 152H584.905V138.6H592.305C595.605 138.6 597.485 140.06 597.485 142.62C597.485 144.8 596.225 146.1 593.705 146.34V146.5C594.905 146.82 595.365 147.46 595.865 148.4L597.805 152H594.325L592.485 148.52C591.945 147.48 591.445 147.14 589.885 147.14H587.905V152ZM587.905 141.3V144.88H592.285C593.705 144.88 594.345 144.48 594.345 143.08C594.345 141.76 593.705 141.3 592.285 141.3H587.905ZM603.753 152H600.753V138.6H604.813L607.953 145.2L609.213 148.34H609.433L610.653 145.2L613.693 138.6H617.773V152H614.773V145.2L614.873 143.1H614.653L613.873 145.2L611.073 151.2H607.433L604.633 145.2L603.853 143.1H603.633L603.753 145.2V152ZM628.893 152H625.533L631.393 138.6H635.673L641.573 152H638.133L636.873 149.04H630.173L628.893 152ZM632.593 143.42L631.333 146.34H635.713L634.453 143.42L633.633 141.34H633.413L632.593 143.42ZM656.819 152H653.819V141.3H648.839V138.6H661.799V141.3H656.819V152ZM676.214 152H664.874V138.6H676.214V141.3H667.874V143.92H675.914V146.6H667.874V149.3H676.214V152ZM682.03 152H678.67L684.53 138.6H688.81L694.71 152H691.27L690.01 149.04H683.31L682.03 152ZM685.73 143.42L684.47 146.34H688.85L687.59 143.42L686.77 141.34H686.55L685.73 143.42ZM700.409 152H697.409V138.6H701.469L704.609 145.2L705.869 148.34H706.089L707.309 145.2L710.349 138.6H714.429V152H711.429V145.2L711.529 143.1H711.309L710.529 145.2L707.729 151.2H704.089L701.289 145.2L700.509 143.1H700.289L700.409 145.2V152Z" fill="white" fill-opacity="0.85"/>
<path d="M543.932 184.24C538.604 184.24 535.292 180.976 535.292 175.96C535.292 170.944 538.604 167.68 543.932 167.68C549.38 167.68 552.668 170.944 552.668 175.96C552.668 180.976 549.38 184.24 543.932 184.24ZM543.932 180.784C547.46 180.784 548.828 179.536 548.828 175.96C548.828 172.384 547.46 171.136 543.932 171.136C540.404 171.136 539.108 172.384 539.108 175.96C539.108 179.536 540.404 180.784 543.932 180.784ZM558.318 184H554.718V174.952H553.014V171.976H554.79C555.174 169.552 557.286 167.92 560.982 167.92H562.038V170.536H560.406C558.822 170.536 558.078 170.8 558.174 171.976H562.038V174.952H558.318V184ZM579.842 184H565.562V181.696C565.562 178.864 566.786 177.4 570.17 176.272L574.298 174.928C575.738 174.424 576.266 173.944 576.266 172.888C576.266 171.664 575.594 170.968 572.954 170.968C570.002 170.968 569.114 171.856 569.114 173.632V173.944H565.586V173.632C565.586 170.512 567.722 167.68 573.074 167.68C577.922 167.68 579.89 169.888 579.89 172.936C579.89 175.792 578.018 177.208 575.162 178L571.658 178.96C570.098 179.44 569.354 179.896 569.354 181.168L573.554 180.76H579.842V184ZM589.647 178.456H580.695V175.36H589.647V178.456ZM604.038 184H600.438V180.928H590.238V178.48L599.862 167.92H604.038V177.688H606.486V180.928H604.038V184ZM595.254 177.688H600.438V172.072H600.174L595.254 177.424V177.688ZM614.126 184H610.526V171.976H613.862V175.624H614.054C614.342 173.608 615.542 171.736 618.566 171.736C621.35 171.736 622.766 173.44 623.03 175.672H623.246C623.534 173.632 624.758 171.736 627.854 171.736C630.95 171.736 632.462 173.776 632.462 176.512V184H628.862V177.712C628.862 175.72 628.166 174.976 626.102 174.976C623.918 174.976 623.294 175.84 623.294 177.928V184H619.694V177.712C619.694 175.72 618.998 174.976 616.934 174.976C614.75 174.976 614.126 175.84 614.126 177.928V184ZM640.196 184.24C636.188 184.24 633.452 182.272 633.452 178C633.452 174.16 636.164 171.736 640.124 171.736C644.06 171.736 646.676 173.8 646.676 177.568C646.676 178 646.628 178.312 646.58 178.72H636.788C636.884 180.568 637.748 181.36 640.076 181.36C642.212 181.36 642.956 180.808 642.956 179.776V179.536H646.556V179.8C646.556 182.416 644.012 184.24 640.196 184.24ZM640.052 174.544C637.916 174.544 637.004 175.264 636.836 176.824H643.22C643.124 175.24 642.164 174.544 640.052 174.544ZM651.323 184H647.723V171.976H651.059V175.624H651.251C651.539 173.608 652.739 171.736 655.763 171.736C658.547 171.736 659.963 173.44 660.227 175.672H660.443C660.731 173.632 661.955 171.736 665.051 171.736C668.147 171.736 669.659 173.776 669.659 176.512V184H666.059V177.712C666.059 175.72 665.363 174.976 663.299 174.976C661.115 174.976 660.491 175.84 660.491 177.928V184H656.891V177.712C656.891 175.72 656.195 174.976 654.131 174.976C651.947 174.976 651.323 175.84 651.323 177.928V184ZM674.344 184H671.008V167.92H674.608V175.168H674.8C675.208 173.152 676.672 171.736 679.528 171.736C683.128 171.736 685.144 174.16 685.144 178C685.144 181.792 683.104 184.24 679.36 184.24C676.576 184.24 674.992 183.04 674.56 180.664H674.344V184ZM674.608 178.072C674.608 180.16 675.832 180.952 678.112 180.952C680.44 180.952 681.496 180.184 681.496 178C681.496 175.792 680.44 175.024 678.136 175.024C675.808 175.024 674.608 175.792 674.608 177.88V178.072ZM692.545 184.24C688.537 184.24 685.801 182.272 685.801 178C685.801 174.16 688.513 171.736 692.473 171.736C696.409 171.736 699.025 173.8 699.025 177.568C699.025 178 698.977 178.312 698.929 178.72H689.137C689.233 180.568 690.097 181.36 692.425 181.36C694.561 181.36 695.305 180.808 695.305 179.776V179.536H698.905V179.8C698.905 182.416 696.361 184.24 692.545 184.24ZM692.401 174.544C690.265 174.544 689.353 175.264 689.185 176.824H695.569C695.473 175.24 694.513 174.544 692.401 174.544ZM703.672 184H700.072V171.976H703.408V175.168H703.624C703.96 173.224 705.232 171.736 707.656 171.736C710.344 171.736 711.448 173.584 711.448 175.936V177.928H707.848V176.68C707.848 175.36 707.32 174.784 705.856 174.784C704.248 174.784 703.672 175.528 703.672 177.04V184ZM718.343 184.24C714.287 184.24 712.055 182.656 712.055 179.872V179.8H715.655V180.016C715.655 181.096 716.327 181.384 718.367 181.384C720.287 181.384 720.743 181.072 720.743 180.352C720.743 179.68 720.383 179.488 718.967 179.296L715.583 178.888C713.183 178.624 711.839 177.544 711.839 175.528C711.839 173.416 713.639 171.736 717.767 171.736C721.703 171.736 723.935 173.224 723.935 176.152V176.224H720.335V176.08C720.335 175.096 719.855 174.592 717.647 174.592C715.847 174.592 715.391 174.904 715.391 175.672C715.391 176.296 715.727 176.56 717.311 176.752L719.879 177.064C723.095 177.424 724.295 178.504 724.295 180.496C724.295 182.752 722.063 184.24 718.343 184.24ZM517.419 196.752H513.819V193.92H517.419V196.752ZM517.419 210H513.819V197.976H517.419V210ZM522.423 210H518.823V197.976H522.159V201.672H522.375C522.687 199.656 524.127 197.736 527.271 197.736C530.559 197.736 532.119 199.848 532.119 202.512V210H528.519V203.712C528.519 201.792 527.727 200.976 525.519 200.976C523.239 200.976 522.423 201.888 522.423 203.928V210ZM539.869 210.24C535.741 210.24 533.101 207.792 533.101 204C533.101 200.16 535.741 197.736 539.869 197.736C543.733 197.736 546.373 199.8 546.373 202.92V203.256H542.797V203.064C542.797 201.528 541.669 200.976 539.797 200.976C537.661 200.976 536.677 201.768 536.677 204C536.677 206.208 537.661 207 539.797 207C541.669 207 542.797 206.448 542.797 204.912V204.72H546.373V205.056C546.373 208.152 543.733 210.24 539.869 210.24ZM551.042 210H547.442V193.92H551.042V210ZM557.414 210.24C554.03 210.24 552.422 208.152 552.422 205.464V197.976H556.022V204.264C556.022 206.208 556.838 207.024 559.118 207.024C561.47 207.024 562.31 206.112 562.31 204.072V197.976H565.91V210H562.55V206.328H562.358C562.046 208.344 560.582 210.24 557.414 210.24ZM572.647 210.24C568.903 210.24 566.839 207.792 566.839 204C566.839 200.16 568.879 197.736 572.455 197.736C575.311 197.736 576.775 199.152 577.183 201.168H577.399V193.92H580.999V210H577.639V206.664H577.447C576.991 209.04 575.407 210.24 572.647 210.24ZM570.487 204C570.487 206.184 571.567 206.952 573.871 206.952C576.151 206.952 577.399 206.16 577.399 204.072V203.88C577.399 201.792 576.175 201.024 573.871 201.024C571.567 201.024 570.487 201.792 570.487 204ZM586.023 196.752H582.423V193.92H586.023V196.752ZM586.023 210H582.423V197.976H586.023V210ZM591.028 210H587.428V197.976H590.764V201.672H590.98C591.292 199.656 592.732 197.736 595.876 197.736C599.164 197.736 600.724 199.848 600.724 202.512V210H597.124V203.712C597.124 201.792 596.332 200.976 594.124 200.976C591.844 200.976 591.028 201.888 591.028 203.928V210ZM607.345 208.776C603.769 208.776 601.705 206.64 601.705 203.256C601.705 199.896 603.889 197.736 607.489 197.736C609.937 197.736 611.689 198.792 612.073 200.88H612.265V197.976H615.625V208.248C615.625 212.448 613.081 214.32 608.785 214.32C604.897 214.32 602.449 212.592 602.449 209.568H606.049C606.049 210.912 606.577 211.32 609.025 211.32C611.329 211.32 612.025 210.84 612.025 208.488V205.776H611.833C611.449 207.552 610.033 208.776 607.345 208.776ZM605.329 203.256C605.329 205.032 606.337 205.68 608.593 205.68C610.897 205.68 612.025 205.032 612.025 203.376V203.112C612.025 201.48 610.873 200.856 608.641 200.856C606.337 200.856 605.329 201.48 605.329 203.256ZM629.229 210H625.629V197.16H619.653V193.92H635.205V197.16H629.229V210ZM642.4 210.24C638.392 210.24 635.656 208.272 635.656 204C635.656 200.16 638.368 197.736 642.328 197.736C646.264 197.736 648.88 199.8 648.88 203.568C648.88 204 648.832 204.312 648.784 204.72H638.992C639.088 206.568 639.952 207.36 642.28 207.36C644.416 207.36 645.16 206.808 645.16 205.776V205.536H648.76V205.8C648.76 208.416 646.216 210.24 642.4 210.24ZM642.256 200.544C640.12 200.544 639.208 201.264 639.04 202.824H645.424C645.328 201.24 644.368 200.544 642.256 200.544ZM653.622 210.24C651.03 210.24 649.47 209.04 649.47 207.024C649.47 205.248 650.79 204.144 653.358 203.88L658.518 203.352V202.896C658.518 201.336 657.822 200.904 655.902 200.904C654.078 200.904 653.334 201.384 653.334 202.752V202.848H649.71V202.776C649.71 199.8 652.206 197.736 656.166 197.736C660.174 197.736 662.07 199.8 662.07 202.944V210H658.71V207.24H658.518C657.966 209.112 656.286 210.24 653.622 210.24ZM653.094 206.784C653.094 207.432 653.598 207.696 654.654 207.696C657.102 207.696 658.422 207.12 658.518 205.416L654.342 205.896C653.478 205.968 653.094 206.208 653.094 206.784ZM667.015 210H663.415V197.976H666.751V201.624H666.943C667.231 199.608 668.431 197.736 671.455 197.736C674.239 197.736 675.655 199.44 675.919 201.672H676.135C676.423 199.632 677.647 197.736 680.743 197.736C683.839 197.736 685.351 199.776 685.351 202.512V210H681.751V203.712C681.751 201.72 681.055 200.976 678.991 200.976C676.807 200.976 676.183 201.84 676.183 203.928V210H672.583V203.712C672.583 201.72 671.887 200.976 669.823 200.976C667.639 200.976 667.015 201.84 667.015 203.928V210ZM703.1 210H689.924V193.92H693.524V206.76H703.1V210ZM710.453 210.24C706.445 210.24 703.709 208.272 703.709 204C703.709 200.16 706.421 197.736 710.381 197.736C714.317 197.736 716.933 199.8 716.933 203.568C716.933 204 716.885 204.312 716.837 204.72H707.045C707.141 206.568 708.005 207.36 710.333 207.36C712.469 207.36 713.213 206.808 713.213 205.776V205.536H716.813V205.8C716.813 208.416 714.269 210.24 710.453 210.24ZM710.309 200.544C708.173 200.544 707.261 201.264 707.093 202.824H713.477C713.381 201.24 712.421 200.544 710.309 200.544ZM721.675 210.24C719.083 210.24 717.523 209.04 717.523 207.024C717.523 205.248 718.843 204.144 721.411 203.88L726.571 203.352V202.896C726.571 201.336 725.875 200.904 723.955 200.904C722.131 200.904 721.387 201.384 721.387 202.752V202.848H717.763V202.776C717.763 199.8 720.259 197.736 724.219 197.736C728.227 197.736 730.123 199.8 730.123 202.944V210H726.763V207.24H726.571C726.019 209.112 724.339 210.24 721.675 210.24ZM721.147 206.784C721.147 207.432 721.651 207.696 722.707 207.696C725.155 207.696 726.475 207.12 726.571 205.416L722.395 205.896C721.531 205.968 721.147 206.208 721.147 206.784ZM736.844 210.24C733.1 210.24 731.036 207.792 731.036 204C731.036 200.16 733.076 197.736 736.652 197.736C739.508 197.736 740.972 199.152 741.38 201.168H741.596V193.92H745.196V210H741.836V206.664H741.644C741.188 209.04 739.604 210.24 736.844 210.24ZM734.684 204C734.684 206.184 735.764 206.952 738.068 206.952C740.348 206.952 741.596 206.16 741.596 204.072V203.88C741.596 201.792 740.372 201.024 738.068 201.024C735.764 201.024 734.684 201.792 734.684 204Z" fill="white"/>
<path d="M858.8 150H855.8V136.6H863.2C866.5 136.6 868.38 138.06 868.38 140.62C868.38 142.8 867.12 144.1 864.6 144.34V144.5C865.8 144.82 866.26 145.46 866.76 146.4L868.7 150H865.22L863.38 146.52C862.84 145.48 862.34 145.14 860.78 145.14H858.8V150ZM858.8 139.3V142.88H863.18C864.6 142.88 865.24 142.48 865.24 141.08C865.24 139.76 864.6 139.3 863.18 139.3H858.8ZM882.988 150H871.648V136.6H882.988V139.3H874.648V141.92H882.688V144.6H874.648V147.3H882.988V150ZM892.663 150.2C888.563 150.2 886.043 147.48 886.043 143.3C886.043 139.12 888.883 136.4 893.483 136.4C897.683 136.4 900.343 138.36 900.343 141.58V141.74H897.003V141.58C897.003 140.02 895.983 139.28 893.403 139.28C890.363 139.28 889.223 140.32 889.223 143.3C889.223 146.28 890.323 147.32 893.263 147.32C896.343 147.32 897.283 146.84 897.363 145.14H892.823V142.92H900.363V150H897.583V147.12H897.423C896.963 148.88 895.563 150.2 892.663 150.2ZM906.831 150H903.831V136.6H906.831V150ZM916.482 150.2C912.422 150.2 910.142 148.6 910.142 145.48V145.36H913.142V145.72C913.142 146.96 913.762 147.46 916.482 147.46C918.882 147.46 919.442 147.1 919.442 146.2C919.442 145.38 918.982 145.08 917.602 144.84L913.842 144.3C911.442 143.92 910.022 142.72 910.022 140.54C910.022 138.52 911.662 136.4 916.162 136.4C920.282 136.4 922.202 138.3 922.202 141.12V141.24H919.182V140.96C919.182 139.68 918.522 139.14 915.862 139.14C913.702 139.14 913.042 139.56 913.042 140.42C913.042 141.2 913.482 141.48 914.602 141.68L918.362 142.28C921.362 142.76 922.442 144.22 922.442 146.06C922.442 148.24 920.742 150.2 916.482 150.2ZM933.123 150H930.123V139.3H925.143V136.6H938.103V139.3H933.123V150ZM952.519 150H941.179V136.6H952.519V139.3H944.179V141.92H952.219V144.6H944.179V147.3H952.519V150ZM958.874 150H955.874V136.6H963.274C966.574 136.6 968.454 138.06 968.454 140.62C968.454 142.8 967.194 144.1 964.674 144.34V144.5C965.874 144.82 966.334 145.46 966.834 146.4L968.774 150H965.294L963.454 146.52C962.914 145.48 962.414 145.14 960.854 145.14H958.874V150ZM958.874 139.3V142.88H963.254C964.674 142.88 965.314 142.48 965.314 141.08C965.314 139.76 964.674 139.3 963.254 139.3H958.874ZM984.748 150H981.728V145.56L975.788 136.6H979.488L982.048 140.52L983.168 142.32H983.388L984.508 140.52L987.068 136.6H990.788L984.748 145.58V150ZM1000.26 150.2C995.819 150.2 993.059 147.48 993.059 143.3C993.059 139.12 995.819 136.4 1000.26 136.4C1004.8 136.4 1007.54 139.12 1007.54 143.3C1007.54 147.48 1004.8 150.2 1000.26 150.2ZM1000.26 147.32C1003.2 147.32 1004.34 146.28 1004.34 143.3C1004.34 140.32 1003.2 139.28 1000.26 139.28C997.319 139.28 996.239 140.32 996.239 143.3C996.239 146.28 997.319 147.32 1000.26 147.32ZM1017.33 150.2C1012.97 150.2 1010.75 148 1010.75 144.4V136.6H1013.75V144.18C1013.75 146.46 1014.61 147.28 1017.33 147.28C1020.07 147.28 1020.91 146.46 1020.91 144.18V136.6H1023.91V144.4C1023.91 148 1021.71 150.2 1017.33 150.2ZM1030.42 150H1027.42V136.6H1034.82C1038.12 136.6 1040 138.06 1040 140.62C1040 142.8 1038.74 144.1 1036.22 144.34V144.5C1037.42 144.82 1037.88 145.46 1038.38 146.4L1040.32 150H1036.84L1035 146.52C1034.46 145.48 1033.96 145.14 1032.4 145.14H1030.42V150ZM1030.42 139.3V142.88H1034.8C1036.22 142.88 1036.86 142.48 1036.86 141.08C1036.86 139.76 1036.22 139.3 1034.8 139.3H1030.42ZM1055.81 150H1052.81V139.3H1047.83V136.6H1060.79V139.3H1055.81V150ZM1075.21 150H1063.87V136.6H1075.21V139.3H1066.87V141.92H1074.91V144.6H1066.87V147.3H1075.21V150ZM1081.02 150H1077.66L1083.52 136.6H1087.8L1093.7 150H1090.26L1089 147.04H1082.3L1081.02 150ZM1084.72 141.42L1083.46 144.34H1087.84L1086.58 141.42L1085.76 139.34H1085.54L1084.72 141.42ZM1099.4 150H1096.4V136.6H1100.46L1103.6 143.2L1104.86 146.34H1105.08L1106.3 143.2L1109.34 136.6H1113.42V150H1110.42V143.2L1110.52 141.1H1110.3L1109.52 143.2L1106.72 149.2H1103.08L1100.28 143.2L1099.5 141.1H1099.28L1099.4 143.2V150Z" fill="white" fill-opacity="0.85"/>
<path d="M876.898 184.24C871.594 184.24 868.306 180.976 868.306 175.96C868.306 170.944 871.594 167.68 876.898 167.68C881.89 167.68 885.106 170.176 885.106 174.256V174.616H881.098V174.256C881.098 172.144 879.898 171.136 876.97 171.136C873.442 171.136 872.122 172.384 872.122 175.96C872.122 179.536 873.442 180.784 876.97 180.784C879.898 180.784 881.098 179.776 881.098 177.664V177.304H885.106V177.664C885.106 181.744 881.914 184.24 876.898 184.24ZM892.594 184.24C888.49 184.24 885.73 181.792 885.73 178C885.73 174.16 888.49 171.736 892.594 171.736C896.698 171.736 899.458 174.16 899.458 178C899.458 181.792 896.698 184.24 892.594 184.24ZM892.594 181.048C895.018 181.048 895.882 180.112 895.882 178C895.882 175.888 895.018 174.904 892.594 174.904C890.146 174.904 889.306 175.888 889.306 178C889.306 180.112 890.146 181.048 892.594 181.048ZM904.048 184H900.448V171.976H903.784V175.672H904C904.312 173.656 905.752 171.736 908.896 171.736C912.184 171.736 913.744 173.848 913.744 176.512V184H910.144V177.712C910.144 175.792 909.352 174.976 907.144 174.976C904.864 174.976 904.048 175.888 904.048 177.928V184ZM919.646 184H916.046V174.952H914.342V171.976H916.118C916.502 169.552 918.614 167.92 922.31 167.92H923.366V170.536H921.734C920.15 170.536 919.406 170.8 919.502 171.976H923.366V174.952H919.646V184ZM928.166 170.752H924.566V167.92H928.166V170.752ZM928.166 184H924.566V171.976H928.166V184ZM933.182 184H929.582V171.976H932.918V175.168H933.134C933.47 173.224 934.742 171.736 937.166 171.736C939.854 171.736 940.958 173.584 940.958 175.936V177.928H937.358V176.68C937.358 175.36 936.83 174.784 935.366 174.784C933.758 174.784 933.182 175.528 933.182 177.04V184ZM945.382 184H941.782V171.976H945.118V175.624H945.31C945.598 173.608 946.798 171.736 949.822 171.736C952.606 171.736 954.022 173.44 954.286 175.672H954.502C954.79 173.632 956.014 171.736 959.11 171.736C962.206 171.736 963.718 173.776 963.718 176.512V184H960.118V177.712C960.118 175.72 959.422 174.976 957.358 174.976C955.174 174.976 954.55 175.84 954.55 177.928V184H950.95V177.712C950.95 175.72 950.254 174.976 948.19 174.976C946.006 174.976 945.382 175.84 945.382 177.928V184ZM976.763 184H973.787C970.979 184 969.275 182.68 969.275 179.656V174.952H967.379V171.976H969.275V169.648H972.875V171.976H976.763V174.952H972.875V179.248C972.875 180.448 973.331 180.76 974.603 180.76H976.763V184ZM981.231 184H977.631V167.92H981.231V175.648H981.423C981.807 173.608 983.223 171.736 986.295 171.736C989.535 171.736 991.119 173.848 991.119 176.632V184H987.519V177.712C987.519 175.696 986.655 174.976 984.399 174.976C981.975 174.976 981.231 175.96 981.231 177.976V184ZM996.152 184.24C993.56 184.24 992 183.04 992 181.024C992 179.248 993.32 178.144 995.888 177.88L1001.05 177.352V176.896C1001.05 175.336 1000.35 174.904 998.432 174.904C996.608 174.904 995.864 175.384 995.864 176.752V176.848H992.24V176.776C992.24 173.8 994.736 171.736 998.696 171.736C1002.7 171.736 1004.6 173.8 1004.6 176.944V184H1001.24V181.24H1001.05C1000.5 183.112 998.816 184.24 996.152 184.24ZM995.624 180.784C995.624 181.432 996.128 181.696 997.184 181.696C999.632 181.696 1000.95 181.12 1001.05 179.416L996.872 179.896C996.008 179.968 995.624 180.208 995.624 180.784ZM1014.42 184H1011.44C1008.63 184 1006.93 182.68 1006.93 179.656V174.952H1005.03V171.976H1006.93V169.648H1010.53V171.976H1014.42V174.952H1010.53V179.248C1010.53 180.448 1010.98 180.76 1012.26 180.76H1014.42V184ZM1022.2 184.24C1019.61 184.24 1018.05 183.04 1018.05 181.024C1018.05 179.248 1019.37 178.144 1021.94 177.88L1027.1 177.352V176.896C1027.1 175.336 1026.4 174.904 1024.48 174.904C1022.66 174.904 1021.92 175.384 1021.92 176.752V176.848H1018.29V176.776C1018.29 173.8 1020.79 171.736 1024.75 171.736C1028.76 171.736 1030.65 173.8 1030.65 176.944V184H1027.29V181.24H1027.1C1026.55 183.112 1024.87 184.24 1022.2 184.24ZM1021.68 180.784C1021.68 181.432 1022.18 181.696 1023.24 181.696C1025.68 181.696 1027 181.12 1027.1 179.416L1022.92 179.896C1022.06 179.968 1021.68 180.208 1021.68 180.784ZM1035.6 184H1032V167.92H1035.6V184ZM1040.6 184H1037V167.92H1040.6V184ZM1053.7 184H1050.72C1047.92 184 1046.21 182.68 1046.21 179.656V174.952H1044.32V171.976H1046.21V169.648H1049.81V171.976H1053.7V174.952H1049.81V179.248C1049.81 180.448 1050.27 180.76 1051.54 180.76H1053.7V184ZM1060.95 184.24C1056.94 184.24 1054.21 182.272 1054.21 178C1054.21 174.16 1056.92 171.736 1060.88 171.736C1064.82 171.736 1067.43 173.8 1067.43 177.568C1067.43 178 1067.38 178.312 1067.34 178.72H1057.54C1057.64 180.568 1058.5 181.36 1060.83 181.36C1062.97 181.36 1063.71 180.808 1063.71 179.776V179.536H1067.31V179.8C1067.31 182.416 1064.77 184.24 1060.95 184.24ZM1060.81 174.544C1058.67 174.544 1057.76 175.264 1057.59 176.824H1063.98C1063.88 175.24 1062.92 174.544 1060.81 174.544ZM1072.18 184.24C1069.58 184.24 1068.02 183.04 1068.02 181.024C1068.02 179.248 1069.34 178.144 1071.91 177.88L1077.07 177.352V176.896C1077.07 175.336 1076.38 174.904 1074.46 174.904C1072.63 174.904 1071.89 175.384 1071.89 176.752V176.848H1068.26V176.776C1068.26 173.8 1070.76 171.736 1074.72 171.736C1078.73 171.736 1080.62 173.8 1080.62 176.944V184H1077.26V181.24H1077.07C1076.52 183.112 1074.84 184.24 1072.18 184.24ZM1071.65 180.784C1071.65 181.432 1072.15 181.696 1073.21 181.696C1075.66 181.696 1076.98 181.12 1077.07 179.416L1072.9 179.896C1072.03 179.968 1071.65 180.208 1071.65 180.784ZM1085.57 184H1081.97V171.976H1085.3V175.624H1085.5C1085.78 173.608 1086.98 171.736 1090.01 171.736C1092.79 171.736 1094.21 173.44 1094.47 175.672H1094.69C1094.98 173.632 1096.2 171.736 1099.3 171.736C1102.39 171.736 1103.9 173.776 1103.9 176.512V184H1100.3V177.712C1100.3 175.72 1099.61 174.976 1097.54 174.976C1095.36 174.976 1094.74 175.84 1094.74 177.928V184H1091.14V177.712C1091.14 175.72 1090.44 174.976 1088.38 174.976C1086.19 174.976 1085.57 175.84 1085.57 177.928V184ZM856.516 210H852.916V197.976H856.252V201.624H856.444C856.732 199.608 857.932 197.736 860.956 197.736C863.74 197.736 865.156 199.44 865.42 201.672H865.636C865.924 199.632 867.148 197.736 870.244 197.736C873.34 197.736 874.852 199.776 874.852 202.512V210H871.252V203.712C871.252 201.72 870.556 200.976 868.492 200.976C866.308 200.976 865.684 201.84 865.684 203.928V210H862.084V203.712C862.084 201.72 861.388 200.976 859.324 200.976C857.14 200.976 856.516 201.84 856.516 203.928V210ZM882.585 210.24C878.577 210.24 875.841 208.272 875.841 204C875.841 200.16 878.553 197.736 882.513 197.736C886.449 197.736 889.065 199.8 889.065 203.568C889.065 204 889.017 204.312 888.969 204.72H879.177C879.273 206.568 880.137 207.36 882.465 207.36C884.601 207.36 885.345 206.808 885.345 205.776V205.536H888.945V205.8C888.945 208.416 886.401 210.24 882.585 210.24ZM882.441 200.544C880.305 200.544 879.393 201.264 879.225 202.824H885.609C885.513 201.24 884.553 200.544 882.441 200.544ZM893.712 210H890.112V197.976H893.448V201.624H893.64C893.928 199.608 895.128 197.736 898.152 197.736C900.936 197.736 902.352 199.44 902.616 201.672H902.832C903.12 199.632 904.344 197.736 907.44 197.736C910.536 197.736 912.048 199.776 912.048 202.512V210H908.448V203.712C908.448 201.72 907.752 200.976 905.688 200.976C903.504 200.976 902.88 201.84 902.88 203.928V210H899.28V203.712C899.28 201.72 898.584 200.976 896.52 200.976C894.336 200.976 893.712 201.84 893.712 203.928V210ZM916.734 210H913.398V193.92H916.998V201.168H917.19C917.598 199.152 919.062 197.736 921.918 197.736C925.518 197.736 927.534 200.16 927.534 204C927.534 207.792 925.494 210.24 921.75 210.24C918.966 210.24 917.382 209.04 916.95 206.664H916.734V210ZM916.998 204.072C916.998 206.16 918.222 206.952 920.502 206.952C922.83 206.952 923.886 206.184 923.886 204C923.886 201.792 922.83 201.024 920.526 201.024C918.198 201.024 916.998 201.792 916.998 203.88V204.072ZM934.934 210.24C930.926 210.24 928.19 208.272 928.19 204C928.19 200.16 930.902 197.736 934.862 197.736C938.798 197.736 941.414 199.8 941.414 203.568C941.414 204 941.366 204.312 941.318 204.72H931.526C931.622 206.568 932.486 207.36 934.814 207.36C936.95 207.36 937.694 206.808 937.694 205.776V205.536H941.294V205.8C941.294 208.416 938.75 210.24 934.934 210.24ZM934.79 200.544C932.654 200.544 931.742 201.264 931.574 202.824H937.958C937.862 201.24 936.902 200.544 934.79 200.544ZM946.061 210H942.461V197.976H945.797V201.168H946.013C946.349 199.224 947.621 197.736 950.045 197.736C952.733 197.736 953.837 199.584 953.837 201.936V203.928H950.237V202.68C950.237 201.36 949.709 200.784 948.245 200.784C946.637 200.784 946.061 201.528 946.061 203.04V210ZM960.733 210.24C956.677 210.24 954.445 208.656 954.445 205.872V205.8H958.045V206.016C958.045 207.096 958.717 207.384 960.757 207.384C962.677 207.384 963.133 207.072 963.133 206.352C963.133 205.68 962.773 205.488 961.357 205.296L957.973 204.888C955.573 204.624 954.229 203.544 954.229 201.528C954.229 199.416 956.029 197.736 960.157 197.736C964.093 197.736 966.325 199.224 966.325 202.152V202.224H962.725V202.08C962.725 201.096 962.245 200.592 960.037 200.592C958.237 200.592 957.781 200.904 957.781 201.672C957.781 202.296 958.117 202.56 959.701 202.752L962.269 203.064C965.485 203.424 966.685 204.504 966.685 206.496C966.685 208.752 964.453 210.24 960.733 210.24ZM968.833 213.384H967.561V211.152H968.737C969.217 211.152 969.457 211.032 969.457 210.408V210H967.417V205.8H972.049V210.384C972.049 212.4 970.873 213.384 968.833 213.384ZM980.071 196.752H976.471V193.92H980.071V196.752ZM980.071 210H976.471V197.976H980.071V210ZM985.075 210H981.475V197.976H984.811V201.672H985.027C985.339 199.656 986.779 197.736 989.923 197.736C993.211 197.736 994.771 199.848 994.771 202.512V210H991.171V203.712C991.171 201.792 990.379 200.976 988.171 200.976C985.891 200.976 985.075 201.888 985.075 203.928V210ZM1002.52 210.24C998.392 210.24 995.752 207.792 995.752 204C995.752 200.16 998.392 197.736 1002.52 197.736C1006.38 197.736 1009.02 199.8 1009.02 202.92V203.256H1005.45V203.064C1005.45 201.528 1004.32 200.976 1002.45 200.976C1000.31 200.976 999.328 201.768 999.328 204C999.328 206.208 1000.31 207 1002.45 207C1004.32 207 1005.45 206.448 1005.45 204.912V204.72H1009.02V205.056C1009.02 208.152 1006.38 210.24 1002.52 210.24ZM1013.69 210H1010.09V193.92H1013.69V210ZM1020.07 210.24C1016.68 210.24 1015.07 208.152 1015.07 205.464V197.976H1018.67V204.264C1018.67 206.208 1019.49 207.024 1021.77 207.024C1024.12 207.024 1024.96 206.112 1024.96 204.072V197.976H1028.56V210H1025.2V206.328H1025.01C1024.7 208.344 1023.23 210.24 1020.07 210.24ZM1035.3 210.24C1031.55 210.24 1029.49 207.792 1029.49 204C1029.49 200.16 1031.53 197.736 1035.11 197.736C1037.96 197.736 1039.43 199.152 1039.83 201.168H1040.05V193.92H1043.65V210H1040.29V206.664H1040.1C1039.64 209.04 1038.06 210.24 1035.3 210.24ZM1033.14 204C1033.14 206.184 1034.22 206.952 1036.52 206.952C1038.8 206.952 1040.05 206.16 1040.05 204.072V203.88C1040.05 201.792 1038.83 201.024 1036.52 201.024C1034.22 201.024 1033.14 201.792 1033.14 204ZM1048.68 196.752H1045.08V193.92H1048.68V196.752ZM1048.68 210H1045.08V197.976H1048.68V210ZM1053.68 210H1050.08V197.976H1053.42V201.672H1053.63C1053.94 199.656 1055.38 197.736 1058.53 197.736C1061.82 197.736 1063.38 199.848 1063.38 202.512V210H1059.78V203.712C1059.78 201.792 1058.98 200.976 1056.78 200.976C1054.5 200.976 1053.68 201.888 1053.68 203.928V210ZM1070 208.776C1066.42 208.776 1064.36 206.64 1064.36 203.256C1064.36 199.896 1066.54 197.736 1070.14 197.736C1072.59 197.736 1074.34 198.792 1074.72 200.88H1074.92V197.976H1078.28V208.248C1078.28 212.448 1075.73 214.32 1071.44 214.32C1067.55 214.32 1065.1 212.592 1065.1 209.568H1068.7C1068.7 210.912 1069.23 211.32 1071.68 211.32C1073.98 211.32 1074.68 210.84 1074.68 208.488V205.776H1074.48C1074.1 207.552 1072.68 208.776 1070 208.776ZM1067.98 203.256C1067.98 205.032 1068.99 205.68 1071.24 205.68C1073.55 205.68 1074.68 205.032 1074.68 203.376V203.112C1074.68 201.48 1073.52 200.856 1071.29 200.856C1068.99 200.856 1067.98 201.48 1067.98 203.256ZM1091.4 210H1088.42C1085.62 210 1083.91 208.68 1083.91 205.656V200.952H1082.02V197.976H1083.91V195.648H1087.51V197.976H1091.4V200.952H1087.51V205.248C1087.51 206.448 1087.97 206.76 1089.24 206.76H1091.4V210ZM1095.87 210H1092.27V193.92H1095.87V201.648H1096.06C1096.44 199.608 1097.86 197.736 1100.93 197.736C1104.17 197.736 1105.76 199.848 1105.76 202.632V210H1102.16V203.712C1102.16 201.696 1101.29 200.976 1099.04 200.976C1096.61 200.976 1095.87 201.96 1095.87 203.976V210ZM1113.48 210.24C1109.47 210.24 1106.73 208.272 1106.73 204C1106.73 200.16 1109.45 197.736 1113.41 197.736C1117.34 197.736 1119.96 199.8 1119.96 203.568C1119.96 204 1119.91 204.312 1119.86 204.72H1110.07C1110.17 206.568 1111.03 207.36 1113.36 207.36C1115.49 207.36 1116.24 206.808 1116.24 205.776V205.536H1119.84V205.8C1119.84 208.416 1117.29 210.24 1113.48 210.24ZM1113.33 200.544C1111.2 200.544 1110.29 201.264 1110.12 202.824H1116.5C1116.41 201.24 1115.45 200.544 1113.33 200.544ZM860.049 236H856.449V219.92H860.049V236ZM867.837 236.24C863.829 236.24 861.093 234.272 861.093 230C861.093 226.16 863.805 223.736 867.765 223.736C871.701 223.736 874.317 225.8 874.317 229.568C874.317 230 874.269 230.312 874.221 230.72H864.429C864.525 232.568 865.389 233.36 867.717 233.36C869.853 233.36 870.597 232.808 870.597 231.776V231.536H874.197V231.8C874.197 234.416 871.653 236.24 867.837 236.24ZM867.693 226.544C865.557 226.544 864.645 227.264 864.477 228.824H870.861C870.765 227.24 869.805 226.544 867.693 226.544ZM879.06 236.24C876.468 236.24 874.908 235.04 874.908 233.024C874.908 231.248 876.228 230.144 878.796 229.88L883.956 229.352V228.896C883.956 227.336 883.26 226.904 881.34 226.904C879.516 226.904 878.772 227.384 878.772 228.752V228.848H875.148V228.776C875.148 225.8 877.644 223.736 881.604 223.736C885.612 223.736 887.508 225.8 887.508 228.944V236H884.148V233.24H883.956C883.404 235.112 881.724 236.24 879.06 236.24ZM878.532 232.784C878.532 233.432 879.036 233.696 880.092 233.696C882.54 233.696 883.86 233.12 883.956 231.416L879.78 231.896C878.916 231.968 878.532 232.208 878.532 232.784ZM894.229 236.24C890.485 236.24 888.421 233.792 888.421 230C888.421 226.16 890.461 223.736 894.037 223.736C896.893 223.736 898.357 225.152 898.765 227.168H898.981V219.92H902.581V236H899.221V232.664H899.029C898.573 235.04 896.989 236.24 894.229 236.24ZM892.069 230C892.069 232.184 893.149 232.952 895.453 232.952C897.733 232.952 898.981 232.16 898.981 230.072V229.88C898.981 227.792 897.757 227.024 895.453 227.024C893.149 227.024 892.069 227.792 892.069 230ZM905.181 239.384H903.909V237.152H905.085C905.565 237.152 905.805 237.032 905.805 236.408V236H903.765V231.8H908.397V236.384C908.397 238.4 907.221 239.384 905.181 239.384ZM916.419 236H912.819V219.92H916.419V227.648H916.611C916.995 225.608 918.411 223.736 921.483 223.736C924.723 223.736 926.307 225.848 926.307 228.632V236H922.707V229.712C922.707 227.696 921.843 226.976 919.587 226.976C917.163 226.976 916.419 227.96 916.419 229.976V236ZM931.339 236.24C928.747 236.24 927.187 235.04 927.187 233.024C927.187 231.248 928.507 230.144 931.075 229.88L936.235 229.352V228.896C936.235 227.336 935.539 226.904 933.619 226.904C931.795 226.904 931.051 227.384 931.051 228.752V228.848H927.427V228.776C927.427 225.8 929.923 223.736 933.883 223.736C937.891 223.736 939.787 225.8 939.787 228.944V236H936.427V233.24H936.235C935.683 235.112 934.003 236.24 931.339 236.24ZM930.811 232.784C930.811 233.432 931.315 233.696 932.371 233.696C934.819 233.696 936.139 233.12 936.235 231.416L932.059 231.896C931.195 231.968 930.811 232.208 930.811 232.784ZM950.084 236H945.644L940.172 223.976H944.18L947.78 232.496H948.02L951.644 223.976H955.58L950.084 236ZM962.435 236.24C958.427 236.24 955.691 234.272 955.691 230C955.691 226.16 958.403 223.736 962.363 223.736C966.299 223.736 968.915 225.8 968.915 229.568C968.915 230 968.867 230.312 968.819 230.72H959.027C959.123 232.568 959.987 233.36 962.315 233.36C964.451 233.36 965.195 232.808 965.195 231.776V231.536H968.795V231.8C968.795 234.416 966.251 236.24 962.435 236.24ZM962.291 226.544C960.155 226.544 959.243 227.264 959.075 228.824H965.459C965.363 227.24 964.403 226.544 962.291 226.544ZM976.784 236H973.184V223.976H976.52V227.168H976.736C977.072 225.224 978.344 223.736 980.768 223.736C983.456 223.736 984.56 225.584 984.56 227.936V229.928H980.96V228.68C980.96 227.36 980.432 226.784 978.968 226.784C977.36 226.784 976.784 227.528 976.784 229.04V236ZM991.768 236.24C987.76 236.24 985.024 234.272 985.024 230C985.024 226.16 987.736 223.736 991.696 223.736C995.632 223.736 998.248 225.8 998.248 229.568C998.248 230 998.2 230.312 998.152 230.72H988.36C988.456 232.568 989.32 233.36 991.648 233.36C993.784 233.36 994.528 232.808 994.528 231.776V231.536H998.128V231.8C998.128 234.416 995.584 236.24 991.768 236.24ZM991.624 226.544C989.488 226.544 988.576 227.264 988.408 228.824H994.792C994.696 227.24 993.736 226.544 991.624 226.544ZM1005.7 236.24C1001.57 236.24 998.935 233.792 998.935 230C998.935 226.16 1001.57 223.736 1005.7 223.736C1009.57 223.736 1012.21 225.8 1012.21 228.92V229.256H1008.63V229.064C1008.63 227.528 1007.5 226.976 1005.63 226.976C1003.49 226.976 1002.51 227.768 1002.51 230C1002.51 232.208 1003.49 233 1005.63 233C1007.5 233 1008.63 232.448 1008.63 230.912V230.72H1012.21V231.056C1012.21 234.152 1009.57 236.24 1005.7 236.24ZM1019.66 236.24C1015.65 236.24 1012.92 234.272 1012.92 230C1012.92 226.16 1015.63 223.736 1019.59 223.736C1023.52 223.736 1026.14 225.8 1026.14 229.568C1026.14 230 1026.09 230.312 1026.04 230.72H1016.25C1016.35 232.568 1017.21 233.36 1019.54 233.36C1021.68 233.36 1022.42 232.808 1022.42 231.776V231.536H1026.02V231.8C1026.02 234.416 1023.48 236.24 1019.66 236.24ZM1019.52 226.544C1017.38 226.544 1016.47 227.264 1016.3 228.824H1022.68C1022.59 227.24 1021.63 226.544 1019.52 226.544ZM1030.79 222.752H1027.19V219.92H1030.79V222.752ZM1030.79 236H1027.19V223.976H1030.79V236ZM1041.14 236H1036.7L1031.23 223.976H1035.24L1038.84 232.496H1039.08L1042.7 223.976H1046.64L1041.14 236ZM1053.49 236.24C1049.49 236.24 1046.75 234.272 1046.75 230C1046.75 226.16 1049.46 223.736 1053.42 223.736C1057.36 223.736 1059.97 225.8 1059.97 229.568C1059.97 230 1059.93 230.312 1059.88 230.72H1050.09C1050.18 232.568 1051.05 233.36 1053.37 233.36C1055.51 233.36 1056.25 232.808 1056.25 231.776V231.536H1059.85V231.8C1059.85 234.416 1057.31 236.24 1053.49 236.24ZM1053.35 226.544C1051.21 226.544 1050.3 227.264 1050.13 228.824H1056.52C1056.42 227.24 1055.46 226.544 1053.35 226.544ZM1066.4 236.24C1062.65 236.24 1060.59 233.792 1060.59 230C1060.59 226.16 1062.63 223.736 1066.2 223.736C1069.06 223.736 1070.52 225.152 1070.93 227.168H1071.15V219.92H1074.75V236H1071.39V232.664H1071.2C1070.74 235.04 1069.16 236.24 1066.4 236.24ZM1064.24 230C1064.24 232.184 1065.32 232.952 1067.62 232.952C1069.9 232.952 1071.15 232.16 1071.15 230.072V229.88C1071.15 227.792 1069.92 227.024 1067.62 227.024C1065.32 227.024 1064.24 227.792 1064.24 230ZM1087.87 236H1084.89C1082.08 236 1080.38 234.68 1080.38 231.656V226.952H1078.48V223.976H1080.38V221.648H1083.98V223.976H1087.87V226.952H1083.98V231.248C1083.98 232.448 1084.44 232.76 1085.71 232.76H1087.87V236ZM1092.34 236H1088.74V219.92H1092.34V227.648H1092.53C1092.91 225.608 1094.33 223.736 1097.4 223.736C1100.64 223.736 1102.22 225.848 1102.22 228.632V236H1098.62V229.712C1098.62 227.696 1097.76 226.976 1095.5 226.976C1093.08 226.976 1092.34 227.96 1092.34 229.976V236ZM1109.94 236.24C1105.94 236.24 1103.2 234.272 1103.2 230C1103.2 226.16 1105.91 223.736 1109.87 223.736C1113.81 223.736 1116.42 225.8 1116.42 229.568C1116.42 230 1116.38 230.312 1116.33 230.72H1106.54C1106.63 232.568 1107.5 233.36 1109.82 233.36C1111.96 233.36 1112.7 232.808 1112.7 231.776V231.536H1116.3V231.8C1116.3 234.416 1113.76 236.24 1109.94 236.24ZM1109.8 226.544C1107.66 226.544 1106.75 227.264 1106.58 228.824H1112.97C1112.87 227.24 1111.91 226.544 1109.8 226.544ZM894.277 262.24C890.173 262.24 887.413 259.792 887.413 256C887.413 252.16 890.173 249.736 894.277 249.736C898.381 249.736 901.141 252.16 901.141 256C901.141 259.792 898.381 262.24 894.277 262.24ZM894.277 259.048C896.701 259.048 897.565 258.112 897.565 256C897.565 253.888 896.701 252.904 894.277 252.904C891.829 252.904 890.989 253.888 890.989 256C890.989 258.112 891.829 259.048 894.277 259.048ZM905.731 262H902.131V249.976H905.467V253.672H905.683C905.995 251.656 907.435 249.736 910.579 249.736C913.867 249.736 915.427 251.848 915.427 254.512V262H911.827V255.712C911.827 253.792 911.035 252.976 908.827 252.976C906.547 252.976 905.731 253.888 905.731 255.928V262ZM920.104 262H916.768V245.92H920.368V253.168H920.56C920.968 251.152 922.432 249.736 925.288 249.736C928.888 249.736 930.904 252.16 930.904 256C930.904 259.792 928.864 262.24 925.12 262.24C922.336 262.24 920.752 261.04 920.32 258.664H920.104V262ZM920.368 256.072C920.368 258.16 921.592 258.952 923.872 258.952C926.2 258.952 927.256 258.184 927.256 256C927.256 253.792 926.2 253.024 923.896 253.024C921.568 253.024 920.368 253.792 920.368 255.88V256.072ZM938.329 262.24C934.225 262.24 931.465 259.792 931.465 256C931.465 252.16 934.225 249.736 938.329 249.736C942.433 249.736 945.193 252.16 945.193 256C945.193 259.792 942.433 262.24 938.329 262.24ZM938.329 259.048C940.753 259.048 941.617 258.112 941.617 256C941.617 253.888 940.753 252.904 938.329 252.904C935.881 252.904 935.041 253.888 935.041 256C935.041 258.112 935.881 259.048 938.329 259.048ZM949.879 262.24C947.287 262.24 945.727 261.04 945.727 259.024C945.727 257.248 947.047 256.144 949.615 255.88L954.775 255.352V254.896C954.775 253.336 954.079 252.904 952.159 252.904C950.335 252.904 949.591 253.384 949.591 254.752V254.848H945.967V254.776C945.967 251.8 948.463 249.736 952.423 249.736C956.431 249.736 958.327 251.8 958.327 254.944V262H954.967V259.24H954.775C954.223 261.112 952.543 262.24 949.879 262.24ZM949.351 258.784C949.351 259.432 949.855 259.696 950.911 259.696C953.359 259.696 954.679 259.12 954.775 257.416L950.599 257.896C949.735 257.968 949.351 258.208 949.351 258.784ZM963.272 262H959.672V249.976H963.008V253.168H963.224C963.56 251.224 964.832 249.736 967.256 249.736C969.944 249.736 971.048 251.584 971.048 253.936V255.928H967.448V254.68C967.448 253.36 966.92 252.784 965.456 252.784C963.848 252.784 963.272 253.528 963.272 255.04V262ZM977.247 262.24C973.503 262.24 971.439 259.792 971.439 256C971.439 252.16 973.479 249.736 977.055 249.736C979.911 249.736 981.375 251.152 981.783 253.168H981.999V245.92H985.599V262H982.239V258.664H982.047C981.591 261.04 980.007 262.24 977.247 262.24ZM975.087 256C975.087 258.184 976.167 258.952 978.471 258.952C980.751 258.952 981.999 258.16 981.999 256.072V255.88C981.999 253.792 980.775 253.024 978.471 253.024C976.167 253.024 975.087 253.792 975.087 256ZM990.624 248.752H987.024V245.92H990.624V248.752ZM990.624 262H987.024V249.976H990.624V262ZM995.629 262H992.029V249.976H995.365V253.672H995.581C995.893 251.656 997.333 249.736 1000.48 249.736C1003.76 249.736 1005.32 251.848 1005.32 254.512V262H1001.72V255.712C1001.72 253.792 1000.93 252.976 998.725 252.976C996.445 252.976 995.629 253.888 995.629 255.928V262ZM1011.95 260.776C1008.37 260.776 1006.31 258.64 1006.31 255.256C1006.31 251.896 1008.49 249.736 1012.09 249.736C1014.54 249.736 1016.29 250.792 1016.67 252.88H1016.87V249.976H1020.23V260.248C1020.23 264.448 1017.68 266.32 1013.39 266.32C1009.5 266.32 1007.05 264.592 1007.05 261.568H1010.65C1010.65 262.912 1011.18 263.32 1013.63 263.32C1015.93 263.32 1016.63 262.84 1016.63 260.488V257.776H1016.43C1016.05 259.552 1014.63 260.776 1011.95 260.776ZM1009.93 255.256C1009.93 257.032 1010.94 257.68 1013.19 257.68C1015.5 257.68 1016.63 257.032 1016.63 255.376V255.112C1016.63 253.48 1015.47 252.856 1013.24 252.856C1010.94 252.856 1009.93 253.48 1009.93 255.256ZM1031.26 262.24C1027.25 262.24 1024.52 260.272 1024.52 256C1024.52 252.16 1027.23 249.736 1031.19 249.736C1035.13 249.736 1037.74 251.8 1037.74 255.568C1037.74 256 1037.69 256.312 1037.65 256.72H1027.85C1027.95 258.568 1028.81 259.36 1031.14 259.36C1033.28 259.36 1034.02 258.808 1034.02 257.776V257.536H1037.62V257.8C1037.62 260.416 1035.08 262.24 1031.26 262.24ZM1031.12 252.544C1028.98 252.544 1028.07 253.264 1027.9 254.824H1034.29C1034.19 253.24 1033.23 252.544 1031.12 252.544ZM1042.39 262H1038.79V249.976H1042.12V253.624H1042.32C1042.6 251.608 1043.8 249.736 1046.83 249.736C1049.61 249.736 1051.03 251.44 1051.29 253.672H1051.51C1051.8 251.632 1053.02 249.736 1056.12 249.736C1059.21 249.736 1060.72 251.776 1060.72 254.512V262H1057.12V255.712C1057.12 253.72 1056.43 252.976 1054.36 252.976C1052.18 252.976 1051.56 253.84 1051.56 255.928V262H1047.96V255.712C1047.96 253.72 1047.26 252.976 1045.2 252.976C1043.01 252.976 1042.39 253.84 1042.39 255.928V262ZM1065.77 262.24C1063.18 262.24 1061.62 261.04 1061.62 259.024C1061.62 257.248 1062.94 256.144 1065.51 255.88L1070.67 255.352V254.896C1070.67 253.336 1069.97 252.904 1068.05 252.904C1066.23 252.904 1065.48 253.384 1065.48 254.752V254.848H1061.86V254.776C1061.86 251.8 1064.35 249.736 1068.31 249.736C1072.32 249.736 1074.22 251.8 1074.22 254.944V262H1070.86V259.24H1070.67C1070.11 261.112 1068.43 262.24 1065.77 262.24ZM1065.24 258.784C1065.24 259.432 1065.75 259.696 1066.8 259.696C1069.25 259.696 1070.57 259.12 1070.67 257.416L1066.49 257.896C1065.63 257.968 1065.24 258.208 1065.24 258.784ZM1079.16 248.752H1075.56V245.92H1079.16V248.752ZM1079.16 262H1075.56V249.976H1079.16V262ZM1084.17 262H1080.57V245.92H1084.17V262Z" fill="white"/>
</g>
<defs>
<clipPath id="clip0_386_2030">
<rect width="1271" height="455.06" fill="white" transform="translate(0 0.800049)"/>
</clipPath>
</defs>
</svg>
