<svg width="1271" height="456" viewBox="0 0 1271 456" fill="none" xmlns="http://www.w3.org/2000/svg">
<g clip-path="url(#clip0_487_1334)">
<path d="M88.58 33H79.6V19.6H88.12C91.02 19.6 92.46 20.74 92.46 22.84C92.46 24.56 91.56 25.78 89.12 25.88V26.08C91.8 26.18 93.08 27.42 93.08 29.28C93.08 31.54 91.78 33 88.58 33ZM83.34 22.98V24.68H87.72C88.48 24.68 88.7 24.46 88.7 23.84C88.7 23.22 88.4 22.98 87.62 22.98H83.34ZM83.34 27.76V29.62H88.1C89 29.62 89.28 29.44 89.28 28.68C89.28 27.94 89.02 27.76 88.1 27.76H83.34ZM102.637 33.2C97.9573 33.2 95.7973 30.94 95.7973 27.38V19.6H99.5573V27.08C99.5573 28.98 100.097 29.56 102.637 29.56C105.177 29.56 105.717 28.98 105.717 27.08V19.6H109.477V27.38C109.477 30.94 107.317 33.2 102.637 33.2ZM116.364 33H112.604V19.6H116.364V33ZM131.065 33H119.565V19.6H123.325V29.62H131.065V33ZM141.065 33H134.285V19.6H141.065C145.485 19.6 148.285 22.06 148.285 26.3C148.285 30.54 145.485 33 141.065 33ZM141.065 22.98H138.045V29.62H141.065C143.445 29.62 144.265 29.32 144.265 26.3C144.265 23.28 143.445 22.98 141.065 22.98ZM156.16 33H151.28V29.16H156.16V33Z" fill="white"/>
<path d="M167.907 33H164.147V19.6H167.907V24.58H174.147V19.6H177.907V33H174.147V27.96H167.907V33ZM184.528 33H180.308L186.088 19.6H191.468L197.268 33H192.948L191.928 30.52H185.568L184.528 33ZM187.768 25.26L186.988 27.14H190.548L189.768 25.26L188.888 23H188.628L187.768 25.26ZM209.65 33H204.25L198.87 19.6H203.41L206.87 29.2H207.13L210.51 19.6H215.03L209.65 33ZM229.332 33H217.432V19.6H229.332V22.98H221.192V24.58H229.032V27.94H221.192V29.62H229.332V33ZM240.954 33H237.194V19.6H249.174V22.98H240.954V24.98H248.874V28.34H240.954V33ZM258.923 33.2C254.243 33.2 252.083 30.94 252.083 27.38V19.6H255.843V27.08C255.843 28.98 256.383 29.56 258.923 29.56C261.463 29.56 262.003 28.98 262.003 27.08V19.6H265.763V27.38C265.763 30.94 263.603 33.2 258.923 33.2ZM272.649 33H268.889V19.6H272.889L276.609 24.62L278.569 27.7H278.829L278.649 24.78V19.6H282.409V33H278.409L274.449 27.84L272.749 25.2H272.489L272.649 27.76V33ZM290.456 28.6H286.616C286.616 27.24 286.096 22.54 286.096 21V19.6H290.976V21C290.976 22.54 290.456 27.26 290.456 28.6ZM290.676 33H286.376V29.46H290.676V33ZM299.487 28.6H295.647C295.647 27.24 295.127 22.54 295.127 21V19.6H300.007V21C300.007 22.54 299.487 27.26 299.487 28.6ZM299.707 33H295.407V29.46H299.707V33Z" fill="#CBE52A"/>
<line x1="241.994" y1="99.5" x2="947.994" y2="96.5085" stroke="white" stroke-width="3" stroke-dasharray="6 6"/>
<rect x="235" y="122" width="48" height="48" rx="24" transform="rotate(-90 235 122)" fill="white"/>
<rect x="235" y="122" width="48" height="48" rx="24" transform="rotate(-90 235 122)" stroke="#1D2939" stroke-width="2" stroke-linecap="round" stroke-linejoin="round" stroke-dasharray="7 7"/>
<circle cx="259" cy="98" r="18" transform="rotate(-90 259 98)" fill="#CBE52A"/>
<rect x="577.5" y="122" width="48" height="48" rx="24" transform="rotate(-90 577.5 122)" fill="white"/>
<rect x="577.5" y="122" width="48" height="48" rx="24" transform="rotate(-90 577.5 122)" stroke="#1D2939" stroke-width="2" stroke-linecap="round" stroke-linejoin="round" stroke-dasharray="7 7"/>
<circle cx="601.5" cy="98" r="18" transform="rotate(-90 601.5 98)" fill="#1D2939"/>
<rect x="920" y="122" width="48" height="48" rx="24" transform="rotate(-90 920 122)" fill="white"/>
<rect x="920" y="122" width="48" height="48" rx="24" transform="rotate(-90 920 122)" stroke="#1D2939" stroke-width="2" stroke-linecap="round" stroke-linejoin="round" stroke-dasharray="7 7"/>
<circle cx="944" cy="98" r="18" transform="rotate(-90 944 98)" fill="#CBE52A"/>
<path d="M159.992 147.2C155.572 147.2 152.832 144.48 152.832 140.3C152.832 136.12 155.572 133.4 159.992 133.4C164.152 133.4 166.832 135.48 166.832 138.88V139.18H163.492V138.88C163.492 137.12 162.492 136.28 160.052 136.28C157.112 136.28 156.012 137.32 156.012 140.3C156.012 143.28 157.112 144.32 160.052 144.32C162.492 144.32 163.492 143.48 163.492 141.72V141.42H166.832V141.72C166.832 145.12 164.172 147.2 159.992 147.2ZM177.032 147.2C172.592 147.2 169.832 144.48 169.832 140.3C169.832 136.12 172.592 133.4 177.032 133.4C181.572 133.4 184.312 136.12 184.312 140.3C184.312 144.48 181.572 147.2 177.032 147.2ZM177.032 144.32C179.972 144.32 181.112 143.28 181.112 140.3C181.112 137.32 179.972 136.28 177.032 136.28C174.092 136.28 173.012 137.32 173.012 140.3C173.012 143.28 174.092 144.32 177.032 144.32ZM198.6 147H187.62V133.6H190.62V144.3H198.6V147ZM212.788 147H201.808V133.6H204.808V144.3H212.788V147ZM218.455 147H215.095L220.955 133.6H225.235L231.135 147H227.695L226.435 144.04H219.735L218.455 147ZM222.155 138.42L220.895 141.34H225.275L224.015 138.42L223.195 136.34H222.975L222.155 138.42ZM242.195 147H233.775V133.6H241.815C244.555 133.6 246.035 134.76 246.035 136.86C246.035 138.52 245.155 139.72 242.915 139.88V140.06C245.395 140.24 246.595 141.48 246.595 143.28C246.595 145.56 245.195 147 242.195 147ZM236.775 136.3V138.92H241.475C242.575 138.92 243.035 138.54 243.035 137.62C243.035 136.7 242.555 136.3 241.435 136.3H236.775ZM236.775 141.4V144.3H241.835C243.055 144.3 243.555 143.92 243.555 142.84C243.555 141.78 243.055 141.4 241.835 141.4H236.775ZM256.602 147.2C252.162 147.2 249.402 144.48 249.402 140.3C249.402 136.12 252.162 133.4 256.602 133.4C261.142 133.4 263.882 136.12 263.882 140.3C263.882 144.48 261.142 147.2 256.602 147.2ZM256.602 144.32C259.542 144.32 260.682 143.28 260.682 140.3C260.682 137.32 259.542 136.28 256.602 136.28C253.662 136.28 252.582 137.32 252.582 140.3C252.582 143.28 253.662 144.32 256.602 144.32ZM270.191 147H267.191V133.6H274.591C277.891 133.6 279.771 135.06 279.771 137.62C279.771 139.8 278.511 141.1 275.991 141.34V141.5C277.191 141.82 277.651 142.46 278.151 143.4L280.091 147H276.611L274.771 143.52C274.231 142.48 273.731 142.14 272.171 142.14H270.191V147ZM270.191 136.3V139.88H274.571C275.991 139.88 276.631 139.48 276.631 138.08C276.631 136.76 275.991 136.3 274.571 136.3H270.191ZM285.498 147H282.138L287.998 133.6H292.278L298.178 147H294.738L293.478 144.04H286.778L285.498 147ZM289.198 138.42L287.938 141.34H292.318L291.058 138.42L290.238 136.34H290.018L289.198 138.42ZM308.338 147H305.338V136.3H300.358V133.6H313.318V136.3H308.338V147ZM327.734 147H316.394V133.6H327.734V136.3H319.394V138.92H327.434V141.6H319.394V144.3H327.734V147ZM338.635 147H335.275L341.135 133.6H345.415L351.315 147H347.875L346.615 144.04H339.915L338.635 147ZM342.335 138.42L341.075 141.34H345.455L344.195 138.42L343.375 136.34H343.155L342.335 138.42ZM357.015 147H354.015V133.6H357.215L362.015 139.94L363.855 142.76H364.075L363.935 140.06V133.6H366.935V147H363.735L358.795 140.6L357.095 138.08H356.895L357.015 140.54V147ZM377.147 147H370.687V133.6H377.147C381.447 133.6 384.167 136.1 384.167 140.3C384.167 144.5 381.447 147 377.147 147ZM377.147 136.3H373.687V144.3H377.147C379.867 144.3 380.967 143.52 380.967 140.3C380.967 137.08 379.867 136.3 377.147 136.3ZM244.592 167H236.172V153.6H244.212C246.952 153.6 248.432 154.76 248.432 156.86C248.432 158.52 247.552 159.72 245.312 159.88V160.06C247.792 160.24 248.992 161.48 248.992 163.28C248.992 165.56 247.592 167 244.592 167ZM239.172 156.3V158.92H243.872C244.972 158.92 245.432 158.54 245.432 157.62C245.432 156.7 244.952 156.3 243.832 156.3H239.172ZM239.172 161.4V164.3H244.232C245.452 164.3 245.952 163.92 245.952 162.84C245.952 161.78 245.452 161.4 244.232 161.4H239.172ZM258.579 167.2C254.219 167.2 251.999 165 251.999 161.4V153.6H254.999V161.18C254.999 163.46 255.859 164.28 258.579 164.28C261.319 164.28 262.159 163.46 262.159 161.18V153.6H265.159V161.4C265.159 165 262.959 167.2 258.579 167.2ZM271.669 167H268.669V153.6H271.669V167ZM286.219 167H275.239V153.6H278.239V164.3H286.219V167ZM296.047 167H289.587V153.6H296.047C300.347 153.6 303.067 156.1 303.067 160.3C303.067 164.5 300.347 167 296.047 167ZM296.047 156.3H292.587V164.3H296.047C298.767 164.3 299.867 163.52 299.867 160.3C299.867 157.08 298.767 156.3 296.047 156.3Z" fill="white" fill-opacity="0.85"/>
<path d="M141.97 213H138.37V196.92H151.978V200.16H141.97V203.784H151.618V207H141.97V213ZM156.63 213H153.03V200.976H156.366V204.168H156.582C156.918 202.224 158.19 200.736 160.614 200.736C163.302 200.736 164.406 202.584 164.406 204.936V206.928H160.806V205.68C160.806 204.36 160.278 203.784 158.814 203.784C157.206 203.784 156.63 204.528 156.63 206.04V213ZM171.638 213.24C167.534 213.24 164.774 210.792 164.774 207C164.774 203.16 167.534 200.736 171.638 200.736C175.742 200.736 178.502 203.16 178.502 207C178.502 210.792 175.742 213.24 171.638 213.24ZM171.638 210.048C174.062 210.048 174.926 209.112 174.926 207C174.926 204.888 174.062 203.904 171.638 203.904C169.19 203.904 168.35 204.888 168.35 207C168.35 209.112 169.19 210.048 171.638 210.048ZM183.092 213H179.492V200.976H182.828V204.624H183.02C183.308 202.608 184.508 200.736 187.532 200.736C190.316 200.736 191.732 202.44 191.996 204.672H192.212C192.5 202.632 193.724 200.736 196.82 200.736C199.916 200.736 201.428 202.776 201.428 205.512V213H197.828V206.712C197.828 204.72 197.132 203.976 195.068 203.976C192.884 203.976 192.26 204.84 192.26 206.928V213H188.66V206.712C188.66 204.72 187.964 203.976 185.9 203.976C183.716 203.976 183.092 204.84 183.092 206.928V213ZM213.921 213.24C208.065 213.24 205.665 210.672 205.665 204.984C205.665 199.392 208.809 196.68 213.609 196.68C218.001 196.68 220.833 198.792 220.833 202.08V202.272H216.825V202.08C216.825 200.688 215.913 200.136 213.609 200.136C210.657 200.136 209.505 201.072 209.505 204.36V205.416H209.769C210.441 204.12 212.169 203.064 215.049 203.064C219.009 203.064 221.217 204.672 221.217 207.96C221.217 211.176 218.697 213.24 213.921 213.24ZM213.729 209.784C216.585 209.784 217.449 209.112 217.449 207.696C217.449 206.208 216.609 205.56 213.753 205.56C210.729 205.56 209.793 206.208 209.793 207.648C209.793 209.088 210.753 209.784 213.729 209.784ZM226.812 213H222.18V208.8H226.812V213ZM235.69 213.24C230.506 213.24 227.65 209.976 227.65 204.96C227.65 199.968 230.506 196.68 235.69 196.68C240.85 196.68 243.73 199.968 243.73 204.96C243.73 209.976 240.85 213.24 235.69 213.24ZM235.69 209.736C238.738 209.736 239.866 208.416 239.866 204.96C239.866 201.504 238.738 200.184 235.69 200.184C232.618 200.184 231.514 201.504 231.514 204.96C231.514 208.416 232.618 209.736 235.69 209.736ZM252.46 213.24C247.276 213.24 244.42 209.976 244.42 204.96C244.42 199.968 247.276 196.68 252.46 196.68C257.62 196.68 260.5 199.968 260.5 204.96C260.5 209.976 257.62 213.24 252.46 213.24ZM252.46 209.736C255.508 209.736 256.636 208.416 256.636 204.96C256.636 201.504 255.508 200.184 252.46 200.184C249.388 200.184 248.284 201.504 248.284 204.96C248.284 208.416 249.388 209.736 252.46 209.736ZM265.15 213H261.55V196.92H269.95C273.67 196.92 276.07 199.032 276.07 202.728C276.07 206.424 273.67 208.56 269.95 208.56H265.15V213ZM269.566 200.16H265.15V205.32H269.566C271.558 205.32 272.494 204.744 272.494 202.728C272.494 200.76 271.558 200.16 269.566 200.16ZM280.467 213H276.867V196.92H281.739L285.507 204.84L287.019 208.608H287.283L288.747 204.84L292.395 196.92H297.291V213H293.691V204.84L293.811 202.32H293.547L292.611 204.84L289.251 212.04H284.883L281.523 204.84L280.587 202.32H280.323L280.467 204.84V213ZM307.411 207.456H298.459V204.36H307.411V207.456ZM315.61 213H312.01V201.384H307.882V198.912H308.554C310.33 198.912 311.53 198.504 312.322 196.92H315.61V213ZM324.06 213H320.46V201.384H316.332V198.912H317.004C318.78 198.912 319.98 198.504 320.772 196.92H324.06V213ZM329.893 213H325.261V208.8H329.893V213ZM338.772 213.24C333.588 213.24 330.732 209.976 330.732 204.96C330.732 199.968 333.588 196.68 338.772 196.68C343.932 196.68 346.812 199.968 346.812 204.96C346.812 209.976 343.932 213.24 338.772 213.24ZM338.772 209.736C341.82 209.736 342.948 208.416 342.948 204.96C342.948 201.504 341.82 200.184 338.772 200.184C335.7 200.184 334.596 201.504 334.596 204.96C334.596 208.416 335.7 209.736 338.772 209.736ZM355.542 213.24C350.358 213.24 347.502 209.976 347.502 204.96C347.502 199.968 350.358 196.68 355.542 196.68C360.702 196.68 363.582 199.968 363.582 204.96C363.582 209.976 360.702 213.24 355.542 213.24ZM355.542 209.736C358.59 209.736 359.718 208.416 359.718 204.96C359.718 201.504 358.59 200.184 355.542 200.184C352.47 200.184 351.366 201.504 351.366 204.96C351.366 208.416 352.47 209.736 355.542 209.736ZM368.232 217.08H364.632V200.976H367.968V204.264H368.208C368.64 201.96 370.176 200.736 373.008 200.736C376.704 200.736 378.768 203.184 378.768 207C378.768 210.816 376.752 213.24 373.128 213.24C370.344 213.24 368.808 211.872 368.4 209.76H368.232V217.08ZM368.232 207.168C368.232 209.232 369.48 209.952 371.736 209.952C374.04 209.952 375.12 209.184 375.12 207C375.12 204.792 374.04 204.048 371.76 204.048C369.432 204.048 368.232 204.84 368.232 206.976V207.168ZM383.385 213H379.785V200.976H383.121V204.624H383.313C383.601 202.608 384.801 200.736 387.825 200.736C390.609 200.736 392.025 202.44 392.289 204.672H392.505C392.793 202.632 394.017 200.736 397.113 200.736C400.209 200.736 401.721 202.776 401.721 205.512V213H398.121V206.712C398.121 204.72 397.425 203.976 395.361 203.976C393.177 203.976 392.553 204.84 392.553 206.928V213H388.953V206.712C388.953 204.72 388.257 203.976 386.193 203.976C384.009 203.976 383.385 204.84 383.385 206.928V213Z" fill="white"/>
<path d="M513.295 147H508.835L505.675 133.6H509.035L510.655 141.2L511.115 144.14H511.335L511.955 141.2L514.195 133.6H518.655L520.875 141.2L521.495 144.14H521.715L522.175 141.2L523.795 133.6H527.075L523.895 147H519.435L517.435 140.3L516.495 136.44H516.275L515.335 140.3L513.295 147ZM533.111 147H530.111V133.6H537.511C540.811 133.6 542.691 135.06 542.691 137.62C542.691 139.8 541.431 141.1 538.911 141.34V141.5C540.111 141.82 540.571 142.46 541.071 143.4L543.011 147H539.531L537.691 143.52C537.151 142.48 536.651 142.14 535.091 142.14H533.111V147ZM533.111 136.3V139.88H537.491C538.911 139.88 539.551 139.48 539.551 138.08C539.551 136.76 538.911 136.3 537.491 136.3H533.111ZM548.418 147H545.058L550.918 133.6H555.198L561.098 147H557.658L556.398 144.04H549.698L548.418 147ZM552.118 138.42L550.858 141.34H555.238L553.978 138.42L553.158 136.34H552.938L552.118 138.42ZM566.798 147H563.798V133.6H570.798C573.898 133.6 575.898 135.36 575.898 138.44C575.898 141.52 573.898 143.3 570.798 143.3H566.798V147ZM570.478 136.3H566.798V140.6H570.478C572.138 140.6 572.918 140.12 572.918 138.44C572.918 136.8 572.138 136.3 570.478 136.3ZM590.528 147.2C586.168 147.2 583.948 145 583.948 141.4V133.6H586.948V141.18C586.948 143.46 587.808 144.28 590.528 144.28C593.268 144.28 594.108 143.46 594.108 141.18V133.6H597.108V141.4C597.108 145 594.908 147.2 590.528 147.2ZM603.618 147H600.618V133.6H607.618C610.718 133.6 612.718 135.36 612.718 138.44C612.718 141.52 610.718 143.3 607.618 143.3H603.618V147ZM607.298 136.3H603.618V140.6H607.298C608.958 140.6 609.738 140.12 609.738 138.44C609.738 136.8 608.958 136.3 607.298 136.3ZM627.908 147H623.448L620.288 133.6H623.648L625.268 141.2L625.728 144.14H625.948L626.568 141.2L628.808 133.6H633.268L635.488 141.2L636.108 144.14H636.328L636.788 141.2L638.408 133.6H641.688L638.508 147H634.048L632.048 140.3L631.108 136.44H630.888L629.948 140.3L627.908 147ZM647.724 147H644.724V133.6H647.724V147ZM658.754 147H655.754V136.3H650.774V133.6H663.734V136.3H658.754V147ZM669.81 147H666.81V133.6H669.81V138.92H676.81V133.6H679.81V147H676.81V141.62H669.81V147ZM690.965 147H687.605L693.465 133.6H697.745L703.645 147H700.205L698.945 144.04H692.245L690.965 147ZM694.665 138.42L693.405 141.34H697.785L696.525 138.42L695.705 136.34H695.485L694.665 138.42ZM554.227 167H547.767V153.6H554.227C558.527 153.6 561.247 156.1 561.247 160.3C561.247 164.5 558.527 167 554.227 167ZM554.227 156.3H550.767V164.3H554.227C556.947 164.3 558.047 163.52 558.047 160.3C558.047 157.08 556.947 156.3 554.227 156.3ZM575.888 167H564.548V153.6H575.888V156.3H567.548V158.92H575.588V161.6H567.548V164.3H575.888V167ZM586.703 167H583.703V156.3H578.723V153.6H591.683V156.3H586.703V167ZM597.219 167H593.859L599.719 153.6H603.999L609.899 167H606.459L605.199 164.04H598.499L597.219 167ZM600.919 158.42L599.659 161.34H604.039L602.779 158.42L601.959 156.34H601.739L600.919 158.42ZM615.599 167H612.599V153.6H615.599V167ZM630.149 167H619.169V153.6H622.169V164.3H630.149V167ZM644.697 167H633.357V153.6H644.697V156.3H636.357V158.92H644.397V161.6H636.357V164.3H644.697V167ZM654.672 167H648.212V153.6H654.672C658.972 153.6 661.692 156.1 661.692 160.3C661.692 164.5 658.972 167 654.672 167ZM654.672 156.3H651.212V164.3H654.672C657.392 164.3 658.492 163.52 658.492 160.3C658.492 157.08 657.392 156.3 654.672 156.3Z" fill="white" fill-opacity="0.85"/>
<path d="M527.862 209H524.262V192.92H533.142C537.102 192.92 539.358 194.672 539.358 197.744C539.358 200.36 537.846 201.92 534.822 202.208V202.4C536.262 202.784 536.814 203.552 537.414 204.68L539.742 209H535.566L533.358 204.824C532.71 203.576 532.11 203.168 530.238 203.168H527.862V209ZM527.862 196.16V200.456H533.118C534.822 200.456 535.59 199.976 535.59 198.296C535.59 196.712 534.822 196.16 533.118 196.16H527.862ZM554.007 209H540.399V192.92H554.007V196.16H543.999V199.304H553.647V202.52H543.999V205.76H554.007V209ZM558.105 209H554.073L561.105 192.92H566.241L573.321 209H569.193L567.681 205.448H559.641L558.105 209ZM562.545 198.704L561.033 202.208H566.289L564.777 198.704L563.793 196.208H563.529L562.545 198.704ZM581.625 209H573.873V192.92H581.625C586.785 192.92 590.049 195.92 590.049 200.96C590.049 206 586.785 209 581.625 209ZM581.625 196.16H577.473V205.76H581.625C584.889 205.76 586.209 204.824 586.209 200.96C586.209 197.096 584.889 196.16 581.625 196.16ZM594.731 209H591.131V192.92H596.003L599.771 200.84L601.283 204.608H601.547L603.011 200.84L606.659 192.92H611.555V209H607.955V200.84L608.075 198.32H607.811L606.875 200.84L603.515 208.04H599.147L595.787 200.84L594.851 198.32H594.587L594.731 200.84V209ZM626.571 209H612.963V192.92H626.571V196.16H616.563V199.304H626.211V202.52H616.563V205.76H626.571V209ZM634.541 195.752H630.941V192.92H634.541V195.752ZM634.541 209H630.941V196.976H634.541V209ZM639.545 209H635.945V196.976H639.281V200.672H639.497C639.809 198.656 641.249 196.736 644.393 196.736C647.681 196.736 649.241 198.848 649.241 201.512V209H645.641V202.712C645.641 200.792 644.849 199.976 642.641 199.976C640.361 199.976 639.545 200.888 639.545 202.928V209ZM662.278 209H659.302C656.494 209 654.79 207.68 654.79 204.656V199.952H652.894V196.976H654.79V194.648H658.39V196.976H662.278V199.952H658.39V204.248C658.39 205.448 658.846 205.76 660.118 205.76H662.278V209ZM666.746 209H663.146V192.92H666.746V200.648H666.938C667.322 198.608 668.738 196.736 671.81 196.736C675.05 196.736 676.634 198.848 676.634 201.632V209H673.034V202.712C673.034 200.696 672.17 199.976 669.914 199.976C667.49 199.976 666.746 200.96 666.746 202.976V209ZM684.355 209.24C680.347 209.24 677.611 207.272 677.611 203C677.611 199.16 680.323 196.736 684.283 196.736C688.219 196.736 690.835 198.8 690.835 202.568C690.835 203 690.787 203.312 690.739 203.72H680.947C681.043 205.568 681.907 206.36 684.235 206.36C686.371 206.36 687.115 205.808 687.115 204.776V204.536H690.715V204.8C690.715 207.416 688.171 209.24 684.355 209.24ZM684.211 199.544C682.075 199.544 681.163 200.264 680.995 201.824H687.379C687.283 200.24 686.323 199.544 684.211 199.544ZM524.815 235H521.215V222.976H524.551V226.168H524.767C525.103 224.224 526.375 222.736 528.799 222.736C531.487 222.736 532.591 224.584 532.591 226.936V228.928H528.991V227.68C528.991 226.36 528.463 225.784 526.999 225.784C525.391 225.784 524.815 226.528 524.815 228.04V235ZM539.798 235.24C535.79 235.24 533.054 233.272 533.054 229C533.054 225.16 535.766 222.736 539.726 222.736C543.662 222.736 546.278 224.8 546.278 228.568C546.278 229 546.23 229.312 546.182 229.72H536.39C536.486 231.568 537.35 232.36 539.678 232.36C541.814 232.36 542.558 231.808 542.558 230.776V230.536H546.158V230.8C546.158 233.416 543.614 235.24 539.798 235.24ZM539.654 225.544C537.518 225.544 536.606 226.264 536.438 227.824H542.822C542.726 226.24 541.766 225.544 539.654 225.544ZM550.925 239.08H547.325V222.976H550.661V226.264H550.901C551.333 223.96 552.869 222.736 555.701 222.736C559.397 222.736 561.461 225.184 561.461 229C561.461 232.816 559.445 235.24 555.821 235.24C553.037 235.24 551.501 233.872 551.093 231.76H550.925V239.08ZM550.925 229.168C550.925 231.232 552.173 231.952 554.429 231.952C556.733 231.952 557.813 231.184 557.813 229C557.813 226.792 556.733 226.048 554.453 226.048C552.125 226.048 550.925 226.84 550.925 228.976V229.168ZM568.886 235.24C564.782 235.24 562.022 232.792 562.022 229C562.022 225.16 564.782 222.736 568.886 222.736C572.99 222.736 575.75 225.16 575.75 229C575.75 232.792 572.99 235.24 568.886 235.24ZM568.886 232.048C571.31 232.048 572.174 231.112 572.174 229C572.174 226.888 571.31 225.904 568.886 225.904C566.438 225.904 565.598 226.888 565.598 229C565.598 231.112 566.438 232.048 568.886 232.048ZM582.812 235.24C578.756 235.24 576.524 233.656 576.524 230.872V230.8H580.124V231.016C580.124 232.096 580.796 232.384 582.836 232.384C584.756 232.384 585.212 232.072 585.212 231.352C585.212 230.68 584.852 230.488 583.436 230.296L580.052 229.888C577.652 229.624 576.308 228.544 576.308 226.528C576.308 224.416 578.108 222.736 582.236 222.736C586.172 222.736 588.404 224.224 588.404 227.152V227.224H584.804V227.08C584.804 226.096 584.324 225.592 582.116 225.592C580.316 225.592 579.86 225.904 579.86 226.672C579.86 227.296 580.196 227.56 581.78 227.752L584.348 228.064C587.564 228.424 588.764 229.504 588.764 231.496C588.764 233.752 586.532 235.24 582.812 235.24ZM593.336 221.752H589.736V218.92H593.336V221.752ZM593.336 235H589.736V222.976H593.336V235ZM603.213 235H600.237C597.429 235 595.725 233.68 595.725 230.656V225.952H593.829V222.976H595.725V220.648H599.325V222.976H603.213V225.952H599.325V230.248C599.325 231.448 599.781 231.76 601.053 231.76H603.213V235ZM610.489 235.24C606.385 235.24 603.625 232.792 603.625 229C603.625 225.16 606.385 222.736 610.489 222.736C614.593 222.736 617.353 225.16 617.353 229C617.353 232.792 614.593 235.24 610.489 235.24ZM610.489 232.048C612.913 232.048 613.777 231.112 613.777 229C613.777 226.888 612.913 225.904 610.489 225.904C608.041 225.904 607.201 226.888 607.201 229C607.201 231.112 608.041 232.048 610.489 232.048ZM621.943 235H618.343V222.976H621.679V226.168H621.895C622.231 224.224 623.503 222.736 625.927 222.736C628.615 222.736 629.719 224.584 629.719 226.936V228.928H626.119V227.68C626.119 226.36 625.591 225.784 624.127 225.784C622.519 225.784 621.943 226.528 621.943 228.04V235ZM632.847 239.08H630.879V235.816H633.831C634.719 235.816 635.103 235.576 635.343 235.048L629.463 222.976H633.543L636.087 228.472L637.095 231.304H637.335L638.295 228.448L640.575 222.976H644.583L638.631 235.864C637.479 238.384 635.871 239.08 632.847 239.08ZM650.496 239.08H648.528V235.816H651.48C652.368 235.816 652.752 235.576 652.992 235.048L647.112 222.976H651.192L653.736 228.472L654.744 231.304H654.984L655.944 228.448L658.224 222.976H662.232L656.28 235.864C655.128 238.384 653.52 239.08 650.496 239.08ZM669.027 235.24C664.923 235.24 662.163 232.792 662.163 229C662.163 225.16 664.923 222.736 669.027 222.736C673.131 222.736 675.891 225.16 675.891 229C675.891 232.792 673.131 235.24 669.027 235.24ZM669.027 232.048C671.451 232.048 672.315 231.112 672.315 229C672.315 226.888 671.451 225.904 669.027 225.904C666.579 225.904 665.739 226.888 665.739 229C665.739 231.112 666.579 232.048 669.027 232.048ZM681.849 235.24C678.465 235.24 676.857 233.152 676.857 230.464V222.976H680.457V229.264C680.457 231.208 681.273 232.024 683.553 232.024C685.905 232.024 686.745 231.112 686.745 229.072V222.976H690.345V235H686.985V231.328H686.793C686.481 233.344 685.017 235.24 681.849 235.24ZM563.841 261.24C559.713 261.24 557.073 258.792 557.073 255C557.073 251.16 559.713 248.736 563.841 248.736C567.705 248.736 570.345 250.8 570.345 253.92V254.256H566.769V254.064C566.769 252.528 565.641 251.976 563.769 251.976C561.633 251.976 560.649 252.768 560.649 255C560.649 257.208 561.633 258 563.769 258C565.641 258 566.769 257.448 566.769 255.912V255.72H570.345V256.056C570.345 259.152 567.705 261.24 563.841 261.24ZM575.014 261H571.414V248.976H574.75V252.168H574.966C575.302 250.224 576.574 248.736 578.998 248.736C581.686 248.736 582.79 250.584 582.79 252.936V254.928H579.19V253.68C579.19 252.36 578.662 251.784 577.198 251.784C575.59 251.784 575.014 252.528 575.014 254.04V261ZM589.998 261.24C585.99 261.24 583.254 259.272 583.254 255C583.254 251.16 585.966 248.736 589.926 248.736C593.862 248.736 596.478 250.8 596.478 254.568C596.478 255 596.43 255.312 596.382 255.72H586.59C586.686 257.568 587.55 258.36 589.878 258.36C592.014 258.36 592.758 257.808 592.758 256.776V256.536H596.358V256.8C596.358 259.416 593.814 261.24 589.998 261.24ZM589.854 251.544C587.718 251.544 586.806 252.264 586.638 253.824H593.022C592.926 252.24 591.966 251.544 589.854 251.544ZM601.22 261.24C598.628 261.24 597.068 260.04 597.068 258.024C597.068 256.248 598.388 255.144 600.956 254.88L606.116 254.352V253.896C606.116 252.336 605.42 251.904 603.5 251.904C601.676 251.904 600.932 252.384 600.932 253.752V253.848H597.308V253.776C597.308 250.8 599.804 248.736 603.764 248.736C607.772 248.736 609.668 250.8 609.668 253.944V261H606.308V258.24H606.116C605.564 260.112 603.884 261.24 601.22 261.24ZM600.692 257.784C600.692 258.432 601.196 258.696 602.252 258.696C604.7 258.696 606.02 258.12 606.116 256.416L601.94 256.896C601.076 256.968 600.692 257.208 600.692 257.784ZM619.485 261H616.509C613.701 261 611.997 259.68 611.997 256.656V251.952H610.101V248.976H611.997V246.648H615.597V248.976H619.485V251.952H615.597V256.248C615.597 257.448 616.053 257.76 617.325 257.76H619.485V261ZM626.737 261.24C622.729 261.24 619.993 259.272 619.993 255C619.993 251.16 622.705 248.736 626.665 248.736C630.601 248.736 633.217 250.8 633.217 254.568C633.217 255 633.169 255.312 633.121 255.72H623.329C623.425 257.568 624.289 258.36 626.617 258.36C628.753 258.36 629.497 257.808 629.497 256.776V256.536H633.097V256.8C633.097 259.416 630.553 261.24 626.737 261.24ZM626.593 251.544C624.457 251.544 623.545 252.264 623.377 253.824H629.761C629.665 252.24 628.705 251.544 626.593 251.544ZM639.64 261.24C635.896 261.24 633.832 258.792 633.832 255C633.832 251.16 635.872 248.736 639.448 248.736C642.304 248.736 643.768 250.152 644.176 252.168H644.392V244.92H647.992V261H644.632V257.664H644.44C643.984 260.04 642.4 261.24 639.64 261.24ZM637.48 255C637.48 257.184 638.56 257.952 640.864 257.952C643.144 257.952 644.392 257.16 644.392 255.072V254.88C644.392 252.792 643.168 252.024 640.864 252.024C638.56 252.024 637.48 252.792 637.48 255ZM653.809 261H649.177V256.8H653.809V261Z" fill="white"/>
<path d="M873.471 147.2C869.131 147.2 867.511 145.1 867.511 141.56V140.98H870.691V141.56C870.691 143.54 871.091 144.28 873.471 144.28C875.831 144.28 876.291 143.58 876.291 141.7V133.6H879.471V141.7C879.471 145.14 877.831 147.2 873.471 147.2ZM889.88 147.2C885.44 147.2 882.68 144.48 882.68 140.3C882.68 136.12 885.44 133.4 889.88 133.4C894.42 133.4 897.16 136.12 897.16 140.3C897.16 144.48 894.42 147.2 889.88 147.2ZM889.88 144.32C892.82 144.32 893.96 143.28 893.96 140.3C893.96 137.32 892.82 136.28 889.88 136.28C886.94 136.28 885.86 137.32 885.86 140.3C885.86 143.28 886.94 144.32 889.88 144.32ZM903.468 147H900.468V133.6H903.468V147ZM910.038 147H907.038V133.6H910.238L915.038 139.94L916.878 142.76H917.098L916.958 140.06V133.6H919.958V147H916.758L911.818 140.6L910.118 138.08H909.918L910.038 140.54V147ZM936.096 147H933.096V136.3H928.116V133.6H941.076V136.3H936.096V147ZM947.152 147H944.152V133.6H947.152V138.92H954.152V133.6H957.152V147H954.152V141.62H947.152V147ZM972.101 147H960.761V133.6H972.101V136.3H963.761V138.92H971.801V141.6H963.761V144.3H972.101V147ZM983.542 147H980.542V133.6H983.542V147ZM993.733 147H987.273V133.6H993.733C998.033 133.6 1000.75 136.1 1000.75 140.3C1000.75 144.5 998.033 147 993.733 147ZM993.733 136.3H990.273V144.3H993.733C996.453 144.3 997.553 143.52 997.553 140.3C997.553 137.08 996.453 136.3 993.733 136.3ZM1015.39 147H1004.05V133.6H1015.39V136.3H1007.05V138.92H1015.09V141.6H1007.05V144.3H1015.39V147ZM1021.21 147H1017.85L1023.71 133.6H1027.99L1033.89 147H1030.45L1029.19 144.04H1022.49L1021.21 147ZM1024.91 138.42L1023.65 141.34H1028.03L1026.77 138.42L1025.95 136.34H1025.73L1024.91 138.42ZM828.296 167H825.296V153.6H832.296C835.396 153.6 837.396 155.36 837.396 158.44C837.396 161.52 835.396 163.3 832.296 163.3H828.296V167ZM831.976 156.3H828.296V160.6H831.976C833.636 160.6 834.416 160.12 834.416 158.44C834.416 156.8 833.636 156.3 831.976 156.3ZM843.46 167H840.46V153.6H843.46V167ZM854.49 167H851.49V156.3H846.51V153.6H859.47V156.3H854.49V167ZM869.406 167.2C864.986 167.2 862.246 164.48 862.246 160.3C862.246 156.12 864.986 153.4 869.406 153.4C873.566 153.4 876.246 155.48 876.246 158.88V159.18H872.906V158.88C872.906 157.12 871.906 156.28 869.466 156.28C866.526 156.28 865.426 157.32 865.426 160.3C865.426 163.28 866.526 164.32 869.466 164.32C871.906 164.32 872.906 163.48 872.906 161.72V161.42H876.246V161.72C876.246 165.12 873.586 167.2 869.406 167.2ZM882.546 167H879.546V153.6H882.546V158.92H889.546V153.6H892.546V167H889.546V161.62H882.546V167ZM899.155 167H896.155V153.6H899.155V167ZM905.726 167H902.726V153.6H905.926L910.726 159.94L912.566 162.76H912.786L912.646 160.06V153.6H915.646V167H912.446L907.506 160.6L905.806 158.08H905.606L905.726 160.54V167ZM925.558 167.2C921.458 167.2 918.938 164.48 918.938 160.3C918.938 156.12 921.778 153.4 926.378 153.4C930.578 153.4 933.238 155.36 933.238 158.58V158.74H929.898V158.58C929.898 157.02 928.878 156.28 926.298 156.28C923.258 156.28 922.118 157.32 922.118 160.3C922.118 163.28 923.218 164.32 926.158 164.32C929.238 164.32 930.178 163.84 930.258 162.14H925.718V159.92H933.258V167H930.478V164.12H930.318C929.858 165.88 928.458 167.2 925.558 167.2ZM947.892 167.2C943.832 167.2 941.552 165.6 941.552 162.48V162.36H944.552V162.72C944.552 163.96 945.172 164.46 947.892 164.46C950.292 164.46 950.852 164.1 950.852 163.2C950.852 162.38 950.392 162.08 949.012 161.84L945.252 161.3C942.852 160.92 941.432 159.72 941.432 157.54C941.432 155.52 943.072 153.4 947.572 153.4C951.692 153.4 953.612 155.3 953.612 158.12V158.24H950.592V157.96C950.592 156.68 949.932 156.14 947.272 156.14C945.112 156.14 944.452 156.56 944.452 157.42C944.452 158.2 944.892 158.48 946.012 158.68L949.772 159.28C952.772 159.76 953.852 161.22 953.852 163.06C953.852 165.24 952.152 167.2 947.892 167.2ZM968.413 167H957.073V153.6H968.413V156.3H960.073V158.92H968.113V161.6H960.073V164.3H968.413V167ZM977.849 167.2C973.789 167.2 971.509 165.6 971.509 162.48V162.36H974.509V162.72C974.509 163.96 975.129 164.46 977.849 164.46C980.249 164.46 980.809 164.1 980.809 163.2C980.809 162.38 980.349 162.08 978.969 161.84L975.209 161.3C972.809 160.92 971.389 159.72 971.389 157.54C971.389 155.52 973.029 153.4 977.529 153.4C981.649 153.4 983.569 155.3 983.569 158.12V158.24H980.549V157.96C980.549 156.68 979.889 156.14 977.229 156.14C975.069 156.14 974.409 156.56 974.409 157.42C974.409 158.2 974.849 158.48 975.969 158.68L979.729 159.28C982.729 159.76 983.809 161.22 983.809 163.06C983.809 165.24 982.109 167.2 977.849 167.2ZM993.11 167.2C989.05 167.2 986.77 165.6 986.77 162.48V162.36H989.77V162.72C989.77 163.96 990.39 164.46 993.11 164.46C995.51 164.46 996.07 164.1 996.07 163.2C996.07 162.38 995.61 162.08 994.23 161.84L990.47 161.3C988.07 160.92 986.65 159.72 986.65 157.54C986.65 155.52 988.29 153.4 992.79 153.4C996.91 153.4 998.83 155.3 998.83 158.12V158.24H995.81V157.96C995.81 156.68 995.15 156.14 992.49 156.14C990.33 156.14 989.67 156.56 989.67 157.42C989.67 158.2 990.11 158.48 991.23 158.68L994.99 159.28C997.99 159.76 999.07 161.22 999.07 163.06C999.07 165.24 997.37 167.2 993.11 167.2ZM1005.29 167H1002.29V153.6H1005.29V167ZM1015.76 167.2C1011.32 167.2 1008.56 164.48 1008.56 160.3C1008.56 156.12 1011.32 153.4 1015.76 153.4C1020.3 153.4 1023.04 156.12 1023.04 160.3C1023.04 164.48 1020.3 167.2 1015.76 167.2ZM1015.76 164.32C1018.7 164.32 1019.84 163.28 1019.84 160.3C1019.84 157.32 1018.7 156.28 1015.76 156.28C1012.82 156.28 1011.74 157.32 1011.74 160.3C1011.74 163.28 1012.82 164.32 1015.76 164.32ZM1029.35 167H1026.35V153.6H1029.55L1034.35 159.94L1036.19 162.76H1036.41L1036.27 160.06V153.6H1039.27V167H1036.07L1031.13 160.6L1029.43 158.08H1029.23L1029.35 160.54V167ZM1050.41 167H1047.05L1052.91 153.6H1057.19L1063.09 167H1059.65L1058.39 164.04H1051.69L1050.41 167ZM1054.11 158.42L1052.85 161.34H1057.23L1055.97 158.42L1055.15 156.34H1054.93L1054.11 158.42ZM1073.25 167H1070.25V156.3H1065.27V153.6H1078.23V156.3H1073.25V167Z" fill="white" fill-opacity="0.85"/>
<path d="M813.916 209.24C809.212 209.24 806.212 207.776 806.212 204.584C806.212 202.16 807.94 201.032 810.028 200.6V200.336C807.916 199.976 806.692 198.8 806.692 196.904C806.692 194.312 809.164 192.68 813.892 192.68C818.668 192.68 821.116 194.312 821.116 196.904C821.116 198.8 819.916 199.976 817.756 200.336V200.6C820.012 201.032 821.572 202.16 821.572 204.584C821.572 207.776 818.548 209.24 813.916 209.24ZM813.892 199.472C816.676 199.472 817.516 198.944 817.516 197.816C817.516 196.664 816.796 196.136 813.892 196.136C811.06 196.136 810.292 196.664 810.292 197.816C810.292 198.944 811.156 199.472 813.892 199.472ZM813.892 205.784C816.988 205.784 817.924 205.232 817.924 203.84C817.924 202.496 817.036 201.944 813.892 201.944C810.748 201.944 809.86 202.496 809.86 203.84C809.86 205.232 810.772 205.784 813.892 205.784ZM826.894 201.152H822.262V196.976H826.894V201.152ZM826.894 209H822.262V204.8H826.894V209ZM835.772 209.24C830.588 209.24 827.732 205.976 827.732 200.96C827.732 195.968 830.588 192.68 835.772 192.68C840.932 192.68 843.812 195.968 843.812 200.96C843.812 205.976 840.932 209.24 835.772 209.24ZM835.772 205.736C838.82 205.736 839.948 204.416 839.948 200.96C839.948 197.504 838.82 196.184 835.772 196.184C832.7 196.184 831.596 197.504 831.596 200.96C831.596 204.416 832.7 205.736 835.772 205.736ZM852.542 209.24C847.358 209.24 844.502 205.976 844.502 200.96C844.502 195.968 847.358 192.68 852.542 192.68C857.702 192.68 860.582 195.968 860.582 200.96C860.582 205.976 857.702 209.24 852.542 209.24ZM852.542 205.736C855.59 205.736 856.718 204.416 856.718 200.96C856.718 197.504 855.59 196.184 852.542 196.184C849.47 196.184 848.366 197.504 848.366 200.96C848.366 204.416 849.47 205.736 852.542 205.736ZM868.455 209H864.855V192.92H873.255C876.975 192.92 879.375 195.032 879.375 198.728C879.375 202.424 876.975 204.56 873.255 204.56H868.455V209ZM872.871 196.16H868.455V201.32H872.871C874.863 201.32 875.799 200.744 875.799 198.728C875.799 196.76 874.863 196.16 872.871 196.16ZM883.772 209H880.172V192.92H885.044L888.812 200.84L890.324 204.608H890.588L892.052 200.84L895.7 192.92H900.596V209H896.996V200.84L897.116 198.32H896.852L895.916 200.84L892.556 208.04H888.188L884.828 200.84L883.892 198.32H883.628L883.772 200.84V209ZM914.18 209H909.74L904.268 196.976H908.276L911.876 205.496H912.116L915.74 196.976H919.676L914.18 209ZM923.746 195.752H920.146V192.92H923.746V195.752ZM923.746 209H920.146V196.976H923.746V209ZM928.846 209.24C926.254 209.24 924.694 208.04 924.694 206.024C924.694 204.248 926.014 203.144 928.582 202.88L933.742 202.352V201.896C933.742 200.336 933.046 199.904 931.126 199.904C929.302 199.904 928.558 200.384 928.558 201.752V201.848H924.934V201.776C924.934 198.8 927.43 196.736 931.39 196.736C935.398 196.736 937.294 198.8 937.294 201.944V209H933.934V206.24H933.742C933.19 208.112 931.51 209.24 928.846 209.24ZM928.318 205.784C928.318 206.432 928.822 206.696 929.878 206.696C932.326 206.696 933.646 206.12 933.742 204.416L929.566 204.896C928.702 204.968 928.318 205.208 928.318 205.784ZM949.446 209.24C944.526 209.24 941.502 205.976 941.502 200.96C941.502 195.944 944.91 192.68 950.43 192.68C955.47 192.68 958.662 195.032 958.662 198.896V199.088H954.654V198.896C954.654 197.024 953.43 196.136 950.334 196.136C946.686 196.136 945.318 197.384 945.318 200.96C945.318 204.536 946.638 205.784 950.166 205.784C953.862 205.784 954.99 205.208 955.086 203.168H949.638V200.504H958.686V209H955.35V205.544H955.158C954.606 207.656 952.926 209.24 949.446 209.24ZM966.376 209.24C962.272 209.24 959.512 206.792 959.512 203C959.512 199.16 962.272 196.736 966.376 196.736C970.48 196.736 973.24 199.16 973.24 203C973.24 206.792 970.48 209.24 966.376 209.24ZM966.376 206.048C968.8 206.048 969.664 205.112 969.664 203C969.664 200.888 968.8 199.904 966.376 199.904C963.928 199.904 963.088 200.888 963.088 203C963.088 205.112 963.928 206.048 966.376 206.048ZM980.638 209.24C976.534 209.24 973.774 206.792 973.774 203C973.774 199.16 976.534 196.736 980.638 196.736C984.742 196.736 987.502 199.16 987.502 203C987.502 206.792 984.742 209.24 980.638 209.24ZM980.638 206.048C983.062 206.048 983.926 205.112 983.926 203C983.926 200.888 983.062 199.904 980.638 199.904C978.19 199.904 977.35 200.888 977.35 203C977.35 205.112 978.19 206.048 980.638 206.048ZM993.773 207.776C990.197 207.776 988.133 205.64 988.133 202.256C988.133 198.896 990.317 196.736 993.917 196.736C996.365 196.736 998.117 197.792 998.501 199.88H998.693V196.976H1002.05V207.248C1002.05 211.448 999.509 213.32 995.213 213.32C991.325 213.32 988.877 211.592 988.877 208.568H992.477C992.477 209.912 993.005 210.32 995.453 210.32C997.757 210.32 998.453 209.84 998.453 207.488V204.776H998.261C997.877 206.552 996.461 207.776 993.773 207.776ZM991.757 202.256C991.757 204.032 992.765 204.68 995.021 204.68C997.325 204.68 998.453 204.032 998.453 202.376V202.112C998.453 200.48 997.301 199.856 995.069 199.856C992.765 199.856 991.757 200.48 991.757 202.256ZM1007.08 209H1003.48V192.92H1007.08V209ZM1014.87 209.24C1010.86 209.24 1008.13 207.272 1008.13 203C1008.13 199.16 1010.84 196.736 1014.8 196.736C1018.73 196.736 1021.35 198.8 1021.35 202.568C1021.35 203 1021.3 203.312 1021.25 203.72H1011.46C1011.56 205.568 1012.42 206.36 1014.75 206.36C1016.89 206.36 1017.63 205.808 1017.63 204.776V204.536H1021.23V204.8C1021.23 207.416 1018.69 209.24 1014.87 209.24ZM1014.73 199.544C1012.59 199.544 1011.68 200.264 1011.51 201.824H1017.89C1017.8 200.24 1016.84 199.544 1014.73 199.544ZM1029.22 209H1025.62V192.92H1030.49L1034.26 200.84L1035.77 204.608H1036.04L1037.5 200.84L1041.15 192.92H1046.04V209H1042.44V200.84L1042.56 198.32H1042.3L1041.36 200.84L1038 208.04H1033.64L1030.28 200.84L1029.34 198.32H1029.08L1029.22 200.84V209ZM1053.84 209.24C1049.83 209.24 1047.09 207.272 1047.09 203C1047.09 199.16 1049.8 196.736 1053.76 196.736C1057.7 196.736 1060.32 198.8 1060.32 202.568C1060.32 203 1060.27 203.312 1060.22 203.72H1050.43C1050.52 205.568 1051.39 206.36 1053.72 206.36C1055.85 206.36 1056.6 205.808 1056.6 204.776V204.536H1060.2V204.8C1060.2 207.416 1057.65 209.24 1053.84 209.24ZM1053.69 199.544C1051.56 199.544 1050.64 200.264 1050.48 201.824H1056.86C1056.76 200.24 1055.8 199.544 1053.69 199.544ZM1067.75 209.24C1063.74 209.24 1061 207.272 1061 203C1061 199.16 1063.71 196.736 1067.67 196.736C1071.61 196.736 1074.23 198.8 1074.23 202.568C1074.23 203 1074.18 203.312 1074.13 203.72H1064.34C1064.43 205.568 1065.3 206.36 1067.63 206.36C1069.76 206.36 1070.51 205.808 1070.51 204.776V204.536H1074.11V204.8C1074.11 207.416 1071.56 209.24 1067.75 209.24ZM1067.6 199.544C1065.47 199.544 1064.55 200.264 1064.39 201.824H1070.77C1070.67 200.24 1069.71 199.544 1067.6 199.544ZM1083.75 209H1080.77C1077.96 209 1076.26 207.68 1076.26 204.656V199.952H1074.36V196.976H1076.26V194.648H1079.86V196.976H1083.75V199.952H1079.86V204.248C1079.86 205.448 1080.31 205.76 1081.59 205.76H1083.75V209ZM1089.01 209H1084.37V204.8H1089.01V209ZM817.724 235H814.124V222.16H808.148V218.92H823.7V222.16H817.724V235ZM828.111 235H824.511V218.92H828.111V226.648H828.303C828.687 224.608 830.103 222.736 833.175 222.736C836.415 222.736 837.999 224.848 837.999 227.632V235H834.399V228.712C834.399 226.696 833.535 225.976 831.279 225.976C828.855 225.976 828.111 226.96 828.111 228.976V235ZM845.719 235.24C841.711 235.24 838.975 233.272 838.975 229C838.975 225.16 841.687 222.736 845.647 222.736C849.583 222.736 852.199 224.8 852.199 228.568C852.199 229 852.151 229.312 852.103 229.72H842.311C842.407 231.568 843.271 232.36 845.599 232.36C847.735 232.36 848.479 231.808 848.479 230.776V230.536H852.079V230.8C852.079 233.416 849.535 235.24 845.719 235.24ZM845.575 225.544C843.439 225.544 842.527 226.264 842.359 227.824H848.743C848.647 226.24 847.687 225.544 845.575 225.544ZM860.069 221.752H856.469V218.92H860.069V221.752ZM860.069 235H856.469V222.976H860.069V235ZM865.074 235H861.474V222.976H864.81V226.672H865.026C865.338 224.656 866.778 222.736 869.922 222.736C873.21 222.736 874.77 224.848 874.77 227.512V235H871.17V228.712C871.17 226.792 870.378 225.976 868.17 225.976C865.89 225.976 865.074 226.888 865.074 228.928V235ZM885.063 235H880.623L875.151 222.976H879.159L882.759 231.496H882.999L886.623 222.976H890.559L885.063 235ZM894.629 221.752H891.029V218.92H894.629V221.752ZM894.629 235H891.029V222.976H894.629V235ZM904.506 235H901.53C898.722 235 897.018 233.68 897.018 230.656V225.952H895.122V222.976H897.018V220.648H900.618V222.976H904.506V225.952H900.618V230.248C900.618 231.448 901.074 231.76 902.346 231.76H904.506V235ZM909.07 235.24C906.478 235.24 904.918 234.04 904.918 232.024C904.918 230.248 906.238 229.144 908.806 228.88L913.966 228.352V227.896C913.966 226.336 913.27 225.904 911.35 225.904C909.526 225.904 908.782 226.384 908.782 227.752V227.848H905.158V227.776C905.158 224.8 907.654 222.736 911.614 222.736C915.622 222.736 917.518 224.8 917.518 227.944V235H914.158V232.24H913.966C913.414 234.112 911.734 235.24 909.07 235.24ZM908.542 231.784C908.542 232.432 909.046 232.696 910.102 232.696C912.55 232.696 913.87 232.12 913.966 230.416L909.79 230.896C908.926 230.968 908.542 231.208 908.542 231.784ZM927.335 235H924.359C921.551 235 919.847 233.68 919.847 230.656V225.952H917.951V222.976H919.847V220.648H923.447V222.976H927.335V225.952H923.447V230.248C923.447 231.448 923.903 231.76 925.175 231.76H927.335V235ZM931.803 221.752H928.203V218.92H931.803V221.752ZM931.803 235H928.203V222.976H931.803V235ZM939.615 235.24C935.511 235.24 932.751 232.792 932.751 229C932.751 225.16 935.511 222.736 939.615 222.736C943.719 222.736 946.479 225.16 946.479 229C946.479 232.792 943.719 235.24 939.615 235.24ZM939.615 232.048C942.039 232.048 942.903 231.112 942.903 229C942.903 226.888 942.039 225.904 939.615 225.904C937.167 225.904 936.327 226.888 936.327 229C936.327 231.112 937.167 232.048 939.615 232.048ZM951.07 235H947.47V222.976H950.806V226.672H951.022C951.334 224.656 952.774 222.736 955.918 222.736C959.206 222.736 960.766 224.848 960.766 227.512V235H957.166V228.712C957.166 226.792 956.374 225.976 954.166 225.976C951.886 225.976 951.07 226.888 951.07 228.928V235ZM972.146 235H967.658L964.37 222.976H968.09L969.506 228.472L970.01 232.216H970.25L971.21 228.112L973.034 222.976H977.666L979.466 228.112L980.426 232.216H980.666L981.194 228.472L982.586 222.976H986.258L982.85 235H978.362L976.298 229.216L975.41 225.904H975.146L974.234 229.216L972.146 235ZM990.34 221.752H986.74V218.92H990.34V221.752ZM990.34 235H986.74V222.976H990.34V235ZM995.345 235H991.745V218.92H995.345V235ZM1000.35 235H996.749V218.92H1000.35V235ZM1008.31 235H1004.98V218.92H1008.58V226.168H1008.77C1009.18 224.152 1010.64 222.736 1013.5 222.736C1017.1 222.736 1019.11 225.16 1019.11 229C1019.11 232.792 1017.07 235.24 1013.33 235.24C1010.54 235.24 1008.96 234.04 1008.53 231.664H1008.31V235ZM1008.58 229.072C1008.58 231.16 1009.8 231.952 1012.08 231.952C1014.41 231.952 1015.46 231.184 1015.46 229C1015.46 226.792 1014.41 226.024 1012.1 226.024C1009.78 226.024 1008.58 226.792 1008.58 228.88V229.072ZM1026.51 235.24C1022.51 235.24 1019.77 233.272 1019.77 229C1019.77 225.16 1022.48 222.736 1026.44 222.736C1030.38 222.736 1032.99 224.8 1032.99 228.568C1032.99 229 1032.95 229.312 1032.9 229.72H1023.11C1023.2 231.568 1024.07 232.36 1026.39 232.36C1028.53 232.36 1029.27 231.808 1029.27 230.776V230.536H1032.87V230.8C1032.87 233.416 1030.33 235.24 1026.51 235.24ZM1026.37 225.544C1024.23 225.544 1023.32 226.264 1023.15 227.824H1029.54C1029.44 226.24 1028.48 225.544 1026.37 225.544ZM1043.34 235.24C1039.28 235.24 1037.05 233.656 1037.05 230.872V230.8H1040.65V231.016C1040.65 232.096 1041.32 232.384 1043.36 232.384C1045.28 232.384 1045.74 232.072 1045.74 231.352C1045.74 230.68 1045.38 230.488 1043.96 230.296L1040.58 229.888C1038.18 229.624 1036.83 228.544 1036.83 226.528C1036.83 224.416 1038.63 222.736 1042.76 222.736C1046.7 222.736 1048.93 224.224 1048.93 227.152V227.224H1045.33V227.08C1045.33 226.096 1044.85 225.592 1042.64 225.592C1040.84 225.592 1040.38 225.904 1040.38 226.672C1040.38 227.296 1040.72 227.56 1042.3 227.752L1044.87 228.064C1048.09 228.424 1049.29 229.504 1049.29 231.496C1049.29 233.752 1047.06 235.24 1043.34 235.24ZM1056.64 235.24C1052.64 235.24 1049.9 233.272 1049.9 229C1049.9 225.16 1052.61 222.736 1056.57 222.736C1060.51 222.736 1063.12 224.8 1063.12 228.568C1063.12 229 1063.08 229.312 1063.03 229.72H1053.24C1053.33 231.568 1054.2 232.36 1056.52 232.36C1058.66 232.36 1059.4 231.808 1059.4 230.776V230.536H1063V230.8C1063 233.416 1060.46 235.24 1056.64 235.24ZM1056.5 225.544C1054.36 225.544 1053.45 226.264 1053.28 227.824H1059.67C1059.57 226.24 1058.61 225.544 1056.5 225.544ZM1067.77 235H1064.17V222.976H1067.51V226.672H1067.72C1068.03 224.656 1069.47 222.736 1072.62 222.736C1075.91 222.736 1077.47 224.848 1077.47 227.512V235H1073.87V228.712C1073.87 226.792 1073.07 225.976 1070.87 225.976C1068.59 225.976 1067.77 226.888 1067.77 228.928V235ZM1087.28 235H1084.3C1081.5 235 1079.79 233.68 1079.79 230.656V225.952H1077.9V222.976H1079.79V220.648H1083.39V222.976H1087.28V225.952H1083.39V230.248C1083.39 231.448 1083.85 231.76 1085.12 231.76H1087.28V235ZM905.713 261H901.273L895.801 248.976H899.809L903.409 257.496H903.649L907.273 248.976H911.209L905.713 261ZM915.279 247.752H911.679V244.92H915.279V247.752ZM915.279 261H911.679V248.976H915.279V261ZM920.379 261.24C917.787 261.24 916.227 260.04 916.227 258.024C916.227 256.248 917.547 255.144 920.115 254.88L925.275 254.352V253.896C925.275 252.336 924.579 251.904 922.659 251.904C920.835 251.904 920.091 252.384 920.091 253.752V253.848H916.467V253.776C916.467 250.8 918.963 248.736 922.923 248.736C926.931 248.736 928.827 250.8 928.827 253.944V261H925.467V258.24H925.275C924.723 260.112 923.043 261.24 920.379 261.24ZM919.851 257.784C919.851 258.432 920.355 258.696 921.411 258.696C923.859 258.696 925.179 258.12 925.275 256.416L921.099 256.896C920.235 256.968 919.851 257.208 919.851 257.784ZM939.779 261.24C935.771 261.24 933.035 259.272 933.035 255C933.035 251.16 935.747 248.736 939.707 248.736C943.643 248.736 946.259 250.8 946.259 254.568C946.259 255 946.211 255.312 946.163 255.72H936.371C936.467 257.568 937.331 258.36 939.659 258.36C941.795 258.36 942.539 257.808 942.539 256.776V256.536H946.139V256.8C946.139 259.416 943.595 261.24 939.779 261.24ZM939.635 251.544C937.499 251.544 936.587 252.264 936.419 253.824H942.803C942.707 252.24 941.747 251.544 939.635 251.544ZM950.906 261H947.306V248.976H950.642V252.624H950.834C951.122 250.608 952.322 248.736 955.346 248.736C958.13 248.736 959.546 250.44 959.81 252.672H960.026C960.314 250.632 961.538 248.736 964.634 248.736C967.73 248.736 969.242 250.776 969.242 253.512V261H965.642V254.712C965.642 252.72 964.946 251.976 962.882 251.976C960.698 251.976 960.074 252.84 960.074 254.928V261H956.474V254.712C956.474 252.72 955.778 251.976 953.714 251.976C951.53 251.976 950.906 252.84 950.906 254.928V261ZM974.288 261.24C971.696 261.24 970.136 260.04 970.136 258.024C970.136 256.248 971.456 255.144 974.024 254.88L979.184 254.352V253.896C979.184 252.336 978.488 251.904 976.568 251.904C974.744 251.904 974 252.384 974 253.752V253.848H970.376V253.776C970.376 250.8 972.872 248.736 976.832 248.736C980.84 248.736 982.736 250.8 982.736 253.944V261H979.376V258.24H979.184C978.632 260.112 976.952 261.24 974.288 261.24ZM973.76 257.784C973.76 258.432 974.264 258.696 975.32 258.696C977.768 258.696 979.088 258.12 979.184 256.416L975.008 256.896C974.144 256.968 973.76 257.208 973.76 257.784ZM987.68 247.752H984.08V244.92H987.68V247.752ZM987.68 261H984.08V248.976H987.68V261ZM992.685 261H989.085V244.92H992.685V261ZM998.481 261H993.849V256.8H998.481V261Z" fill="white"/>
</g>
<defs>
<clipPath id="clip0_487_1334">
<rect width="1271" height="455.06" fill="white" transform="translate(0 0.800049)"/>
</clipPath>
</defs>
</svg>
