<svg width="1271" height="456" viewBox="0 0 1271 456" fill="none" xmlns="http://www.w3.org/2000/svg">
<g clip-path="url(#clip0_487_1300)">
<path d="M96.293 32.2H84.393V18.8H96.293V22.18H88.153V23.78H95.993V27.14H88.153V28.82H96.293V32.2ZM103.482 32.2H98.5617L103.622 25.62V25.36L98.5617 18.8H103.482L106.722 23.14H106.982L110.042 18.8H114.962L109.922 25.44V25.7L114.962 32.2H110.042L106.822 27.84H106.562L103.482 32.2ZM121.118 32.2H117.358V18.8H124.778C127.958 18.8 129.958 20.62 129.958 23.8C129.958 26.98 127.958 28.82 124.778 28.82H121.118V32.2ZM124.358 22.18H121.118V25.44H124.358C125.678 25.44 126.218 25.18 126.218 23.8C126.218 22.44 125.678 22.18 124.358 22.18ZM144.256 32.2H132.756V18.8H136.516V28.82H144.256V32.2ZM154.476 32.4C149.816 32.4 147.056 29.68 147.056 25.5C147.056 21.32 149.816 18.6 154.476 18.6C159.256 18.6 161.976 21.32 161.976 25.5C161.976 29.68 159.256 32.4 154.476 32.4ZM154.476 28.8C157.196 28.8 157.976 28.16 157.976 25.5C157.976 22.84 157.196 22.2 154.476 22.2C151.756 22.2 151.056 22.84 151.056 25.5C151.056 28.16 151.756 28.8 154.476 28.8ZM168.739 32.2H164.979V18.8H172.799C176.339 18.8 178.199 20.28 178.199 22.9C178.199 25.02 177.139 26.28 174.579 26.6V26.8C175.959 27.16 176.399 27.82 176.899 28.84L178.559 32.2H174.219L172.619 28.92C172.139 27.92 171.739 27.64 170.279 27.64H168.739V32.2ZM168.739 22.18V24.84H172.759C173.859 24.84 174.259 24.64 174.259 23.5C174.259 22.44 173.859 22.18 172.759 22.18H168.739ZM193.059 32.2H181.159V18.8H193.059V22.18H184.919V23.78H192.759V27.14H184.919V28.82H193.059V32.2ZM201.007 32.2H196.127V28.36H201.007V32.2Z" fill="white"/>
<path d="M214.855 32.4C210.275 32.4 208.595 30.34 208.595 26.46V25.94H212.595V26.42C212.595 28.24 212.695 28.76 214.855 28.76C216.995 28.76 217.155 28.28 217.155 26.62V18.8H221.155V26.66C221.155 30.4 219.455 32.4 214.855 32.4ZM231.496 32.4C226.836 32.4 224.076 29.68 224.076 25.5C224.076 21.32 226.836 18.6 231.496 18.6C236.276 18.6 238.996 21.32 238.996 25.5C238.996 29.68 236.276 32.4 231.496 32.4ZM231.496 28.8C234.216 28.8 234.996 28.16 234.996 25.5C234.996 22.84 234.216 22.2 231.496 22.2C228.776 22.2 228.076 22.84 228.076 25.5C228.076 28.16 228.776 28.8 231.496 28.8ZM245.758 32.2H241.998V18.8H245.758V32.2ZM252.719 32.2H248.959V18.8H252.959L256.679 23.82L258.639 26.9H258.899L258.719 23.98V18.8H262.479V32.2H258.479L254.519 27.04L252.819 24.4H252.559L252.719 26.96V32.2ZM278.679 32.2H274.919V22.18H270.179V18.8H283.399V22.18H278.679V32.2ZM290.067 32.2H286.307V18.8H290.067V23.78H296.307V18.8H300.067V32.2H296.307V27.16H290.067V32.2ZM315.168 32.2H303.268V18.8H315.168V22.18H307.028V23.78H314.868V27.14H307.028V28.82H315.168V32.2ZM476.385 32.4C472.285 32.4 469.785 30.94 469.785 27.54V27.42H473.545V27.84C473.545 28.74 473.865 28.98 476.385 28.98C478.665 28.98 478.905 28.8 478.905 28.2C478.905 27.72 478.645 27.52 477.545 27.38L473.345 26.82C470.845 26.48 469.585 25.14 469.585 22.98C469.585 20.84 471.245 18.6 476.085 18.6C480.345 18.6 482.385 20.46 482.385 23.46V23.58H478.625V23.28C478.625 22.32 478.205 22 475.685 22C473.765 22 473.345 22.26 473.345 22.84C473.345 23.26 473.585 23.46 474.305 23.56L478.505 24.18C481.785 24.66 482.665 26.34 482.665 28.06C482.665 30.36 480.905 32.4 476.385 32.4ZM497.457 32.2H485.557V18.8H497.457V22.18H489.317V23.78H497.157V27.14H489.317V28.82H497.457V32.2ZM507.026 32.4C502.926 32.4 500.426 30.94 500.426 27.54V27.42H504.186V27.84C504.186 28.74 504.506 28.98 507.026 28.98C509.306 28.98 509.546 28.8 509.546 28.2C509.546 27.72 509.286 27.52 508.186 27.38L503.986 26.82C501.486 26.48 500.226 25.14 500.226 22.98C500.226 20.84 501.886 18.6 506.726 18.6C510.986 18.6 513.026 20.46 513.026 23.46V23.58H509.266V23.28C509.266 22.32 508.846 22 506.326 22C504.406 22 503.986 22.26 503.986 22.84C503.986 23.26 504.226 23.46 504.946 23.56L509.146 24.18C512.426 24.66 513.306 26.34 513.306 28.06C513.306 30.36 511.546 32.4 507.026 32.4ZM522.698 32.4C518.598 32.4 516.098 30.94 516.098 27.54V27.42H519.858V27.84C519.858 28.74 520.178 28.98 522.698 28.98C524.978 28.98 525.218 28.8 525.218 28.2C525.218 27.72 524.958 27.52 523.858 27.38L519.658 26.82C517.158 26.48 515.898 25.14 515.898 22.98C515.898 20.84 517.558 18.6 522.398 18.6C526.658 18.6 528.698 20.46 528.698 23.46V23.58H524.938V23.28C524.938 22.32 524.518 22 521.998 22C520.078 22 519.658 22.26 519.658 22.84C519.658 23.26 519.898 23.46 520.618 23.56L524.818 24.18C528.098 24.66 528.978 26.34 528.978 28.06C528.978 30.36 527.218 32.4 522.698 32.4ZM535.63 32.2H531.87V18.8H535.63V32.2ZM546.05 32.4C541.39 32.4 538.63 29.68 538.63 25.5C538.63 21.32 541.39 18.6 546.05 18.6C550.83 18.6 553.55 21.32 553.55 25.5C553.55 29.68 550.83 32.4 546.05 32.4ZM546.05 28.8C548.77 28.8 549.55 28.16 549.55 25.5C549.55 22.84 548.77 22.2 546.05 22.2C543.33 22.2 542.63 22.84 542.63 25.5C542.63 28.16 543.33 28.8 546.05 28.8ZM560.313 32.2H556.553V18.8H560.553L564.273 23.82L566.233 26.9H566.493L566.313 23.98V18.8H570.073V32.2H566.073L562.113 27.04L560.413 24.4H560.153L560.313 26.96V32.2Z" fill="#4A5568"/>
<path d="M334.53 32.2H323.03V18.8H326.79V28.82H334.53V32.2ZM349.43 32.2H337.53V18.8H349.43V22.18H341.29V23.78H349.13V27.14H341.29V28.82H349.43V32.2ZM360.698 32.2H356.938V22.18H352.198V18.8H365.418V22.18H360.698V32.2ZM372.447 32.2H367.527L372.587 25.62V25.36L367.527 18.8H372.447L375.687 23.14H375.947L379.007 18.8H383.927L378.887 25.44V25.7L383.927 32.2H379.007L375.787 27.84H375.527L372.447 32.2ZM390.083 32.2H386.323V18.8H393.743C396.923 18.8 398.923 20.62 398.923 23.8C398.923 26.98 396.923 28.82 393.743 28.82H390.083V32.2ZM393.323 22.18H390.083V25.44H393.323C394.643 25.44 395.183 25.18 395.183 23.8C395.183 22.44 394.643 22.18 393.323 22.18ZM413.221 32.2H401.721V18.8H405.481V28.82H413.221V32.2ZM423.441 32.4C418.781 32.4 416.021 29.68 416.021 25.5C416.021 21.32 418.781 18.6 423.441 18.6C428.221 18.6 430.941 21.32 430.941 25.5C430.941 29.68 428.221 32.4 423.441 32.4ZM423.441 28.8C426.161 28.8 426.941 28.16 426.941 25.5C426.941 22.84 426.161 22.2 423.441 22.2C420.721 22.2 420.021 22.84 420.021 25.5C420.021 28.16 420.721 28.8 423.441 28.8ZM437.704 32.2H433.944V18.8H441.764C445.304 18.8 447.164 20.28 447.164 22.9C447.164 25.02 446.104 26.28 443.544 26.6V26.8C444.924 27.16 445.364 27.82 445.864 28.84L447.524 32.2H443.184L441.584 28.92C441.104 27.92 440.704 27.64 439.244 27.64H437.704V32.2ZM437.704 22.18V24.84H441.724C442.824 24.84 443.224 24.64 443.224 23.5C443.224 22.44 442.824 22.18 441.724 22.18H437.704ZM462.023 32.2H450.123V18.8H462.023V22.18H453.883V23.78H461.723V27.14H453.883V28.82H462.023V32.2Z" fill="#CBE52A"/>
<line x1="241.994" y1="98.7" x2="947.994" y2="95.7084" stroke="white" stroke-width="3" stroke-dasharray="6 6"/>
<rect x="235" y="121.2" width="48" height="48" rx="24" transform="rotate(-90 235 121.2)" fill="white"/>
<rect x="235" y="121.2" width="48" height="48" rx="24" transform="rotate(-90 235 121.2)" stroke="#1D2939" stroke-width="2" stroke-linecap="round" stroke-linejoin="round" stroke-dasharray="7 7"/>
<circle cx="259" cy="97.2" r="18" transform="rotate(-90 259 97.2)" fill="#CBE52A"/>
<rect x="577.5" y="121.2" width="48" height="48" rx="24" transform="rotate(-90 577.5 121.2)" fill="white"/>
<rect x="577.5" y="121.2" width="48" height="48" rx="24" transform="rotate(-90 577.5 121.2)" stroke="#1D2939" stroke-width="2" stroke-linecap="round" stroke-linejoin="round" stroke-dasharray="7 7"/>
<circle cx="601.5" cy="97.2" r="18" transform="rotate(-90 601.5 97.2)" fill="#1D2939"/>
<rect x="920" y="121.2" width="48" height="48" rx="24" transform="rotate(-90 920 121.2)" fill="white"/>
<rect x="920" y="121.2" width="48" height="48" rx="24" transform="rotate(-90 920 121.2)" stroke="#1D2939" stroke-width="2" stroke-linecap="round" stroke-linejoin="round" stroke-dasharray="7 7"/>
<circle cx="944" cy="97.2" r="18" transform="rotate(-90 944 97.2)" fill="#CBE52A"/>
<path d="M192.738 146.2H186.278V132.8H192.738C197.038 132.8 199.758 135.3 199.758 139.5C199.758 143.7 197.038 146.2 192.738 146.2ZM192.738 135.5H189.278V143.5H192.738C195.458 143.5 196.558 142.72 196.558 139.5C196.558 136.28 195.458 135.5 192.738 135.5ZM206.06 146.2H203.06V132.8H206.06V146.2ZM218.51 146.2H214.23L208.67 132.8H212.29L216.31 143.16H216.51L220.47 132.8H224.07L218.51 146.2ZM238.048 146.2H226.708V132.8H238.048V135.5H229.708V138.12H237.748V140.8H229.708V143.5H238.048V146.2ZM249.489 146.2H246.489V132.8H249.489V146.2ZM256.06 146.2H253.06V132.8H256.26L261.06 139.14L262.9 141.96H263.12L262.98 139.26V132.8H265.98V146.2H262.78L257.84 139.8L256.14 137.28H255.94L256.06 139.74V146.2ZM277.031 146.2H274.031V135.5H269.051V132.8H282.011V135.5H277.031V146.2ZM291.987 146.4C287.547 146.4 284.787 143.68 284.787 139.5C284.787 135.32 287.547 132.6 291.987 132.6C296.527 132.6 299.267 135.32 299.267 139.5C299.267 143.68 296.527 146.4 291.987 146.4ZM291.987 143.52C294.927 143.52 296.067 142.48 296.067 139.5C296.067 136.52 294.927 135.48 291.987 135.48C289.047 135.48 287.967 136.52 287.967 139.5C287.967 142.48 289.047 143.52 291.987 143.52ZM315.121 146.2H312.121V135.5H307.141V132.8H320.101V135.5H315.121V146.2ZM326.177 146.2H323.177V132.8H326.177V138.12H333.177V132.8H336.177V146.2H333.177V140.82H326.177V146.2ZM351.126 146.2H339.786V132.8H351.126V135.5H342.786V138.12H350.826V140.8H342.786V143.5H351.126V146.2ZM170.245 166.2H167.245V152.8H178.585V155.5H170.245V158.52H178.285V161.2H170.245V166.2ZM184.863 166.2H181.863V152.8H189.263C192.563 152.8 194.443 154.26 194.443 156.82C194.443 159 193.183 160.3 190.663 160.54V160.7C191.863 161.02 192.323 161.66 192.822 162.6L194.763 166.2H191.283L189.443 162.72C188.903 161.68 188.403 161.34 186.843 161.34H184.863V166.2ZM184.863 155.5V159.08H189.243C190.663 159.08 191.303 158.68 191.303 157.28C191.303 155.96 190.663 155.5 189.243 155.5H184.863ZM200.17 166.2H196.81L202.67 152.8H206.95L212.85 166.2H209.41L208.15 163.24H201.45L200.17 166.2ZM203.87 157.62L202.61 160.54H206.99L205.73 157.62L204.91 155.54H204.69L203.87 157.62ZM218.55 166.2H215.55V152.8H219.61L222.75 159.4L224.01 162.54H224.23L225.45 159.4L228.49 152.8H232.57V166.2H229.57V159.4L229.67 157.3H229.45L228.67 159.4L225.87 165.4H222.23L219.43 159.4L218.65 157.3H218.43L218.55 159.4V166.2ZM247.484 166.2H236.144V152.8H247.484V155.5H239.144V158.12H247.184V160.8H239.144V163.5H247.484V166.2ZM257.879 166.2H253.419L250.259 152.8H253.619L255.239 160.4L255.699 163.34H255.919L256.539 160.4L258.779 152.8H263.239L265.459 160.4L266.079 163.34H266.299L266.759 160.4L268.379 152.8H271.659L268.479 166.2H264.019L262.019 159.5L261.079 155.64H260.859L259.919 159.5L257.879 166.2ZM281.595 166.4C277.155 166.4 274.395 163.68 274.395 159.5C274.395 155.32 277.155 152.6 281.595 152.6C286.135 152.6 288.875 155.32 288.875 159.5C288.875 163.68 286.135 166.4 281.595 166.4ZM281.595 163.52C284.535 163.52 285.675 162.48 285.675 159.5C285.675 156.52 284.535 155.48 281.595 155.48C278.655 155.48 277.575 156.52 277.575 159.5C277.575 162.48 278.655 163.52 281.595 163.52ZM295.183 166.2H292.183V152.8H299.583C302.883 152.8 304.763 154.26 304.763 156.82C304.763 159 303.503 160.3 300.983 160.54V160.7C302.183 161.02 302.643 161.66 303.143 162.6L305.083 166.2H301.603L299.763 162.72C299.223 161.68 298.723 161.34 297.163 161.34H295.183V166.2ZM295.183 155.5V159.08H299.563C300.983 159.08 301.623 158.68 301.623 157.28C301.623 155.96 300.983 155.5 299.563 155.5H295.183ZM311.03 166.2H308.03V152.8H311.03V158.12H314.37L317.93 152.8H321.53L316.87 159.4L321.47 166.2H317.87L314.41 161.04H311.03V166.2ZM326.288 166.6H323.088L330.288 152.4H333.488L326.288 166.6ZM338.24 166.2H334.88L340.74 152.8H345.02L350.92 166.2H347.48L346.22 163.24H339.52L338.24 166.2ZM341.94 157.62L340.68 160.54H345.06L343.8 157.62L342.98 155.54H342.76L341.94 157.62ZM356.62 166.2H353.62V152.8H360.62C363.72 152.8 365.72 154.56 365.72 157.64C365.72 160.72 363.72 162.5 360.62 162.5H356.62V166.2ZM360.3 155.5H356.62V159.8H360.3C361.96 159.8 362.74 159.32 362.74 157.64C362.74 156 361.96 155.5 360.3 155.5ZM371.784 166.2H368.784V152.8H371.784V166.2Z" fill="white" fill-opacity="0.85"/>
<path d="M195.963 201.44C190.731 201.44 188.067 198.8 188.067 194.48V185.12H191.667V194.216C191.667 196.952 192.699 197.936 195.963 197.936C199.251 197.936 200.259 196.952 200.259 194.216V185.12H203.859V194.48C203.859 198.8 201.219 201.44 195.963 201.44ZM211.264 201.44C207.208 201.44 204.976 199.856 204.976 197.072V197H208.576V197.216C208.576 198.296 209.248 198.584 211.288 198.584C213.208 198.584 213.664 198.272 213.664 197.552C213.664 196.88 213.304 196.688 211.888 196.496L208.504 196.088C206.104 195.824 204.76 194.744 204.76 192.728C204.76 190.616 206.56 188.936 210.688 188.936C214.624 188.936 216.856 190.424 216.856 193.352V193.424H213.256V193.28C213.256 192.296 212.776 191.792 210.568 191.792C208.768 191.792 208.312 192.104 208.312 192.872C208.312 193.496 208.648 193.76 210.232 193.952L212.8 194.264C216.016 194.624 217.216 195.704 217.216 197.696C217.216 199.952 214.984 201.44 211.264 201.44ZM221.788 187.952H218.188V185.12H221.788V187.952ZM221.788 201.2H218.188V189.176H221.788V201.2ZM226.792 201.2H223.192V189.176H226.528V192.872H226.744C227.056 190.856 228.496 188.936 231.64 188.936C234.928 188.936 236.488 191.048 236.488 193.712V201.2H232.888V194.912C232.888 192.992 232.096 192.176 229.888 192.176C227.608 192.176 226.792 193.088 226.792 195.128V201.2ZM243.11 199.976C239.534 199.976 237.47 197.84 237.47 194.456C237.47 191.096 239.654 188.936 243.254 188.936C245.702 188.936 247.454 189.992 247.838 192.08H248.03V189.176H251.39V199.448C251.39 203.648 248.846 205.52 244.55 205.52C240.662 205.52 238.214 203.792 238.214 200.768H241.814C241.814 202.112 242.342 202.52 244.79 202.52C247.094 202.52 247.79 202.04 247.79 199.688V196.976H247.598C247.214 198.752 245.798 199.976 243.11 199.976ZM241.094 194.456C241.094 196.232 242.102 196.88 244.358 196.88C246.662 196.88 247.79 196.232 247.79 194.576V194.312C247.79 192.68 246.638 192.056 244.406 192.056C242.102 192.056 241.094 192.68 241.094 194.456ZM264.514 201.2H261.538C258.73 201.2 257.026 199.88 257.026 196.856V192.152H255.13V189.176H257.026V186.848H260.626V189.176H264.514V192.152H260.626V196.448C260.626 197.648 261.082 197.96 262.354 197.96H264.514V201.2ZM268.982 201.2H265.382V185.12H268.982V192.848H269.174C269.558 190.808 270.974 188.936 274.046 188.936C277.286 188.936 278.87 191.048 278.87 193.832V201.2H275.27V194.912C275.27 192.896 274.406 192.176 272.15 192.176C269.726 192.176 268.982 193.16 268.982 195.176V201.2ZM286.591 201.44C282.583 201.44 279.847 199.472 279.847 195.2C279.847 191.36 282.559 188.936 286.519 188.936C290.455 188.936 293.071 191 293.071 194.768C293.071 195.2 293.023 195.512 292.975 195.92H283.183C283.279 197.768 284.143 198.56 286.471 198.56C288.607 198.56 289.351 198.008 289.351 196.976V196.736H292.951V197C292.951 199.616 290.407 201.44 286.591 201.44ZM286.447 191.744C284.311 191.744 283.399 192.464 283.231 194.024H289.615C289.519 192.44 288.559 191.744 286.447 191.744ZM302.716 201.44C298.972 201.44 296.908 198.992 296.908 195.2C296.908 191.36 298.948 188.936 302.524 188.936C305.38 188.936 306.844 190.352 307.252 192.368H307.468V185.12H311.068V201.2H307.708V197.864H307.516C307.06 200.24 305.476 201.44 302.716 201.44ZM300.556 195.2C300.556 197.384 301.636 198.152 303.94 198.152C306.22 198.152 307.468 197.36 307.468 195.272V195.08C307.468 192.992 306.244 192.224 303.94 192.224C301.636 192.224 300.556 192.992 300.556 195.2ZM318.901 201.44C314.797 201.44 312.037 198.992 312.037 195.2C312.037 191.36 314.797 188.936 318.901 188.936C323.005 188.936 325.765 191.36 325.765 195.2C325.765 198.992 323.005 201.44 318.901 201.44ZM318.901 198.248C321.325 198.248 322.189 197.312 322.189 195.2C322.189 193.088 321.325 192.104 318.901 192.104C316.453 192.104 315.613 193.088 315.613 195.2C315.613 197.312 316.453 198.248 318.901 198.248ZM333.163 201.44C329.035 201.44 326.395 198.992 326.395 195.2C326.395 191.36 329.035 188.936 333.163 188.936C337.027 188.936 339.667 191 339.667 194.12V194.456H336.091V194.264C336.091 192.728 334.963 192.176 333.091 192.176C330.955 192.176 329.971 192.968 329.971 195.2C329.971 197.408 330.955 198.2 333.091 198.2C334.963 198.2 336.091 197.648 336.091 196.112V195.92H339.667V196.256C339.667 199.352 337.027 201.44 333.163 201.44ZM346.808 201.44C342.752 201.44 340.52 199.856 340.52 197.072V197H344.12V197.216C344.12 198.296 344.792 198.584 346.832 198.584C348.752 198.584 349.208 198.272 349.208 197.552C349.208 196.88 348.848 196.688 347.432 196.496L344.048 196.088C341.648 195.824 340.304 194.744 340.304 192.728C340.304 190.616 342.104 188.936 346.232 188.936C350.168 188.936 352.4 190.424 352.4 193.352V193.424H348.8V193.28C348.8 192.296 348.32 191.792 346.112 191.792C344.312 191.792 343.856 192.104 343.856 192.872C343.856 193.496 344.192 193.76 345.776 193.952L348.344 194.264C351.56 194.624 352.76 195.704 352.76 197.696C352.76 199.952 350.528 201.44 346.808 201.44ZM156.887 231.28H153.287V215.176H156.623V218.464H156.863C157.295 216.16 158.831 214.936 161.663 214.936C165.359 214.936 167.423 217.384 167.423 221.2C167.423 225.016 165.407 227.44 161.783 227.44C158.999 227.44 157.463 226.072 157.055 223.96H156.887V231.28ZM156.887 221.368C156.887 223.432 158.135 224.152 160.391 224.152C162.695 224.152 163.775 223.384 163.775 221.2C163.775 218.992 162.695 218.248 160.415 218.248C158.087 218.248 156.887 219.04 156.887 221.176V221.368ZM172.04 227.2H168.44V215.176H171.776V218.368H171.992C172.328 216.424 173.6 214.936 176.024 214.936C178.712 214.936 179.816 216.784 179.816 219.136V221.128H176.216V219.88C176.216 218.56 175.688 217.984 174.224 217.984C172.616 217.984 172.04 218.728 172.04 220.24V227.2ZM187.048 227.44C182.944 227.44 180.184 224.992 180.184 221.2C180.184 217.36 182.944 214.936 187.048 214.936C191.152 214.936 193.912 217.36 193.912 221.2C193.912 224.992 191.152 227.44 187.048 227.44ZM187.048 224.248C189.472 224.248 190.336 223.312 190.336 221.2C190.336 219.088 189.472 218.104 187.048 218.104C184.6 218.104 183.76 219.088 183.76 221.2C183.76 223.312 184.6 224.248 187.048 224.248ZM203.854 227.2H199.414L193.942 215.176H197.95L201.55 223.696H201.79L205.414 215.176H209.35L203.854 227.2ZM213.42 213.952H209.82V211.12H213.42V213.952ZM213.42 227.2H209.82V215.176H213.42V227.2ZM220.201 227.44C216.457 227.44 214.393 224.992 214.393 221.2C214.393 217.36 216.433 214.936 220.009 214.936C222.865 214.936 224.329 216.352 224.737 218.368H224.953V211.12H228.553V227.2H225.193V223.864H225.001C224.545 226.24 222.961 227.44 220.201 227.44ZM218.041 221.2C218.041 223.384 219.121 224.152 221.425 224.152C223.705 224.152 224.953 223.36 224.953 221.272V221.08C224.953 218.992 223.729 218.224 221.425 218.224C219.121 218.224 218.041 218.992 218.041 221.2ZM236.362 227.44C232.354 227.44 229.618 225.472 229.618 221.2C229.618 217.36 232.33 214.936 236.29 214.936C240.226 214.936 242.842 217 242.842 220.768C242.842 221.2 242.794 221.512 242.746 221.92H232.954C233.05 223.768 233.914 224.56 236.242 224.56C238.378 224.56 239.122 224.008 239.122 222.976V222.736H242.722V223C242.722 225.616 240.178 227.44 236.362 227.44ZM236.218 217.744C234.082 217.744 233.17 218.464 233.002 220.024H239.386C239.29 218.44 238.33 217.744 236.218 217.744ZM249.264 227.44C245.52 227.44 243.456 224.992 243.456 221.2C243.456 217.36 245.496 214.936 249.072 214.936C251.928 214.936 253.392 216.352 253.8 218.368H254.016V211.12H257.616V227.2H254.256V223.864H254.064C253.608 226.24 252.024 227.44 249.264 227.44ZM247.104 221.2C247.104 223.384 248.184 224.152 250.488 224.152C252.768 224.152 254.016 223.36 254.016 221.272V221.08C254.016 218.992 252.792 218.224 250.488 218.224C248.184 218.224 247.104 218.992 247.104 221.2ZM265.864 213.952H262.264V211.12H265.864V213.952ZM265.864 227.2H262.264V215.176H265.864V227.2ZM270.869 227.2H267.269V215.176H270.605V218.872H270.821C271.133 216.856 272.573 214.936 275.717 214.936C279.005 214.936 280.565 217.048 280.565 219.712V227.2H276.965V220.912C276.965 218.992 276.173 218.176 273.965 218.176C271.685 218.176 270.869 219.088 270.869 221.128V227.2ZM293.601 227.2H290.625C287.817 227.2 286.113 225.88 286.113 222.856V218.152H284.217V215.176H286.113V212.848H289.713V215.176H293.601V218.152H289.713V222.448C289.713 223.648 290.169 223.96 291.441 223.96H293.601V227.2ZM298.069 227.2H294.469V211.12H298.069V218.848H298.261C298.645 216.808 300.061 214.936 303.133 214.936C306.373 214.936 307.957 217.048 307.957 219.832V227.2H304.357V220.912C304.357 218.896 303.493 218.176 301.237 218.176C298.813 218.176 298.069 219.16 298.069 221.176V227.2ZM315.678 227.44C311.67 227.44 308.934 225.472 308.934 221.2C308.934 217.36 311.646 214.936 315.606 214.936C319.542 214.936 322.158 217 322.158 220.768C322.158 221.2 322.11 221.512 322.062 221.92H312.27C312.366 223.768 313.23 224.56 315.558 224.56C317.694 224.56 318.438 224.008 318.438 222.976V222.736H322.038V223C322.038 225.616 319.494 227.44 315.678 227.44ZM315.534 217.744C313.398 217.744 312.486 218.464 312.318 220.024H318.702C318.606 218.44 317.646 217.744 315.534 217.744ZM330.028 227.2H326.428V211.12H331.3L335.068 219.04L336.58 222.808H336.844L338.308 219.04L341.956 211.12H346.852V227.2H343.252V219.04L343.372 216.52H343.108L342.172 219.04L338.812 226.24H334.444L331.084 219.04L330.148 216.52H329.884L330.028 219.04V227.2ZM354.668 227.44C350.564 227.44 347.804 224.992 347.804 221.2C347.804 217.36 350.564 214.936 354.668 214.936C358.772 214.936 361.532 217.36 361.532 221.2C361.532 224.992 358.772 227.44 354.668 227.44ZM354.668 224.248C357.092 224.248 357.956 223.312 357.956 221.2C357.956 219.088 357.092 218.104 354.668 218.104C352.22 218.104 351.38 219.088 351.38 221.2C351.38 223.312 352.22 224.248 354.668 224.248ZM366.122 227.2H362.522V215.176H365.858V218.368H366.074C366.41 216.424 367.682 214.936 370.106 214.936C372.794 214.936 373.898 216.784 373.898 219.136V221.128H370.298V219.88C370.298 218.56 369.77 217.984 368.306 217.984C366.698 217.984 366.122 218.728 366.122 220.24V227.2ZM381.106 227.44C377.098 227.44 374.362 225.472 374.362 221.2C374.362 217.36 377.074 214.936 381.034 214.936C384.97 214.936 387.586 217 387.586 220.768C387.586 221.2 387.538 221.512 387.49 221.92H377.698C377.794 223.768 378.658 224.56 380.986 224.56C383.122 224.56 383.866 224.008 383.866 222.976V222.736H387.466V223C387.466 225.616 384.922 227.44 381.106 227.44ZM380.962 217.744C378.826 217.744 377.914 218.464 377.746 220.024H384.13C384.034 218.44 383.074 217.744 380.962 217.744ZM209.196 253.2H205.596V237.12H209.196V253.2ZM214.2 253.2H210.6V241.176H213.936V244.872H214.152C214.464 242.856 215.904 240.936 219.048 240.936C222.336 240.936 223.896 243.048 223.896 245.712V253.2H220.296V246.912C220.296 244.992 219.504 244.176 217.296 244.176C215.016 244.176 214.2 245.088 214.2 247.128V253.2ZM229.798 253.2H226.198V244.152H224.494V241.176H226.27C226.654 238.752 228.766 237.12 232.462 237.12H233.518V239.736H231.886C230.302 239.736 229.558 240 229.654 241.176H233.518V244.152H229.798V253.2ZM240.634 253.44C236.53 253.44 233.77 250.992 233.77 247.2C233.77 243.36 236.53 240.936 240.634 240.936C244.738 240.936 247.498 243.36 247.498 247.2C247.498 250.992 244.738 253.44 240.634 253.44ZM240.634 250.248C243.058 250.248 243.922 249.312 243.922 247.2C243.922 245.088 243.058 244.104 240.634 244.104C238.186 244.104 237.346 245.088 237.346 247.2C237.346 249.312 238.186 250.248 240.634 250.248ZM257.784 253.44C253.728 253.44 251.496 251.856 251.496 249.072V249H255.096V249.216C255.096 250.296 255.768 250.584 257.808 250.584C259.728 250.584 260.184 250.272 260.184 249.552C260.184 248.88 259.824 248.688 258.408 248.496L255.024 248.088C252.624 247.824 251.28 246.744 251.28 244.728C251.28 242.616 253.08 240.936 257.208 240.936C261.144 240.936 263.376 242.424 263.376 245.352V245.424H259.776V245.28C259.776 244.296 259.296 243.792 257.088 243.792C255.288 243.792 254.832 244.104 254.832 244.872C254.832 245.496 255.168 245.76 256.752 245.952L259.32 246.264C262.536 246.624 263.736 247.704 263.736 249.696C263.736 251.952 261.504 253.44 257.784 253.44ZM271.092 253.44C267.084 253.44 264.348 251.472 264.348 247.2C264.348 243.36 267.06 240.936 271.02 240.936C274.956 240.936 277.572 243 277.572 246.768C277.572 247.2 277.524 247.512 277.476 247.92H267.684C267.78 249.768 268.644 250.56 270.972 250.56C273.108 250.56 273.852 250.008 273.852 248.976V248.736H277.452V249C277.452 251.616 274.908 253.44 271.092 253.44ZM270.948 243.744C268.812 243.744 267.9 244.464 267.732 246.024H274.116C274.02 244.44 273.06 243.744 270.948 243.744ZM285.027 253.44C280.899 253.44 278.259 250.992 278.259 247.2C278.259 243.36 280.899 240.936 285.027 240.936C288.891 240.936 291.531 243 291.531 246.12V246.456H287.955V246.264C287.955 244.728 286.827 244.176 284.955 244.176C282.819 244.176 281.835 244.968 281.835 247.2C281.835 249.408 282.819 250.2 284.955 250.2C286.827 250.2 287.955 249.648 287.955 248.112V247.92H291.531V248.256C291.531 251.352 288.891 253.44 285.027 253.44ZM301.072 253.2H298.096C295.288 253.2 293.584 251.88 293.584 248.856V244.152H291.688V241.176H293.584V238.848H297.184V241.176H301.072V244.152H297.184V248.448C297.184 249.648 297.64 249.96 298.912 249.96H301.072V253.2ZM305.54 239.952H301.94V237.12H305.54V239.952ZM305.54 253.2H301.94V241.176H305.54V253.2ZM313.353 253.44C309.249 253.44 306.489 250.992 306.489 247.2C306.489 243.36 309.249 240.936 313.353 240.936C317.457 240.936 320.217 243.36 320.217 247.2C320.217 250.992 317.457 253.44 313.353 253.44ZM313.353 250.248C315.777 250.248 316.641 249.312 316.641 247.2C316.641 245.088 315.777 244.104 313.353 244.104C310.905 244.104 310.065 245.088 310.065 247.2C310.065 249.312 310.905 250.248 313.353 250.248ZM324.807 253.2H321.207V241.176H324.543V244.872H324.759C325.071 242.856 326.511 240.936 329.655 240.936C332.943 240.936 334.503 243.048 334.503 245.712V253.2H330.903V246.912C330.903 244.992 330.111 244.176 327.903 244.176C325.623 244.176 324.807 245.088 324.807 247.128V253.2Z" fill="white"/>
<path d="M485.987 145.4C481.647 145.4 480.027 143.3 480.027 139.76V139.18H483.207V139.76C483.207 141.74 483.607 142.48 485.987 142.48C488.347 142.48 488.807 141.78 488.807 139.9V131.8H491.987V139.9C491.987 143.34 490.347 145.4 485.987 145.4ZM502.395 145.4C497.955 145.4 495.195 142.68 495.195 138.5C495.195 134.32 497.955 131.6 502.395 131.6C506.935 131.6 509.675 134.32 509.675 138.5C509.675 142.68 506.935 145.4 502.395 145.4ZM502.395 142.52C505.335 142.52 506.475 141.48 506.475 138.5C506.475 135.52 505.335 134.48 502.395 134.48C499.455 134.48 498.375 135.52 498.375 138.5C498.375 141.48 499.455 142.52 502.395 142.52ZM515.984 145.2H512.984V131.8H515.984V145.2ZM522.554 145.2H519.554V131.8H522.754L527.554 138.14L529.394 140.96H529.614L529.474 138.26V131.8H532.474V145.2H529.274L524.334 138.8L522.634 136.28H522.434L522.554 138.74V145.2ZM548.612 145.2H545.612V134.5H540.632V131.8H553.592V134.5H548.612V145.2ZM559.667 145.2H556.667V131.8H559.667V137.12H566.667V131.8H569.667V145.2H566.667V139.82H559.667V145.2ZM584.617 145.2H573.277V131.8H584.617V134.5H576.277V137.12H584.317V139.8H576.277V142.5H584.617V145.2ZM561.855 165.4C557.795 165.4 555.515 163.8 555.515 160.68V160.56H558.515V160.92C558.515 162.16 559.135 162.66 561.855 162.66C564.255 162.66 564.815 162.3 564.815 161.4C564.815 160.58 564.355 160.28 562.975 160.04L559.215 159.5C556.815 159.12 555.395 157.92 555.395 155.74C555.395 153.72 557.035 151.6 561.535 151.6C565.655 151.6 567.575 153.5 567.575 156.32V156.44H564.555V156.16C564.555 154.88 563.895 154.34 561.235 154.34C559.075 154.34 558.415 154.76 558.415 155.62C558.415 156.4 558.855 156.68 559.975 156.88L563.735 157.48C566.735 157.96 567.815 159.42 567.815 161.26C567.815 163.44 566.115 165.4 561.855 165.4ZM582.376 165.2H571.036V151.8H582.376V154.5H574.036V157.12H582.076V159.8H574.036V162.5H582.376V165.2ZM591.812 165.4C587.752 165.4 585.472 163.8 585.472 160.68V160.56H588.472V160.92C588.472 162.16 589.092 162.66 591.812 162.66C594.212 162.66 594.772 162.3 594.772 161.4C594.772 160.58 594.312 160.28 592.932 160.04L589.172 159.5C586.772 159.12 585.352 157.92 585.352 155.74C585.352 153.72 586.992 151.6 591.492 151.6C595.612 151.6 597.532 153.5 597.532 156.32V156.44H594.512V156.16C594.512 154.88 593.852 154.34 591.192 154.34C589.032 154.34 588.372 154.76 588.372 155.62C588.372 156.4 588.812 156.68 589.932 156.88L593.692 157.48C596.692 157.96 597.772 159.42 597.772 161.26C597.772 163.44 596.072 165.4 591.812 165.4ZM607.073 165.4C603.013 165.4 600.733 163.8 600.733 160.68V160.56H603.733V160.92C603.733 162.16 604.353 162.66 607.073 162.66C609.473 162.66 610.033 162.3 610.033 161.4C610.033 160.58 609.573 160.28 608.193 160.04L604.433 159.5C602.033 159.12 600.613 157.92 600.613 155.74C600.613 153.72 602.253 151.6 606.753 151.6C610.873 151.6 612.793 153.5 612.793 156.32V156.44H609.773V156.16C609.773 154.88 609.113 154.34 606.453 154.34C604.293 154.34 603.633 154.76 603.633 155.62C603.633 156.4 604.073 156.68 605.193 156.88L608.953 157.48C611.953 157.96 613.033 159.42 613.033 161.26C613.033 163.44 611.333 165.4 607.073 165.4ZM619.255 165.2H616.255V151.8H619.255V165.2ZM629.725 165.4C625.285 165.4 622.525 162.68 622.525 158.5C622.525 154.32 625.285 151.6 629.725 151.6C634.265 151.6 637.005 154.32 637.005 158.5C637.005 162.68 634.265 165.4 629.725 165.4ZM629.725 162.52C632.665 162.52 633.805 161.48 633.805 158.5C633.805 155.52 632.665 154.48 629.725 154.48C626.785 154.48 625.705 155.52 625.705 158.5C625.705 161.48 626.785 162.52 629.725 162.52ZM643.314 165.2H640.314V151.8H643.514L648.314 158.14L650.154 160.96H650.374L650.234 158.26V151.8H653.234V165.2H650.034L645.094 158.8L643.394 156.28H643.194L643.314 158.74V165.2Z" fill="white" fill-opacity="0.85"/>
<path d="M604.038 145.2H593.058V131.8H596.058V142.5H604.038V145.2ZM618.585 145.2H607.245V131.8H618.585V134.5H610.245V137.12H618.285V139.8H610.245V142.5H618.585V145.2ZM629.401 145.2H626.401V134.5H621.421V131.8H634.381V134.5H629.401V145.2ZM640.476 145.2H636.556L641.776 138.58V138.36L636.556 131.8H640.476L644.236 136.58H644.456L648.076 131.8H651.996L646.796 138.42V138.64L651.996 145.2H648.076L644.336 140.36H644.116L640.476 145.2ZM657.691 145.2H654.691V131.8H661.691C664.791 131.8 666.791 133.56 666.791 136.64C666.791 139.72 664.791 141.5 661.691 141.5H657.691V145.2ZM661.371 134.5H657.691V138.8H661.371C663.031 138.8 663.811 138.32 663.811 136.64C663.811 135 663.031 134.5 661.371 134.5ZM680.835 145.2H669.855V131.8H672.855V142.5H680.835V145.2ZM690.942 145.4C686.502 145.4 683.742 142.68 683.742 138.5C683.742 134.32 686.502 131.6 690.942 131.6C695.482 131.6 698.222 134.32 698.222 138.5C698.222 142.68 695.482 145.4 690.942 145.4ZM690.942 142.52C693.882 142.52 695.022 141.48 695.022 138.5C695.022 135.52 693.882 134.48 690.942 134.48C688.002 134.48 686.922 135.52 686.922 138.5C686.922 141.48 688.002 142.52 690.942 142.52ZM704.53 145.2H701.53V131.8H708.93C712.23 131.8 714.11 133.26 714.11 135.82C714.11 138 712.85 139.3 710.33 139.54V139.7C711.53 140.02 711.99 140.66 712.49 141.6L714.43 145.2H710.95L709.11 141.72C708.57 140.68 708.07 140.34 706.51 140.34H704.53V145.2ZM704.53 134.5V138.08H708.91C710.33 138.08 710.97 137.68 710.97 136.28C710.97 134.96 710.33 134.5 708.91 134.5H704.53ZM728.718 145.2H717.378V131.8H728.718V134.5H720.378V137.12H728.418V139.8H720.378V142.5H728.718V145.2Z" fill="#DBF72C"/>
<path d="M499.882 202.2H496.282V186.12H499.882V192.504H508.282V186.12H511.882V202.2H508.282V195.744H499.882V202.2ZM519.717 202.44C515.709 202.44 512.973 200.472 512.973 196.2C512.973 192.36 515.685 189.936 519.645 189.936C523.581 189.936 526.197 192 526.197 195.768C526.197 196.2 526.149 196.512 526.101 196.92H516.309C516.405 198.768 517.269 199.56 519.597 199.56C521.733 199.56 522.477 199.008 522.477 197.976V197.736H526.077V198C526.077 200.616 523.533 202.44 519.717 202.44ZM519.573 192.744C517.437 192.744 516.525 193.464 516.357 195.024H522.741C522.645 193.44 521.685 192.744 519.573 192.744ZM530.844 202.2H527.244V186.12H530.844V202.2ZM537.624 202.44C533.88 202.44 531.816 199.992 531.816 196.2C531.816 192.36 533.856 189.936 537.432 189.936C540.288 189.936 541.752 191.352 542.16 193.368H542.376V186.12H545.976V202.2H542.616V198.864H542.424C541.968 201.24 540.384 202.44 537.624 202.44ZM535.464 196.2C535.464 198.384 536.544 199.152 538.848 199.152C541.128 199.152 542.376 198.36 542.376 196.272V196.08C542.376 193.992 541.152 193.224 538.848 193.224C536.544 193.224 535.464 193.992 535.464 196.2ZM559.096 202.2H556.12C553.312 202.2 551.608 200.88 551.608 197.856V193.152H549.712V190.176H551.608V187.848H555.208V190.176H559.096V193.152H555.208V197.448C555.208 198.648 555.664 198.96 556.936 198.96H559.096V202.2ZM563.564 202.2H559.964V186.12H563.564V193.848H563.756C564.14 191.808 565.556 189.936 568.628 189.936C571.868 189.936 573.452 192.048 573.452 194.832V202.2H569.852V195.912C569.852 193.896 568.988 193.176 566.732 193.176C564.308 193.176 563.564 194.16 563.564 196.176V202.2ZM581.173 202.44C577.165 202.44 574.429 200.472 574.429 196.2C574.429 192.36 577.141 189.936 581.101 189.936C585.037 189.936 587.653 192 587.653 195.768C587.653 196.2 587.605 196.512 587.557 196.92H577.765C577.861 198.768 578.725 199.56 581.053 199.56C583.189 199.56 583.933 199.008 583.933 197.976V197.736H587.533V198C587.533 200.616 584.989 202.44 581.173 202.44ZM581.029 192.744C578.893 192.744 577.981 193.464 577.813 195.024H584.197C584.101 193.44 583.141 192.744 581.029 192.744ZM597.299 202.44C593.555 202.44 591.491 199.992 591.491 196.2C591.491 192.36 593.531 189.936 597.107 189.936C599.963 189.936 601.427 191.352 601.835 193.368H602.051V186.12H605.651V202.2H602.291V198.864H602.099C601.643 201.24 600.059 202.44 597.299 202.44ZM595.139 196.2C595.139 198.384 596.219 199.152 598.523 199.152C600.803 199.152 602.051 198.36 602.051 196.272V196.08C602.051 193.992 600.827 193.224 598.523 193.224C596.219 193.224 595.139 193.992 595.139 196.2ZM610.771 202.44C608.179 202.44 606.619 201.24 606.619 199.224C606.619 197.448 607.939 196.344 610.507 196.08L615.667 195.552V195.096C615.667 193.536 614.971 193.104 613.051 193.104C611.227 193.104 610.483 193.584 610.483 194.952V195.048H606.859V194.976C606.859 192 609.355 189.936 613.315 189.936C617.323 189.936 619.219 192 619.219 195.144V202.2H615.859V199.44H615.667C615.115 201.312 613.435 202.44 610.771 202.44ZM610.243 198.984C610.243 199.632 610.747 199.896 611.803 199.896C614.251 199.896 615.571 199.32 615.667 197.616L611.491 198.096C610.627 198.168 610.243 198.408 610.243 198.984ZM622.868 206.28H620.9V203.016H623.852C624.74 203.016 625.124 202.776 625.364 202.248L619.484 190.176H623.564L626.108 195.672L627.116 198.504H627.356L628.316 195.648L630.596 190.176H634.604L628.652 203.064C627.5 205.584 625.892 206.28 622.868 206.28ZM641.55 202.2H638.214V186.12H641.814V193.368H642.006C642.414 191.352 643.878 189.936 646.734 189.936C650.334 189.936 652.35 192.36 652.35 196.2C652.35 199.992 650.31 202.44 646.566 202.44C643.782 202.44 642.198 201.24 641.766 198.864H641.55V202.2ZM641.814 196.272C641.814 198.36 643.038 199.152 645.318 199.152C647.646 199.152 648.702 198.384 648.702 196.2C648.702 193.992 647.646 193.224 645.342 193.224C643.014 193.224 641.814 193.992 641.814 196.08V196.272ZM659.75 202.44C655.742 202.44 653.006 200.472 653.006 196.2C653.006 192.36 655.718 189.936 659.678 189.936C663.614 189.936 666.23 192 666.23 195.768C666.23 196.2 666.182 196.512 666.134 196.92H656.342C656.438 198.768 657.302 199.56 659.63 199.56C661.766 199.56 662.51 199.008 662.51 197.976V197.736H666.11V198C666.11 200.616 663.566 202.44 659.75 202.44ZM659.606 192.744C657.47 192.744 656.558 193.464 656.39 195.024H662.774C662.678 193.44 661.718 192.744 659.606 192.744ZM671.837 202.2H668.237V193.152H666.533V190.176H668.309C668.693 187.752 670.805 186.12 674.501 186.12H675.557V188.736H673.925C672.341 188.736 671.597 189 671.693 190.176H675.557V193.152H671.837V202.2ZM682.674 202.44C678.57 202.44 675.81 199.992 675.81 196.2C675.81 192.36 678.57 189.936 682.674 189.936C686.778 189.936 689.538 192.36 689.538 196.2C689.538 199.992 686.778 202.44 682.674 202.44ZM682.674 199.248C685.098 199.248 685.962 198.312 685.962 196.2C685.962 194.088 685.098 193.104 682.674 193.104C680.226 193.104 679.386 194.088 679.386 196.2C679.386 198.312 680.226 199.248 682.674 199.248ZM694.128 202.2H690.528V190.176H693.864V193.368H694.08C694.416 191.424 695.688 189.936 698.112 189.936C700.8 189.936 701.904 191.784 701.904 194.136V196.128H698.304V194.88C698.304 193.56 697.776 192.984 696.312 192.984C694.704 192.984 694.128 193.728 694.128 195.24V202.2ZM709.112 202.44C705.104 202.44 702.368 200.472 702.368 196.2C702.368 192.36 705.08 189.936 709.04 189.936C712.976 189.936 715.592 192 715.592 195.768C715.592 196.2 715.544 196.512 715.496 196.92H705.704C705.8 198.768 706.664 199.56 708.992 199.56C711.128 199.56 711.872 199.008 711.872 197.976V197.736H715.472V198C715.472 200.616 712.928 202.44 709.112 202.44ZM708.968 192.744C706.832 192.744 705.92 193.464 705.752 195.024H712.136C712.04 193.44 711.08 192.744 708.968 192.744ZM490.354 228.2H486.754V212.12H490.354V218.504H498.754V212.12H502.354V228.2H498.754V221.744H490.354V228.2ZM507.501 228.44C504.909 228.44 503.349 227.24 503.349 225.224C503.349 223.448 504.669 222.344 507.237 222.08L512.397 221.552V221.096C512.397 219.536 511.701 219.104 509.781 219.104C507.957 219.104 507.213 219.584 507.213 220.952V221.048H503.589V220.976C503.589 218 506.085 215.936 510.045 215.936C514.053 215.936 515.949 218 515.949 221.144V228.2H512.589V225.44H512.397C511.845 227.312 510.165 228.44 507.501 228.44ZM506.973 224.984C506.973 225.632 507.477 225.896 508.533 225.896C510.981 225.896 512.301 225.32 512.397 223.616L508.221 224.096C507.357 224.168 506.973 224.408 506.973 224.984ZM523.702 228.44C519.574 228.44 516.934 225.992 516.934 222.2C516.934 218.36 519.574 215.936 523.702 215.936C527.566 215.936 530.206 218 530.206 221.12V221.456H526.63V221.264C526.63 219.728 525.502 219.176 523.63 219.176C521.494 219.176 520.51 219.968 520.51 222.2C520.51 224.408 521.494 225.2 523.63 225.2C525.502 225.2 526.63 224.648 526.63 223.112V222.92H530.206V223.256C530.206 226.352 527.566 228.44 523.702 228.44ZM534.875 228.2H531.275V212.12H534.875V220.64H537.611L540.683 216.176H544.955L540.563 221.984L544.883 228.2H540.635L537.635 223.856H534.875V228.2ZM548.95 228.2H545.35V212.12H549.19L554.95 219.728L557.158 223.112H557.422L557.254 219.872V212.12H560.854V228.2H557.014L551.086 220.52L549.046 217.496H548.806L548.95 220.448V228.2ZM565.884 214.952H562.284V212.12H565.884V214.952ZM565.884 228.2H562.284V216.176H565.884V228.2ZM572.568 226.976C568.992 226.976 566.928 224.84 566.928 221.456C566.928 218.096 569.112 215.936 572.712 215.936C575.16 215.936 576.912 216.992 577.296 219.08H577.488V216.176H580.848V226.448C580.848 230.648 578.304 232.52 574.008 232.52C570.12 232.52 567.672 230.792 567.672 227.768H571.272C571.272 229.112 571.8 229.52 574.248 229.52C576.552 229.52 577.248 229.04 577.248 226.688V223.976H577.056C576.672 225.752 575.256 226.976 572.568 226.976ZM570.552 221.456C570.552 223.232 571.56 223.88 573.816 223.88C576.12 223.88 577.248 223.232 577.248 221.576V221.312C577.248 219.68 576.096 219.056 573.864 219.056C571.56 219.056 570.552 219.68 570.552 221.456ZM585.877 228.2H582.277V212.12H585.877V219.848H586.069C586.453 217.808 587.869 215.936 590.941 215.936C594.181 215.936 595.765 218.048 595.765 220.832V228.2H592.165V221.912C592.165 219.896 591.301 219.176 589.045 219.176C586.621 219.176 585.877 220.16 585.877 222.176V228.2ZM605.573 228.2H602.597C599.789 228.2 598.085 226.88 598.085 223.856V219.152H596.189V216.176H598.085V213.848H601.685V216.176H605.573V219.152H601.685V223.448C601.685 224.648 602.141 224.96 603.413 224.96H605.573V228.2ZM616.289 228.248L614.465 229.928C612.113 227.792 609.353 224.648 609.353 220.16C609.353 215.672 612.113 212.528 614.465 210.392L616.289 212.072C614.153 214.976 613.313 216.584 613.313 220.16C613.313 223.736 614.153 225.344 616.289 228.248ZM620.613 228.2H617.013V212.12H630.621V215.36H620.613V218.984H630.261V222.2H620.613V228.2ZM635.274 228.2H631.674V216.176H635.01V219.368H635.226C635.562 217.424 636.834 215.936 639.258 215.936C641.946 215.936 643.05 217.784 643.05 220.136V222.128H639.45V220.88C639.45 219.56 638.922 218.984 637.458 218.984C635.85 218.984 635.274 219.728 635.274 221.24V228.2ZM647.473 214.952H643.873V212.12H647.473V214.952ZM647.473 228.2H643.873V216.176H647.473V228.2ZM654.254 228.44C650.51 228.44 648.446 225.992 648.446 222.2C648.446 218.36 650.486 215.936 654.062 215.936C656.918 215.936 658.382 217.352 658.79 219.368H659.006V212.12H662.606V228.2H659.246V224.864H659.054C658.598 227.24 657.014 228.44 654.254 228.44ZM652.094 222.2C652.094 224.384 653.174 225.152 655.478 225.152C657.758 225.152 659.006 224.36 659.006 222.272V222.08C659.006 219.992 657.782 219.224 655.478 219.224C653.174 219.224 652.094 219.992 652.094 222.2ZM667.726 228.44C665.134 228.44 663.574 227.24 663.574 225.224C663.574 223.448 664.894 222.344 667.462 222.08L672.622 221.552V221.096C672.622 219.536 671.926 219.104 670.006 219.104C668.182 219.104 667.438 219.584 667.438 220.952V221.048H663.814V220.976C663.814 218 666.31 215.936 670.27 215.936C674.278 215.936 676.174 218 676.174 221.144V228.2H672.814V225.44H672.622C672.07 227.312 670.39 228.44 667.726 228.44ZM667.198 224.984C667.198 225.632 667.702 225.896 668.758 225.896C671.206 225.896 672.526 225.32 672.622 223.616L668.446 224.096C667.582 224.168 667.198 224.408 667.198 224.984ZM679.823 232.28H677.855V229.016H680.807C681.695 229.016 682.079 228.776 682.319 228.248L676.439 216.176H680.519L683.063 221.672L684.071 224.504H684.311L685.271 221.648L687.551 216.176H691.559L685.607 229.064C684.455 231.584 682.847 232.28 679.823 232.28ZM691.777 212.072L693.601 210.392C695.953 212.528 698.713 215.672 698.713 220.16C698.713 224.648 695.953 227.792 693.601 229.928L691.777 228.248C693.913 225.344 694.753 223.736 694.753 220.16C694.753 216.584 693.913 214.976 691.777 212.072ZM707.033 228.44C704.441 228.44 702.881 227.24 702.881 225.224C702.881 223.448 704.201 222.344 706.769 222.08L711.929 221.552V221.096C711.929 219.536 711.233 219.104 709.313 219.104C707.489 219.104 706.745 219.584 706.745 220.952V221.048H703.121V220.976C703.121 218 705.617 215.936 709.577 215.936C713.585 215.936 715.481 218 715.481 221.144V228.2H712.121V225.44H711.929C711.377 227.312 709.697 228.44 707.033 228.44ZM706.505 224.984C706.505 225.632 707.009 225.896 708.065 225.896C710.513 225.896 711.833 225.32 711.929 223.616L707.753 224.096C706.889 224.168 706.505 224.408 706.505 224.984ZM725.298 228.2H722.322C719.514 228.2 717.81 226.88 717.81 223.856V219.152H715.914V216.176H717.81V213.848H721.41V216.176H725.298V219.152H721.41V223.448C721.41 224.648 721.866 224.96 723.138 224.96H725.298V228.2ZM562.981 254.44C558.277 254.44 555.277 252.976 555.277 249.784C555.277 247.36 557.005 246.232 559.093 245.8V245.536C556.981 245.176 555.757 244 555.757 242.104C555.757 239.512 558.229 237.88 562.957 237.88C567.733 237.88 570.181 239.512 570.181 242.104C570.181 244 568.981 245.176 566.821 245.536V245.8C569.077 246.232 570.637 247.36 570.637 249.784C570.637 252.976 567.613 254.44 562.981 254.44ZM562.957 244.672C565.741 244.672 566.581 244.144 566.581 243.016C566.581 241.864 565.861 241.336 562.957 241.336C560.125 241.336 559.357 241.864 559.357 243.016C559.357 244.144 560.221 244.672 562.957 244.672ZM562.957 250.984C566.053 250.984 566.989 250.432 566.989 249.04C566.989 247.696 566.101 247.144 562.957 247.144C559.813 247.144 558.925 247.696 558.925 249.04C558.925 250.432 559.837 250.984 562.957 250.984ZM575.958 246.352H571.326V242.176H575.958V246.352ZM575.958 254.2H571.326V250H575.958V254.2ZM584.837 254.44C579.653 254.44 576.797 251.176 576.797 246.16C576.797 241.168 579.653 237.88 584.837 237.88C589.997 237.88 592.877 241.168 592.877 246.16C592.877 251.176 589.997 254.44 584.837 254.44ZM584.837 250.936C587.885 250.936 589.013 249.616 589.013 246.16C589.013 242.704 587.885 241.384 584.837 241.384C581.765 241.384 580.661 242.704 580.661 246.16C580.661 249.616 581.765 250.936 584.837 250.936ZM601.607 254.44C596.423 254.44 593.567 251.176 593.567 246.16C593.567 241.168 596.423 237.88 601.607 237.88C606.767 237.88 609.647 241.168 609.647 246.16C609.647 251.176 606.767 254.44 601.607 254.44ZM601.607 250.936C604.655 250.936 605.783 249.616 605.783 246.16C605.783 242.704 604.655 241.384 601.607 241.384C598.535 241.384 597.431 242.704 597.431 246.16C597.431 249.616 598.535 250.936 601.607 250.936ZM617.52 254.2H613.92V238.12H622.32C626.04 238.12 628.44 240.232 628.44 243.928C628.44 247.624 626.04 249.76 622.32 249.76H617.52V254.2ZM621.936 241.36H617.52V246.52H621.936C623.928 246.52 624.864 245.944 624.864 243.928C624.864 241.96 623.928 241.36 621.936 241.36ZM632.837 254.2H629.237V238.12H634.109L637.877 246.04L639.389 249.808H639.653L641.117 246.04L644.765 238.12H649.661V254.2H646.061V246.04L646.181 243.52H645.917L644.981 246.04L641.621 253.24H637.253L633.893 246.04L632.957 243.52H632.693L632.837 246.04V254.2ZM655.461 254.2H650.829V250H655.461V254.2Z" fill="white"/>
<path d="M834.741 146.2H831.741V132.8H834.741V146.2ZM841.312 146.2H838.312V132.8H841.512L846.312 139.14L848.152 141.96H848.372L848.232 139.26V132.8H851.232V146.2H848.032L843.092 139.8L841.392 137.28H841.192L841.312 139.74V146.2ZM863.703 146.2H859.423L853.863 132.8H857.483L861.503 143.16H861.703L865.663 132.8H869.263L863.703 146.2ZM874.902 146.2H871.902V132.8H874.902V146.2ZM885.932 146.2H882.932V135.5H877.952V132.8H890.912V135.5H885.932V146.2ZM896.448 146.2H893.087L898.948 132.8H903.228L909.128 146.2H905.688L904.428 143.24H897.728L896.448 146.2ZM900.148 137.62L898.888 140.54H903.268L902.008 137.62L901.188 135.54H900.968L900.148 137.62ZM919.287 146.2H916.287V135.5H911.307V132.8H924.267V135.5H919.287V146.2ZM930.343 146.2H927.343V132.8H930.343V146.2ZM940.813 146.4C936.373 146.4 933.613 143.68 933.613 139.5C933.613 135.32 936.373 132.6 940.813 132.6C945.353 132.6 948.093 135.32 948.093 139.5C948.093 143.68 945.353 146.4 940.813 146.4ZM940.813 143.52C943.753 143.52 944.893 142.48 944.893 139.5C944.893 136.52 943.753 135.48 940.813 135.48C937.873 135.48 936.793 136.52 936.793 139.5C936.793 142.48 937.873 143.52 940.813 143.52ZM954.402 146.2H951.402V132.8H954.602L959.402 139.14L961.242 141.96H961.462L961.322 139.26V132.8H964.322V146.2H961.122L956.182 139.8L954.482 137.28H954.282L954.402 139.74V146.2ZM975.999 146.2H972.999V132.8H984.339V135.5H975.999V138.52H984.039V141.2H975.999V146.2ZM994.516 146.4C990.076 146.4 987.316 143.68 987.316 139.5C987.316 135.32 990.076 132.6 994.516 132.6C999.056 132.6 1001.8 135.32 1001.8 139.5C1001.8 143.68 999.056 146.4 994.516 146.4ZM994.516 143.52C997.456 143.52 998.596 142.48 998.596 139.5C998.596 136.52 997.456 135.48 994.516 135.48C991.576 135.48 990.496 136.52 990.496 139.5C990.496 142.48 991.576 143.52 994.516 143.52ZM1008.1 146.2H1005.1V132.8H1012.5C1015.8 132.8 1017.68 134.26 1017.68 136.82C1017.68 139 1016.42 140.3 1013.9 140.54V140.7C1015.1 141.02 1015.56 141.66 1016.06 142.6L1018 146.2H1014.52L1012.68 142.72C1012.14 141.68 1011.64 141.34 1010.08 141.34H1008.1V146.2ZM1008.1 135.5V139.08H1012.48C1013.9 139.08 1014.54 138.68 1014.54 137.28C1014.54 135.96 1013.9 135.5 1012.48 135.5H1008.1ZM1033.5 146.2H1030.5V135.5H1025.52V132.8H1038.48V135.5H1033.5V146.2ZM1044.55 146.2H1041.55V132.8H1044.55V138.12H1051.55V132.8H1054.55V146.2H1051.55V140.82H1044.55V146.2ZM1069.5 146.2H1058.16V132.8H1069.5V135.5H1061.16V138.12H1069.2V140.8H1061.16V143.5H1069.5V146.2ZM908.855 166.4C904.795 166.4 902.515 164.8 902.515 161.68V161.56H905.515V161.92C905.515 163.16 906.135 163.66 908.855 163.66C911.255 163.66 911.815 163.3 911.815 162.4C911.815 161.58 911.355 161.28 909.975 161.04L906.215 160.5C903.815 160.12 902.395 158.92 902.395 156.74C902.395 154.72 904.035 152.6 908.535 152.6C912.655 152.6 914.575 154.5 914.575 157.32V157.44H911.555V157.16C911.555 155.88 910.895 155.34 908.235 155.34C906.075 155.34 905.415 155.76 905.415 156.62C905.415 157.4 905.855 157.68 906.975 157.88L910.735 158.48C913.735 158.96 914.815 160.42 914.815 162.26C914.815 164.44 913.115 166.4 908.855 166.4ZM929.376 166.2H918.036V152.8H929.376V155.5H921.036V158.12H929.076V160.8H921.036V163.5H929.376V166.2ZM938.812 166.4C934.752 166.4 932.472 164.8 932.472 161.68V161.56H935.472V161.92C935.472 163.16 936.092 163.66 938.812 163.66C941.212 163.66 941.772 163.3 941.772 162.4C941.772 161.58 941.312 161.28 939.932 161.04L936.172 160.5C933.772 160.12 932.352 158.92 932.352 156.74C932.352 154.72 933.992 152.6 938.492 152.6C942.612 152.6 944.532 154.5 944.532 157.32V157.44H941.512V157.16C941.512 155.88 940.852 155.34 938.192 155.34C936.032 155.34 935.372 155.76 935.372 156.62C935.372 157.4 935.812 157.68 936.932 157.88L940.692 158.48C943.692 158.96 944.772 160.42 944.772 162.26C944.772 164.44 943.072 166.4 938.812 166.4ZM954.073 166.4C950.013 166.4 947.733 164.8 947.733 161.68V161.56H950.733V161.92C950.733 163.16 951.353 163.66 954.073 163.66C956.473 163.66 957.033 163.3 957.033 162.4C957.033 161.58 956.573 161.28 955.193 161.04L951.433 160.5C949.033 160.12 947.613 158.92 947.613 156.74C947.613 154.72 949.253 152.6 953.753 152.6C957.873 152.6 959.793 154.5 959.793 157.32V157.44H956.773V157.16C956.773 155.88 956.113 155.34 953.453 155.34C951.293 155.34 950.633 155.76 950.633 156.62C950.633 157.4 951.073 157.68 952.193 157.88L955.953 158.48C958.953 158.96 960.033 160.42 960.033 162.26C960.033 164.44 958.333 166.4 954.073 166.4ZM966.255 166.2H963.255V152.8H966.255V166.2ZM976.725 166.4C972.285 166.4 969.525 163.68 969.525 159.5C969.525 155.32 972.285 152.6 976.725 152.6C981.265 152.6 984.005 155.32 984.005 159.5C984.005 163.68 981.265 166.4 976.725 166.4ZM976.725 163.52C979.665 163.52 980.805 162.48 980.805 159.5C980.805 156.52 979.665 155.48 976.725 155.48C973.785 155.48 972.705 156.52 972.705 159.5C972.705 162.48 973.785 163.52 976.725 163.52ZM990.314 166.2H987.314V152.8H990.514L995.314 159.14L997.154 161.96H997.374L997.234 159.26V152.8H1000.23V166.2H997.034L992.094 159.8L990.394 157.28H990.194L990.314 159.74V166.2Z" fill="white" fill-opacity="0.85"/>
<path d="M856.893 210.2H851.541L847.749 194.12H851.781L853.725 203.24L854.277 206.768H854.541L855.285 203.24L857.973 194.12H863.325L865.989 203.24L866.733 206.768H866.997L867.549 203.24L869.493 194.12H873.429L869.613 210.2H864.261L861.861 202.16L860.733 197.528H860.469L859.341 202.16L856.893 210.2ZM877.792 196.952H874.192V194.12H877.792V196.952ZM877.792 210.2H874.192V198.176H877.792V210.2ZM882.796 210.2H879.196V194.12H882.796V210.2ZM887.801 210.2H884.201V194.12H887.801V210.2ZM895.764 210.2H892.428V194.12H896.028V201.368H896.22C896.628 199.352 898.092 197.936 900.948 197.936C904.548 197.936 906.564 200.36 906.564 204.2C906.564 207.992 904.524 210.44 900.78 210.44C897.996 210.44 896.412 209.24 895.98 206.864H895.764V210.2ZM896.028 204.272C896.028 206.36 897.252 207.152 899.532 207.152C901.86 207.152 902.916 206.384 902.916 204.2C902.916 201.992 901.86 201.224 899.556 201.224C897.228 201.224 896.028 201.992 896.028 204.08V204.272ZM913.965 210.44C909.957 210.44 907.221 208.472 907.221 204.2C907.221 200.36 909.933 197.936 913.893 197.936C917.829 197.936 920.445 200 920.445 203.768C920.445 204.2 920.397 204.512 920.349 204.92H910.557C910.653 206.768 911.517 207.56 913.845 207.56C915.981 207.56 916.725 207.008 916.725 205.976V205.736H920.325V206C920.325 208.616 917.781 210.44 913.965 210.44ZM913.821 200.744C911.685 200.744 910.773 201.464 910.605 203.024H916.989C916.893 201.44 915.933 200.744 913.821 200.744ZM930.787 210.44C926.731 210.44 924.499 208.856 924.499 206.072V206H928.099V206.216C928.099 207.296 928.771 207.584 930.811 207.584C932.731 207.584 933.187 207.272 933.187 206.552C933.187 205.88 932.827 205.688 931.411 205.496L928.027 205.088C925.627 204.824 924.283 203.744 924.283 201.728C924.283 199.616 926.083 197.936 930.211 197.936C934.147 197.936 936.379 199.424 936.379 202.352V202.424H932.779V202.28C932.779 201.296 932.299 200.792 930.091 200.792C928.291 200.792 927.835 201.104 927.835 201.872C927.835 202.496 928.171 202.76 929.755 202.952L932.323 203.264C935.539 203.624 936.739 204.704 936.739 206.696C936.739 208.952 934.507 210.44 930.787 210.44ZM944.095 210.44C940.087 210.44 937.351 208.472 937.351 204.2C937.351 200.36 940.063 197.936 944.023 197.936C947.959 197.936 950.575 200 950.575 203.768C950.575 204.2 950.527 204.512 950.479 204.92H940.687C940.783 206.768 941.647 207.56 943.975 207.56C946.111 207.56 946.855 207.008 946.855 205.976V205.736H950.455V206C950.455 208.616 947.911 210.44 944.095 210.44ZM943.951 200.744C941.815 200.744 940.903 201.464 940.735 203.024H947.119C947.023 201.44 946.063 200.744 943.951 200.744ZM955.222 210.2H951.622V198.176H954.958V201.872H955.174C955.486 199.856 956.926 197.936 960.07 197.936C963.358 197.936 964.918 200.048 964.918 202.712V210.2H961.318V203.912C961.318 201.992 960.526 201.176 958.318 201.176C956.038 201.176 955.222 202.088 955.222 204.128V210.2ZM974.731 210.2H971.755C968.947 210.2 967.243 208.88 967.243 205.856V201.152H965.347V198.176H967.243V195.848H970.843V198.176H974.731V201.152H970.843V205.448C970.843 206.648 971.299 206.96 972.571 206.96H974.731V210.2ZM987.774 210.2H983.334L977.862 198.176H981.87L985.47 206.696H985.71L989.334 198.176H993.27L987.774 210.2ZM997.341 196.952H993.741V194.12H997.341V196.952ZM997.341 210.2H993.741V198.176H997.341V210.2ZM1002.44 210.44C999.849 210.44 998.289 209.24 998.289 207.224C998.289 205.448 999.609 204.344 1002.18 204.08L1007.34 203.552V203.096C1007.34 201.536 1006.64 201.104 1004.72 201.104C1002.9 201.104 1002.15 201.584 1002.15 202.952V203.048H998.529V202.976C998.529 200 1001.03 197.936 1004.99 197.936C1008.99 197.936 1010.89 200 1010.89 203.144V210.2H1007.53V207.44H1007.34C1006.79 209.312 1005.11 210.44 1002.44 210.44ZM1001.91 206.984C1001.91 207.632 1002.42 207.896 1003.47 207.896C1005.92 207.896 1007.24 207.32 1007.34 205.616L1003.16 206.096C1002.3 206.168 1001.91 206.408 1001.91 206.984ZM1029.07 210.2H1015.46V194.12H1029.07V197.36H1019.06V200.504H1028.71V203.72H1019.06V206.96H1029.07V210.2ZM1033.81 210.2H1030.21V198.176H1033.55V201.824H1033.74C1034.03 199.808 1035.23 197.936 1038.25 197.936C1041.04 197.936 1042.45 199.64 1042.72 201.872H1042.93C1043.22 199.832 1044.44 197.936 1047.54 197.936C1050.64 197.936 1052.15 199.976 1052.15 202.712V210.2H1048.55V203.912C1048.55 201.92 1047.85 201.176 1045.79 201.176C1043.6 201.176 1042.98 202.04 1042.98 204.128V210.2H1039.38V203.912C1039.38 201.92 1038.68 201.176 1036.62 201.176C1034.44 201.176 1033.81 202.04 1033.81 204.128V210.2ZM1057.19 210.44C1054.6 210.44 1053.04 209.24 1053.04 207.224C1053.04 205.448 1054.36 204.344 1056.93 204.08L1062.09 203.552V203.096C1062.09 201.536 1061.39 201.104 1059.47 201.104C1057.65 201.104 1056.91 201.584 1056.91 202.952V203.048H1053.28V202.976C1053.28 200 1055.78 197.936 1059.74 197.936C1063.75 197.936 1065.64 200 1065.64 203.144V210.2H1062.28V207.44H1062.09C1061.54 209.312 1059.86 210.44 1057.19 210.44ZM1056.67 206.984C1056.67 207.632 1057.17 207.896 1058.23 207.896C1060.67 207.896 1061.99 207.32 1062.09 205.616L1057.91 206.096C1057.05 206.168 1056.67 206.408 1056.67 206.984ZM1070.59 196.952H1066.99V194.12H1070.59V196.952ZM1070.59 210.2H1066.99V198.176H1070.59V210.2ZM1075.59 210.2H1071.99V194.12H1075.59V210.2Z" fill="white"/>
</g>
<defs>
<clipPath id="clip0_487_1300">
<rect width="1271" height="455.06" fill="white" transform="translate(0 0.800049)"/>
</clipPath>
</defs>
</svg>
