<svg width="86" height="26" viewBox="0 0 86 26" fill="none" xmlns="http://www.w3.org/2000/svg">
<g clip-path="url(#clip0_79_265)">
<g clip-path="url(#clip1_79_265)">
<g clip-path="url(#clip2_79_265)">
<path d="M4.54309 13.6996V2.73633H0.746094V0.449219H11.0963V2.73633H7.29116V13.6996H4.54309Z" fill="white"/>
<path d="M12.0264 1.38588C12.0264 0.587762 12.6644 0 13.4475 0C14.2306 0 14.8685 0.587762 14.8685 1.38588C14.8685 2.16544 14.2306 2.77176 13.4475 2.77176C12.6623 2.77382 12.0264 2.1675 12.0264 1.38588ZM12.1164 3.85654H14.7745V13.7H12.1164V3.85654Z" fill="white"/>
<path d="M16.541 3.85638H19.1091V5.62791H19.1643C19.7205 4.3699 20.7121 3.70996 22.2129 3.70996C24.3803 3.70996 25.599 5.08759 25.599 7.3912V13.6999H22.9409V7.95215C22.9409 6.66733 22.3499 5.93314 21.1374 5.93314C19.9352 5.93314 19.1991 6.81375 19.1991 8.10064V13.702H16.541V3.85638Z" fill="white"/>
<path d="M33.355 3.85617H36.3688L32.6455 8.07981L36.5508 13.6996H33.492L30.6969 9.69667L30.0058 10.4494V13.6996H27.3477V0.449219H30.0058V7.80346H30.0426L33.355 3.85617Z" fill="white"/>
<path d="M45.7622 10.6864C45.4719 12.6043 43.7053 13.8726 41.3109 13.8726C38.3257 13.8726 36.5039 11.9547 36.5039 8.82203C36.5039 5.68111 38.3339 3.68066 41.2108 3.68066C44.0427 3.68066 45.844 5.58212 45.844 8.57455V9.39123H39.117V9.55622C39.117 10.9421 40.0187 11.8887 41.3559 11.8887C42.3108 11.8887 43.0755 11.4288 43.3229 10.6864H45.7622ZM39.1456 7.74962H43.2882C43.233 6.49161 42.4151 5.66462 41.2394 5.66462C40.0821 5.66462 39.2356 6.51842 39.1456 7.74962Z" fill="white"/>
<path d="M47.21 3.85691H49.7782V5.62845H49.8334C50.1707 4.40755 51.007 3.7373 52.1541 3.7373C52.4628 3.7373 52.7184 3.77442 52.9106 3.83835V6.19765C52.6919 6.10484 52.3279 6.04091 51.9455 6.04091C50.6349 6.04091 49.8702 6.84934 49.8702 8.23522V13.6983H47.2121V3.85691H47.21Z" fill="white"/>
<path d="M63.2497 13.6996V7.66734H56.0401V13.6996H54.4023V0.449219H56.0401V6.17835H63.2497V0.449219H64.8875V13.6976H63.2497V13.6996Z" fill="white"/>
<path d="M74.9665 13.7H73.4636V12.112H73.4268C72.8441 13.2236 71.879 13.7928 70.4232 13.7928C68.356 13.7928 67.1455 12.4441 67.1455 10.2766V4.15148H68.7302V9.99197C68.7302 11.5428 69.4499 12.3801 70.9159 12.3801C72.4536 12.3801 73.3839 11.316 73.3839 9.69087V4.14941H74.9685V13.7H74.9665Z" fill="white"/>
<path d="M78.6455 12.0828H78.6087V13.6996H77.0977V0.449219H78.6823V5.70195H78.7191C79.31 4.65429 80.4121 4.05828 81.7514 4.05828C84.1355 4.05828 85.7467 6.00511 85.7467 8.92536C85.7467 11.8538 84.1355 13.7924 81.7228 13.7924C80.3385 13.7904 79.2548 13.184 78.6455 12.0828ZM78.6721 8.9233C78.6721 10.9794 79.7824 12.3756 81.412 12.3756C83.0498 12.3756 84.1253 11.0269 84.1253 8.9233C84.1253 6.83004 83.0518 5.47097 81.412 5.47097C79.7824 5.47097 78.6721 6.87747 78.6721 8.9233Z" fill="white"/>
<path d="M3.74609 25.5193V18.7441H7.82532V19.504H4.5837V21.8335H7.55844V22.5852H4.5837V25.5213H3.74609V25.5193Z" fill="white"/>
<path d="M8.22949 23.078C8.22949 21.5188 9.1328 20.5518 10.4734 20.5518C11.8099 20.5518 12.7132 21.5188 12.7132 23.078C12.7132 24.6331 11.8099 25.6042 10.4734 25.6042C9.1328 25.6042 8.22949 24.6331 8.22949 23.078ZM11.8899 23.078C11.8899 21.9267 11.3315 21.2703 10.4754 21.2703C9.61935 21.2703 9.05478 21.9288 9.05478 23.078C9.05478 24.2293 9.61729 24.8857 10.4754 24.8857C11.3315 24.8857 11.8899 24.2293 11.8899 23.078Z" fill="white"/>
<path d="M17.505 25.5193H16.7372V24.7262H16.7187C16.4292 25.2894 15.9262 25.6042 15.1831 25.6042C14.1258 25.6042 13.5078 24.9146 13.5078 23.8048V20.6367H14.3188V23.6619C14.3188 24.455 14.6863 24.8836 15.4356 24.8836C16.2219 24.8836 16.6982 24.339 16.6982 23.5066V20.6367H17.5091V25.5193H17.505Z" fill="white"/>
<path d="M18.552 20.6367H19.3157V21.4153H19.3341C19.6051 20.8893 20.1204 20.5518 20.8698 20.5518C21.9311 20.5518 22.545 21.2413 22.545 22.3512V25.5214H21.734V22.4961C21.734 21.7072 21.3666 21.2745 20.6213 21.2745C19.8576 21.2745 19.3588 21.819 19.3588 22.6452V25.5193H18.5479V20.6367H18.552Z" fill="white"/>
<path d="M23.3398 23.078C23.3398 21.5478 24.1733 20.5518 25.3928 20.5518C26.0867 20.5518 26.6451 20.8955 26.9345 21.4297H26.953V18.7441H27.7639V25.5213H26.99V24.6952H26.9756C26.6635 25.2584 26.1092 25.6062 25.4112 25.6062C24.1774 25.6042 23.3398 24.6082 23.3398 23.078ZM24.1692 23.078C24.1692 24.1858 24.7091 24.8857 25.5652 24.8857C26.3987 24.8857 26.9571 24.1713 26.9571 23.078C26.9571 21.9888 26.3987 21.2703 25.5652 21.2703C24.7091 21.2703 24.1692 21.9743 24.1692 23.078Z" fill="white"/>
<path d="M28.6611 24.14C28.6611 23.3035 29.2996 22.7775 30.4164 22.7133L31.8042 22.6326V22.2247C31.8042 21.6283 31.4121 21.2722 30.7428 21.2722C30.1187 21.2722 29.7286 21.5683 29.626 22.0466H28.8438C28.8992 21.2018 29.6157 20.5537 30.7613 20.5537C31.8965 20.5537 32.6151 21.1728 32.6151 22.146V25.5232H31.8473V24.6825H31.8288C31.5393 25.2416 30.9255 25.6081 30.2727 25.6081C29.3098 25.604 28.6611 25.018 28.6611 24.14ZM31.8042 23.6659V23.2662L30.5088 23.347C29.8559 23.3884 29.4843 23.6803 29.4843 24.14C29.4843 24.6059 29.8703 24.9103 30.4533 24.9103C31.217 24.9103 31.8042 24.3699 31.8042 23.6659Z" fill="white"/>
<path d="M34.7151 19.4561V20.6343H35.6554V21.3052H34.7151V24.2083C34.7151 24.6535 34.9019 24.8564 35.3166 24.8564C35.409 24.8564 35.5958 24.8419 35.6512 24.8336V25.519C35.5527 25.5418 35.331 25.5563 35.1401 25.5563C34.2511 25.5563 33.9062 25.1898 33.9062 24.2497V21.3073H33.1836V20.6364H33.9062V19.4582H34.7151V19.4561Z" fill="white"/>
<path d="M36.4561 19.2555C36.4561 18.9698 36.684 18.7441 36.9632 18.7441C37.2465 18.7441 37.4703 18.9698 37.4703 19.2555C37.4703 19.5371 37.2465 19.767 36.9632 19.767C36.684 19.767 36.4561 19.5371 36.4561 19.2555ZM36.5588 20.6367H37.3697V25.5213H36.5588V20.6367Z" fill="white"/>
<path d="M38.2256 23.078C38.2256 21.5188 39.1289 20.5518 40.4695 20.5518C41.806 20.5518 42.7093 21.5188 42.7093 23.078C42.7093 24.6331 41.806 25.6042 40.4695 25.6042C39.1289 25.6042 38.2256 24.6331 38.2256 23.078ZM41.886 23.078C41.886 21.9267 41.3276 21.2703 40.4715 21.2703C39.6154 21.2703 39.0509 21.9288 39.0509 23.078C39.0509 24.2293 39.6134 24.8857 40.4715 24.8857C41.3256 24.8857 41.886 24.2293 41.886 23.078Z" fill="white"/>
<path d="M43.5236 20.6367H44.2873V21.4153H44.3058C44.5768 20.8893 45.0921 20.5518 45.8414 20.5518C46.9028 20.5518 47.5166 21.2413 47.5166 22.3512V25.5214H46.7057V22.4961C46.7057 21.7072 46.3382 21.2745 45.593 21.2745C44.8293 21.2745 44.3304 21.819 44.3304 22.6452V25.5193H43.5195V20.6367H43.5236Z" fill="white"/>
</g>
</g>
</g>
<defs>
<clipPath id="clip0_79_265">
<rect width="85" height="26" fill="white" transform="translate(0.746094)"/>
</clipPath>
<clipPath id="clip1_79_265">
<rect width="85" height="26" fill="white" transform="translate(0.746094)"/>
</clipPath>
<clipPath id="clip2_79_265">
<rect width="85" height="26" fill="white" transform="translate(0.746094)"/>
</clipPath>
</defs>
</svg>
