<svg width="173" height="22" viewBox="0 0 173 22" fill="none" xmlns="http://www.w3.org/2000/svg">
<path d="M9.768 17H6.6C3.576 17 1.776 15.536 1.776 12.392V8.6H0V4.904H1.776V2.816H6.288V4.904H9.768V8.6H6.288V11.744C6.288 12.704 6.576 12.944 7.608 12.944H9.768V17ZM15.357 3.8H10.845V0.92H15.357V3.8ZM15.357 17H10.845V4.904H15.357V17ZM21.3101 17H16.7981V4.904H21.0221V8.576H21.2621C21.5261 6.56 22.8461 4.664 26.0861 4.664C29.3501 4.664 30.8861 6.632 30.8861 9.248V17H26.3741V10.904C26.3741 9.224 25.7501 8.696 23.7821 8.696C21.7901 8.696 21.3101 9.2 21.3101 10.76V17ZM36.732 17H32.22V0.92H36.732V9.104H38.868L41.532 4.904H46.86L42.564 10.784L46.788 17H41.46L38.916 13.136H36.732V17ZM54.0812 17.24C49.9772 17.24 47.0972 15.488 47.0972 10.952C47.0972 7.016 49.9532 4.664 53.9852 4.664C58.1612 4.664 60.8252 6.752 60.8252 10.64C60.8252 11.048 60.8012 11.36 60.7532 11.792H51.2732C51.3452 13.256 51.9932 13.664 53.9132 13.664C55.7372 13.664 56.2172 13.352 56.2172 12.632V12.368H60.7292V12.656C60.7292 15.344 58.1612 17.24 54.0812 17.24ZM53.8892 8.12C52.2332 8.12 51.5372 8.48 51.3452 9.512H56.4572C56.2892 8.48 55.5692 8.12 53.8892 8.12ZM66.5445 17H62.0325V4.904H66.2565V8.072H66.4965C66.8325 6.08 68.0805 4.664 70.4805 4.664C73.1445 4.664 74.2005 6.416 74.2005 8.84V11.24H69.6885V9.824C69.6885 8.816 69.3045 8.456 68.1285 8.456C66.9045 8.456 66.5445 8.816 66.5445 9.776V17ZM79.6695 17H75.1575V0.92H79.6695V8.576H79.9095C80.2935 6.536 81.6375 4.664 84.7335 4.664C87.9495 4.664 89.4855 6.704 89.4855 9.392V17H84.9735V10.904C84.9735 9.224 84.3255 8.696 82.2615 8.696C80.1735 8.696 79.6695 9.2 79.6695 10.76V17ZM95.8052 17.24C92.4212 17.24 90.8372 15.272 90.8372 12.656V4.904H95.3492V11C95.3492 12.68 95.9972 13.208 98.0612 13.208C100.149 13.208 100.653 12.704 100.653 11.144V4.904H105.165V17H100.941V13.328H100.701C100.437 15.344 99.0932 17.24 95.8052 17.24ZM110.741 17H106.517V0.92H111.029V8.024H111.269C111.629 6.008 112.973 4.664 115.829 4.664C119.381 4.664 121.373 7.016 121.373 10.952C121.373 14.864 119.333 17.24 115.637 17.24C112.805 17.24 111.365 16.136 110.981 13.736H110.741V17ZM111.029 10.976C111.029 12.728 111.989 13.112 114.005 13.112C116.093 13.112 116.813 12.56 116.813 10.952C116.813 9.344 116.093 8.768 114.005 8.768C111.989 8.768 111.029 9.104 111.029 10.808V10.976ZM128.428 17H122.572V12.392H128.428V17ZM136.557 17.24C132.357 17.24 129.501 14.864 129.501 10.952C129.501 7.016 132.357 4.664 136.557 4.664C140.757 4.664 143.613 7.016 143.613 10.952C143.613 14.864 140.757 17.24 136.557 17.24ZM136.557 13.256C138.597 13.256 139.149 12.704 139.149 10.952C139.149 9.2 138.597 8.624 136.557 8.624C134.517 8.624 133.965 9.2 133.965 10.952C133.965 12.704 134.517 13.256 136.557 13.256ZM149.209 17H144.697V4.904H148.921V8.072H149.161C149.497 6.08 150.745 4.664 153.145 4.664C155.809 4.664 156.865 6.416 156.865 8.84V11.24H152.353V9.824C152.353 8.816 151.969 8.456 150.793 8.456C149.569 8.456 149.209 8.816 149.209 9.776V17ZM163.198 15.656C159.598 15.656 157.582 13.592 157.582 10.136C157.582 6.728 159.742 4.664 163.318 4.664C165.766 4.664 167.398 5.648 167.734 7.736H167.974V4.904H172.198V14.96C172.198 19.28 169.63 21.32 164.974 21.32C160.75 21.32 158.302 19.544 158.302 16.376H162.814C162.814 17.36 162.934 17.6 165.286 17.6C167.23 17.6 167.686 17.312 167.686 15.272V12.728H167.446C167.134 14.48 165.862 15.656 163.198 15.656ZM162.142 10.136C162.142 11.336 162.718 11.792 164.83 11.792C166.846 11.792 167.686 11.552 167.686 10.28V10.112C167.686 8.816 166.846 8.552 164.83 8.552C162.718 8.552 162.142 8.96 162.142 10.136Z" fill="white"/>
</svg>
