<svg width="85" height="26" viewBox="0 0 85 26" fill="none" xmlns="http://www.w3.org/2000/svg">
<g clip-path="url(#clip0_434_1820)">
<g clip-path="url(#clip1_434_1820)">
<g clip-path="url(#clip2_434_1820)">
<path d="M3.797 13.7001V2.73682H0V0.449707H10.3502V2.73682H6.54507V13.7001H3.797Z" fill="white"/>
<path d="M11.2805 1.38588C11.2805 0.587762 11.9185 0 12.7016 0C13.4847 0 14.1226 0.587762 14.1226 1.38588C14.1226 2.16544 13.4847 2.77176 12.7016 2.77176C11.9164 2.77382 11.2805 2.1675 11.2805 1.38588ZM11.3705 3.85654H14.0286V13.7H11.3705V3.85654Z" fill="white"/>
<path d="M15.7952 3.85663H18.3633V5.62815H18.4185C18.9747 4.37014 19.9663 3.71021 21.4671 3.71021C23.6345 3.71021 24.8532 5.08783 24.8532 7.39144V13.7001H22.1951V7.9524C22.1951 6.66758 21.6041 5.93339 20.3916 5.93339C19.1894 5.93339 18.4533 6.814 18.4533 8.10089V13.7022H15.7952V3.85663Z" fill="white"/>
<path d="M32.6089 3.85666H35.6227L31.8994 8.0803L35.8047 13.7001H32.7459L29.9508 9.69716L29.2597 10.4499V13.7001H26.6016V0.449707H29.2597V7.80395H29.2965L32.6089 3.85666Z" fill="white"/>
<path d="M45.0159 10.6869C44.7256 12.6048 42.959 13.8731 40.5646 13.8731C37.5794 13.8731 35.7576 11.9552 35.7576 8.82252C35.7576 5.6816 37.5876 3.68115 40.4645 3.68115C43.2964 3.68115 45.0977 5.58261 45.0977 8.57504V9.39172H38.3707V9.55671C38.3707 10.9426 39.2724 11.8892 40.6096 11.8892C41.5645 11.8892 42.3292 11.4293 42.5766 10.6869H45.0159ZM38.3993 7.75011H42.5419C42.4867 6.4921 41.6688 5.66511 40.4931 5.66511C39.3358 5.66511 38.4893 6.51891 38.3993 7.75011Z" fill="white"/>
<path d="M46.4636 3.85643H49.0318V5.62797H49.087C49.4243 4.40707 50.2606 3.73682 51.4077 3.73682C51.7164 3.73682 51.972 3.77394 52.1642 3.83787V6.19717C51.9455 6.10436 51.5815 6.04043 51.1991 6.04043C49.8885 6.04043 49.1238 6.84886 49.1238 8.23474V13.6978H46.4657V3.85643H46.4636Z" fill="white"/>
<path d="M62.5041 13.7001V7.66783H55.2945V13.7001H53.6567V0.449707H55.2945V6.17884H62.5041V0.449707H64.1419V13.6981H62.5041V13.7001Z" fill="white"/>
<path d="M74.2204 13.7H72.7175V12.112H72.6807C72.098 13.2236 71.1329 13.7928 69.6771 13.7928C67.6099 13.7928 66.3994 12.4441 66.3994 10.2766V4.15148H67.9841V9.99197C67.9841 11.5428 68.7038 12.3801 70.1698 12.3801C71.7075 12.3801 72.6378 11.316 72.6378 9.69087V4.14941H74.2224V13.7H74.2204Z" fill="white"/>
<path d="M77.8989 12.0833H77.8621V13.7001H76.3511V0.449707H77.9357V5.70244H77.9725C78.5634 4.65478 79.6655 4.05877 81.0048 4.05877C83.3889 4.05877 85.0001 6.0056 85.0001 8.92585C85.0001 11.8543 83.3889 13.7929 80.9762 13.7929C79.5919 13.7909 78.5082 13.1845 77.8989 12.0833ZM77.9255 8.92379C77.9255 10.9799 79.0358 12.3761 80.6654 12.3761C82.3032 12.3761 83.3787 11.0274 83.3787 8.92379C83.3787 6.83053 82.3052 5.47146 80.6654 5.47146C79.0358 5.47146 77.9255 6.87796 77.9255 8.92379Z" fill="white"/>
<path d="M0 25.5196V18.7444H4.07923V19.5043H0.837608V21.8338H3.81235V22.5855H0.837608V25.5216H0V25.5196Z" fill="white"/>
<path d="M4.48364 23.0782C4.48364 21.519 5.38695 20.552 6.72753 20.552C8.064 20.552 8.96731 21.519 8.96731 23.0782C8.96731 24.6333 8.064 25.6044 6.72753 25.6044C5.38695 25.6044 4.48364 24.6333 4.48364 23.0782ZM8.14407 23.0782C8.14407 21.9269 7.58566 21.2705 6.72958 21.2705C5.8735 21.2705 5.30893 21.929 5.30893 23.0782C5.30893 24.2295 5.87144 24.8859 6.72958 24.8859C7.58566 24.8859 8.14407 24.2295 8.14407 23.0782Z" fill="white"/>
<path d="M13.7591 25.5196H12.9913V24.7265H12.9728C12.6833 25.2897 12.1803 25.6045 11.4372 25.6045C10.3799 25.6045 9.76196 24.9149 9.76196 23.8051V20.637H10.5729V23.6622C10.5729 24.4553 10.9404 24.8839 11.6897 24.8839C12.476 24.8839 12.9523 24.3393 12.9523 23.5069V20.637H13.7632V25.5196H13.7591Z" fill="white"/>
<path d="M14.8059 20.6369H15.5696V21.4155H15.588C15.859 20.8895 16.3743 20.552 17.1237 20.552C18.185 20.552 18.7989 21.2415 18.7989 22.3514V25.5216H17.9879V22.4963C17.9879 21.7074 17.6205 21.2747 16.8752 21.2747C16.1115 21.2747 15.6127 21.8192 15.6127 22.6454V25.5195H14.8018V20.6369H14.8059Z" fill="white"/>
<path d="M19.5935 23.0783C19.5935 21.5481 20.427 20.5521 21.6465 20.5521C22.3404 20.5521 22.8988 20.8958 23.1882 21.43H23.2067V18.7444H24.0176V25.5216H23.2437V24.6955H23.2293C22.9172 25.2587 22.3629 25.6065 21.6649 25.6065C20.4311 25.6045 19.5935 24.6085 19.5935 23.0783ZM20.4229 23.0783C20.4229 24.1861 20.9628 24.886 21.8189 24.886C22.6524 24.886 23.2108 24.1716 23.2108 23.0783C23.2108 21.9891 22.6524 21.2706 21.8189 21.2706C20.9628 21.2706 20.4229 21.9746 20.4229 23.0783Z" fill="white"/>
<path d="M24.9148 24.1403C24.9148 23.3038 25.5533 22.7778 26.6701 22.7136L28.0579 22.6329V22.225C28.0579 21.6286 27.6658 21.2725 26.9965 21.2725C26.3724 21.2725 25.9823 21.5686 25.8797 22.0469H25.0975C25.1529 21.2021 25.8694 20.554 27.015 20.554C28.1502 20.554 28.8688 21.1731 28.8688 22.1463V25.5235H28.101V24.6828H28.0825C27.793 25.2419 27.1792 25.6084 26.5264 25.6084C25.5635 25.6043 24.9148 25.0183 24.9148 24.1403ZM28.0579 23.6662V23.2665L26.7625 23.3473C26.1096 23.3887 25.738 23.6806 25.738 24.1403C25.738 24.6062 26.124 24.9106 26.707 24.9106C27.4707 24.9106 28.0579 24.3702 28.0579 23.6662Z" fill="white"/>
<path d="M30.969 19.4565V20.6347H31.9093V21.3056H30.969V24.2087C30.969 24.6539 31.1558 24.8568 31.5705 24.8568C31.6629 24.8568 31.8497 24.8423 31.9051 24.834V25.5194C31.8066 25.5422 31.5849 25.5567 31.394 25.5567C30.505 25.5567 30.1601 25.1902 30.1601 24.2501V21.3077H29.4375V20.6368H30.1601V19.4586H30.969V19.4565Z" fill="white"/>
<path d="M32.7097 19.2558C32.7097 18.9701 32.9376 18.7444 33.2168 18.7444C33.5001 18.7444 33.7239 18.9701 33.7239 19.2558C33.7239 19.5374 33.5001 19.7673 33.2168 19.7673C32.9376 19.7673 32.7097 19.5374 32.7097 19.2558ZM32.8124 20.637H33.6233V25.5216H32.8124V20.637Z" fill="white"/>
<path d="M34.4795 23.0782C34.4795 21.519 35.3828 20.552 36.7234 20.552C38.0599 20.552 38.9632 21.519 38.9632 23.0782C38.9632 24.6333 38.0599 25.6044 36.7234 25.6044C35.3828 25.6044 34.4795 24.6333 34.4795 23.0782ZM38.1399 23.0782C38.1399 21.9269 37.5815 21.2705 36.7254 21.2705C35.8693 21.2705 35.3048 21.929 35.3048 23.0782C35.3048 24.2295 35.8673 24.8859 36.7254 24.8859C37.5795 24.8859 38.1399 24.2295 38.1399 23.0782Z" fill="white"/>
<path d="M39.778 20.6369H40.5417V21.4155H40.5602C40.8312 20.8895 41.3465 20.552 42.0958 20.552C43.1572 20.552 43.771 21.2415 43.771 22.3514V25.5216H42.9601V22.4963C42.9601 21.7074 42.5926 21.2747 41.8474 21.2747C41.0837 21.2747 40.5848 21.8192 40.5848 22.6454V25.5195H39.7739V20.6369H39.778Z" fill="white"/>
</g>
</g>
</g>
<defs>
<clipPath id="clip0_434_1820">
<rect width="85" height="26" fill="white"/>
</clipPath>
<clipPath id="clip1_434_1820">
<rect width="85" height="26" fill="white"/>
</clipPath>
<clipPath id="clip2_434_1820">
<rect width="85" height="26" fill="white"/>
</clipPath>
</defs>
</svg>
