<svg width="210" height="56" viewBox="0 0 210 56" fill="none" xmlns="http://www.w3.org/2000/svg">
<path d="M11.466 22.8639C19.0876 22.8639 22.0552 19.484 22.0552 15.6734C22.0552 12.8237 20.5714 10.0402 15.0407 9.24497L7.95877 8.21775C6.74472 8.05207 6.34004 7.72071 6.34004 7.02485C6.34004 6.06391 7.04823 5.63314 10.2857 5.63314C14.5349 5.63314 15.2431 6.16331 15.2431 7.75385V8.25089H21.5831V8.05207C21.5831 3.08166 18.1433 0 10.9602 0C2.79906 0 0 3.71124 0 7.25681C0 10.8355 2.12459 13.0556 6.34004 13.6189L13.422 14.5467C15.2768 14.7787 15.7152 15.1101 15.7152 15.9053C15.7152 16.8994 15.3105 17.1976 11.466 17.1976C7.21685 17.1976 6.67727 16.8 6.67727 15.3089V14.613H0.337236V14.8118C0.337236 20.445 4.55269 22.8639 11.466 22.8639ZM28.6514 22.5325L30.405 18.4237H41.1291L42.849 22.5325H50.1333L40.3534 0.331361H31.2818L21.5357 22.5325H28.6514ZM34.1146 9.70888L35.5647 5.9645H36.0031L37.4869 9.70888L38.8022 12.8237H32.7994L34.1146 9.70888ZM63.9642 22.5325V5.93136H71.9229V0.331361H49.6317V5.93136H57.6241V22.5325H63.9642ZM84.1783 22.8639C92.0696 22.8639 95.7118 19.1195 95.7118 13.2213V0.331361H89.3717V12.7243C89.3717 15.8722 88.4612 16.8331 84.1783 16.8331C79.8954 16.8331 78.9849 15.8722 78.9849 12.7243V0.331361H72.6448V13.2213C72.6448 19.1195 76.287 22.8639 84.1783 22.8639ZM103.277 22.5325V14.9775H105.874C108.336 14.9775 109.01 15.4414 109.819 17.0982L112.517 22.5325H119.835L117.036 16.9657C116.193 15.2757 115.451 14.1822 113.124 13.5858V13.2544C117.441 12.7243 119.228 10.6367 119.228 7.12426C119.228 2.78343 116.092 0.331361 110.123 0.331361H96.937V22.5325H103.277ZM103.277 5.93136H110.055C111.91 5.93136 112.585 6.36213 112.585 8.11834C112.585 10.0071 111.91 10.3385 110.055 10.3385H103.277V5.93136ZM131.975 22.5325C139.428 22.5325 144.149 18.4568 144.149 11.432C144.149 4.4071 139.428 0.331361 131.975 0.331361H120.543V22.5325H131.975ZM131.975 5.93136C135.988 5.93136 137.371 6.4284 137.371 11.432C137.371 16.4355 135.988 16.9325 131.975 16.9325H126.883V5.93136H131.975ZM150.919 22.5325L152.673 18.4237H163.397L165.117 22.5325H172.401L162.621 0.331361H153.55L143.804 22.5325H150.919ZM156.382 9.70888L157.833 5.9645H158.271L159.755 9.70888L161.07 12.8237H155.067L156.382 9.70888ZM187.379 22.5325V15.5077L197.732 0.331361H189.84L186.434 5.6L184.512 8.71479H184.074L182.151 5.6L178.745 0.331361H170.888L181.039 15.4746V22.5325H187.379ZM6.84589 55.6686V47.3183H17.3677V55.6686H23.7077V33.4675H17.3677V41.7183H6.84589V33.4675H0.505854V55.6686H6.84589ZM30.8251 55.6686L32.5787 51.5598H43.3028L45.0227 55.6686H52.307L42.5271 33.4675H33.4555L23.7077 55.6686H30.8251ZM36.2883 42.845L37.7384 39.1006H38.1768L39.6606 42.845L40.9759 45.9598H34.9731L36.2883 42.845ZM64.4517 56C72.0395 56 76.5922 52.4544 76.5922 46.5231V45.9598H69.5102V46.5231C69.5102 49.0414 68.2962 50.0355 64.5529 50.0355C59.9665 50.0355 58.7187 48.9751 58.7187 44.568C58.7187 40.1609 59.9665 39.1006 64.5529 39.1006C68.2962 39.1006 69.5102 40.0947 69.5102 42.613V43.1763H76.5922V42.613C76.5922 36.6817 72.0395 33.1361 64.4517 33.1361C56.5941 33.1361 51.974 37.6426 51.974 44.568C51.974 51.4935 56.5941 56 64.4517 56ZM83.9281 55.6686V47.7822H88.5483L93.8091 55.6686H101.397L93.7417 44.3692L101.566 33.4675H93.9778L88.4808 41.7183H83.9281V33.4675H77.5881V55.6686H83.9281ZM111.956 55.6686V46.987L111.686 42.7456H112.124L114.991 47.1195L121.668 55.6686H128.413V33.4675H122.073V42.0497L122.376 46.8876H121.938L118.633 41.7846L112.36 33.4675H105.616V55.6686H111.956ZM136.113 55.6686V33.4675H129.773V55.6686H136.113ZM148.39 56C153.684 56 155.607 53.5148 156.214 50.9302H156.551V55.6686H162.452V43.5408H149.098V48.1136H156.045C155.741 49.8036 154.393 50.0355 149.705 50.0355C145.119 50.0355 143.871 48.9751 143.871 44.568C143.871 40.1609 145.186 39.1006 150.042 39.1006C154.055 39.1006 155.337 39.8959 155.337 41.9503V42.1823H162.419V41.9503C162.419 36.4497 157.866 33.1361 150.211 33.1361C141.982 33.1361 137.126 37.6426 137.126 44.568C137.126 51.4935 141.274 56 148.39 56ZM170.002 55.6686V47.3183H180.524V55.6686H186.864V33.4675H180.524V41.7183H170.002V33.4675H163.662V55.6686H170.002ZM202.041 55.6686V39.0675H210V33.4675H187.709V39.0675H195.701V55.6686H202.041Z" fill="white"/>
</svg>
